<svg width="24" height="24" viewBox="0 0 24 24" fill="none" xmlns="http://www.w3.org/2000/svg">
<path fill-rule="evenodd" clip-rule="evenodd" d="M8.93853 5.60896C9.90914 5.20693 10.9494 5 12 5C13.0506 5 14.0909 5.20693 15.0615 5.60896C16.0321 6.011 16.914 6.60028 17.6569 7.34315C18.3997 8.08601 18.989 8.96793 19.391 9.93853C19.7931 10.9091 20 11.9494 20 13C20 14.0506 19.7931 15.0909 19.391 16.0615C18.989 17.0321 18.3997 17.914 17.6569 18.6569C16.914 19.3997 16.0321 19.989 15.0615 20.391C14.0909 20.7931 13.0506 21 12 21C10.9494 21 9.90914 20.7931 8.93853 20.391C7.96793 19.989 7.08601 19.3997 6.34315 18.6569C5.60028 17.914 5.011 17.0321 4.60896 16.0615C4.20693 15.0909 4 14.0506 4 13C4 11.9494 4.20693 10.9091 4.60896 9.93853C5.011 8.96793 5.60028 8.08601 6.34315 7.34315C7.08601 6.60028 7.96793 6.011 8.93853 5.60896ZM12 7C11.2121 7 10.4319 7.15519 9.7039 7.45672C8.97595 7.75825 8.31451 8.20021 7.75736 8.75736C7.20021 9.31451 6.75825 9.97595 6.45672 10.7039C6.15519 11.4319 6 12.2121 6 13C6 13.7879 6.15519 14.5681 6.45672 15.2961C6.75825 16.0241 7.20021 16.6855 7.75736 17.2426C8.31451 17.7998 8.97595 18.2417 9.7039 18.5433C10.4319 18.8448 11.2121 19 12 19C12.7879 19 13.5681 18.8448 14.2961 18.5433C15.0241 18.2417 15.6855 17.7998 16.2426 17.2426C16.7998 16.6855 17.2417 16.0241 17.5433 15.2961C17.8448 14.5681 18 13.7879 18 13C18 12.2121 17.8448 11.4319 17.5433 10.7039C17.2417 9.97595 16.7998 9.31451 16.2426 8.75736C15.6855 8.20021 15.0241 7.75825 14.2961 7.45672C13.5681 7.15519 12.7879 7 12 7Z" fill="#1A1A1A"/>
<path fill-rule="evenodd" clip-rule="evenodd" d="M12 9C12.5523 9 13 9.44772 13 10V12H14C14.5523 12 15 12.4477 15 13C15 13.5523 14.5523 14 14 14H12C11.4477 14 11 13.5523 11 13V10C11 9.44772 11.4477 9 12 9Z" fill="#808080"/>
<path fill-rule="evenodd" clip-rule="evenodd" d="M7.80868 3.41184C8.13352 3.85849 8.03477 4.48391 7.58812 4.80875L4.83812 6.80875C4.39147 7.13358 3.76605 7.03483 3.44121 6.58818C3.11637 6.14153 3.21512 5.51611 3.66178 5.19127L6.41178 3.19127C6.85843 2.86644 7.48385 2.96519 7.80868 3.41184Z" fill="#808080"/>
<path fill-rule="evenodd" clip-rule="evenodd" d="M16.1912 3.41184C16.5161 2.96519 17.1415 2.86644 17.5881 3.19127L20.3381 5.19127C20.7848 5.51611 20.8835 6.14153 20.5587 6.58818C20.2338 7.03483 19.6084 7.13358 19.1618 6.80875L16.4118 4.80875C15.9651 4.48391 15.8664 3.85849 16.1912 3.41184Z" fill="#808080"/>
</svg>
