<svg width="24" height="24" viewBox="0 0 24 24" fill="none" xmlns="http://www.w3.org/2000/svg">
<path fill-rule="evenodd" clip-rule="evenodd" d="M17.4994 12C18.0517 12 18.4994 12.4477 18.4994 13V14.7143C18.4994 15.2666 18.0517 15.7143 17.4994 15.7143C16.9472 15.7143 16.4994 15.2666 16.4994 14.7143V13C16.4994 12.4477 16.9472 12 17.4994 12ZM13.1317 14.5041C13.4056 14.0245 14.0164 13.8577 14.496 14.1316L15.9969 14.9888C16.4764 15.2627 16.6432 15.8735 16.3693 16.3531C16.0954 16.8326 15.4846 16.9994 15.005 16.7255L13.5041 15.8684C13.0245 15.5945 12.8578 14.9837 13.1317 14.5041ZM21.8671 14.5038C22.1412 14.9833 21.9746 15.5942 21.4951 15.8682L19.9954 16.7253C19.5159 16.9994 18.905 16.8328 18.631 16.3533C18.3569 15.8739 18.5235 15.263 19.003 14.9889L20.5027 14.1318C20.9822 13.8577 21.5931 14.0243 21.8671 14.5038ZM16.3693 17.6469C16.6432 18.1265 16.4764 18.7373 15.9969 19.0112L14.496 19.8684C14.0164 20.1423 13.4056 19.9755 13.1317 19.4959C12.8578 19.0163 13.0245 18.4055 13.5041 18.1316L15.005 17.2745C15.4846 17.0006 16.0954 17.1673 16.3693 17.6469ZM18.6308 17.6469C18.9047 17.1673 19.5155 17.0006 19.9951 17.2745L21.496 18.1316C21.9756 18.4055 22.1423 19.0163 21.8685 19.4959C21.5946 19.9755 20.9838 20.1423 20.5042 19.8684L19.0033 19.0112C18.5237 18.7373 18.3569 18.1265 18.6308 17.6469ZM17.4994 18.2857C18.0517 18.2857 18.4994 18.7334 18.4994 19.2857V21C18.4994 21.5523 18.0517 22 17.4994 22C16.9472 22 16.4994 21.5523 16.4994 21V19.2857C16.4994 18.7334 16.9472 18.2857 17.4994 18.2857Z" fill="#808080"/>
<path fill-rule="evenodd" clip-rule="evenodd" d="M15.2024 14.702C15.8118 14.0925 16.6383 13.75 17.5001 13.75C18.362 13.75 19.1885 14.0925 19.7979 14.702C20.4072 15.3115 20.7494 16.1381 20.7494 17C20.7494 17.8619 20.4072 18.6885 19.7979 19.298C19.1885 19.9075 18.362 20.25 17.5001 20.25C16.6383 20.25 15.8118 19.9075 15.2024 19.298C14.5931 18.6885 14.2509 17.8619 14.2509 17C14.2509 16.1381 14.5931 15.3115 15.2024 14.702ZM17.5001 15.7283C17.1631 15.7283 16.8399 15.8622 16.6015 16.1006C16.3631 16.3391 16.2291 16.6626 16.2291 17C16.2291 17.3374 16.3631 17.6609 16.6015 17.8994C16.8399 18.1378 17.1631 18.2717 17.5001 18.2717C17.8371 18.2717 18.1604 18.1378 18.3988 17.8994C18.6372 17.6609 18.7712 17.3374 18.7712 17C18.7712 16.6626 18.6372 16.3391 18.3988 16.1006C18.1604 15.8622 17.8371 15.7283 17.5001 15.7283Z" fill="#1A1A1A"/>
<path fill-rule="evenodd" clip-rule="evenodd" d="M9.78125 7.25C9.22897 7.25 8.78125 7.69772 8.78125 8.25V9.875H8.03125C7.47897 9.875 7.03125 10.3227 7.03125 10.875C7.03125 11.4273 7.47897 11.875 8.03125 11.875H9.78125C10.3335 11.875 10.7812 11.4273 10.7812 10.875V8.25C10.7812 7.69772 10.3335 7.25 9.78125 7.25Z" fill="#808080"/>
<path fill-rule="evenodd" clip-rule="evenodd" d="M7.05463 4.29236C7.91908 3.93429 8.84558 3.75 9.78125 3.75C10.7169 3.75 11.6434 3.93429 12.5079 4.29236C13.3723 4.65042 14.1578 5.17525 14.8194 5.83686C15.481 6.49848 16.0058 7.28393 16.3639 8.14838C16.4382 8.3277 16.505 8.50969 16.5642 8.69388C16.7333 9.21965 16.4441 9.78293 15.9183 9.95199C15.3926 10.1211 14.8293 9.83189 14.6602 9.30612C14.6176 9.17364 14.5696 9.04273 14.5161 8.91375C14.2586 8.29195 13.8811 7.72698 13.4052 7.25108C12.9293 6.77518 12.3643 6.39767 11.7425 6.14012C11.1207 5.88256 10.4543 5.75 9.78125 5.75C9.10823 5.75 8.44179 5.88256 7.82 6.14012C7.1982 6.39767 6.63323 6.77518 6.15733 7.25108C5.68143 7.72698 5.30392 8.29195 5.04637 8.91375C4.78881 9.53554 4.65625 10.202 4.65625 10.875C4.65625 11.548 4.78881 12.2145 5.04637 12.8363C5.30392 13.458 5.68143 14.023 6.15733 14.4989C6.63323 14.9748 7.1982 15.3523 7.82 15.6099C8.23943 15.7836 8.67917 15.9005 9.12755 15.9581C9.67532 16.0286 10.0623 16.5297 9.99183 17.0775C9.92139 17.6253 9.42022 18.0122 8.87245 17.9418C8.2491 17.8616 7.63774 17.6992 7.05463 17.4576C6.19018 17.0996 5.40473 16.5748 4.74311 15.9131C4.0815 15.2515 3.55667 14.4661 3.19861 13.6016C2.84054 12.7372 2.65625 11.8107 2.65625 10.875C2.65625 9.93933 2.84054 9.01283 3.19861 8.14838C3.55667 7.28394 4.0815 6.49848 4.74311 5.83686C5.40473 5.17525 6.19019 4.65042 7.05463 4.29236Z" fill="#1A1A1A"/>
<path fill-rule="evenodd" clip-rule="evenodd" d="M13.3475 2.41184C13.6723 1.96519 14.2977 1.86644 14.7444 2.19127L17.1506 3.94127C17.5973 4.26611 17.696 4.89153 17.3712 5.33818C17.0463 5.78483 16.4209 5.88358 15.9743 5.55875L13.568 3.80875C13.1214 3.48391 13.0226 2.85849 13.3475 2.41184Z" fill="#808080"/>
<path fill-rule="evenodd" clip-rule="evenodd" d="M6.21493 2.41184C6.53977 2.85849 6.44102 3.48391 5.99437 3.80875L3.58812 5.55875C3.14147 5.88358 2.51605 5.78483 2.19121 5.33818C1.86637 4.89153 1.96512 4.26611 2.41178 3.94127L4.81803 2.19127C5.26468 1.86644 5.8901 1.96519 6.21493 2.41184Z" fill="#808080"/>
</svg>
