<svg width="24" height="24" viewBox="0 0 24 24" fill="none" xmlns="http://www.w3.org/2000/svg">
<path fill-rule="evenodd" clip-rule="evenodd" d="M14.4086 19.098C14.988 18.5305 15.7705 18.2143 16.5833 18.2143H18.9167C19.7295 18.2143 20.512 18.5305 21.0914 19.098C21.6713 19.6661 22 20.4398 22 21.25C22 21.6642 21.6642 22 21.25 22C20.8358 22 20.5 21.6642 20.5 21.25C20.5 20.8478 20.337 20.4588 20.0417 20.1695C19.7459 19.8798 19.3415 19.7143 18.9167 19.7143H16.5833C16.1585 19.7143 15.7541 19.8798 15.4583 20.1695C15.163 20.4588 15 20.8478 15 21.25C15 21.6642 14.6642 22 14.25 22C13.8358 22 13.5 21.6642 13.5 21.25C13.5 20.4398 13.8287 19.6661 14.4086 19.098Z" fill="#1A1A1A"/>
<path fill-rule="evenodd" clip-rule="evenodd" d="M15.5752 13.3837C16.1546 12.8162 16.9371 12.5 17.75 12.5C18.5628 12.5 19.3453 12.8162 19.9247 13.3837C20.5046 13.9518 20.8333 14.7255 20.8333 15.5357C20.8333 16.3459 20.5046 17.1197 19.9247 17.6877C19.3453 18.2553 18.5628 18.5714 17.75 18.5714C16.9371 18.5714 16.1546 18.2553 15.5752 17.6877C14.9953 17.1197 14.6666 16.3459 14.6666 15.5357C14.6666 14.7255 14.9953 13.9518 15.5752 13.3837ZM17.75 14C17.3251 14 16.9207 14.1655 16.6249 14.4552C16.3296 14.7445 16.1666 15.1335 16.1666 15.5357C16.1666 15.938 16.3296 16.3269 16.6249 16.6162C16.9207 16.906 17.3251 17.0714 17.75 17.0714C18.1748 17.0714 18.5792 16.906 18.875 16.6162C19.1703 16.3269 19.3333 15.938 19.3333 15.5357C19.3333 15.1335 19.1703 14.7445 18.875 14.4552C18.5792 14.1655 18.1748 14 17.75 14Z" fill="#808080"/>
<path fill-rule="evenodd" clip-rule="evenodd" d="M9.78125 7.25C9.22897 7.25 8.78125 7.69772 8.78125 8.25V9.875H8.03125C7.47897 9.875 7.03125 10.3227 7.03125 10.875C7.03125 11.4273 7.47897 11.875 8.03125 11.875H9.78125C10.3335 11.875 10.7812 11.4273 10.7812 10.875V8.25C10.7812 7.69772 10.3335 7.25 9.78125 7.25Z" fill="#808080"/>
<path fill-rule="evenodd" clip-rule="evenodd" d="M7.05463 4.29236C7.91908 3.93429 8.84558 3.75 9.78125 3.75C10.7169 3.75 11.6434 3.93429 12.5079 4.29236C13.3723 4.65042 14.1578 5.17525 14.8194 5.83686C15.481 6.49848 16.0058 7.28393 16.3639 8.14838C16.4382 8.3277 16.505 8.50969 16.5642 8.69388C16.7333 9.21965 16.4441 9.78293 15.9183 9.95199C15.3926 10.1211 14.8293 9.83189 14.6602 9.30612C14.6176 9.17364 14.5696 9.04273 14.5161 8.91375C14.2586 8.29195 13.8811 7.72698 13.4052 7.25108C12.9293 6.77518 12.3643 6.39767 11.7425 6.14012C11.1207 5.88256 10.4543 5.75 9.78125 5.75C9.10823 5.75 8.44179 5.88256 7.82 6.14012C7.1982 6.39767 6.63323 6.77518 6.15733 7.25108C5.68143 7.72698 5.30392 8.29195 5.04637 8.91375C4.78881 9.53554 4.65625 10.202 4.65625 10.875C4.65625 11.548 4.78881 12.2145 5.04637 12.8363C5.30392 13.458 5.68143 14.023 6.15733 14.4989C6.63323 14.9748 7.1982 15.3523 7.82 15.6099C8.23943 15.7836 8.67917 15.9005 9.12755 15.9581C9.67532 16.0286 10.0623 16.5297 9.99183 17.0775C9.92139 17.6253 9.42022 18.0122 8.87245 17.9418C8.2491 17.8616 7.63774 17.6992 7.05463 17.4576C6.19018 17.0996 5.40473 16.5748 4.74311 15.9131C4.0815 15.2515 3.55667 14.4661 3.19861 13.6016C2.84054 12.7372 2.65625 11.8107 2.65625 10.875C2.65625 9.93933 2.84054 9.01283 3.19861 8.14838C3.55667 7.28394 4.0815 6.49848 4.74311 5.83686C5.40473 5.17525 6.19019 4.65042 7.05463 4.29236Z" fill="#1A1A1A"/>
<path fill-rule="evenodd" clip-rule="evenodd" d="M13.3475 2.41184C13.6723 1.96519 14.2977 1.86644 14.7444 2.19127L17.1506 3.94127C17.5973 4.26611 17.696 4.89153 17.3712 5.33818C17.0463 5.78483 16.4209 5.88358 15.9743 5.55875L13.568 3.80875C13.1214 3.48391 13.0226 2.85849 13.3475 2.41184Z" fill="#808080"/>
<path fill-rule="evenodd" clip-rule="evenodd" d="M6.21493 2.41184C6.53977 2.85849 6.44102 3.48391 5.99437 3.80875L3.58812 5.55875C3.14147 5.88358 2.51605 5.78483 2.19121 5.33818C1.86637 4.89153 1.96512 4.26611 2.41178 3.94127L4.81803 2.19127C5.26468 1.86644 5.8901 1.96519 6.21493 2.41184Z" fill="#808080"/>
</svg>
