<svg width="24" height="24" viewBox="0 0 24 24" fill="none" xmlns="http://www.w3.org/2000/svg">
<path fill-rule="evenodd" clip-rule="evenodd" d="M18.0002 14C18.5525 14 19.0002 14.4477 19.0002 15V17H21.0002C21.5525 17 22.0002 17.4477 22.0002 18C22.0002 18.5523 21.5525 19 21.0002 19H19.0002V21C19.0002 21.5523 18.5525 22 18.0002 22C17.448 22 17.0002 21.5523 17.0002 21V19H15.0002C14.448 19 14.0002 18.5523 14.0002 18C14.0002 17.4477 14.448 17 15.0002 17H17.0002V15C17.0002 14.4477 17.448 14 18.0002 14Z" fill="#1A1A1A"/>
<path fill-rule="evenodd" clip-rule="evenodd" d="M9.78125 7.25C9.22897 7.25 8.78125 7.69772 8.78125 8.25V9.875H8.03125C7.47897 9.875 7.03125 10.3227 7.03125 10.875C7.03125 11.4273 7.47897 11.875 8.03125 11.875H9.78125C10.3335 11.875 10.7812 11.4273 10.7812 10.875V8.25C10.7812 7.69772 10.3335 7.25 9.78125 7.25Z" fill="#808080"/>
<path fill-rule="evenodd" clip-rule="evenodd" d="M9.7771 5.75504C6.94668 5.75504 4.65186 8.05002 4.65186 10.8814C4.65186 13.7128 6.94668 16.0078 9.7771 16.0078C10.1285 16.0078 10.4706 15.9726 10.8005 15.9058C11.3418 15.7962 11.8695 16.1462 11.9791 16.6875C12.0887 17.2288 11.7387 17.7564 11.1974 17.866C10.7376 17.9591 10.2625 18.0078 9.7771 18.0078C5.84176 18.0078 2.65186 14.817 2.65186 10.8814C2.65186 6.9458 5.84176 3.75504 9.7771 3.75504C13.7124 3.75504 16.9023 6.9458 16.9023 10.8814C16.9023 10.9398 16.9016 10.9981 16.9002 11.0562C16.8869 11.6083 16.4285 12.0451 15.8764 12.0318C15.3243 12.0184 14.8875 11.56 14.9008 11.0079C14.9018 10.9659 14.9023 10.9237 14.9023 10.8814C14.9023 8.05002 12.6075 5.75504 9.7771 5.75504Z" fill="#1A1A1A"/>
<path fill-rule="evenodd" clip-rule="evenodd" d="M13.3475 2.41184C13.6723 1.96519 14.2977 1.86644 14.7444 2.19127L17.1506 3.94127C17.5973 4.26611 17.696 4.89153 17.3712 5.33818C17.0463 5.78483 16.4209 5.88358 15.9743 5.55875L13.568 3.80875C13.1214 3.48391 13.0226 2.85849 13.3475 2.41184Z" fill="#808080"/>
<path fill-rule="evenodd" clip-rule="evenodd" d="M6.21493 2.41184C6.53977 2.85849 6.44102 3.48391 5.99437 3.80875L3.58812 5.55875C3.14147 5.88358 2.51605 5.78483 2.19121 5.33818C1.86637 4.89153 1.96512 4.26611 2.41178 3.94127L4.81803 2.19127C5.26468 1.86644 5.8901 1.96519 6.21493 2.41184Z" fill="#808080"/>
</svg>
