<svg width="24" height="24" viewBox="0 0 24 24" fill="none" xmlns="http://www.w3.org/2000/svg">
<path fill-rule="evenodd" clip-rule="evenodd" d="M17.25 14C15.4551 14 14 15.4551 14 17.25C14 19.0449 15.4551 20.5 17.25 20.5C19.0449 20.5 20.5 19.0449 20.5 17.25C20.5 15.4551 19.0449 14 17.25 14ZM12.5 17.25C12.5 14.6266 14.6266 12.5 17.25 12.5C19.8734 12.5 22 14.6266 22 17.25C22 19.8734 19.8734 22 17.25 22C14.6266 22 12.5 19.8734 12.5 17.25Z" fill="#1A1A1A"/>
<path fill-rule="evenodd" clip-rule="evenodd" d="M15.7197 15.7197C16.0126 15.4268 16.4874 15.4268 16.7803 15.7197L17.25 16.1893L17.7197 15.7197C18.0126 15.4268 18.4874 15.4268 18.7803 15.7197C19.0732 16.0126 19.0732 16.4874 18.7803 16.7803L18.3107 17.25L18.7803 17.7197C19.0732 18.0126 19.0732 18.4874 18.7803 18.7803C18.4874 19.0732 18.0126 19.0732 17.7197 18.7803L17.25 18.3107L16.7803 18.7803C16.4874 19.0732 16.0126 19.0732 15.7197 18.7803C15.4268 18.4874 15.4268 18.0126 15.7197 17.7197L16.1893 17.25L15.7197 16.7803C15.4268 16.4874 15.4268 16.0126 15.7197 15.7197Z" fill="#808080"/>
<path fill-rule="evenodd" clip-rule="evenodd" d="M9.78125 7.25C9.22897 7.25 8.78125 7.69772 8.78125 8.25V9.875H8.03125C7.47897 9.875 7.03125 10.3227 7.03125 10.875C7.03125 11.4273 7.47897 11.875 8.03125 11.875H9.78125C10.3335 11.875 10.7812 11.4273 10.7812 10.875V8.25C10.7812 7.69772 10.3335 7.25 9.78125 7.25Z" fill="#808080"/>
<path fill-rule="evenodd" clip-rule="evenodd" d="M7.05463 4.29236C7.91908 3.93429 8.84558 3.75 9.78125 3.75C10.7169 3.75 11.6434 3.93429 12.5079 4.29236C13.3723 4.65042 14.1578 5.17525 14.8194 5.83686C15.481 6.49848 16.0058 7.28393 16.3639 8.14838C16.4382 8.3277 16.505 8.50969 16.5642 8.69388C16.7333 9.21965 16.4441 9.78293 15.9183 9.95199C15.3926 10.1211 14.8293 9.83189 14.6602 9.30612C14.6176 9.17364 14.5696 9.04273 14.5161 8.91375C14.2586 8.29195 13.8811 7.72698 13.4052 7.25108C12.9293 6.77518 12.3643 6.39767 11.7425 6.14012C11.1207 5.88256 10.4543 5.75 9.78125 5.75C9.10823 5.75 8.44179 5.88256 7.82 6.14012C7.1982 6.39767 6.63323 6.77518 6.15733 7.25108C5.68143 7.72698 5.30392 8.29195 5.04637 8.91375C4.78881 9.53554 4.65625 10.202 4.65625 10.875C4.65625 11.548 4.78881 12.2145 5.04637 12.8363C5.30392 13.458 5.68143 14.023 6.15733 14.4989C6.63323 14.9748 7.1982 15.3523 7.82 15.6099C8.23943 15.7836 8.67917 15.9005 9.12755 15.9581C9.67532 16.0286 10.0623 16.5297 9.99183 17.0775C9.92139 17.6253 9.42022 18.0122 8.87245 17.9418C8.2491 17.8616 7.63774 17.6992 7.05463 17.4576C6.19018 17.0996 5.40473 16.5748 4.74311 15.9131C4.0815 15.2515 3.55667 14.4661 3.19861 13.6016C2.84054 12.7372 2.65625 11.8107 2.65625 10.875C2.65625 9.93933 2.84054 9.01283 3.19861 8.14838C3.55667 7.28394 4.0815 6.49848 4.74311 5.83686C5.40473 5.17525 6.19019 4.65042 7.05463 4.29236Z" fill="#1A1A1A"/>
<path fill-rule="evenodd" clip-rule="evenodd" d="M13.3475 2.41184C13.6723 1.96519 14.2977 1.86644 14.7444 2.19127L17.1506 3.94127C17.5973 4.26611 17.696 4.89153 17.3712 5.33818C17.0463 5.78483 16.4209 5.88358 15.9743 5.55875L13.568 3.80875C13.1214 3.48391 13.0226 2.85849 13.3475 2.41184Z" fill="#808080"/>
<path fill-rule="evenodd" clip-rule="evenodd" d="M6.21493 2.41184C6.53977 2.85849 6.44102 3.48391 5.99437 3.80875L3.58812 5.55875C3.14147 5.88358 2.51605 5.78483 2.19121 5.33818C1.86637 4.89153 1.96512 4.26611 2.41178 3.94127L4.81803 2.19127C5.26468 1.86644 5.8901 1.96519 6.21493 2.41184Z" fill="#808080"/>
</svg>
