<svg width="24" height="24" viewBox="0 0 24 24" fill="none" xmlns="http://www.w3.org/2000/svg">
<path fill-rule="evenodd" clip-rule="evenodd" d="M12 4C11.7348 4 11.4804 4.10536 11.2929 4.29289C11.1053 4.48043 11 4.73478 11 5C11 5.38652 10.7772 5.73842 10.4279 5.90382C10.232 5.99658 10.0461 6.09653 9.86939 6.20508C9.3988 6.49415 8.78297 6.34701 8.49389 5.87642C8.20482 5.40583 8.35196 4.79 8.82255 4.50092C8.90428 4.45072 8.98678 4.40225 9.07002 4.35542C9.19214 3.80041 9.47053 3.2868 9.87865 2.87868C10.4413 2.31607 11.2043 2 12 2C12.7956 2 13.5587 2.31607 14.1213 2.87868C14.5295 3.28688 14.8079 3.80059 14.93 4.35572C16.0259 4.97224 16.9636 5.83991 17.6641 6.8906C18.4694 8.09857 18.9308 9.50291 18.9989 10.9531C18.9996 10.9687 19 10.9844 19 11V14C19 14.5523 18.5523 15 18 15C17.4477 15 17 14.5523 17 14V11.0244C16.9452 9.9447 16.5998 8.89972 16 8C15.396 7.09402 14.5568 6.36948 13.5725 5.90403C13.2229 5.73873 13 5.38669 13 5C13 4.73478 12.8946 4.48043 12.7071 4.29289C12.5195 4.10536 12.2652 4 12 4ZM7.84969 6.47606C8.30087 6.79457 8.40842 7.41854 8.08991 7.86972C7.43527 8.79704 7.05739 9.891 6.99997 11.0243V14C6.99997 14.0402 6.99755 14.0803 6.99272 14.1202C6.91247 14.7832 6.70037 15.4222 6.37018 16H17C17.5523 16 18 16.4477 18 17C18 17.5523 17.5523 18 17 18H3.99997C3.54581 18 3.14868 17.694 3.03297 17.2548C2.91726 16.8156 3.11202 16.3536 3.50722 16.1298C3.91592 15.8984 4.26457 15.5742 4.52511 15.1834C4.77528 14.8082 4.93749 14.3815 4.99997 13.9353V11C4.99997 10.9844 5.00034 10.9688 5.00107 10.9532C5.07245 9.43108 5.57725 7.96109 6.45603 6.71628C6.77454 6.2651 7.39851 6.15754 7.84969 6.47606Z" fill="#1A1A1A"/>
<path fill-rule="evenodd" clip-rule="evenodd" d="M2.29289 2.29289C2.68342 1.90237 3.31658 1.90237 3.70711 2.29289L21.7071 20.2929C22.0976 20.6834 22.0976 21.3166 21.7071 21.7071C21.3166 22.0976 20.6834 22.0976 20.2929 21.7071L2.29289 3.70711C1.90237 3.31658 1.90237 2.68342 2.29289 2.29289Z" fill="#808080"/>
<path d="M14.235 19C15.1 19 15.557 20.024 14.98 20.668C14.6051 21.0875 14.1459 21.4229 13.6323 21.6525C13.1188 21.8821 12.5625 22.0005 12 22C11.4374 22.0005 10.8812 21.8821 10.3676 21.6525C9.85404 21.4229 9.3948 21.0875 9.01997 20.668C8.46797 20.052 8.86197 19.089 9.65397 19.007L9.76397 19.001L14.235 19Z" fill="#808080"/>
</svg>
