<svg width="24" height="24" viewBox="0 0 24 24" fill="none" xmlns="http://www.w3.org/2000/svg">
<path fill-rule="evenodd" clip-rule="evenodd" d="M12 4C11.8209 4 11.6362 4.07495 11.4904 4.22975C11.3426 4.38655 11.25 4.61127 11.25 4.85714C11.25 5.2354 11.0366 5.58128 10.6985 5.75093C9.86222 6.17059 9.14128 6.82796 8.61876 7.65973C8.09967 8.48603 7.79791 9.45068 7.75003 10.4515V13.2143C7.75003 13.2522 7.74788 13.29 7.74358 13.3276C7.67684 13.9128 7.50593 14.4802 7.23931 15H16.7607C16.4941 14.4802 16.3232 13.9128 16.2565 13.3276C16.2522 13.29 16.25 13.2522 16.25 13.2143V12C16.25 11.4477 16.6977 11 17.25 11C17.8023 11 18.25 11.4477 18.25 12V13.1533C18.3045 13.5652 18.4454 13.9558 18.6593 14.2963C18.8821 14.651 19.1766 14.9394 19.5151 15.1429C19.9003 15.3743 20.0837 15.8343 19.9636 16.2673C19.8436 16.7003 19.4494 17 19 17H5.00003C4.55067 17 4.1565 16.7003 4.0364 16.2673C3.91631 15.8343 4.09978 15.3743 4.48494 15.1429C4.82347 14.9394 5.11799 14.651 5.34079 14.2963C5.55468 13.9558 5.69553 13.5652 5.75003 13.1533V10.4286C5.75003 10.4138 5.75035 10.3991 5.751 10.3844C5.81063 9.03625 6.21482 7.72664 6.92521 6.59583C7.53574 5.62395 8.35421 4.81352 9.31683 4.23109C9.42709 3.72064 9.67172 3.24346 10.0348 2.85814C10.5453 2.31637 11.2509 2 12 2C12.7492 2 13.4547 2.31637 13.9653 2.85814C14.344 3.26009 14.3252 3.89298 13.9233 4.27173C13.5213 4.65049 12.8884 4.63169 12.5097 4.22975C12.3638 4.07495 12.1791 4 12 4Z" fill="#1A1A1A"/>
<path d="M14.98 20.668C15.557 20.024 15.1 19 14.235 19L9.76397 19.001L9.65397 19.007C8.86197 19.089 8.46797 20.052 9.01997 20.668C9.39512 21.0871 9.85443 21.4223 10.3679 21.6518C10.8814 21.8813 11.4375 22 12 22C12.5624 22 13.1185 21.8813 13.632 21.6518C14.1455 21.4223 14.6048 21.0871 14.98 20.668Z" fill="#808080"/>
<circle cx="17" cy="7" r="3" fill="#808080"/>
</svg>
