<svg width="24" height="24" viewBox="0 0 24 24" fill="none" xmlns="http://www.w3.org/2000/svg">
<path fill-rule="evenodd" clip-rule="evenodd" d="M12 4C11.7348 4 11.4804 4.10536 11.2929 4.29289C11.1053 4.48043 11 4.73478 11 5C11 5.38669 10.777 5.73873 10.4274 5.90403C9.44309 6.36948 8.60395 7.09402 7.99997 8C7.40016 8.89972 7.05471 9.94469 6.99997 11.0244V14C6.99997 14.0402 6.99755 14.0803 6.99272 14.1202C6.91247 14.7832 6.70037 15.4222 6.37018 16H17.6298C17.2996 15.4222 17.0875 14.7832 17.0072 14.1202C17.0024 14.0803 17 14.0402 17 14V11.0244C16.9452 9.9447 16.5998 8.89972 16 8C15.396 7.09402 14.5568 6.36948 13.5725 5.90403C13.2229 5.73873 13 5.38669 13 5C13 4.73478 12.8946 4.48043 12.7071 4.29289C12.5195 4.10536 12.2652 4 12 4ZM9.87865 2.87868C10.4413 2.31607 11.2043 2 12 2C12.7956 2 13.5587 2.31607 14.1213 2.87868C14.5295 3.28688 14.8079 3.80059 14.93 4.35572C16.0259 4.97224 16.9636 5.83991 17.6641 6.8906C18.4694 8.09857 18.9308 9.50291 18.9989 10.9531C18.9996 10.9687 19 10.9844 19 11V13.9354C19.0624 14.3815 19.2247 14.8082 19.4748 15.1834C19.7354 15.5742 20.084 15.8984 20.4927 16.1298C20.8879 16.3536 21.0827 16.8156 20.967 17.2548C20.8513 17.694 20.4541 18 20 18H3.99997C3.54581 18 3.14868 17.694 3.03297 17.2548C2.91726 16.8156 3.11202 16.3536 3.50722 16.1298C3.91592 15.8984 4.26457 15.5742 4.52511 15.1834C4.77528 14.8082 4.93749 14.3815 4.99997 13.9353V11C4.99997 10.9844 5.00034 10.9687 5.00107 10.9531C5.06914 9.50291 5.53056 8.09857 6.33587 6.8906C7.03633 5.83991 7.974 4.97224 9.06996 4.35572C9.19204 3.80059 9.47045 3.28688 9.87865 2.87868Z" fill="#1A1A1A"/>
<path d="M14.98 20.668C15.557 20.024 15.1 19 14.235 19L9.76397 19.001L9.65397 19.007C8.86197 19.089 8.46797 20.052 9.01997 20.668C9.39512 21.0871 9.85443 21.4223 10.3679 21.6518C10.8814 21.8813 11.4375 22 12 22C12.5624 22 13.1185 21.8813 13.632 21.6518C14.1455 21.4223 14.6048 21.0871 14.98 20.668Z" fill="#808080"/>
</svg>
