<svg width="24" height="24" viewBox="0 0 24 24" fill="none" xmlns="http://www.w3.org/2000/svg">
<path fill-rule="evenodd" clip-rule="evenodd" d="M11.5668 3.09871C11.9133 2.93219 12.3245 2.979 12.6247 3.21914L17.6247 7.21914C17.8619 7.40891 18 7.69623 18 8.00001C18 8.30379 17.8619 8.59111 17.6247 8.78088L13.6008 12L17.6247 15.2191C17.8619 15.4089 18 15.6962 18 16C18 16.3038 17.8619 16.5911 17.6247 16.7809L12.6247 20.7809C12.3245 21.021 11.9133 21.0678 11.5668 20.9013C11.2203 20.7348 11 20.3844 11 20V14.0806L7.62467 16.7809C7.19341 17.1259 6.56412 17.056 6.21911 16.6247C5.8741 16.1934 5.94402 15.5641 6.37528 15.2191L10.3992 12L6.37528 8.78088C5.94402 8.43587 5.8741 7.80658 6.21911 7.37531C6.56412 6.94405 7.19341 6.87413 7.62467 7.21914L11 9.91938V4.00001C11 3.6156 11.2203 3.26523 11.5668 3.09871ZM13 14.0806L15.3992 16L13 17.9194V14.0806ZM13 9.91938V6.08063L15.3992 8.00001L13 9.91938Z" fill="#1A1A1A"/>
</svg>
