<svg width="24" height="24" viewBox="0 0 24 24" fill="none" xmlns="http://www.w3.org/2000/svg">
<path d="M19 3C19.5523 3 20 3.44772 20 4V20C20 20.5523 19.5523 21 19 21H7C6.20435 21 5.44151 20.6837 4.87891 20.1211C4.3163 19.5585 4 18.7956 4 18V6C4 5.20435 4.3163 4.44152 4.87891 3.87891C5.44152 3.3163 6.20435 3 7 3H19ZM6 18L6.00488 18.0986C6.02757 18.3276 6.12883 18.5429 6.29297 18.707C6.48051 18.8946 6.73478 19 7 19H18V5H7C6.73478 5 6.4805 5.10543 6.29297 5.29297C6.10543 5.4805 6 5.73478 6 6V18Z" fill="#1A1A1A"/>
<path d="M4 18C4 17.2044 4.3163 16.4415 4.87891 15.8789C5.44151 15.3163 6.20435 15 7 15H19C19.5523 15 20 15.4477 20 16C20 16.5523 19.5523 17 19 17H7C6.73478 17 6.48051 17.1054 6.29297 17.293C6.10543 17.4805 6 17.7348 6 18C6 18.5523 5.55228 19 5 19C4.44772 19 4 18.5523 4 18Z" fill="#1A1A1A"/>
<path d="M15 7C15.5523 7 16 7.44772 16 8C16 8.55228 15.5523 9 15 9H9C8.44772 9 8 8.55228 8 8C8 7.44772 8.44772 7 9 7H15Z" fill="#808080"/>
</svg>
