<svg width="24" height="24" viewBox="0 0 24 24" fill="none" xmlns="http://www.w3.org/2000/svg">
<path d="M2 17C2 16.2044 2.3163 15.4415 2.87891 14.8789C3.44151 14.3163 4.20435 14 5 14H9C9.55228 14 10 14.4477 10 15C10 15.5523 9.55228 16 9 16H5C4.73478 16 4.48051 16.1054 4.29297 16.293C4.10543 16.4805 4 16.7348 4 17C4 17.5523 3.55228 18 3 18C2.44772 18 2 17.5523 2 17Z" fill="#1A1A1A"/>
<path d="M2 17V5C2 4.20435 2.3163 3.44152 2.87891 2.87891C3.44152 2.3163 4.20435 2 5 2H17C17.5523 2 18 2.44772 18 3V10C18 10.5523 17.5523 11 17 11C16.4477 11 16 10.5523 16 10V4H5C4.73478 4 4.4805 4.10543 4.29297 4.29297C4.10543 4.4805 4 4.73478 4 5V17L4.00488 17.0986C4.02757 17.3276 4.12883 17.5429 4.29297 17.707C4.48051 17.8946 4.73478 18 5 18H9C9.55228 18 10 18.4477 10 19C10 19.5523 9.55228 20 9 20H5C4.20435 20 3.44151 19.6837 2.87891 19.1211C2.3163 18.5585 2 17.7956 2 17Z" fill="#1A1A1A"/>
<path d="M13 6C13.5523 6 14 6.44772 14 7C14 7.55228 13.5523 8 13 8H7C6.44772 8 6 7.55228 6 7C6 6.44772 6.44772 6 7 6H13Z" fill="#808080"/>
<path d="M16.7498 12.5C17.0277 12.5 17.2829 12.6537 17.4129 12.8994L18.6228 15.1924L21.3504 15.5615C21.6391 15.6006 21.8789 15.8038 21.9656 16.082C22.0522 16.3602 21.97 16.6632 21.7547 16.8594L19.8093 18.6299L20.2654 21.1143C20.3166 21.3931 20.2064 21.6777 19.9802 21.8486C19.7541 22.0195 19.4503 22.0481 19.1961 21.9229L16.7527 20.7188L14.3025 21.9229C14.0482 22.0478 13.7453 22.0186 13.5193 21.8477C13.2934 21.6767 13.183 21.393 13.2341 21.1143L13.6892 18.6299L11.7449 16.8594C11.5295 16.6632 11.4474 16.3602 11.5339 16.082C11.6206 15.8038 11.8604 15.6006 12.1492 15.5615L14.8757 15.1924L16.0867 12.8994L16.1414 12.8125C16.281 12.6182 16.5064 12.5 16.7498 12.5ZM16.0222 16.2344C15.9091 16.4483 15.6996 16.5945 15.4597 16.627L13.9431 16.832L15.0076 17.7998C15.1992 17.9741 15.2876 18.2355 15.241 18.4902L14.9783 19.9189L16.4226 19.21L16.5017 19.1768C16.6914 19.1093 16.902 19.1199 17.0847 19.21L18.5203 19.917L18.2586 18.4902C18.2119 18.2355 18.3004 17.9741 18.492 17.7998L19.5554 16.832L18.0398 16.627C17.8 16.5945 17.5904 16.4483 17.4773 16.2344L16.7498 14.8555L16.0222 16.2344Z" fill="#808080"/>
</svg>
