<svg width="24" height="24" viewBox="0 0 24 24" fill="none" xmlns="http://www.w3.org/2000/svg">
<path fill-rule="evenodd" clip-rule="evenodd" d="M18 14C18.5523 14 19 14.4477 19 15V17H21C21.5523 17 22 17.4477 22 18C22 18.5523 21.5523 19 21 19H19V21C19 21.5523 18.5523 22 18 22C17.4477 22 17 21.5523 17 21V19H15C14.4477 19 14 18.5523 14 18C14 17.4477 14.4477 17 15 17H17V15C17 14.4477 17.4477 14 18 14Z" fill="#1A1A1A"/>
<path d="M11.5097 2.12842C11.8142 1.95719 12.1858 1.95719 12.4903 2.12842L15.835 4.00987L7.68215 8.94451C7.38282 9.12568 7.19995 9.45013 7.19995 9.80001V13C7.19995 13.5523 7.64767 14 8.19995 14C8.75224 14 9.19995 13.5523 9.19995 13V10.3637L17.1733 5.53771L17.8123 5.12207L20.4903 6.62842C20.8051 6.80554 21 7.13873 21 7.5V15C21 13.3431 19.6569 12 18 12C16.3431 12 15 13.3431 15 15C13.3431 15 12 16.3431 12 18C12 19.3875 12.9419 20.555 14.2212 20.8979L12.4903 21.8716C12.1858 22.0428 11.8142 22.0428 11.5097 21.8716L3.50974 17.3716C3.19486 17.1945 3 16.8613 3 16.5V7.5C3 7.13873 3.19486 6.80554 3.50974 6.62842L11.5097 2.12842Z" fill="#1A1A1A"/>
</svg>
