<svg width="24" height="24" viewBox="0 0 24 24" fill="none" xmlns="http://www.w3.org/2000/svg">
<path d="M12.4903 2.12842C12.1858 1.95719 11.8142 1.95719 11.5097 2.12842L3.50974 6.62842C3.19486 6.80554 3 7.13873 3 7.5V16.5C3 16.8613 3.19486 17.1945 3.50974 17.3716L11.5097 21.8716C11.8142 22.0428 12.1858 22.0428 12.4903 21.8716L20.4903 17.3716C20.8051 17.1945 21 16.8613 21 16.5V7.5C21 7.13873 20.8051 6.80554 20.4903 6.62842L17.8123 5.12207L17.1733 5.53771L9.19995 10.3637V13C9.19995 13.5523 8.75224 14 8.19995 14C7.64767 14 7.19995 13.5523 7.19995 13V9.80001C7.19995 9.45013 7.38282 9.12568 7.68215 8.94451L15.835 4.00987L12.4903 2.12842Z" fill="#1A1A1A"/>
</svg>
