<svg width="24" height="24" viewBox="0 0 24 24" fill="none" xmlns="http://www.w3.org/2000/svg">
<path fill-rule="evenodd" clip-rule="evenodd" d="M7.99792 2.49792C8.31673 2.17911 8.74913 2 9.2 2H11V5C11 5.55228 11.4477 6 12 6C12.5523 6 13 5.55228 13 5V2H14.8C15.2509 2 15.6833 2.17911 16.0021 2.49792C16.3209 2.81673 16.5 3.24913 16.5 3.7V9.3C16.5 9.75087 16.3209 10.1833 16.0021 10.5021C15.6833 10.8209 15.2509 11 14.8 11H9.2C8.74913 11 8.31673 10.8209 7.99792 10.5021C7.67911 10.1833 7.5 9.75087 7.5 9.3V3.7C7.5 3.24913 7.67911 2.81673 7.99792 2.49792Z" fill="#1A1A1A"/>
<path fill-rule="evenodd" clip-rule="evenodd" d="M2.49792 13.4979C2.81673 13.1791 3.24913 13 3.7 13H5.5V16C5.5 16.5523 5.94772 17 6.5 17C7.05228 17 7.5 16.5523 7.5 16V13H9.3C9.75087 13 10.1833 13.1791 10.5021 13.4979C10.8209 13.8167 11 14.2491 11 14.7V20.3C11 20.7509 10.8209 21.1833 10.5021 21.5021C10.1833 21.8209 9.75087 22 9.3 22H3.7C3.24913 22 2.81673 21.8209 2.49792 21.5021C2.17911 21.1833 2 20.7509 2 20.3V14.7C2 14.2491 2.17911 13.8167 2.49792 13.4979Z" fill="#1A1A1A"/>
<path fill-rule="evenodd" clip-rule="evenodd" d="M13.4979 13.4979C13.8167 13.1791 14.2491 13 14.7 13H16.5V16C16.5 16.5523 16.9477 17 17.5 17C18.0523 17 18.5 16.5523 18.5 16V13H20.3C20.7509 13 21.1833 13.1791 21.5021 13.4979C21.8209 13.8167 22 14.2491 22 14.7V20.3C22 20.7509 21.8209 21.1833 21.5021 21.5021C21.1833 21.8209 20.7509 22 20.3 22H14.7C14.2491 22 13.8167 21.8209 13.4979 21.5021C13.1791 21.1833 13 20.7509 13 20.3V14.7C13 14.2491 13.1791 13.8167 13.4979 13.4979Z" fill="#1A1A1A"/>
</svg>
