<svg width="24" height="24" viewBox="0 0 24 24" fill="none" xmlns="http://www.w3.org/2000/svg">
<path fill-rule="evenodd" clip-rule="evenodd" d="M9.24783 4.16082C9.20839 4.25403 9.16487 4.39067 9.12403 4.55893C9.08275 4.72904 9.05041 4.90558 9.02872 5.05727C9.01795 5.13261 9.01036 5.19795 9.00562 5.24974C9.00326 5.27551 9.00177 5.29617 9.0009 5.31171C9.00007 5.32666 9.00001 5.33349 9 5.33349C9 5.33349 9 5.33344 9 5.33333V7C9 7.55228 8.55228 8 8 8C7.44772 8 7 7.55228 7 7V5.33333C7 5.04921 7.07011 4.54188 7.18045 4.08724C7.23751 3.85214 7.3151 3.58924 7.41941 3.35008C7.50392 3.15631 7.68218 2.79108 8.03109 2.55847C8.59775 2.1807 9.30776 2 10 2H14C14.6922 2 15.4022 2.1807 15.9689 2.55847C16.5361 2.93661 17 3.55369 17 4.33333V7C17 7.55228 16.5523 8 16 8C15.4477 8 15 7.55228 15 7V4.35354C14.9995 4.35272 14.999 4.35181 14.9984 4.35084C14.9854 4.32992 14.9472 4.28104 14.8595 4.22257C14.676 4.10025 14.3686 4 14 4H10C9.69586 4 9.4334 4.06824 9.24783 4.16082Z" fill="#808080"/>
<path fill-rule="evenodd" clip-rule="evenodd" d="M5 8C4.73478 8 4.48043 8.10536 4.29289 8.29289C4.10536 8.48043 4 8.73478 4 9V18C4 18.2652 4.10536 18.5196 4.29289 18.7071C4.48043 18.8946 4.73478 19 5 19H19C19.2652 19 19.5196 18.8946 19.7071 18.7071C19.8946 18.5196 20 18.2652 20 18V9C20 8.73478 19.8946 8.48043 19.7071 8.29289C19.5196 8.10536 19.2652 8 19 8H5ZM2.87868 6.87868C3.44129 6.31607 4.20435 6 5 6H19C19.7957 6 20.5587 6.31607 21.1213 6.87868C21.6839 7.44129 22 8.20435 22 9V18C22 18.7957 21.6839 19.5587 21.1213 20.1213C20.5587 20.6839 19.7957 21 19 21H5C4.20435 21 3.44129 20.6839 2.87868 20.1213C2.31607 19.5587 2 18.7956 2 18V9C2 8.20435 2.31607 7.44129 2.87868 6.87868Z" fill="#1A1A1A"/>
<path fill-rule="evenodd" clip-rule="evenodd" d="M12 9.5C12.5523 9.5 13 9.94772 13 10.5V13.495C13 14.0473 12.5523 14.495 12 14.495C11.4477 14.495 11 14.0473 11 13.495V10.5C11 9.94772 11.4477 9.5 12 9.5ZM12 15.49C12.5523 15.49 13 15.9377 13 16.49V16.5C13 17.0523 12.5523 17.5 12 17.5C11.4477 17.5 11 17.0523 11 16.5V16.49C11 15.9377 11.4477 15.49 12 15.49Z" fill="#808080"/>
</svg>
