<svg width="24" height="24" viewBox="0 0 24 24" fill="none" xmlns="http://www.w3.org/2000/svg">
<path d="M8 3H16C16.5304 3 17.0391 3.21071 17.4142 3.58579C17.7893 3.96086 18 4.46957 18 5V13M15 21H8C7.46957 21 6.96086 20.7893 6.58579 20.4142C6.21071 20.0391 6 19.5304 6 19V10.5" stroke="#1A1A1A" stroke-width="2" stroke-linecap="round" stroke-linejoin="round"/>
<path d="M10 6H14C14.2652 6 14.5196 6.10536 14.7071 6.29289C14.8946 6.48043 15 6.73478 15 7V9" stroke="#1A1A1A" stroke-width="2" stroke-linecap="round" stroke-linejoin="round"/>
<path d="M9 14V14.01" stroke="#808080" stroke-width="2" stroke-linecap="round" stroke-linejoin="round"/>
<path d="M9 17V17.01" stroke="#808080" stroke-width="2" stroke-linecap="round" stroke-linejoin="round"/>
<path d="M12 17V17.01" stroke="#808080" stroke-width="2" stroke-linecap="round" stroke-linejoin="round"/>
<path d="M2.22881 3.61895L7.43616 8.83032L14.4513 15.831L20.7381 22.1115C20.8804 22.2439 21.0685 22.316 21.2629 22.3126C21.4573 22.3091 21.6327 22.2817 21.958 21.9552C22.2833 21.6286 22.322 21.4402 22.3254 21.246C22.3289 21.0517 22.2567 20.8638 22.1242 20.7216L3.61583 2.22912C3.54665 2.15749 3.46388 2.10034 3.37235 2.061C3.28083 2.02167 3.18238 2.00094 3.08275 2.00003C2.98312 1.99912 2.88431 2.01804 2.79208 2.05569C2.69985 2.09335 2.66477 2.06907 2.35326 2.38179C2.06652 2.66963 2.09378 2.70362 2.05601 2.79574C2.01824 2.88785 1.99921 2.98656 2.00003 3.08611C2.00084 3.18565 2.0215 3.28404 2.06078 3.37552C2.10006 3.46701 2.15718 3.54976 2.22881 3.61895Z" fill="#1A1A1A"/>
</svg>
