<svg width="24" height="24" viewBox="0 0 24 24" fill="none" xmlns="http://www.w3.org/2000/svg">
<path fill-rule="evenodd" clip-rule="evenodd" d="M11.6061 2.08085C11.8576 1.97305 12.1424 1.97305 12.3939 2.08085L19.3939 5.08085C19.9016 5.29841 20.1367 5.88629 19.9192 6.39392C19.7016 6.90155 19.1137 7.1367 18.6061 6.91915L12 4.08797L5.39393 6.91915C4.8863 7.1367 4.29842 6.90155 4.08087 6.39392C3.86331 5.88629 4.09846 5.29841 4.60609 5.08085L11.6061 2.08085Z" fill="#808080"/>
<path fill-rule="evenodd" clip-rule="evenodd" d="M2 10C2 9.44772 2.44772 9 3 9H21C21.5523 9 22 9.44772 22 10C22 10.5523 21.5523 11 21 11V20C21.5523 20 22 20.4477 22 21C22 21.5523 21.5523 22 21 22H3C2.44772 22 2 21.5523 2 21C2 20.4477 2.44772 20 3 20V11C2.44772 11 2 10.5523 2 10ZM5 11V20H19V11H5Z" fill="#1A1A1A"/>
<path fill-rule="evenodd" clip-rule="evenodd" d="M8 13C8.55228 13 9 13.4477 9 14V17C9 17.5523 8.55228 18 8 18C7.44772 18 7 17.5523 7 17V14C7 13.4477 7.44772 13 8 13Z" fill="#808080"/>
<path fill-rule="evenodd" clip-rule="evenodd" d="M12 13C12.5523 13 13 13.4477 13 14V17C13 17.5523 12.5523 18 12 18C11.4477 18 11 17.5523 11 17V14C11 13.4477 11.4477 13 12 13Z" fill="#808080"/>
<path fill-rule="evenodd" clip-rule="evenodd" d="M16 13C16.5523 13 17 13.4477 17 14V17C17 17.5523 16.5523 18 16 18C15.4477 18 15 17.5523 15 17V14C15 13.4477 15.4477 13 16 13Z" fill="#808080"/>
</svg>
