<svg width="24" height="24" viewBox="0 0 24 24" fill="none" xmlns="http://www.w3.org/2000/svg">
<path d="M17.1113 11.0005V10.2222H4.88867V17.9996H9L9.10254 18.0054C9.6065 18.0568 9.99978 18.4821 10 18.9996C10 19.5172 9.60665 19.9433 9.10254 19.9947L9 19.9996H3C2.44772 19.9996 2 19.5519 2 18.9996C2.00022 18.4851 2.38894 18.0618 2.88867 18.0064V10.2154C2.38882 10.16 2 9.73686 2 9.22223C2 8.66994 2.44772 8.22223 3 8.22223H19C19.5523 8.22223 20 8.66994 20 9.22223C20 9.73686 19.6112 10.16 19.1113 10.2154V11.0005C19.1111 11.5525 18.6634 12.0004 18.1113 12.0005C17.5592 12.0005 17.1116 11.5526 17.1113 11.0005Z" fill="#1A1A1A"/>
<path d="M6.44446 15.4448V12.7778C6.44446 12.2255 6.89217 11.7778 7.44446 11.7778C7.99674 11.7778 8.44446 12.2255 8.44446 12.7778V15.4448C8.44428 15.997 7.99663 16.4448 7.44446 16.4448C6.89228 16.4448 6.44463 15.997 6.44446 15.4448ZM10.0001 14.1108V12.7778C10.0001 12.2255 10.4478 11.7778 11.0001 11.7778C11.5524 11.7779 12.0001 12.2256 12.0001 12.7778V14.1108C12.0001 14.6631 11.5524 15.1108 11.0001 15.1108C10.4478 15.1108 10.0001 14.6631 10.0001 14.1108Z" fill="#808080"/>
<path d="M10.7016 2.0459C10.9281 1.97504 11.1737 1.98668 11.394 2.08106L17.6156 4.74708L17.7084 4.79297C18.1514 5.0388 18.3449 5.58481 18.141 6.06055C17.937 6.53644 17.4079 6.77273 16.9242 6.6211L16.8285 6.58594L10.9994 4.08692L5.1713 6.58594L5.07559 6.6211C4.59194 6.77267 4.06277 6.53644 3.8588 6.06055C3.64124 5.55292 3.87656 4.96463 4.38419 4.74708L10.6059 2.08106L10.7016 2.0459Z" fill="#808080"/>
<path d="M21.75 17.25V18.75H12.25V17.25H21.75Z" fill="#808080"/>
<path d="M20.2402 16.2772C20.2199 16.1835 20.1689 16.0935 20.0889 16.0202C19.9815 15.9219 19.8301 15.8626 19.667 15.8625H14.333C14.1699 15.8626 14.0185 15.9219 13.9111 16.0202C13.8046 16.1178 13.75 16.2454 13.75 16.3718V19.6282L13.7598 19.7228C13.7801 19.8165 13.8311 19.9065 13.9111 19.9798C14.0185 20.0781 14.1699 20.1374 14.333 20.1375H19.667L19.7861 20.1264C19.9026 20.105 20.0082 20.0536 20.0889 19.9798C20.1689 19.9065 20.2199 19.8165 20.2402 19.7228L20.25 19.6282V16.3718L20.2402 16.2772ZM21.75 19.6282L21.7393 19.823C21.6905 20.2718 21.4741 20.6896 21.1299 21.0049C20.7862 21.3197 20.3399 21.5105 19.8691 21.5532L19.667 21.5625H14.333C13.7892 21.5624 13.2627 21.3645 12.8701 21.0049C12.5259 20.6896 12.3095 20.2718 12.2607 19.823L12.25 19.6282V16.3718C12.25 15.8504 12.4766 15.3556 12.8701 14.9951C13.2627 14.6355 13.7892 14.4376 14.333 14.4375H19.667C20.2108 14.4376 20.7373 14.6355 21.1299 14.9951C21.5234 15.3556 21.75 15.8504 21.75 16.3718V19.6282Z" fill="#1A1A1A"/>
</svg>
