<svg width="24" height="24" viewBox="0 0 24 24" fill="none" xmlns="http://www.w3.org/2000/svg">
<path fill-rule="evenodd" clip-rule="evenodd" d="M8 16C8.55228 16 9 16.4477 9 17V21C9 21.5523 8.55228 22 8 22C7.44772 22 7 21.5523 7 21V17C7 16.4477 7.44772 16 8 16Z" fill="#808080"/>
<path fill-rule="evenodd" clip-rule="evenodd" d="M10 2C9.46957 2 8.96086 2.21071 8.58579 2.58579C8.21071 2.96086 8 3.46957 8 4V8C7.74408 8 7.48816 8.09763 7.29289 8.29289L2.29289 13.2929C2.10536 13.4804 2 13.7348 2 14V21C2 21.5523 2.44772 22 3 22H13H21C21.5523 22 22 21.5523 22 21V4C22 3.46957 21.7893 2.96086 21.4142 2.58579C21.0391 2.21071 20.5304 2 20 2H10ZM12 14.4142L8.29289 10.7071L8 10.4142L4 14.4142V20H12V14.4142ZM20 4H10V9.58579L13.7071 13.2929C13.8946 13.4804 14 13.7348 14 14V20H20V4Z" fill="#1A1A1A"/>
<path fill-rule="evenodd" clip-rule="evenodd" d="M13 6C13.5523 6 14 6.44549 14 6.99502V7.00498C14 7.55451 13.5523 8 13 8C12.4477 8 12 7.55451 12 7.00498V6.99502C12 6.44549 12.4477 6 13 6Z" fill="#808080"/>
<path fill-rule="evenodd" clip-rule="evenodd" d="M17 6C17.5523 6 18 6.44549 18 6.99502V7.00498C18 7.55451 17.5523 8 17 8C16.4477 8 16 7.55451 16 7.00498V6.99502C16 6.44549 16.4477 6 17 6Z" fill="#808080"/>
<path fill-rule="evenodd" clip-rule="evenodd" d="M17 10C17.5523 10 18 10.4455 18 10.995V11.005C18 11.5545 17.5523 12 17 12C16.4477 12 16 11.5545 16 11.005V10.995C16 10.4455 16.4477 10 17 10Z" fill="#808080"/>
<path fill-rule="evenodd" clip-rule="evenodd" d="M17 14C17.5523 14 18 14.4455 18 14.995V15.005C18 15.5545 17.5523 16 17 16C16.4477 16 16 15.5545 16 15.005V14.995C16 14.4455 16.4477 14 17 14Z" fill="#808080"/>
</svg>
