<svg width="24" height="24" viewBox="0 0 24 24" fill="none" xmlns="http://www.w3.org/2000/svg">
<path fill-rule="evenodd" clip-rule="evenodd" d="M12.1679 6.44531C12.4743 5.98579 13.0952 5.86161 13.5547 6.16796L19.5547 10.168C19.8329 10.3534 20 10.6657 20 11V21C20 21.5523 19.5523 22 19 22C18.4477 22 18 21.5523 18 21V11.5352L12.4453 7.83206C11.9858 7.52571 11.8616 6.90484 12.1679 6.44531Z" fill="#1A1A1A"/>
<path fill-rule="evenodd" clip-rule="evenodd" d="M13.5257 2.14935C13.8205 2.33156 14 2.65342 14 3V20H21C21.5523 20 22 20.4477 22 21C22 21.5523 21.5523 22 21 22H3C2.44772 22 2 21.5523 2 21C2 20.4477 2.44772 20 3 20H4V7C4 6.62123 4.214 6.27497 4.55279 6.10557L12.5528 2.10557C12.8628 1.95058 13.2309 1.96714 13.5257 2.14935ZM6 20H12V4.61803L6 7.61803V20Z" fill="#1A1A1A"/>
<path fill-rule="evenodd" clip-rule="evenodd" d="M9 8C9.55228 8 10 8.44549 10 8.99502V9.00498C10 9.55451 9.55228 10 9 10C8.44772 10 8 9.55451 8 9.00498V8.99502C8 8.44549 8.44772 8 9 8Z" fill="#808080"/>
<path fill-rule="evenodd" clip-rule="evenodd" d="M9 11C9.55228 11 10 11.4455 10 11.995V12.005C10 12.5545 9.55228 13 9 13C8.44772 13 8 12.5545 8 12.005V11.995C8 11.4455 8.44772 11 9 11Z" fill="#808080"/>
<path fill-rule="evenodd" clip-rule="evenodd" d="M9 14C9.55228 14 10 14.4455 10 14.995V15.005C10 15.5545 9.55228 16 9 16C8.44772 16 8 15.5545 8 15.005V14.995C8 14.4455 8.44772 14 9 14Z" fill="#808080"/>
<path fill-rule="evenodd" clip-rule="evenodd" d="M9 17C9.55228 17 10 17.4455 10 17.995V18.005C10 18.5545 9.55228 19 9 19C8.44772 19 8 18.5545 8 18.005V17.995C8 17.4455 8.44772 17 9 17Z" fill="#808080"/>
</svg>
