<svg width="24" height="24" viewBox="0 0 24 24" fill="none" xmlns="http://www.w3.org/2000/svg">
<path fill-rule="evenodd" clip-rule="evenodd" d="M11 12V14H13V12H11ZM9.48816 10.4882C9.80072 10.1756 10.2246 10 10.6667 10H13.3333C13.7754 10 14.1993 10.1756 14.5118 10.4882C14.8244 10.8007 15 11.2246 15 11.6667V14.3333C15 14.7754 14.8244 15.1993 14.5118 15.5118C14.1993 15.8244 13.7754 16 13.3333 16H10.6667C10.2246 16 9.80072 15.8244 9.48816 15.5118C9.1756 15.1993 9 14.7754 9 14.3333V11.6667C9 11.2246 9.1756 10.8007 9.48816 10.4882Z" fill="#1A1A1A"/>
<path fill-rule="evenodd" clip-rule="evenodd" d="M8 18V20H10V18H8ZM6.48816 16.4882C6.80072 16.1756 7.22464 16 7.66667 16H10.3333C10.7754 16 11.1993 16.1756 11.5118 16.4882C11.8244 16.8007 12 17.2246 12 17.6667V20.3333C12 20.7754 11.8244 21.1993 11.5118 21.5118C11.1993 21.8244 10.7754 22 10.3333 22H7.66667C7.22464 22 6.80072 21.8244 6.48816 21.5118C6.1756 21.1993 6 20.7754 6 20.3333V17.6667C6 17.2246 6.1756 16.8007 6.48816 16.4882Z" fill="#1A1A1A"/>
<path fill-rule="evenodd" clip-rule="evenodd" d="M14 18V20H16V18H14ZM12.4882 16.4882C12.8007 16.1756 13.2246 16 13.6667 16H16.3333C16.7754 16 17.1993 16.1756 17.5118 16.4882C17.8244 16.8007 18 17.2246 18 17.6667V20.3333C18 20.7754 17.8244 21.1993 17.5118 21.5118C17.1993 21.8244 16.7754 22 16.3333 22H13.6667C13.2246 22 12.8007 21.8244 12.4882 21.5118C12.1756 21.1993 12 20.7754 12 20.3333V17.6667C12 17.2246 12.1756 16.8007 12.4882 16.4882Z" fill="#1A1A1A"/>
<path fill-rule="evenodd" clip-rule="evenodd" d="M11 11.75V10H13V11.75C13 12.3023 12.5523 12.75 12 12.75C11.4477 12.75 11 12.3023 11 11.75Z" fill="#808080"/>
<path fill-rule="evenodd" clip-rule="evenodd" d="M8 17.75V16H10V17.75C10 18.3023 9.55228 18.75 9 18.75C8.44772 18.75 8 18.3023 8 17.75Z" fill="#808080"/>
<path fill-rule="evenodd" clip-rule="evenodd" d="M14 17.75V16H16V17.75C16 18.3023 15.5523 18.75 15 18.75C14.4477 18.75 14 18.3023 14 17.75Z" fill="#808080"/>
<path fill-rule="evenodd" clip-rule="evenodd" d="M11.5939 2.08619C11.8524 1.97127 12.1476 1.97127 12.4061 2.08619L21.4061 6.08619C21.7673 6.24669 22 6.60481 22 7V21C22 21.5523 21.5523 22 21 22C20.4477 22 20 21.5523 20 21V7.64987L12 4.09432L4 7.64987V21C4 21.5523 3.55228 22 3 22C2.44772 22 2 21.5523 2 21V7C2 6.60481 2.23273 6.24669 2.59386 6.08619L11.5939 2.08619Z" fill="#1A1A1A"/>
</svg>
