<svg width="24" height="24" viewBox="0 0 24 24" fill="none" xmlns="http://www.w3.org/2000/svg">
<path fill-rule="evenodd" clip-rule="evenodd" d="M10.998 13.6077C11.0326 14.1589 10.6137 14.6337 10.0625 14.6682C9.87399 14.68 9.69553 14.7601 9.56118 14.8945C9.41532 15.0403 9.33337 15.2382 9.33337 15.4444V19C9.33337 19.5523 8.88566 20 8.33337 20C7.78109 20 7.33337 19.5523 7.33337 19V15.4444C7.33337 14.7077 7.62603 14.0012 8.14697 13.4803C8.62683 13.0004 9.26414 12.7142 9.93752 12.6721C10.4887 12.6376 10.9635 13.0565 10.998 13.6077Z" fill="#808080"/>
<path fill-rule="evenodd" clip-rule="evenodd" d="M3.88335 2.55279C4.05274 2.214 4.39901 2 4.77778 2H17.2222C17.601 2 17.9473 2.214 18.1166 2.55279L19.8944 6.10834C19.9639 6.2472 20 6.40031 20 6.55556V7.44444C20 8.4169 19.6137 9.34954 18.9261 10.0372C18.2384 10.7248 17.3058 11.1111 16.3333 11.1111C15.3609 11.1111 14.4282 10.7248 13.7406 10.0372C13.7156 10.0121 13.6909 9.98675 13.6667 9.96106C13.6424 9.98675 13.6178 10.0121 13.5927 10.0372C12.9051 10.7248 11.9725 11.1111 11 11.1111C10.0275 11.1111 9.09491 10.7248 8.40728 10.0372C8.38223 10.0121 8.35758 9.98675 8.33333 9.96106C8.30909 9.98675 8.28444 10.0121 8.25939 10.0372C7.59799 10.6986 6.70993 11.0812 5.77778 11.1094V18H10C10.5523 18 11 18.4477 11 19C11 19.5523 10.5523 20 10 20H4.77778C4.22549 20 3.77778 19.5523 3.77778 19V10.5872C3.5237 10.4345 3.28706 10.2503 3.07394 10.0372C2.38631 9.34954 2 8.41691 2 7.44444V6.55556C2 6.40031 2.03615 6.2472 2.10557 6.10834L3.88335 2.55279ZM9.33704 7.55556C9.36384 7.95701 9.53522 8.33669 9.82149 8.62296C10.134 8.93552 10.558 9.11111 11 9.11111C11.442 9.11111 11.866 8.93552 12.1785 8.62296C12.4648 8.33669 12.6362 7.95701 12.663 7.55556H9.33704ZM14.6704 7.55556C14.6972 7.95701 14.8686 8.33669 15.1548 8.62296C15.4674 8.93552 15.8913 9.11111 16.3333 9.11111C16.7754 9.11111 17.1993 8.93552 17.5118 8.62296C17.7981 8.33669 17.9695 7.95701 17.9963 7.55556H14.6704ZM17.382 5.55556H4.61803L5.39581 4H16.6042L17.382 5.55556ZM4.0037 7.55556H7.32963C7.30282 7.95701 7.13145 8.33669 6.84518 8.62296C6.53262 8.93552 6.1087 9.11111 5.66667 9.11111C5.22464 9.11111 4.80072 8.93552 4.48816 8.62296C4.20189 8.33669 4.03051 7.95701 4.0037 7.55556Z" fill="#1A1A1A"/>
<path fill-rule="evenodd" clip-rule="evenodd" d="M17.4994 12C18.0517 12 18.4994 12.4477 18.4994 13V14.7143C18.4994 15.2666 18.0517 15.7143 17.4994 15.7143C16.9472 15.7143 16.4994 15.2666 16.4994 14.7143V13C16.4994 12.4477 16.9472 12 17.4994 12ZM13.1317 14.5041C13.4056 14.0245 14.0164 13.8577 14.496 14.1316L15.9969 14.9888C16.4764 15.2627 16.6432 15.8735 16.3693 16.3531C16.0954 16.8326 15.4846 16.9994 15.005 16.7255L13.5041 15.8684C13.0245 15.5945 12.8578 14.9837 13.1317 14.5041ZM21.8671 14.5038C22.1412 14.9833 21.9746 15.5942 21.4951 15.8682L19.9954 16.7253C19.5159 16.9994 18.905 16.8328 18.631 16.3533C18.3569 15.8739 18.5235 15.263 19.003 14.9889L20.5027 14.1318C20.9822 13.8577 21.5931 14.0243 21.8671 14.5038ZM16.3693 17.6469C16.6432 18.1265 16.4764 18.7373 15.9969 19.0112L14.496 19.8684C14.0164 20.1423 13.4056 19.9755 13.1317 19.4959C12.8578 19.0163 13.0245 18.4055 13.5041 18.1316L15.005 17.2745C15.4846 17.0006 16.0954 17.1673 16.3693 17.6469ZM18.6308 17.6469C18.9047 17.1673 19.5155 17.0006 19.9951 17.2745L21.496 18.1316C21.9756 18.4055 22.1423 19.0163 21.8685 19.4959C21.5946 19.9755 20.9838 20.1423 20.5042 19.8684L19.0033 19.0112C18.5237 18.7373 18.3569 18.1265 18.6308 17.6469ZM17.4994 18.2857C18.0517 18.2857 18.4994 18.7334 18.4994 19.2857V21C18.4994 21.5523 18.0517 22 17.4994 22C16.9472 22 16.4994 21.5523 16.4994 21V19.2857C16.4994 18.7334 16.9472 18.2857 17.4994 18.2857Z" fill="#808080"/>
<path fill-rule="evenodd" clip-rule="evenodd" d="M15.2024 14.702C15.8118 14.0925 16.6383 13.75 17.5001 13.75C18.362 13.75 19.1885 14.0925 19.7979 14.702C20.4072 15.3115 20.7494 16.1381 20.7494 17C20.7494 17.8619 20.4072 18.6885 19.7979 19.298C19.1885 19.9075 18.362 20.25 17.5001 20.25C16.6383 20.25 15.8118 19.9075 15.2024 19.298C14.5931 18.6885 14.2509 17.8619 14.2509 17C14.2509 16.1381 14.5931 15.3115 15.2024 14.702ZM17.5001 15.7283C17.1631 15.7283 16.8399 15.8622 16.6015 16.1006C16.3631 16.3391 16.2291 16.6626 16.2291 17C16.2291 17.3374 16.3631 17.6609 16.6015 17.8994C16.8399 18.1378 17.1631 18.2717 17.5001 18.2717C17.8371 18.2717 18.1604 18.1378 18.3988 17.8994C18.6372 17.6609 18.7712 17.3374 18.7712 17C18.7712 16.6626 18.6372 16.3391 18.3988 16.1006C18.1604 15.8622 17.8371 15.7283 17.5001 15.7283Z" fill="#1A1A1A"/>
</svg>
