<svg width="24" height="24" viewBox="0 0 24 24" fill="none" xmlns="http://www.w3.org/2000/svg">
<path d="M19 5C19 4.73478 18.8946 4.48051 18.707 4.29297C18.5195 4.10543 18.2652 4 18 4H6C5.73478 4 5.4805 4.10543 5.29297 4.29297C5.10543 4.4805 5 4.73478 5 5V19L5.00488 19.0986C5.02757 19.3276 5.12883 19.5429 5.29297 19.707C5.48051 19.8946 5.73478 20 6 20H18C18.2652 20 18.5195 19.8946 18.707 19.707C18.8946 19.5195 19 19.2652 19 19V5ZM7 17.0098V17C7 16.4477 7.44772 16 8 16C8.55228 16 9 16.4477 9 17V17.0098C9 17.5621 8.55228 18.0098 8 18.0098C7.44772 18.0098 7 17.5621 7 17.0098ZM11 17.0098V17C11 16.4477 11.4477 16 12 16C12.5523 16 13 16.4477 13 17V17.0098C13 17.5621 12.5523 18.0098 12 18.0098C11.4477 18.0098 11 17.5621 11 17.0098ZM15 17.0098V17C15 16.4477 15.4477 16 16 16C16.5523 16 17 16.4477 17 17V17.0098C17 17.5621 16.5523 18.0098 16 18.0098C15.4477 18.0098 15 17.5621 15 17.0098ZM7 14.0098V14C7 13.4477 7.44772 13 8 13C8.55228 13 9 13.4477 9 14V14.0098C9 14.5621 8.55228 15.0098 8 15.0098C7.44772 15.0098 7 14.5621 7 14.0098ZM11 14.0098V14C11 13.4477 11.4477 13 12 13C12.5523 13 13 13.4477 13 14V14.0098C13 14.5621 12.5523 15.0098 12 15.0098C11.4477 15.0098 11 14.5621 11 14.0098ZM15 14.0098V14C15 13.4477 15.4477 13 16 13C16.5523 13 17 13.4477 17 14V14.0098C17 14.5621 16.5523 15.0098 16 15.0098C15.4477 15.0098 15 14.5621 15 14.0098ZM9 8V9H15V8H9ZM17 9C17 9.53043 16.7891 10.039 16.4141 10.4141C16.039 10.7891 15.5304 11 15 11H9C8.46957 11 7.96101 10.7891 7.58594 10.4141C7.25765 10.0858 7.05515 9.65526 7.00977 9.19727L7 9V8C7 7.46957 7.21087 6.96101 7.58594 6.58594C7.96101 6.21087 8.46957 6 9 6H15C15.5304 6 16.039 6.21087 16.4141 6.58594C16.7891 6.96101 17 7.46957 17 8V9ZM21 19C21 19.7957 20.6837 20.5585 20.1211 21.1211C19.5585 21.6837 18.7957 22 18 22H6C5.20435 22 4.44151 21.6837 3.87891 21.1211C3.38671 20.6289 3.08291 19.9835 3.01465 19.2969L3 19V5C3 4.20435 3.3163 3.44152 3.87891 2.87891C4.44152 2.3163 5.20435 2 6 2H18C18.7956 2 19.5585 2.3163 20.1211 2.87891C20.6837 3.44151 21 4.20435 21 5V19Z" fill="#1A1A1A"/>
</svg>
