<svg width="24" height="24" viewBox="0 0 24 24" fill="none" xmlns="http://www.w3.org/2000/svg">
<path d="M18 11V7C18 6.73478 17.8946 6.48051 17.707 6.29297C17.5195 6.10543 17.2652 6 17 6H5C4.73478 6 4.4805 6.10543 4.29297 6.29297C4.10543 6.4805 4 6.73478 4 7V19C4 19.2652 4.10543 19.5195 4.29297 19.707C4.48051 19.8946 4.73478 20 5 20H11.7949C12.3472 20 12.7949 20.4477 12.7949 21C12.7949 21.5523 12.3472 22 11.7949 22H5C4.20435 22 3.44152 21.6837 2.87891 21.1211C2.3163 20.5585 2 19.7956 2 19V7C2 6.20435 2.3163 5.44152 2.87891 4.87891C3.44152 4.3163 4.20435 4 5 4H17C17.7956 4 18.5585 4.3163 19.1211 4.87891C19.6837 5.44152 20 6.20435 20 7V11C20 11.5523 19.5523 12 19 12C18.4477 12 18 11.5523 18 11Z" fill="#1A1A1A"/>
<path d="M21.25 18C21.25 17.138 20.9073 16.3116 20.2979 15.7021C19.7264 15.1307 18.9644 14.7937 18.1611 14.7539L18 14.75C17.138 14.75 16.3116 15.0927 15.7021 15.7021C15.0927 16.3116 14.75 17.138 14.75 18L14.7539 18.1611C14.7937 18.9644 15.1307 19.7264 15.7021 20.2979C16.3116 20.9073 17.138 21.25 18 21.25C18.862 21.25 19.6884 20.9073 20.2979 20.2979C20.9073 19.6884 21.25 18.862 21.25 18ZM22.75 18C22.75 19.2598 22.2492 20.4676 21.3584 21.3584C20.4676 22.2492 19.2598 22.75 18 22.75C16.7402 22.75 15.5324 22.2492 14.6416 21.3584C13.8064 20.5232 13.3141 19.4094 13.2559 18.2354L13.25 18C13.25 16.7402 13.7508 15.5324 14.6416 14.6416C15.5324 13.7508 16.7402 13.25 18 13.25L18.2354 13.2559C19.4094 13.3141 20.5232 13.8064 21.3584 14.6416C22.2492 15.5324 22.75 16.7402 22.75 18Z" fill="#1A1A1A"/>
<path d="M14 7V3C14 2.44772 14.4477 2 15 2C15.5523 2 16 2.44772 16 3V7C16 7.55228 15.5523 8 15 8C14.4477 8 14 7.55228 14 7Z" fill="#808080"/>
<path d="M6 7V3C6 2.44772 6.44772 2 7 2C7.55228 2 8 2.44772 8 3V7C8 7.55228 7.55228 8 7 8C6.44772 8 6 7.55228 6 7Z" fill="#808080"/>
<path d="M19 10C19.5523 10 20 10.4477 20 11C20 11.5523 19.5523 12 19 12H3C2.44772 12 2 11.5523 2 11C2 10.4477 2.44772 10 3 10H19Z" fill="#1A1A1A"/>
<path d="M17.25 16.496C17.25 16.0818 17.5858 15.746 18 15.746C18.4142 15.746 18.75 16.0818 18.75 16.496V17.6894L19.5303 18.4696C19.8232 18.7625 19.8231 19.2373 19.5303 19.5302C19.2374 19.8231 18.7626 19.8231 18.4697 19.5302L17.4697 18.5302C17.3291 18.3895 17.25 18.1988 17.25 17.9999V16.496Z" fill="#808080"/>
</svg>
