<svg width="24" height="24" viewBox="0 0 24 24" fill="none" xmlns="http://www.w3.org/2000/svg">
<path d="M15.1223 4.86592C15.1165 4.85168 15.1076 4.83918 15.0975 4.829C15.0777 4.80921 15.0531 4.8 15.03 4.8H8.96999C8.94692 4.8 8.92234 4.80921 8.90252 4.829C8.88231 4.84927 8.86879 4.87908 8.86879 4.9125L8.86523 5.05664C8.82968 5.7766 8.52862 6.46195 8.01474 6.97705C7.46629 7.52675 6.71962 7.8375 5.9391 7.8375H4.92969C4.63874 7.8375 4.3568 7.95303 4.14755 8.1627C3.9379 8.37284 3.81818 8.66055 3.81818 8.9625V18.075C3.81818 18.377 3.9379 18.6647 4.14755 18.8748C4.3568 19.0845 4.63874 19.2 4.92969 19.2H19.0703C19.3613 19.2 19.6432 19.0845 19.8525 18.8748C20.0621 18.6647 20.1818 18.377 20.1818 18.075V8.9625C20.1818 8.66055 20.0621 8.37284 19.8525 8.1627C19.6432 7.95303 19.3613 7.8375 19.0703 7.8375H18.0609C17.2804 7.8375 16.5337 7.52675 15.9853 6.97705C15.4372 6.42767 15.1312 5.68468 15.1312 4.9125L15.1223 4.86592ZM16.9494 4.9125C16.9494 5.21445 17.0691 5.50216 17.2788 5.7123C17.488 5.92201 17.7699 6.0375 18.0609 6.0375H19.0703C19.8508 6.0375 20.5975 6.34828 21.146 6.89795C21.694 7.44733 22 8.19032 22 8.9625V18.075C22 18.8472 21.694 19.5902 21.146 20.1396C20.5975 20.6892 19.8508 21 19.0703 21H4.92969C4.14919 21 3.40249 20.6892 2.85405 20.1396C2.30597 19.5902 2 18.8472 2 18.075V8.9625C2 8.19032 2.30597 7.44733 2.85405 6.89795C3.40249 6.34828 4.14919 6.0375 4.92969 6.0375H5.9391C6.23007 6.0375 6.51198 5.92201 6.72124 5.7123C6.90467 5.52844 7.01948 5.28514 7.04528 5.025L7.0506 4.9125C7.0506 4.40886 7.25037 3.92376 7.60902 3.56426C7.96803 3.20445 8.45738 3 8.96999 3H15.03C15.5426 3 16.032 3.20446 16.391 3.56426C16.7496 3.92376 16.9494 4.40886 16.9494 4.9125Z" fill="#1A1A1A"/>
<path d="M14 13C14 12.4696 13.7891 11.961 13.4141 11.5859C13.039 11.2109 12.5304 11 12 11C11.4696 11 10.961 11.2109 10.5859 11.5859C10.2109 11.961 10 12.4696 10 13C10 13.5304 10.2109 14.039 10.5859 14.4141C10.961 14.7891 11.4696 15 12 15C12.5304 15 13.039 14.7891 13.4141 14.4141C13.7891 14.039 14 13.5304 14 13ZM16 13C16 14.0609 15.5783 15.078 14.8281 15.8281C14.078 16.5783 13.0609 17 12 17C10.9391 17 9.92202 16.5783 9.17188 15.8281C8.42173 15.078 8 14.0609 8 13C8 11.9391 8.42173 10.922 9.17188 10.1719C9.92202 9.42173 10.9391 9 12 9C13.0609 9 14.078 9.42173 14.8281 10.1719C15.5783 10.922 16 11.9391 16 13Z" fill="#808080"/>
</svg>
