<svg width="24" height="24" viewBox="0 0 24 24" fill="none" xmlns="http://www.w3.org/2000/svg">
<path d="M19.9902 11.6064C19.9451 10.6903 19.7424 9.7877 19.3906 8.93848C18.9886 7.96795 18.4 7.08559 17.6572 6.34277C16.9144 5.59995 16.0321 5.01141 15.0615 4.60938C14.2123 4.25762 13.3097 4.05489 12.3936 4.00977L12 4C10.9494 4 9.90908 4.20734 8.93848 4.60938C7.96795 5.01141 7.08559 5.59995 6.34277 6.34277C5.59995 7.08559 5.01141 7.96795 4.60938 8.93848C4.20734 9.90908 4 10.9494 4 12L4.00977 12.3936C4.05489 13.3097 4.25762 14.2123 4.60938 15.0615C5.01141 16.0321 5.59995 16.9144 6.34277 17.6572C7.08559 18.4 7.96795 18.9886 8.93848 19.3906C9.90908 19.7927 10.9494 20 12 20L12.3936 19.9902C13.3097 19.9451 14.2123 19.7424 15.0615 19.3906C16.0321 18.9886 16.9144 18.4 17.6572 17.6572C18.4 16.9144 18.9886 16.0321 19.3906 15.0615C19.7927 14.0909 20 13.0506 20 12L19.9902 11.6064ZM21.9883 12.4922C21.9319 13.6373 21.6789 14.7657 21.2393 15.8271C20.7367 17.0404 19.9998 18.1427 19.0713 19.0713C18.1427 19.9998 17.0404 20.7367 15.8271 21.2393C14.7657 21.6789 13.6373 21.9319 12.4922 21.9883L12 22C10.6868 22 9.38611 21.7418 8.17285 21.2393C6.95964 20.7367 5.85727 19.9998 4.92871 19.0713C4.00015 18.1427 3.26329 17.0404 2.76074 15.8271C2.32107 14.7657 2.06814 13.6373 2.01172 12.4922L2 12C2 10.6868 2.2582 9.38611 2.76074 8.17285C3.26329 6.95964 4.00015 5.85727 4.92871 4.92871C5.85727 4.00015 6.95964 3.26329 8.17285 2.76074C9.38611 2.2582 10.6868 2 12 2L12.4922 2.01172C13.6373 2.06814 14.7657 2.32107 15.8271 2.76074C17.0404 3.26329 18.1427 4.00015 19.0713 4.92871C19.9998 5.85727 20.7367 6.95964 21.2393 8.17285C21.7418 9.38611 22 10.6868 22 12L21.9883 12.4922Z" fill="#1A1A1A"/>
<path d="M13.293 9.29297C13.6835 8.90245 14.3166 8.90245 14.7071 9.29297C15.0976 9.68349 15.0976 10.3165 14.7071 10.707L13.4141 12L14.7071 13.293C15.0976 13.6835 15.0976 14.3165 14.7071 14.707C14.3166 15.0976 13.6835 15.0976 13.293 14.707L12 13.4141L10.7071 14.707C10.3166 15.0976 9.68354 15.0976 9.29302 14.707C8.90249 14.3165 8.90249 13.6835 9.29302 13.293L10.586 12L9.29302 10.707C8.90249 10.3165 8.90249 9.68349 9.29302 9.29297C9.68354 8.90245 10.3166 8.90245 10.7071 9.29297L12 10.5859L13.293 9.29297Z" fill="#808080"/>
</svg>
