<svg width="24" height="24" viewBox="0 0 24 24" fill="none" xmlns="http://www.w3.org/2000/svg">
<path fill-rule="evenodd" clip-rule="evenodd" d="M2 8C2 7.44772 2.44772 7 3 7H21C21.5523 7 22 7.44772 22 8C22 8.55228 21.5523 9 21 9H3C2.44772 9 2 8.55228 2 8Z" fill="#1A1A1A"/>
<path fill-rule="evenodd" clip-rule="evenodd" d="M6 4C5.46957 4 4.96086 4.21071 4.58579 4.58579C4.21071 4.96086 4 5.46957 4 6V14C4 14.5304 4.21071 15.0391 4.58579 15.4142C4.96086 15.7893 5.46957 16 6 16H9C9.55228 16 10 16.4477 10 17C10 17.5523 9.55228 18 9 18H6C4.93913 18 3.92172 17.5786 3.17157 16.8284C2.42143 16.0783 2 15.0609 2 14V6C2 4.93913 2.42143 3.92172 3.17157 3.17157C3.92172 2.42143 4.93913 2 6 2H18C19.0609 2 20.0783 2.42143 20.8284 3.17157C21.5786 3.92172 22 4.93913 22 6V12C22 12.5523 21.5523 13 21 13C20.4477 13 20 12.5523 20 12V6C20 5.46957 19.7893 4.96086 19.4142 4.58579C19.0391 4.21071 18.5304 4 18 4H6Z" fill="#1A1A1A"/>
<path fill-rule="evenodd" clip-rule="evenodd" d="M6 13C6 12.4477 6.44772 12 7 12H9C9.55228 12 10 12.4477 10 13C10 13.5523 9.55228 14 9 14H7C6.44772 14 6 13.5523 6 13Z" fill="#1A1A1A"/>
<path fill-rule="evenodd" clip-rule="evenodd" d="M12 15.6818C12 15.3053 12.292 15 12.6522 15H13.1637C13.5239 15 13.8159 15.3053 13.8159 15.6818V19.3182C13.8159 19.6947 13.5239 20 13.1637 20C12.8035 20 12.5115 19.6947 12.5115 19.3182V16.3477C12.2189 16.2805 12 16.0079 12 15.6818ZM14.5575 15.6818C14.5575 15.3053 14.8495 15 15.2097 15H16.7442C17.0217 15 17.305 15.097 17.5283 15.2954C17.7549 15.4968 17.9079 15.7959 17.9079 16.1364V17.0455C17.9079 17.3859 17.7549 17.685 17.5283 17.8864C17.305 18.0848 17.0217 18.1818 16.7442 18.1818H15.8619V18.6364H17.2558C17.6159 18.6364 17.9079 18.9416 17.9079 19.3182C17.9079 19.6947 17.6159 20 17.2558 20H15.7212C15.4438 20 15.1605 19.903 14.9372 19.7046C14.7106 19.5032 14.5575 19.2041 14.5575 18.8636V17.9545C14.5575 17.6141 14.7106 17.315 14.9372 17.1136C15.1605 16.9152 15.4438 16.8182 15.7212 16.8182H16.6036V16.3636H15.2097C14.8495 16.3636 14.5575 16.0584 14.5575 15.6818ZM18.6496 15.6818C18.6496 15.3053 18.9416 15 19.3018 15H20.5806C20.9259 15 21.2742 15.1209 21.5455 15.362C21.82 15.606 22 15.9629 22 16.3636V16.8182C22 17.0681 21.93 17.3009 21.8107 17.5C21.93 17.6991 22 17.9319 22 18.1818V18.6364C22 19.0371 21.82 19.394 21.5455 19.638C21.2742 19.8791 20.9259 20 20.5806 20H19.3018C18.9416 20 18.6496 19.6947 18.6496 19.3182C18.6496 18.9416 18.9416 18.6364 19.3018 18.6364H20.5806C20.6367 18.6364 20.6765 18.6175 20.6957 18.6031V18.2151C20.6765 18.2007 20.6367 18.1818 20.5806 18.1818H19.8133C19.4531 18.1818 19.1611 17.8766 19.1611 17.5C19.1611 17.1234 19.4531 16.8182 19.8133 16.8182H20.5806C20.6367 16.8182 20.6765 16.7993 20.6957 16.7849V16.3969C20.6765 16.3825 20.6367 16.3636 20.5806 16.3636H19.3018C18.9416 16.3636 18.6496 16.0584 18.6496 15.6818Z" fill="#808080"/>
</svg>
