<svg width="24" height="24" viewBox="0 0 24 24" fill="none" xmlns="http://www.w3.org/2000/svg">
<path fill-rule="evenodd" clip-rule="evenodd" d="M17.413 12.5029C17.4801 12.4967 17.5473 12.5005 17.6126 12.5139C18.7397 12.6002 19.8038 13.0864 20.6088 13.8913C21.4996 14.7821 22 15.9902 22 17.25C22 17.8738 21.8771 18.4914 21.6384 19.0677C21.3997 19.644 21.0498 20.1676 20.6088 20.6087C20.1677 21.0498 19.644 21.3996 19.0677 21.6383C18.6034 21.8307 18.1123 21.9478 17.6127 21.986C17.5474 21.9995 17.4801 22.0033 17.413 21.9971C17.3587 21.999 17.3044 21.9999 17.25 21.9999C17.1956 21.9999 17.1412 21.999 17.0869 21.9971C17.0199 22.0033 16.9526 21.9995 16.8873 21.986C16.3877 21.9478 15.8966 21.8307 15.4323 21.6383C14.856 21.3996 14.3323 21.0498 13.8912 20.6087C13.4502 20.1676 13.1003 19.644 12.8616 19.0677C12.6229 18.4914 12.5 17.8738 12.5 17.25C12.5 15.9902 13.0004 14.7821 13.8912 13.8913C14.6962 13.0864 15.7602 12.6002 16.8873 12.5139C16.9526 12.5005 17.0199 12.4967 17.0869 12.5029C17.1412 12.501 17.1955 12.5001 17.25 12.5001C17.3045 12.5001 17.3588 12.501 17.413 12.5029ZM17.25 14.1678C17.0846 14.5057 16.947 14.8557 16.8382 15.2143H17.6618C17.5529 14.8557 17.4154 14.5057 17.25 14.1678ZM16.5362 17.25C16.5362 17.4772 16.5472 17.7037 16.5691 17.9286H17.9309C17.9527 17.7037 17.9638 17.4772 17.9638 17.25C17.9638 17.0228 17.9527 16.7963 17.9309 16.5714H16.5691C16.5472 16.7963 16.5362 17.0228 16.5362 17.25ZM16.8382 19.2857C16.947 19.6443 17.0846 19.9943 17.25 20.3322C17.4154 19.9943 17.5529 19.6443 17.6618 19.2857H16.8382ZM15.7525 14.2056C15.4216 14.3683 15.1165 14.5853 14.8509 14.8509C14.7367 14.9651 14.6315 15.0866 14.5357 15.2143H15.4304C15.5163 14.8718 15.6239 14.5348 15.7525 14.2056ZM15.4304 19.2857H14.5357C14.6318 19.4138 14.7371 19.5353 14.8509 19.6491C15.1143 19.9125 15.419 20.1304 15.7524 20.2944C15.6239 19.9652 15.5163 19.6282 15.4304 19.2857ZM19.2934 17.9286H20.5743C20.6198 17.7058 20.6429 17.4785 20.6429 17.25C20.6429 17.0204 20.6196 16.7931 20.5743 16.5714H19.2934C19.3117 16.7966 19.3209 17.023 19.3209 17.25C19.3209 17.477 19.3117 17.7034 19.2934 17.9286ZM15.2066 16.5714H13.9257C13.8804 16.7931 13.8571 17.0204 13.8571 17.25C13.8571 17.4785 13.8802 17.7058 13.9257 17.9286H15.2066C15.1883 17.7034 15.1791 17.477 15.1791 17.25C15.1791 17.023 15.1883 16.7966 15.2066 16.5714ZM18.7475 20.2944C19.0809 20.1304 19.3856 19.9125 19.6491 19.6491C19.7629 19.5353 19.8682 19.4138 19.9643 19.2857H19.0695C18.9836 19.6282 18.8761 19.9652 18.7475 20.2944ZM19.0695 15.2143H19.9643C19.8685 15.0866 19.7633 14.9651 19.6491 14.8509C19.3835 14.5853 19.0783 14.3683 18.7475 14.2056C18.8761 14.5348 18.9836 14.8718 19.0695 15.2143Z" fill="#808080"/>
<path fill-rule="evenodd" clip-rule="evenodd" d="M2 8C2 7.44772 2.44772 7 3 7H21C21.5523 7 22 7.44772 22 8C22 8.55228 21.5523 9 21 9H3C2.44772 9 2 8.55228 2 8Z" fill="#1A1A1A"/>
<path fill-rule="evenodd" clip-rule="evenodd" d="M6 4C5.46957 4 4.96086 4.21071 4.58579 4.58579C4.21071 4.96086 4 5.46957 4 6V14C4 14.5304 4.21071 15.0391 4.58579 15.4142C4.96086 15.7893 5.46957 16 6 16H9C9.55228 16 10 16.4477 10 17C10 17.5523 9.55228 18 9 18H6C4.93913 18 3.92172 17.5786 3.17157 16.8284C2.42143 16.0783 2 15.0609 2 14V6C2 4.93913 2.42143 3.92172 3.17157 3.17157C3.92172 2.42143 4.93913 2 6 2H18C19.0609 2 20.0783 2.42143 20.8284 3.17157C21.5786 3.92172 22 4.93913 22 6V10C22 10.5523 21.5523 11 21 11C20.4477 11 20 10.5523 20 10V6C20 5.46957 19.7893 4.96086 19.4142 4.58579C19.0391 4.21071 18.5304 4 18 4H6Z" fill="#1A1A1A"/>
<path fill-rule="evenodd" clip-rule="evenodd" d="M6 13C6 12.4477 6.44772 12 7 12H9C9.55228 12 10 12.4477 10 13C10 13.5523 9.55228 14 9 14H7C6.44772 14 6 13.5523 6 13Z" fill="#1A1A1A"/>
</svg>
