<svg width="24" height="24" viewBox="0 0 24 24" fill="none" xmlns="http://www.w3.org/2000/svg">
<path d="M20.6668 6C20.2463 5.99987 19.8413 6.15471 19.5329 6.43347C19.2246 6.71223 19.0357 7.09431 19.0042 7.50313L19 7.625V16.375C18.9999 16.785 19.1587 17.1798 19.4446 17.4804C19.7306 17.7811 20.1225 17.9652 20.5418 17.9959L20.6668 18H21.1675C21.3799 17.9998 21.5842 17.9205 21.7387 17.7783C21.8932 17.6361 21.9861 17.4419 21.9986 17.2351C22.011 17.0284 21.942 16.8248 21.8057 16.666C21.6693 16.5072 21.476 16.4051 21.265 16.3807L21.1675 16.375H20.6668V7.625H21.1675C21.3799 7.62477 21.5842 7.54547 21.7387 7.40331C21.8932 7.26115 21.9861 7.06685 21.9986 6.86012C22.011 6.65338 21.942 6.44982 21.8057 6.29101C21.6693 6.13221 21.476 6.03015 21.265 6.00569L21.1675 6H20.6668Z" fill="#808080"/>
<path d="M15.3337 4H8.66645C8.22438 4 7.80042 4.1712 7.48783 4.47595C7.17524 4.7807 6.99963 5.19402 6.99963 5.625V18.375C6.99963 18.806 7.17524 19.2193 7.48783 19.524C7.80042 19.8288 8.22438 20 8.66645 20H15.3337C15.7758 20 16.1997 19.8288 16.5123 19.524C16.8249 19.2193 17.0005 18.806 17.0005 18.375V5.625C17.0005 5.19402 16.8249 4.7807 16.5123 4.47595C16.1997 4.1712 15.7758 4 15.3337 4Z" fill="#1A1A1A"/>
<path d="M3.33319 6C3.75371 5.99987 4.15873 6.15471 4.46708 6.43347C4.77542 6.71223 4.96429 7.09431 4.99583 7.50313L5 7.625V16.375C5.00013 16.785 4.84131 17.1798 4.55538 17.4804C4.26945 17.7811 3.87753 17.9652 3.4582 17.9959L3.33319 18H2.83248C2.62006 17.9998 2.41575 17.9205 2.26129 17.7783C2.10683 17.6361 2.01388 17.4419 2.00143 17.2351C1.98898 17.0284 2.05798 16.8248 2.19431 16.666C2.33065 16.5072 2.52404 16.4051 2.73497 16.3807L2.83248 16.375H3.33319V7.625H2.83248C2.62006 7.62477 2.41575 7.54547 2.26129 7.40331C2.10683 7.26115 2.01388 7.06685 2.00143 6.86012C1.98898 6.65338 2.05798 6.44982 2.19431 6.29101C2.33065 6.13221 2.52404 6.03015 2.73497 6.00569L2.83248 6H3.33319Z" fill="#808080"/>
</svg>
