<svg width="24" height="24" viewBox="0 0 24 24" fill="none" xmlns="http://www.w3.org/2000/svg">
<path fill-rule="evenodd" clip-rule="evenodd" d="M3 14C3 13.4477 3.44772 13 4 13H10C10.5523 13 11 13.4477 11 14V20C11 20.5523 10.5523 21 10 21H4C3.44772 21 3 20.5523 3 20V14ZM5 15V19H9V15H5Z" fill="#1A1A1A"/>
<path fill-rule="evenodd" clip-rule="evenodd" d="M13 4C13 3.44772 13.4477 3 14 3H20C20.5523 3 21 3.44772 21 4V10C21 10.5523 20.5523 11 20 11H14C13.4477 11 13 10.5523 13 10V4ZM15 5V9H19V5H15Z" fill="#1A1A1A"/>
<path fill-rule="evenodd" clip-rule="evenodd" d="M17 13C17.5523 13 18 13.4477 18 14V16H20C20.5523 16 21 16.4477 21 17C21 17.5523 20.5523 18 20 18H18V20C18 20.5523 17.5523 21 17 21C16.4477 21 16 20.5523 16 20V18H14C13.4477 18 13 17.5523 13 17C13 16.4477 13.4477 16 14 16H16V14C16 13.4477 16.4477 13 17 13Z" fill="#808080"/>
<path fill-rule="evenodd" clip-rule="evenodd" d="M5.46927 3.30448C5.95457 3.10346 6.47471 3 7 3C7.52529 3 8.04543 3.10346 8.53073 3.30448C9.01604 3.5055 9.45699 3.80014 9.82843 4.17157C10.1999 4.54301 10.4945 4.98396 10.6955 5.46927C10.8965 5.95457 11 6.47471 11 7C11 7.52529 10.8965 8.04543 10.6955 8.53073C10.4945 9.01604 10.1999 9.45699 9.82843 9.82843C9.45699 10.1999 9.01604 10.4945 8.53073 10.6955C8.04543 10.8965 7.52529 11 7 11C6.47471 11 5.95457 10.8965 5.46927 10.6955C4.98396 10.4945 4.54301 10.1999 4.17157 9.82843C3.80014 9.45699 3.5055 9.01604 3.30448 8.53073C3.10346 8.04543 3 7.52529 3 7C3 6.47471 3.10346 5.95457 3.30448 5.46927C3.5055 4.98396 3.80014 4.54301 4.17157 4.17157C4.54301 3.80014 4.98396 3.5055 5.46927 3.30448ZM7 5C6.73736 5 6.47728 5.05173 6.23463 5.15224C5.99198 5.25275 5.7715 5.40007 5.58579 5.58579C5.40007 5.7715 5.25275 5.99198 5.15224 6.23463C5.05173 6.47728 5 6.73736 5 7C5 7.26264 5.05173 7.52272 5.15224 7.76537C5.25275 8.00802 5.40007 8.2285 5.58579 8.41421C5.7715 8.59993 5.99198 8.74725 6.23463 8.84776C6.47728 8.94827 6.73736 9 7 9C7.26264 9 7.52272 8.94827 7.76537 8.84776C8.00802 8.74725 8.2285 8.59993 8.41421 8.41421C8.59993 8.2285 8.74725 8.00802 8.84776 7.76537C8.94827 7.52272 9 7.26264 9 7C9 6.73736 8.94827 6.47728 8.84776 6.23463C8.74725 5.99198 8.59993 5.7715 8.41421 5.58579C8.2285 5.40007 8.00802 5.25275 7.76537 5.15224C7.52272 5.05173 7.26264 5 7 5Z" fill="#808080"/>
</svg>
