<svg width="24" height="24" viewBox="0 0 24 24" fill="none" xmlns="http://www.w3.org/2000/svg">
<path d="M6.19138 4.66044C10.0615 2.16523 15.3976 2.46416 18.8935 5.4456C22.5492 8.56442 23.0708 13.6725 20.0459 17.3431C17.1382 20.8713 11.8727 21.9545 7.58298 20.0462L3.20798 20.9778C2.85718 21.0524 2.49287 20.9337 2.25388 20.6663C2.01507 20.3989 1.93835 20.024 2.05173 19.6839L3.20114 16.2317C0.903856 12.3813 2.02488 7.6043 5.82126 4.91044L6.19138 4.66044ZM17.5957 6.96708C14.6943 4.49282 10.1367 4.3013 6.97848 6.5413C3.86471 8.75079 3.1292 12.5844 5.1279 15.5403C5.30198 15.7978 5.34727 16.1214 5.24899 16.4163L4.50095 18.6575L7.49216 18.0218L7.65622 18.0013C7.8213 17.994 7.98649 18.028 8.13669 18.1009C11.71 19.8355 16.1501 18.9244 18.5019 16.0706C20.8089 13.2712 20.45 9.40221 17.5957 6.96708Z" fill="#1A1A1A"/>
<path fill-rule="evenodd" clip-rule="evenodd" d="M8 13C8.55228 13 9 12.5523 9 12C9 11.4477 8.55228 11 8 11C7.44772 11 7 11.4477 7 12C7 12.5523 7.44772 13 8 13ZM12 13C12.5523 13 13 12.5523 13 12C13 11.4477 12.5523 11 12 11C11.4477 11 11 11.4477 11 12C11 12.5523 11.4477 13 12 13ZM16 13C16.5523 13 17 12.5523 17 12C17 11.4477 16.5523 11 16 11C15.4477 11 15 11.4477 15 12C15 12.5523 15.4477 13 16 13Z" fill="#808080"/>
</svg>
