<svg width="24" height="24" viewBox="0 0 24 24" fill="none" xmlns="http://www.w3.org/2000/svg">
<path fill-rule="evenodd" clip-rule="evenodd" d="M21.7198 6.80587C22.1032 7.20342 22.0917 7.83648 21.6941 8.21985L12.3608 17.2198C11.9734 17.5934 11.3599 17.5934 10.9725 17.2198L6.30587 12.7198C5.90831 12.3365 5.8968 11.7034 6.28016 11.3059C6.66352 10.9083 7.29658 10.8968 7.69414 11.2802L11.6667 15.1108L20.3059 6.78016C20.7034 6.3968 21.3365 6.40831 21.7198 6.80587Z" fill="#1A1A1A"/>
<path fill-rule="evenodd" clip-rule="evenodd" d="M16.6936 6.77968C17.0915 7.16277 17.1034 7.79582 16.7203 8.19364L12.387 12.6936C12.0039 13.0915 11.3708 13.1034 10.973 12.7203C10.5752 12.3372 10.5633 11.7042 10.9463 11.3064L15.2797 6.80636C15.6628 6.40854 16.2958 6.39659 16.6936 6.77968ZM2.30636 11.2797C2.70418 10.8966 3.33723 10.9085 3.72032 11.3064L8.05365 15.8064C8.43674 16.2042 8.4248 16.8372 8.02698 17.2203C7.62915 17.6034 6.9961 17.5915 6.61301 17.1936L2.27968 12.6936C1.89659 12.2958 1.90854 11.6628 2.30636 11.2797Z" fill="#1A1A1A"/>
</svg>
