<svg width="24" height="24" viewBox="0 0 24 24" fill="none" xmlns="http://www.w3.org/2000/svg">
<path fill-rule="evenodd" clip-rule="evenodd" d="M5 17C5 16.4477 5.44772 16 6 16H18C18.5523 16 19 16.4477 19 17C19 17.5523 18.5523 18 18 18H6C5.44772 18 5 17.5523 5 17Z" fill="#808080"/>
<path fill-rule="evenodd" clip-rule="evenodd" d="M11.9996 4C11.3084 4.0002 10.6389 4.23535 10.1023 4.66513C9.56576 5.09485 9.19462 5.69295 9.04892 6.35928C8.9905 6.62644 8.82523 6.85802 8.59157 7.0001C8.3579 7.14219 8.07625 7.18238 7.81217 7.11132C7.42856 7.00811 7.02812 6.98093 6.63381 7.03141C6.2395 7.08188 5.85933 7.20898 5.51502 7.4052C5.17072 7.60141 4.86915 7.86281 4.62727 8.17415C4.38541 8.48549 4.20792 8.84072 4.10463 9.2195C4.00134 9.59827 3.97419 9.99341 4.02467 10.3825C4.07515 10.7715 4.2023 11.1472 4.39914 11.488C4.59599 11.8288 4.85875 12.1282 5.17273 12.3689C5.50081 12.6204 5.89234 12.8215 6.25983 12.9204C6.69651 13.0379 7 13.4338 7 13.8861V19.9999L17 19.9993V13.8853C17 13.433 17.3036 13.037 17.7404 12.9196C18.5117 12.7123 19.201 12.1798 19.6005 11.4885C19.9981 10.8006 20.1039 9.98489 19.8956 9.22026C19.6872 8.45548 19.1809 7.8022 18.4857 7.40579C17.7903 7.00925 16.9639 6.90305 16.1889 7.11139C15.9247 7.1824 15.643 7.1421 15.4093 6.99988C15.1757 6.85766 15.0105 6.62593 14.9522 6.35867C14.6592 5.01447 13.4511 4.0001 11.9996 4ZM8.85204 3.10409C9.74438 2.38941 10.855 2.00024 11.9994 2C14.0653 2 15.8422 3.24178 16.6124 5.02035C17.6033 4.9481 18.6016 5.16959 19.4764 5.66838C20.6307 6.32658 21.4765 7.41453 21.8252 8.69455C22.174 9.97472 21.9963 11.3399 21.3322 12.4892C20.8006 13.409 19.9721 14.151 19 14.587V20.9992C19 21.5515 18.5523 21.9992 18.0001 21.9992L6.00006 22C5.73484 22 5.48047 21.8947 5.29292 21.7071C5.10537 21.5196 5 21.2652 5 21V14.5835C4.62196 14.4112 4.26714 14.1947 3.95601 13.9562C3.43394 13.556 2.99592 13.0573 2.66726 12.4883C2.33858 11.9192 2.12579 11.2911 2.04129 10.6398C1.95679 9.98848 2.00228 9.32703 2.17509 8.69331C2.3479 8.05961 2.64458 7.4663 3.04787 6.94717C3.45115 6.42806 3.95308 5.99335 4.52477 5.66756C5.09644 5.34178 5.7268 5.1312 6.37985 5.0476C6.71523 5.00466 7.05329 4.99564 7.38893 5.02019C7.71061 4.27638 8.21124 3.61731 8.85204 3.10409Z" fill="#1A1A1A"/>
</svg>
