<svg width="24" height="24" viewBox="0 0 24 24" fill="none" xmlns="http://www.w3.org/2000/svg">
<path d="M8.17708 2.76617C8.68725 2.555 9.27236 2.79715 9.48373 3.30719C9.69492 3.81739 9.45281 4.4025 8.94271 4.61383C7.97216 5.01558 7.08998 5.60469 6.34701 6.34723C5.95647 6.73755 5.32338 6.73757 4.93294 6.34723C4.54263 5.95669 4.54261 5.32361 4.93294 4.93317C5.86158 4.00504 6.964 3.26838 8.17708 2.76617Z" fill="#1A1A1A"/>
<path d="M2.7666 8.17621C2.97868 7.66627 3.56428 7.42507 4.07422 7.63715C4.58386 7.84933 4.82519 8.43401 4.61328 8.94379C4.21027 9.91283 4.00192 10.9519 4 12.0014C3.99902 12.5537 3.55033 13.0014 2.99805 13.0004C2.44593 12.9994 1.99916 12.5506 2 11.9985C2.00234 10.6865 2.26283 9.3876 2.7666 8.17621Z" fill="#1A1A1A"/>
<path d="M3.30721 14.5162C3.81739 14.305 4.4025 14.5471 4.61385 15.0572C5.01559 16.0277 5.60473 16.9099 6.34725 17.6529C6.73755 18.0434 6.73755 18.6765 6.34725 19.0669C5.9567 19.4573 5.32362 19.4573 4.93319 19.0669C4.00505 18.1383 3.2684 17.0359 2.76619 15.8228C2.55501 15.3126 2.79715 14.7275 3.30721 14.5162Z" fill="#1A1A1A"/>
<path d="M7.63715 19.9262C7.84922 19.4163 8.43385 19.1751 8.94379 19.3871C9.91283 19.7902 10.9519 19.9985 12.0014 20.0004C12.5536 20.0014 13.0012 20.4493 13.0004 21.0014C12.9994 21.5536 12.5506 22.0013 11.9985 22.0004C10.6864 21.9981 9.38765 21.7367 8.17621 21.2328C7.66627 21.0208 7.42508 20.4361 7.63715 19.9262Z" fill="#1A1A1A"/>
<path d="M17.6529 17.653C18.0435 17.2626 18.6765 17.2626 19.067 17.653C19.4573 18.0436 19.4575 18.6766 19.067 19.067C18.1383 19.9952 17.036 20.7318 15.8228 21.234C15.3125 21.4453 14.7274 21.2023 14.5162 20.692C14.3053 20.182 14.5473 19.5977 15.0572 19.3864C16.0277 18.9846 16.91 18.3954 17.6529 17.653Z" fill="#1A1A1A"/>
<path d="M21.0014 11C21.5537 11.001 22.0014 11.4497 22.0004 12.002C21.9981 13.3139 21.7367 14.6128 21.2329 15.8242C21.0207 16.3339 20.436 16.5752 19.9262 16.3633C19.4163 16.1512 19.1751 15.5656 19.3872 15.0557C19.7901 14.0866 19.9986 13.0475 20.0004 11.998C20.0015 11.446 20.4494 10.9992 21.0014 11Z" fill="#1A1A1A"/>
<path d="M17.653 4.93296C18.0435 4.54261 18.6766 4.54253 19.067 4.93296C19.9952 5.86162 20.7318 6.964 21.234 8.1771C21.4452 8.6874 21.2023 9.27251 20.692 9.48374C20.1819 9.69471 19.5977 9.45269 19.3864 8.94273C18.9846 7.97222 18.3955 7.08998 17.653 6.34702C17.2626 5.95646 17.2625 5.32339 17.653 4.93296Z" fill="#1A1A1A"/>
<path d="M12.002 2C13.3139 2.00236 14.6128 2.2628 15.8242 2.7666C16.3341 2.97874 16.5753 3.56433 16.3633 4.07422C16.1511 4.58402 15.5655 4.82533 15.0557 4.61328C14.0866 4.2103 13.0476 4.00187 11.998 4C11.4458 3.99893 10.999 3.55027 11 2.99805C11.0011 2.44584 11.4497 1.99902 12.002 2Z" fill="#1A1A1A"/>
<path d="M14.293 9.29297C14.6835 8.90245 15.3165 8.90245 15.707 9.29297C16.0975 9.68349 16.0975 10.3165 15.707 10.707L11.707 14.707C11.3165 15.0976 10.6835 15.0976 10.293 14.707L8.29295 12.707C7.90243 12.3165 7.90243 11.6835 8.29295 11.293C8.68348 10.9024 9.31649 10.9024 9.70702 11.293L11 12.5859L14.293 9.29297Z" fill="#1A1A1A"/>
</svg>
