<svg width="24" height="24" viewBox="0 0 24 24" fill="none" xmlns="http://www.w3.org/2000/svg">
<path fill-rule="evenodd" clip-rule="evenodd" d="M21.9975 13.736C21.9465 12.7685 21.1465 12 20.1665 12H18V15C18 15.5523 17.5523 16 17 16C16.4477 16 16 15.5523 16 15V12H13.8335L13.736 12.0025C12.7685 12.0535 12 12.8535 12 13.8335V20.1665L12.0025 20.264C12.0275 20.7327 12.2313 21.1741 12.5719 21.497C12.9125 21.82 13.3641 22 13.8335 22H20.1665L20.264 21.9975C21.2315 21.9465 22 21.1465 22 20.1665V13.8335L21.9975 13.736Z" fill="#1A1A1A"/>
<path fill-rule="evenodd" clip-rule="evenodd" d="M13.8284 4C13.6807 3.5821 13.4407 3.19808 13.1213 2.87868C12.5587 2.31607 11.7956 2 11 2H9C8.20435 2 7.44129 2.31607 6.87868 2.87868C6.55928 3.19808 6.31933 3.5821 6.17157 4H5C4.20435 4 3.44129 4.31607 2.87868 4.87868C2.31607 5.44129 2 6.20435 2 7V19C2 19.7957 2.31607 20.5587 2.87868 21.1213C3.44129 21.6839 4.20435 22 5 22H10.4668C10.1958 21.5023 10.036 20.9462 10.0053 20.3704C10.0044 20.352 10.0036 20.3336 10.0032 20.3153L10.0007 20.2178C10.0002 20.2007 10 20.1836 10 20.1665V13.8335C10 11.7836 11.6073 10.1119 13.6307 10.0053C13.6487 10.0043 13.6667 10.0036 13.6847 10.0032L13.7822 10.0007C13.7993 10.0002 13.8164 10 13.8335 10H18V7C18 6.20435 17.6839 5.44129 17.1213 4.87868C16.5587 4.31607 15.7956 4 15 4H13.8284ZM9 4C8.73478 4 8.48043 4.10536 8.29289 4.29289C8.10536 4.48043 8 4.73478 8 5C8 5.26522 8.10536 5.51957 8.29289 5.70711C8.48043 5.89464 8.73478 6 9 6H11C11.2652 6 11.5196 5.89464 11.7071 5.70711C11.8946 5.51957 12 5.26522 12 5C12 4.73478 11.8946 4.48043 11.7071 4.29289C11.5196 4.10536 11.2652 4 11 4H9Z" fill="#1A1A1A"/>
</svg>
