<svg width="24" height="24" viewBox="0 0 24 24" fill="none" xmlns="http://www.w3.org/2000/svg">
<path fill-rule="evenodd" clip-rule="evenodd" d="M13.2969 2.01465C13.9835 2.08291 14.6289 2.38671 15.1211 2.87891C15.4401 3.19796 15.6764 3.58269 15.8242 4H17L17.2969 4.01465C17.9835 4.08291 18.6289 4.38671 19.1211 4.87891C19.6837 5.44151 20 6.20435 20 7V19C20 19.7957 19.6837 20.5585 19.1211 21.1211C18.5585 21.6837 17.7957 22 17 22H7C6.20435 22 5.44151 21.6837 4.87891 21.1211C4.38671 20.6289 4.08291 19.9835 4.01465 19.2969L4 19V7C4 6.20435 4.3163 5.44152 4.87891 4.87891C5.44152 4.3163 6.20435 4 7 4H8.17578C8.32364 3.58269 8.55985 3.19796 8.87891 2.87891C9.44152 2.3163 10.2044 2 11 2H13L13.2969 2.01465ZM7 6C6.73478 6 6.4805 6.10543 6.29297 6.29297C6.10543 6.4805 6 6.73478 6 7V19L6.00488 19.0986C6.02757 19.3276 6.12883 19.5429 6.29297 19.707C6.48051 19.8946 6.73478 20 7 20H17C17.2652 20 17.5195 19.8946 17.707 19.707C17.8946 19.5195 18 19.2652 18 19V7C18 6.73478 17.8946 6.48051 17.707 6.29297C17.5429 6.12883 17.3276 6.02757 17.0986 6.00488L17 6H15.8242C15.6764 6.41731 15.4401 6.80204 15.1211 7.12109C14.6289 7.61329 13.9835 7.91709 13.2969 7.98535L13 8H11C10.2044 8 9.44152 7.6837 8.87891 7.12109C8.55985 6.80204 8.32364 6.41731 8.17578 6H7ZM11 4C10.7348 4 10.4805 4.10543 10.293 4.29297C10.1054 4.48051 10 4.73478 10 5C10 5.26522 10.1054 5.51949 10.293 5.70703C10.4805 5.89457 10.7348 6 11 6H13L13.0986 5.99512C13.3276 5.97243 13.5429 5.87117 13.707 5.70703C13.8946 5.51949 14 5.26522 14 5C14 4.73478 13.8946 4.48051 13.707 4.29297C13.5429 4.12883 13.3276 4.02757 13.0986 4.00488L13 4H11Z" fill="#1A1A1A"/>
<path d="M15 11C15.5523 11 16 11.4477 16 12C16 12.5523 15.5523 13 15 13H9C8.44772 13 8 12.5523 8 12C8 11.4477 8.44772 11 9 11H15Z" fill="#1A1A1A"/>
<path d="M15 15C15.5523 15 16 15.4477 16 16C16 16.5523 15.5523 17 15 17H9C8.44772 17 8 16.5523 8 16C8 15.4477 8.44772 15 9 15H15Z" fill="#1A1A1A"/>
</svg>
