<svg width="24" height="24" viewBox="0 0 24 24" fill="none" xmlns="http://www.w3.org/2000/svg">
<path fill-rule="evenodd" clip-rule="evenodd" d="M9 4C8.73478 4 8.48043 4.10536 8.29289 4.29289C8.10536 4.48043 8 4.73478 8 5C8 5.26522 8.10536 5.51957 8.29289 5.70711C8.48043 5.89464 8.73478 6 9 6H11C11.2652 6 11.5196 5.89464 11.7071 5.70711C11.8946 5.51957 12 5.26522 12 5C12 4.73478 11.8946 4.48043 11.7071 4.29289C11.5196 4.10536 11.2652 4 11 4H9ZM13.1213 2.87868C13.4407 3.19808 13.6807 3.5821 13.8284 4H15C15.7956 4 16.5587 4.31607 17.1213 4.87868C17.6839 5.44129 18 6.20435 18 7V10.0718C17.6707 10.0242 17.3366 10 17 10C15.1435 10 13.363 10.7375 12.0503 12.0503C10.7375 13.363 10 15.1435 10 17C10 18.8565 10.7375 20.637 12.0503 21.9497C12.0671 21.9666 12.084 21.9833 12.101 22H5C4.20435 22 3.44129 21.6839 2.87868 21.1213C2.31607 20.5587 2 19.7957 2 19V7C2 6.20435 2.31607 5.44129 2.87868 4.87868C3.44129 4.31607 4.20435 4 5 4H6.17157C6.31933 3.5821 6.55928 3.19808 6.87868 2.87868C7.44129 2.31607 8.20435 2 9 2H11C11.7956 2 12.5587 2.31607 13.1213 2.87868Z" fill="#1A1A1A"/>
<path fill-rule="evenodd" clip-rule="evenodd" d="M17 12C15.6739 12 14.4021 12.5268 13.4645 13.4645C12.5268 14.4021 12 15.6739 12 17C12 18.3261 12.5268 19.5979 13.4645 20.5355C14.4021 21.4732 15.6739 22 17 22C18.3261 22 19.5979 21.4732 20.5355 20.5355C21.4732 19.5979 22 18.3261 22 17C22 15.6739 21.4732 14.4021 20.5355 13.4645C19.5979 12.5268 18.3261 12 17 12ZM18 15.496C18 14.9437 17.5523 14.496 17 14.496C16.4477 14.496 16 14.9437 16 15.496V17C16 17.2652 16.1054 17.5195 16.2929 17.7071L17.2929 18.7071C17.6834 19.0976 18.3166 19.0976 18.7071 18.7071C19.0976 18.3166 19.0976 17.6834 18.7071 17.2929L18 16.5858V15.496Z" fill="#1A1A1A"/>
</svg>
