<svg width="24" height="24" viewBox="0 0 24 24" fill="none" xmlns="http://www.w3.org/2000/svg">
<path fill-rule="evenodd" clip-rule="evenodd" d="M10.3216 2.14132C12.3674 1.79307 14.4708 2.0899 16.3404 2.99066C18.2099 3.89142 19.7529 5.35149 20.7554 7.16846C21.7579 8.98543 22.1704 11.0693 21.9355 13.1312C21.873 13.6799 21.3775 14.0741 20.8288 14.0116C20.28 13.9491 19.8859 13.4536 19.9484 12.9048C20.1362 11.2553 19.8063 9.58825 19.0043 8.13467C18.2022 6.68109 16.9679 5.51304 15.4722 4.79243C13.9766 4.07182 12.2939 3.83436 10.6572 4.11296C9.02062 4.39156 7.51122 5.17242 6.33827 6.3473C5.16532 7.52217 4.38694 9.03286 4.11102 10.6699C3.83511 12.307 4.07534 13.9894 4.7984 15.4838C5.52147 16.9782 6.69155 18.2107 8.14644 19.0103C9.60133 19.81 11.269 20.1372 12.9182 19.9466C13.4668 19.8832 13.9629 20.2766 14.0263 20.8252C14.0897 21.3738 13.6964 21.87 13.1477 21.9334C11.0863 22.1716 9.00172 21.7626 7.18311 20.7631C5.36449 19.7635 3.90189 18.2229 2.99806 16.3549C2.09423 14.4868 1.79395 12.3839 2.13884 10.3375C2.48373 8.2912 3.45671 6.40284 4.92289 4.93425C6.38908 3.46565 8.27584 2.48957 10.3216 2.14132Z" fill="#1A1A1A"/>
<path fill-rule="evenodd" clip-rule="evenodd" d="M12 6C12.5523 6 13 6.44772 13 7V11.5858L14.7071 13.2929C15.0976 13.6834 15.0976 14.3166 14.7071 14.7071C14.3166 15.0976 13.6834 15.0976 13.2929 14.7071L11.2929 12.7071C11.1054 12.5196 11 12.2652 11 12V7C11 6.44772 11.4477 6 12 6Z" fill="#1A1A1A"/>
<path fill-rule="evenodd" clip-rule="evenodd" d="M17 16C17.5523 16 18 16.4477 18 17V22C18 22.5523 17.5523 23 17 23C16.4477 23 16 22.5523 16 22V17C16 16.4477 16.4477 16 17 16Z" fill="#808080"/>
<path fill-rule="evenodd" clip-rule="evenodd" d="M21 16C21.5523 16 22 16.4477 22 17V22C22 22.5523 21.5523 23 21 23C20.4477 23 20 22.5523 20 22V17C20 16.4477 20.4477 16 21 16Z" fill="#808080"/>
</svg>
