<svg width="24" height="24" viewBox="0 0 24 24" fill="none" xmlns="http://www.w3.org/2000/svg">
<path fill-rule="evenodd" clip-rule="evenodd" d="M12 6C12.5523 6 13 6.44772 13 7V11.5858L14.7071 13.2929C15.0976 13.6834 15.0976 14.3166 14.7071 14.7071C14.3166 15.0976 13.6834 15.0976 13.2929 14.7071L11.2929 12.7071C11.1054 12.5196 11 12.2652 11 12V7C11 6.44772 11.4477 6 12 6Z" fill="#1A1A1A"/>
<path fill-rule="evenodd" clip-rule="evenodd" d="M16.5073 15.1298C16.8208 14.9523 17.2056 14.9571 17.5145 15.1425L22.5145 18.1425C22.8157 18.3232 23 18.6487 23 19C23 19.3513 22.8157 19.6768 22.5145 19.8575L17.5145 22.8575C17.2056 23.0429 16.8208 23.0477 16.5073 22.8702C16.1938 22.6927 16 22.3603 16 22V16C16 15.6397 16.1938 15.3073 16.5073 15.1298ZM18 17.7662V20.2338L20.0563 19L18 17.7662Z" fill="#808080"/>
<path fill-rule="evenodd" clip-rule="evenodd" d="M15.8551 4.99039C14.3797 4.17912 12.6859 3.85407 11.0149 4.06153C9.34399 4.26899 7.7811 4.99838 6.54884 6.14582C5.31658 7.29327 4.47778 8.80027 4.15189 10.4522C3.826 12.1041 4.02964 13.8168 4.73381 15.3462C5.43798 16.8757 6.60677 18.144 8.07374 18.9705C9.54071 19.797 11.2311 20.1395 12.9041 19.9494C13.4528 19.887 13.9482 20.2813 14.0106 20.8301C14.073 21.3788 13.6787 21.8742 13.1299 21.9366C11.0387 22.1743 8.92574 21.7461 7.09202 20.713C5.25831 19.6798 3.79732 18.0945 2.91711 16.1827C2.0369 14.2708 1.78235 12.13 2.18971 10.0651C2.59707 8.00019 3.64557 6.11644 5.1859 4.68213C6.72622 3.24783 8.67983 2.33609 10.7685 2.07677C12.8572 1.81745 14.9745 2.22376 16.8188 3.23784C18.6631 4.25193 20.1404 5.82208 21.0403 7.72469C21.9403 9.6273 22.217 11.7654 21.831 13.8344C21.7298 14.3773 21.2075 14.7353 20.6646 14.634C20.1217 14.5328 19.7637 14.0105 19.865 13.4676C20.1737 11.8124 19.9524 10.102 19.2324 8.57986C18.5124 7.05778 17.3306 5.80166 15.8551 4.99039Z" fill="#1A1A1A"/>
</svg>
