<svg width="24" height="24" viewBox="0 0 24 24" fill="none" xmlns="http://www.w3.org/2000/svg">
<path fill-rule="evenodd" clip-rule="evenodd" d="M10.943 2.05605C12.936 1.84419 14.9467 2.23607 16.7142 3.18088C18.4818 4.12569 19.9246 5.57982 20.8557 7.35466C21.7867 9.12951 22.1629 11.1432 21.9356 13.1344C21.8729 13.6832 21.3773 14.0772 20.8286 14.0145C20.2799 13.9519 19.8858 13.4563 19.9485 12.9076C20.1304 11.3145 19.8294 9.70361 19.0846 8.28374C18.3397 6.86386 17.1854 5.70056 15.7714 4.94471C14.3574 4.18886 12.7488 3.87535 11.1544 4.04485C9.56005 4.21434 8.05338 4.85901 6.82985 5.89525C5.60632 6.93148 4.72239 8.31146 4.29272 9.85619C3.86305 11.4009 3.90747 13.0391 4.4202 14.5583C4.93293 16.0775 5.89033 17.4075 7.16821 18.376C8.44608 19.3444 9.98547 19.9065 11.5867 19.9893C12.1382 20.0179 12.5622 20.4881 12.5337 21.0397C12.5051 21.5912 12.0349 22.0152 11.4833 21.9867C9.48181 21.8831 7.55757 21.1805 5.96023 19.9699C4.36288 18.7594 3.16614 17.0968 2.52522 15.1979C1.8843 13.2989 1.82879 11.2511 2.36588 9.32023C2.90296 7.38932 4.00787 5.66435 5.53728 4.36905C7.06669 3.07376 8.95004 2.26792 10.943 2.05605Z" fill="#1A1A1A"/>
<path fill-rule="evenodd" clip-rule="evenodd" d="M12 6C12.5523 6 13 6.44772 13 7V11.5858L15.7071 14.2929C16.0976 14.6834 16.0976 15.3166 15.7071 15.7071C15.3166 16.0976 14.6834 16.0976 14.2929 15.7071L11.2929 12.7071C11.1054 12.5196 11 12.2652 11 12V7C11 6.44772 11.4477 6 12 6Z" fill="#1A1A1A"/>
<path fill-rule="evenodd" clip-rule="evenodd" d="M21.7071 16.2929C22.0976 16.6834 22.0976 17.3166 21.7071 17.7071L17.7071 21.7071C17.3166 22.0976 16.6834 22.0976 16.2929 21.7071L14.2929 19.7071C13.9024 19.3166 13.9024 18.6834 14.2929 18.2929C14.6834 17.9024 15.3166 17.9024 15.7071 18.2929L17 19.5858L20.2929 16.2929C20.6834 15.9024 21.3166 15.9024 21.7071 16.2929Z" fill="#808080"/>
</svg>
