<svg width="24" height="24" viewBox="0 0 24 24" fill="none" xmlns="http://www.w3.org/2000/svg">
<path fill-rule="evenodd" clip-rule="evenodd" d="M10.388 2.13115C12.445 1.79522 14.5556 2.11041 16.4247 3.03267C18.2938 3.95493 19.828 5.43815 20.8129 7.27501C21.7977 9.11187 22.1841 11.2106 21.9179 13.2777C21.8473 13.8255 21.3461 14.2124 20.7983 14.1418C20.2505 14.0713 19.8637 13.57 19.9342 13.0223C20.1472 11.3685 19.8382 9.68958 19.0502 8.22009C18.2623 6.7506 17.035 5.56402 15.5397 4.82622C14.0444 4.08841 12.356 3.83626 10.7104 4.105C9.06478 4.37374 7.54428 5.14994 6.36141 6.32511C5.17854 7.50028 4.39243 9.01568 4.11295 10.6595C3.83346 12.3033 4.07459 13.9933 4.80261 15.4934C5.53064 16.9935 6.70917 18.2286 8.17348 19.026C9.6378 19.8235 11.3147 20.1436 12.9698 19.9414C13.518 19.8744 14.0167 20.2645 14.0837 20.8127C14.1506 21.361 13.7605 21.8597 13.2123 21.9266C11.1434 22.1793 9.04731 21.7793 7.21692 20.7825C5.38652 19.7856 3.91335 18.2417 3.00332 16.3666C2.09329 14.4916 1.79189 12.379 2.14124 10.3243C2.49059 8.2695 3.47324 6.37525 4.95182 4.90629C6.43041 3.43733 8.33103 2.46707 10.388 2.13115Z" fill="#1A1A1A"/>
<path fill-rule="evenodd" clip-rule="evenodd" d="M12 6C12.5523 6 13 6.44772 13 7V11.5858L14.7071 13.2929C15.0976 13.6834 15.0976 14.3166 14.7071 14.7071C14.3166 15.0976 13.6834 15.0976 13.2929 14.7071L11.2929 12.7071C11.1054 12.5196 11 12.2652 11 12V7C11 6.44772 11.4477 6 12 6Z" fill="#1A1A1A"/>
<path fill-rule="evenodd" clip-rule="evenodd" d="M16.2929 16.2929C16.6834 15.9024 17.3166 15.9024 17.7071 16.2929L19.5 18.0858L21.2929 16.2929C21.6834 15.9024 22.3166 15.9024 22.7071 16.2929C23.0976 16.6834 23.0976 17.3166 22.7071 17.7071L20.9142 19.5L22.7071 21.2929C23.0976 21.6834 23.0976 22.3166 22.7071 22.7071C22.3166 23.0976 21.6834 23.0976 21.2929 22.7071L19.5 20.9142L17.7071 22.7071C17.3166 23.0976 16.6834 23.0976 16.2929 22.7071C15.9024 22.3166 15.9024 21.6834 16.2929 21.2929L18.0858 19.5L16.2929 17.7071C15.9024 17.3166 15.9024 16.6834 16.2929 16.2929Z" fill="#808080"/>
</svg>
