<svg width="24" height="24" viewBox="0 0 24 24" fill="none" xmlns="http://www.w3.org/2000/svg">
<path fill-rule="evenodd" clip-rule="evenodd" d="M17.2929 14.2929C17.6834 13.9024 18.3166 13.9024 18.7071 14.2929L21.7071 17.2929C22.0976 17.6834 22.0976 18.3166 21.7071 18.7071C21.3166 19.0976 20.6834 19.0976 20.2929 18.7071L19 17.4142V21C19 21.5523 18.5523 22 18 22C17.4477 22 17 21.5523 17 21V17.4142L15.7071 18.7071C15.3166 19.0976 14.6834 19.0976 14.2929 18.7071C13.9024 18.3166 13.9024 17.6834 14.2929 17.2929L17.2929 14.2929Z" fill="#1A1A1A"/>
<path fill-rule="evenodd" clip-rule="evenodd" d="M16.033 3.3916C14.4253 2.07029 12.2044 1.66205 10.201 2.28705C8.44403 2.83582 7.04358 4.12257 6.42861 5.77858C3.93202 6.143 2 8.26916 2 10.8594C2 13.6768 4.28434 15.9448 7.09523 15.9955C7.12684 15.9985 7.15889 16 7.1913 16H12.7638C12.8008 15.9588 12.8391 15.9183 12.8787 15.8787L15.8787 12.8787C17.0503 11.7071 18.9497 11.7071 20.1213 12.8787L21.3303 14.0877C21.7548 13.4218 22 12.628 22 11.7822C22 9.55173 20.2936 7.68154 18.0898 7.57053C18.0671 5.97417 17.324 4.45047 16.033 3.3916Z" fill="#1A1A1A"/>
</svg>
