<svg width="24" height="24" viewBox="0 0 24 24" fill="none" xmlns="http://www.w3.org/2000/svg">
<path d="M7.28068 2.02654C8.34654 1.93831 9.60675 2.06853 10.737 2.43992C11.5594 2.71036 12.1068 3.20424 12.4449 3.78585C12.4467 3.78403 12.449 3.78273 12.4508 3.78091C12.7967 3.43105 13.2204 3.09983 13.7048 2.92054C14.5175 2.61983 15.5267 2.57516 16.4273 2.7544C17.3087 2.9299 18.2875 3.36358 18.8225 4.22098C18.9594 4.4405 18.9941 4.70896 18.9164 4.95576C18.8388 5.20251 18.6569 5.40298 18.419 5.50462L15.7885 6.62705C16.3337 6.79701 16.8987 7.042 17.4647 7.38952H17.4657C19.5386 8.6634 20.0168 10.3195 20.0468 11.4115C20.0765 12.5007 19.1035 13.0581 18.2628 12.9849L18.0966 12.9612C17.8185 12.9073 17.4 12.8093 17.076 12.6101C16.5446 12.2833 16.3865 11.7364 16.3245 11.5569C16.3105 11.5164 16.2967 11.4846 16.2869 11.459C16.2491 11.4603 16.1961 11.4619 16.1237 11.4679C15.9389 11.4832 15.4331 11.5501 14.9498 11.2998L14.8539 11.2454C14.3216 10.9185 14.1633 10.3705 14.1013 10.1912C14.0929 10.1666 14.0835 10.1457 14.0766 10.1269C14.0494 10.1314 14.0167 10.135 13.9787 10.1427C13.8705 10.1646 13.6742 10.2086 13.4823 10.2278C13.2787 10.2481 13.009 10.2499 12.7218 10.1556H12.7208C12.5205 10.0894 12.3586 9.97857 12.2501 9.8935C12.1329 9.80169 12.0237 9.69656 11.9267 9.59484C11.8246 9.48785 11.724 9.36976 11.627 9.25069C11.5948 9.3254 11.5597 9.40211 11.5262 9.4821C11.1157 10.4621 10.6296 11.8145 10.3147 13.3172C10.0011 14.8137 9.87602 16.6294 9.83212 18.0967C9.81034 18.8247 9.80846 19.4564 9.81234 19.9054C9.81295 19.9756 9.81449 20.0414 9.81531 20.1022C10.6385 20.1813 11.5408 20.2278 12.4914 20.2278C14.5427 20.2278 16.3711 20.0217 17.6605 19.7037C18.3119 19.543 18.7766 19.3658 19.0569 19.2023C19.0672 19.1963 19.0762 19.1892 19.0856 19.1835C18.9085 19.056 18.6013 18.9018 18.1233 18.7573C17.1147 18.4524 15.561 18.246 13.506 18.246C13.0168 18.2458 12.62 17.8491 12.6199 17.3599C12.6199 16.8707 13.0168 16.4741 13.506 16.4738C15.6534 16.4738 17.3984 16.687 18.6366 17.0613C19.251 17.2471 19.7949 17.489 20.204 17.8059C20.6131 18.1228 20.9873 18.6002 20.9873 19.2369C20.9872 20.0085 20.377 20.484 19.9499 20.7332C19.4601 21.0188 18.8102 21.2455 18.0848 21.4244C16.62 21.7857 14.6425 22 12.4914 22C10.3404 22 8.36357 21.7857 6.89895 21.4244C6.1735 21.2455 5.52359 21.0188 5.03382 20.7332C4.63343 20.4996 4.0721 20.0672 4.00336 19.3783L3.99643 19.2369L4.00336 19.0985C4.06928 18.4236 4.60811 17.9958 4.99723 17.7624C5.41676 17.5108 5.96082 17.6467 6.21263 18.066C6.44851 18.4594 6.3438 18.9622 5.98419 19.231C6.26864 19.3856 6.71331 19.5533 7.3232 19.7037C7.54639 19.7587 7.78636 19.8082 8.04018 19.856C8.03684 19.3942 8.03937 18.7644 8.06094 18.0433C8.10582 16.5434 8.23431 14.6049 8.58013 12.9542C8.82321 11.7941 9.15789 10.724 9.48797 9.82625C9.38573 9.81016 9.29239 9.79231 9.21008 9.77482C9.02247 9.73497 8.9293 9.71232 8.83033 9.69472C8.81909 9.71007 8.80603 9.72776 8.79176 9.74812C8.69927 9.8802 8.39242 10.3772 7.78998 10.5264C7.20281 10.6721 6.69336 10.3943 6.54392 10.3237C6.50796 10.3067 6.47741 10.2948 6.45294 10.2841C6.44783 10.2899 6.44202 10.296 6.43613 10.3029C6.3626 10.3892 6.13501 10.6975 5.83782 10.9309C5.57152 11.1397 5.27116 11.2145 5.05064 11.2434C4.82667 11.2726 4.60775 11.2635 4.42761 11.2454V11.2464C4.4264 11.2462 4.42486 11.2455 4.42365 11.2454C4.42103 11.2451 4.41834 11.2456 4.41574 11.2454V11.2444C4.21412 11.2246 4.01616 11.1678 3.83425 11.0733C3.64883 10.9769 3.48169 10.8436 3.34671 10.6777C3.21158 10.5117 3.11194 10.3169 3.05794 10.1051C3.0039 9.89297 2.99823 9.67139 3.04113 9.45639C3.13683 8.95243 3.36916 8.27646 3.92127 7.63576C4.48179 6.98534 5.32702 6.42306 6.55975 6.09204L7.00476 5.98326C7.09484 5.96357 7.18407 5.94729 7.27178 5.93085L4.91911 4.46624C4.51687 4.21563 4.38317 3.6926 4.6155 3.27952C4.88522 2.80014 5.35553 2.51699 5.78244 2.34794C6.22767 2.17168 6.74758 2.07069 7.28068 2.02654ZM16.5371 8.89863C15.2118 8.08525 13.8939 8.00166 12.969 8.09166C13.0537 8.19744 13.1339 8.29353 13.2083 8.37153C13.247 8.41207 13.2817 8.44052 13.3072 8.4635C13.3526 8.45687 13.4461 8.44189 13.6276 8.40515C13.8506 8.36001 14.4633 8.21448 15.024 8.55844C15.5566 8.88519 15.7148 9.43379 15.7766 9.61264C15.7902 9.65216 15.8035 9.6833 15.8132 9.70857C15.851 9.70723 15.9043 9.70768 15.9773 9.70164C16.1747 9.68532 16.7365 9.61068 17.2471 9.92415H17.2481C17.7794 10.251 17.9379 10.7983 17.9997 10.9774C18.0234 11.046 18.0414 11.0913 18.0531 11.1198C18.0722 11.1272 18.0968 11.1383 18.1293 11.1484C18.1662 11.1599 18.2072 11.1702 18.2509 11.1811C18.1666 10.5804 17.8183 9.68691 16.5371 8.89962V8.89863ZM10.3147 7.85036C9.72515 7.60886 8.64405 7.36743 7.0196 7.80388C6.08899 8.05376 5.56639 8.44227 5.26424 8.79281C5.09784 8.98592 4.98504 9.18363 4.90823 9.36738C4.95086 9.31557 5.00562 9.24954 5.08723 9.15377C5.26454 8.9457 5.55615 8.64162 6.0544 8.51789H6.05539C6.6424 8.37269 7.15231 8.65115 7.30144 8.72161C7.31349 8.7273 7.32535 8.73152 7.33606 8.73645C7.33726 8.73474 7.33879 8.73324 7.34001 8.7315C7.43198 8.60022 7.73848 8.10089 8.34081 7.95123H8.3418C8.62919 7.8802 8.8983 7.90849 9.07855 7.93739C9.24748 7.96448 9.46139 8.01645 9.57796 8.04123C9.87438 8.1042 10.0476 8.11289 10.2 8.06595C10.2006 8.06578 10.2065 8.0632 10.2178 8.05606C10.251 7.98372 10.284 7.91542 10.3147 7.85036ZM12.6832 7.95222V7.95618L12.6842 7.95519V7.95222H12.6832ZM10.1842 4.12308C9.28555 3.82777 8.26332 3.72357 7.42704 3.79277C7.35761 3.79852 7.29016 3.80664 7.2253 3.81453L10.9288 6.11973C10.9854 5.98351 11.0483 5.84484 11.1167 5.70537C11.1238 5.57451 11.1243 5.44367 11.1108 5.31573C11.0514 4.75153 10.7981 4.32506 10.1842 4.12308ZM16.0812 4.49294C15.4449 4.36632 14.7752 4.41348 14.3199 4.58194C14.1703 4.63731 13.9592 4.77565 13.7107 5.02696C13.4826 5.25774 13.2575 5.54914 13.055 5.86656L16.2058 4.52162C16.1653 4.51201 16.1237 4.5014 16.0812 4.49294Z" fill="#1A1A1A"/>
</svg>
