<svg width="24" height="24" viewBox="0 0 24 24" fill="none" xmlns="http://www.w3.org/2000/svg">
<path d="M8 2C6.53126 2 5.07312 2.34729 3.94997 3.02119C2.8371 3.68891 2 4.72757 2 6C2 7.27243 2.8371 8.31109 3.94997 8.97881C5.07312 9.65271 6.53126 10 8 10C9.46874 10 10.9269 9.65271 12.05 8.97881C13.1629 8.31109 14 7.27243 14 6C14 4.72757 13.1629 3.68891 12.05 3.02119C10.9269 2.34729 9.46874 2 8 2Z" fill="#1A1A1A"/>
<path d="M2.00022 10.0361C2.01623 11.3365 2.89486 12.3458 3.95017 12.9789C5.03515 13.6298 6.46942 14 8 14C9.16306 14 10.2705 13.7863 11.2113 13.398C11.5935 12.2559 12.5895 11.3519 13.7783 11.1081C13.9154 10.7776 13.9951 10.4195 13.9998 10.0361C13.7021 10.2876 13.3904 10.507 13.079 10.6938C11.5848 11.5904 9.75381 12 8 12C6.24619 12 4.41525 11.5904 2.92098 10.6938C2.60965 10.507 2.29793 10.2876 2.00022 10.0361Z" fill="#1A1A1A"/>
<path d="M11.5153 21.2637C11.2152 20.7614 11.0414 20.1817 11.0431 19.5739C10.0785 19.8573 9.04377 20 8.00002 20C6.16948 20 4.36661 19.561 2.92126 18.6939C2.61613 18.5108 2.30294 18.2917 2.00023 18.0364C2.01635 19.3366 2.89493 20.3458 3.95017 20.9789C5.03515 21.6298 6.46942 22 8 22C9.29086 22 10.5132 21.7367 11.5153 21.2637Z" fill="#1A1A1A"/>
<path d="M10.0823 17.7606C9.93803 17.1049 9.98347 16.4092 10.2185 15.7787C9.49887 15.926 8.75178 16 8.00002 16C6.16948 16 4.36661 15.561 2.92127 14.6939C2.61613 14.5109 2.30295 14.2917 2.00023 14.0364C2.01635 15.3366 2.89493 16.3458 3.95017 16.9789C5.03515 17.6298 6.46942 18 8 18C8.72463 18 9.42767 17.917 10.0823 17.7606Z" fill="#1A1A1A"/>
<path fill-rule="evenodd" clip-rule="evenodd" d="M18.3235 13.0406C18.3369 13.096 18.3632 13.1474 18.4002 13.1907C18.4372 13.234 18.484 13.2679 18.5366 13.2897C18.5892 13.3115 18.6462 13.3206 18.703 13.3163C18.7598 13.3119 18.8148 13.2942 18.8635 13.2646C20.0829 12.5221 21.4784 13.9171 20.7359 15.1365C20.7063 15.1852 20.6886 15.2401 20.6842 15.2969C20.6798 15.3536 20.6888 15.4107 20.7106 15.4633C20.7324 15.5159 20.7663 15.5626 20.8095 15.5997C20.8527 15.6367 20.9041 15.6631 20.9594 15.6765C22.3469 16.013 22.3469 17.9865 20.9594 18.3235C20.904 18.3369 20.8526 18.3632 20.8093 18.4002C20.766 18.4372 20.7321 18.484 20.7103 18.5366C20.6884 18.5892 20.6794 18.6462 20.6837 18.703C20.6881 18.7598 20.7058 18.8148 20.7354 18.8635C21.4779 20.0829 20.0829 21.4784 18.8635 20.7359C18.8148 20.7063 18.7599 20.6886 18.7031 20.6842C18.6464 20.6798 18.5893 20.6888 18.5367 20.7106C18.4841 20.7324 18.4374 20.7663 18.4003 20.8095C18.3633 20.8527 18.3369 20.9041 18.3235 20.9594C17.987 22.3469 16.0135 22.3469 15.6765 20.9594C15.6631 20.904 15.6368 20.8526 15.5998 20.8093C15.5628 20.766 15.516 20.7321 15.4634 20.7103C15.4108 20.6884 15.3538 20.6794 15.297 20.6837C15.2402 20.6881 15.1852 20.7058 15.1365 20.7354C13.9171 21.4779 12.5216 20.0829 13.2641 18.8635C13.2937 18.8148 13.3114 18.7599 13.3158 18.7031C13.3202 18.6464 13.3112 18.5893 13.2894 18.5367C13.2676 18.4841 13.2337 18.4374 13.1905 18.4003C13.1473 18.3633 13.0959 18.3369 13.0406 18.3235C11.6531 17.987 11.6531 16.0135 13.0406 15.6765C13.096 15.6631 13.1474 15.6368 13.1907 15.5998C13.234 15.5628 13.2679 15.516 13.2897 15.4634C13.3115 15.4108 13.3206 15.3538 13.3163 15.297C13.3119 15.2402 13.2942 15.1852 13.2646 15.1365C12.5221 13.9171 13.9171 12.5216 15.1365 13.2641C15.1851 13.2939 15.2401 13.3118 15.2969 13.3163C15.3538 13.3209 15.4109 13.3118 15.4635 13.29C15.5162 13.2682 15.563 13.2343 15.6 13.1909C15.637 13.1476 15.6632 13.096 15.6765 13.0406C16.013 11.6531 17.9865 11.6531 18.3235 13.0406ZM15.9394 15.9394C16.2207 15.6581 16.6022 15.5 17 15.5C17.3978 15.5 17.7793 15.6581 18.0606 15.9394C18.3419 16.2207 18.5 16.6022 18.5 17C18.5 17.3978 18.3419 17.7793 18.0606 18.0606C17.7793 18.3419 17.3978 18.5 17 18.5C16.6022 18.5 16.2207 18.3419 15.9394 18.0606C15.6581 17.7793 15.5 17.3978 15.5 17C15.5 16.6022 15.6581 16.2207 15.9394 15.9394Z" fill="#1A1A1A"/>
</svg>
