<svg width="24" height="24" viewBox="0 0 24 24" fill="none" xmlns="http://www.w3.org/2000/svg">
<path d="M20 14C20 13.7543 19.7749 13.263 18.7959 12.7734C17.8763 12.3136 16.5354 12 15 12C13.4646 12 12.1237 12.3136 11.2041 12.7734C10.2251 13.263 10 13.7543 10 14C10 14.2457 10.2251 14.737 11.2041 15.2266C12.1237 15.6864 13.4646 16 15 16C16.5354 16 17.8763 15.6864 18.7959 15.2266C19.7749 14.737 20 14.2457 20 14ZM22 14C22 15.4111 20.8824 16.4195 19.6904 17.0156C18.4385 17.6416 16.7786 18 15 18C13.2214 18 11.5615 17.6416 10.3096 17.0156C9.1176 16.4195 8 15.4111 8 14C8 12.5889 9.1176 11.5805 10.3096 10.9844C11.5615 10.3584 13.2214 10 15 10C16.7786 10 18.4385 10.3584 19.6904 10.9844C20.8824 11.5805 22 12.5889 22 14Z" fill="#1A1A1A"/>
<path d="M8 18V14C8 13.4477 8.44772 13 9 13C9.55228 13 10 13.4477 10 14V18C10 18.2451 10.2248 18.7367 11.2041 19.2266C12.1238 19.6865 13.4647 20 15 20C16.5353 20 17.8762 19.6865 18.7959 19.2266C19.7752 18.7367 20 18.2451 20 18V14C20 13.4477 20.4477 13 21 13C21.5523 13 22 13.4477 22 14V18C22 19.4108 20.8823 20.4195 19.6904 21.0156C18.4386 21.6417 16.7787 22 15 22C13.2213 22 11.5614 21.6417 10.3096 21.0156C9.11774 20.4195 8 19.4108 8 18Z" fill="#1A1A1A"/>
<path d="M14 6C14 5.84534 13.9195 5.58356 13.541 5.25586C13.163 4.92867 12.5564 4.60308 11.7227 4.36231C10.0479 3.87866 7.95207 3.87866 6.27734 4.36231C5.44364 4.60308 4.83701 4.92867 4.45898 5.25586C4.08051 5.58356 4 5.84534 4 6C4 6.15467 4.08051 6.41645 4.45898 6.74414C4.83701 7.07134 5.44364 7.39693 6.27734 7.6377C7.95207 8.12135 10.0479 8.12135 11.7227 7.6377C12.5564 7.39693 13.163 7.07134 13.541 6.74414C13.9195 6.41645 14 6.15467 14 6ZM16 6C16 6.9173 15.5081 7.68656 14.8506 8.25586C14.1926 8.82557 13.2994 9.26343 12.2773 9.5586C10.2401 10.1469 7.75989 10.1469 5.72266 9.5586C4.70059 9.26343 3.80741 8.82557 3.14941 8.25586C2.49193 7.68656 2 6.9173 2 6C2 5.0827 2.49193 4.31345 3.14941 3.74415C3.80741 3.17443 4.70059 2.73658 5.72266 2.44141C7.75989 1.85309 10.2401 1.85309 12.2773 2.44141C13.2994 2.73658 14.1926 3.17443 14.8506 3.74415C15.5081 4.31345 16 5.0827 16 6Z" fill="#1A1A1A"/>
<path d="M2 16V6C2 5.44772 2.44772 5 3 5C3.55228 5 4 5.44772 4 6V16C4 16.1033 4.02597 16.2153 4.21777 16.3926C4.385 16.5471 4.63937 16.7122 5.00488 16.8965L5.40918 17.0869L5.5 17.1338C5.93927 17.3866 6.12473 17.9366 5.91309 18.4092C5.70139 18.8816 5.1676 19.1095 4.68652 18.9502L4.59082 18.9131L4.11816 18.6885C3.6519 18.4544 3.21288 18.1872 2.86035 17.8613C2.35936 17.3982 2 16.7846 2 16Z" fill="#1A1A1A"/>
<path d="M2 11C2 10.4477 2.44772 10 3 10C3.55228 10 4 10.4477 4 11C4 11.1033 4.02597 11.2153 4.21777 11.3926C4.385 11.5471 4.63937 11.7122 5.00488 11.8965L5.40918 12.0869L5.5 12.1338C5.93927 12.3866 6.12473 12.9366 5.91309 13.4092C5.70139 13.8816 5.1676 14.1095 4.68652 13.9502L4.59082 13.9131L4.11816 13.6885C3.6519 13.4544 3.21288 13.1872 2.86035 12.8613C2.35936 12.3982 2 11.7846 2 11Z" fill="#1A1A1A"/>
</svg>
