<svg width="24" height="24" viewBox="0 0 24 24" fill="none" xmlns="http://www.w3.org/2000/svg">
<path fill-rule="evenodd" clip-rule="evenodd" d="M9.667 6C8.69445 6 7.76174 6.38634 7.07404 7.07404C6.38634 7.76174 6 8.69445 6 9.667V18.333C6 18.8146 6.09485 19.2914 6.27913 19.7363C6.46342 20.1812 6.73353 20.5854 7.07404 20.926C7.41455 21.2665 7.8188 21.5366 8.2637 21.7209C8.7086 21.9052 9.18544 22 9.667 22H18.333C18.8146 22 19.2914 21.9052 19.7363 21.7209C20.1812 21.5366 20.5855 21.2665 20.926 20.926C21.2665 20.5855 21.5366 20.1812 21.7209 19.7363C21.9052 19.2914 22 18.8146 22 18.333V9.667C22 9.18544 21.9052 8.7086 21.7209 8.2637C21.5366 7.8188 21.2665 7.41455 20.926 7.07404C20.5854 6.73353 20.1812 6.46342 19.7363 6.27913C19.2914 6.09485 18.8146 6 18.333 6H9.667Z" fill="#1A1A1A"/>
<path d="M3.07404 3.07404C3.76174 2.38634 4.69445 2 5.667 2H14.333C14.8146 2 15.2914 2.09485 15.7363 2.27913C16.1812 2.46342 16.5854 2.73353 16.926 3.07404C17.1979 3.34596 17.4249 3.65854 17.5992 4H9.667C8.16402 4 6.72259 4.59706 5.65983 5.65983C4.59706 6.72259 4 8.16402 4 9.667V17.5992C3.65854 17.4249 3.34596 17.1979 3.07404 16.926C2.73353 16.5854 2.46342 16.1812 2.27913 15.7363C2.09485 15.2914 2 14.8146 2 14.333V5.667C2 4.69445 2.38634 3.76174 3.07404 3.07404Z" fill="#1A1A1A"/>
</svg>
