<svg width="24" height="24" viewBox="0 0 24 24" fill="none" xmlns="http://www.w3.org/2000/svg">
<g clip-path="url(#clip0_2851_207)">
<path d="M18 2C18.5304 2 19.0391 2.21071 19.4142 2.58579C19.7893 2.96086 20 3.46957 20 4V16.99C20 17.158 19.962 17.312 19.887 17.462L19.342 18.552C19.2725 18.6909 19.2363 18.8441 19.2363 18.9995C19.2363 19.1549 19.2725 19.3081 19.342 19.447L19.885 20.535C19.965 20.6874 20.0044 20.8578 19.9992 21.0299C19.9941 21.2019 19.9446 21.3697 19.8556 21.5171C19.7666 21.6644 19.6411 21.7863 19.4912 21.8709C19.3413 21.9555 19.1721 21.9999 19 22H7C6.20435 22 5.44129 21.6839 4.87868 21.1213C4.31607 20.5587 4 19.7956 4 19V5C4 4.20435 4.31607 3.44129 4.87868 2.87868C5.44129 2.31607 6.20435 2 7 2H18ZM17.408 18H7C6.74512 18.0003 6.49997 18.0979 6.31463 18.2728C6.1293 18.4478 6.01777 18.687 6.00283 18.9414C5.98789 19.1958 6.07067 19.4464 6.23426 19.6418C6.39786 19.8373 6.6299 19.9629 6.883 19.993L7 20H17.408C17.2053 19.4266 17.1816 18.8052 17.34 18.218L17.408 18ZM18 4H7C6.75507 4.00003 6.51866 4.08996 6.33563 4.25272C6.15259 4.41547 6.03566 4.63975 6.007 4.883L6 5V16.17C6.25 16.082 6.516 16.026 6.791 16.007L7 16H18V4Z" fill="#1A1A1A"/>
<path d="M9.49076 6.04447C9.44142 6.01584 9.38521 6.0005 9.32784 6.00001C9.27048 5.99952 9.21401 6.0139 9.16416 6.04168C9.11431 6.06945 9.07287 6.10965 9.04404 6.15817C9.0152 6.2067 9.00001 6.26183 9 6.31796V13.682C9.00001 13.7382 9.0152 13.7933 9.04404 13.8418C9.07287 13.8904 9.11431 13.9305 9.16416 13.9583C9.21401 13.9861 9.27048 14.0005 9.32784 14C9.38521 13.9995 9.44142 13.9842 9.49076 13.9555L15.8408 10.2735C15.8893 10.2453 15.9295 10.2053 15.9574 10.1574C15.9853 10.1094 16 10.0552 16 10C16 9.94482 15.9853 9.89059 15.9574 9.84264C15.9295 9.79469 15.8893 9.75467 15.8408 9.72651L9.49076 6.04447Z" fill="#808080"/>
</g>
<defs>
<clipPath id="clip0_2851_207">
<rect width="24" height="24" fill="white"/>
</clipPath>
</defs>
</svg>
