<svg width="24" height="24" viewBox="0 0 24 24" fill="none" xmlns="http://www.w3.org/2000/svg">
<path fill-rule="evenodd" clip-rule="evenodd" d="M8 4C8.55228 4 9 4.44772 9 5V15H19C19.5523 15 20 15.4477 20 16C20 16.5523 19.5523 17 19 17H9C8.46957 17 7.96086 16.7893 7.58579 16.4142C7.21071 16.0391 7 15.5304 7 15V5C7 4.44772 7.44772 4 8 4Z" fill="#1A1A1A"/>
<path fill-rule="evenodd" clip-rule="evenodd" d="M4 8C4 7.44772 4.44772 7 5 7H15C15.5304 7 16.0391 7.21071 16.4142 7.58579C16.7893 7.96086 17 8.46957 17 9V19C17 19.5523 16.5523 20 16 20C15.4477 20 15 19.5523 15 19V9H5C4.44772 9 4 8.55228 4 8Z" fill="#1A1A1A"/>
</svg>
