<svg width="24" height="24" viewBox="0 0 24 24" fill="none" xmlns="http://www.w3.org/2000/svg">
<path d="M12.1436 2.00856C12.4771 2.02808 12.8041 2.11592 13.1035 2.26637C13.4243 2.42763 13.7045 2.65796 13.9268 2.93922L20.2793 9.82399L20.334 9.88844C20.8089 10.5001 21 11.2917 21 12.0047C20.9999 12.7169 20.8091 13.508 20.332 14.1179C20.3154 14.1392 20.2976 14.1606 20.2793 14.1804L13.9287 21.0623C13.7061 21.345 13.4256 21.5772 13.1035 21.739C12.7612 21.911 12.3831 22.0007 12 22.0007C11.6169 22.0007 11.2388 21.911 10.8965 21.739C10.5768 21.5783 10.2971 21.3491 10.0752 21.0691L3.7207 14.1814C3.70151 14.1606 3.68338 14.1383 3.66602 14.116C3.19123 13.5044 3 12.7136 3 12.0007C3 11.2883 3.19061 10.4966 3.66797 9.88649L3.7207 9.82497L10.0723 2.93922C10.2946 2.65775 10.5755 2.42772 10.8965 2.26637C11.2388 2.0944 11.6169 2.00465 12 2.00465L12.1436 2.00856ZM11.8945 4.01735C11.8601 4.02551 11.8267 4.03751 11.7949 4.05348C11.7313 4.08547 11.6763 4.13206 11.6338 4.18922C11.6128 4.21742 11.5902 4.24445 11.5664 4.27028L5.22656 11.1423C5.10339 11.3144 5 11.6208 5 12.0007C5 12.3827 5.10508 12.6932 5.23145 12.8689L11.5664 19.7351L11.6338 19.8162C11.6763 19.8732 11.7313 19.92 11.7949 19.9519C11.8585 19.9839 11.9288 20.0007 12 20.0007C12.0712 20.0007 12.1415 19.9839 12.2051 19.9519C12.2687 19.92 12.3237 19.8732 12.3662 19.8162L12.4336 19.7351L18.7715 12.8631C18.895 12.6913 18.9999 12.3853 19 12.0047C19 11.6242 18.8952 11.3145 18.7695 11.1384L12.4336 4.27028C12.4098 4.24445 12.3872 4.21742 12.3662 4.18922C12.3237 4.13206 12.2687 4.08547 12.2051 4.05348C12.1414 4.0215 12.0712 4.00465 12 4.00465L11.8945 4.01735Z" fill="#1A1A1A"/>
</svg>
