<svg width="24" height="24" viewBox="0 0 24 24" fill="none" xmlns="http://www.w3.org/2000/svg">
<path fill-rule="evenodd" clip-rule="evenodd" d="M15.7071 8.29289C16.0976 8.68342 16.0976 9.31658 15.7071 9.70711L9.70711 15.7071C9.31658 16.0976 8.68342 16.0976 8.29289 15.7071C7.90237 15.3166 7.90237 14.6834 8.29289 14.2929L14.2929 8.29289C14.6834 7.90237 15.3166 7.90237 15.7071 8.29289Z" fill="#808080"/>
<path fill-rule="evenodd" clip-rule="evenodd" d="M8 9.5C8 8.67157 8.67157 8 9.5 8C10.3284 8 11 8.67157 11 9.5C11 10.3284 10.3284 11 9.5 11C8.67157 11 8 10.3284 8 9.5Z" fill="#808080"/>
<path fill-rule="evenodd" clip-rule="evenodd" d="M13 14.5C13 13.6716 13.6716 13 14.5 13C15.3284 13 16 13.6716 16 14.5C16 15.3284 15.3284 16 14.5 16C13.6716 16 13 15.3284 13 14.5Z" fill="#808080"/>
<path fill-rule="evenodd" clip-rule="evenodd" d="M12.01 4.01126C11.8518 4.01126 11.6952 4.04252 11.5492 4.10325C11.4032 4.16398 11.2706 4.25297 11.1591 4.36512L11.1571 4.36711L10.4571 5.06711L10.4551 5.06909C9.85595 5.66488 9.04549 5.99952 8.20054 6L7.19997 6C6.88171 6 6.57649 6.12643 6.35145 6.35148C6.1264 6.57652 5.99997 6.88174 5.99997 7.2V8.2C5.99949 9.04495 5.66485 9.85598 5.06906 10.4551L5.06708 10.4571L4.36708 11.1571L4.36509 11.1591C4.25294 11.2706 4.16395 11.4032 4.10322 11.5492C4.04249 11.6953 4.01123 11.8518 4.01123 12.01C4.01123 12.1682 4.04249 12.3247 4.10322 12.4708C4.16395 12.6168 4.25294 12.7494 4.36509 12.8609L4.36708 12.8629L5.06907 13.5649C5.66485 14.164 5.99949 14.9745 5.99997 15.8194L5.99997 16.82C5.99997 17.1383 6.1264 17.4435 6.35145 17.6685C6.57649 17.8936 6.88171 18.02 7.19997 18.02H8.19997C9.04492 18.0205 9.85595 18.3551 10.4551 18.9509L10.4571 18.9529L11.1591 19.6549C11.2706 19.767 11.4032 19.856 11.5492 19.9168C11.6952 19.9775 11.8518 20.0087 12.01 20.0087C12.1681 20.0087 12.3247 19.9775 12.4707 19.9168C12.6168 19.856 12.7494 19.767 12.8609 19.6549L12.8629 19.6529L13.5629 18.9529L13.5649 18.9509C14.164 18.3551 14.9745 18.0205 15.8194 18.02H16.82C17.1382 18.02 17.4435 17.8936 17.6685 17.6685C17.8935 17.4435 18.02 17.1383 18.02 16.82V15.82C18.0205 14.9751 18.3551 14.164 18.9509 13.5649L18.9529 13.5629L19.6529 12.8629L19.6549 12.8609C19.767 12.7494 19.856 12.6168 19.9167 12.4708C19.9775 12.3247 20.0087 12.1682 20.0087 12.01C20.0087 11.8519 19.9775 11.6953 19.9167 11.5492C19.856 11.4032 19.767 11.2706 19.6549 11.1591L19.6529 11.1571L18.9529 10.4571L18.9509 10.4551C18.3551 9.85598 18.0205 9.04552 18.02 8.20057V7.2C18.02 6.88174 17.8935 6.57652 17.6685 6.35148C17.4435 6.12643 17.1382 6 16.82 6H15.82C14.975 5.99952 14.164 5.66488 13.5649 5.06909L13.5629 5.06711L12.8629 4.36711L12.8609 4.36512C12.7494 4.25298 12.6168 4.16398 12.4707 4.10325C12.3247 4.04252 12.1681 4.01126 12.01 4.01126ZM10.7812 2.25657C11.1706 2.09463 11.5882 2.01126 12.01 2.01126C12.4317 2.01126 12.8493 2.09463 13.2387 2.25657C13.6277 2.41832 13.9808 2.65527 14.278 2.95382C14.2784 2.95418 14.2787 2.95453 14.2791 2.95489L14.9751 3.65091C14.9754 3.6512 14.9757 3.65149 14.976 3.65177C15.2005 3.87459 15.5039 3.99975 15.8203 4H16.82C17.6687 4 18.4826 4.33715 19.0827 4.93726C19.6828 5.53738 20.02 6.35131 20.02 7.2V8.19943C20.0202 8.51597 20.1454 8.8196 20.3684 9.04421C20.3682 9.04399 20.3686 9.04444 20.3684 9.04421L21.0651 9.74091C21.0655 9.74128 21.0658 9.74165 21.0662 9.74202C21.3647 10.0392 21.6017 10.3923 21.7634 10.7813C21.9253 11.1707 22.0087 11.5883 22.0087 12.01C22.0087 12.4318 21.9253 12.8493 21.7634 13.2387C21.6017 13.6276 21.3649 13.9807 21.0664 14.2778C21.066 14.2782 21.0655 14.2787 21.0651 14.2791L20.3691 14.9751C20.3688 14.9754 20.3685 14.9757 20.3682 14.976C20.1453 15.2006 20.0202 15.5041 20.02 15.8206V16.82C20.02 17.6687 19.6828 18.4826 19.0827 19.0827C18.4826 19.6829 17.6687 20.02 16.82 20.02H15.8205C15.5041 20.0202 15.2005 20.1454 14.976 20.3682C14.9757 20.3685 14.9754 20.3688 14.9751 20.3691L14.2791 21.0651C14.2786 21.0656 14.2782 21.066 14.2777 21.0665C13.9806 21.3649 13.6275 21.6017 13.2387 21.7634C12.8493 21.9254 12.4317 22.0087 12.01 22.0087C11.5882 22.0087 11.1706 21.9254 10.7812 21.7634C10.3923 21.6017 10.0391 21.3648 9.74199 21.0662C9.74162 21.0659 9.74125 21.0655 9.74088 21.0651L9.04486 20.3691C9.04463 20.3689 9.04508 20.3693 9.04486 20.3691C8.82024 20.1461 8.51594 20.0202 8.1994 20.02H7.19997C6.35128 20.02 5.53735 19.6829 4.93723 19.0827C4.33711 18.4826 3.99997 17.6687 3.99997 16.82V15.8203C3.99972 15.504 3.87456 15.2005 3.65174 14.976C3.65146 14.9757 3.65117 14.9754 3.65088 14.9751L2.95486 14.2791C2.9545 14.2787 2.95415 14.2784 2.95379 14.278C2.65524 13.9809 2.41829 13.6277 2.25654 13.2387C2.0946 12.8493 2.01123 12.4317 2.01123 12.01C2.01123 11.5883 2.0946 11.1707 2.25654 10.7813C2.41827 10.3924 2.65518 10.0392 2.95369 9.74207C2.95408 9.74169 2.95447 9.7413 2.95486 9.74091L3.65088 9.04489C3.65117 9.0446 3.65146 9.04431 3.65174 9.04402C3.87456 8.81949 3.99972 8.51605 3.99997 8.19969V7.2C3.99997 6.35131 4.33712 5.53738 4.93723 4.93726C5.53735 4.33715 6.35128 4 7.19997 4H8.19966C8.51602 3.99975 8.81946 3.87459 9.04399 3.65177C9.04428 3.65149 9.04457 3.6512 9.04486 3.65091L9.74088 2.95489C9.74127 2.9545 9.74165 2.95411 9.74204 2.95372C10.0392 2.65522 10.3923 2.4183 10.7812 2.25657Z" fill="#1A1A1A"/>
</svg>
