<svg width="24" height="24" viewBox="0 0 24 24" fill="none" xmlns="http://www.w3.org/2000/svg">
<path fill-rule="evenodd" clip-rule="evenodd" d="M12 4C11.8418 4 11.6852 4.03127 11.5391 4.09201C11.393 4.15276 11.2604 4.24178 11.1489 4.35395L11.1469 4.35594L10.4448 5.05802C9.8456 5.65387 9.03506 5.98854 8.19004 5.98902L7.18933 5.98902C6.87099 5.98902 6.56568 6.11548 6.34058 6.34058C6.11548 6.56568 5.98902 6.87099 5.98902 7.18933V8.18947C5.98854 9.03449 5.65386 9.8456 5.05802 10.4448L5.05604 10.4468L4.35594 11.1469L4.35395 11.1489C4.24178 11.2604 4.15276 11.393 4.09201 11.5391C4.03127 11.6852 4 11.8418 4 12C4 12.1582 4.03127 12.3148 4.09201 12.4609C4.15276 12.607 4.24178 12.7396 4.35395 12.8511L4.35594 12.8531L5.05802 13.5552C5.65386 14.1544 5.98854 14.9649 5.98902 15.81L5.98902 16.8107C5.98902 17.129 6.11548 17.4343 6.34058 17.6594C6.56568 17.8845 6.87099 18.011 7.18933 18.011H8.18947C9.03449 18.0115 9.8456 18.3461 10.4448 18.942L10.4468 18.944L11.1489 19.646C11.2385 19.7361 11.3416 19.8113 11.4545 19.8689C11.9464 20.1199 12.1418 20.7222 11.8908 21.2141C11.6398 21.7061 11.0375 21.9014 10.5455 21.6504C10.2452 21.4972 9.97058 21.2972 9.73201 21.0576C9.73157 21.0572 9.73113 21.0567 9.73069 21.0563L9.03457 20.3602C9.0343 20.3599 9.03403 20.3596 9.03376 20.3594C8.80911 20.1364 8.50545 20.0112 8.1889 20.011H7.18933C6.34055 20.011 5.52654 19.6738 4.92637 19.0736C4.32619 18.4735 3.98902 17.6594 3.98902 16.8107V15.8108C3.98877 15.4944 3.86359 15.1909 3.64072 14.9663C3.64043 14.966 3.64013 14.9657 3.63984 14.9654L2.94372 14.2693C2.94335 14.2689 2.94298 14.2686 2.94261 14.2682C2.64405 13.971 2.40709 13.6178 2.24533 13.2289C2.08338 12.8394 2 12.4218 2 12C2 11.5782 2.08337 11.1606 2.24533 10.7711C2.40708 10.3822 2.64402 10.029 2.94256 9.73184C2.94295 9.73146 2.94333 9.73107 2.94372 9.73069L3.63984 9.03457C3.64012 9.03428 3.64041 9.034 3.64069 9.03371C3.86357 8.80912 3.98877 8.5056 3.98902 8.18916V7.18933C3.98902 6.34055 4.32619 5.52654 4.92637 4.92637C5.52654 4.32619 6.34055 3.98902 7.18933 3.98902H8.18916C8.5056 3.98877 8.80912 3.86357 9.03371 3.64069C9.034 3.64041 9.03428 3.64012 9.03457 3.63984L9.73069 2.94372C9.73107 2.94333 9.73146 2.94295 9.73184 2.94256C10.029 2.64402 10.3822 2.40708 10.7711 2.24533C11.1606 2.08337 11.5782 2 12 2C12.4218 2 12.8394 2.08338 13.2289 2.24533C13.6178 2.40709 13.971 2.64405 14.2682 2.94261C14.2686 2.94298 14.2689 2.94335 14.2693 2.94372L14.9654 3.63984C14.9657 3.64013 14.966 3.64043 14.9663 3.64072C15.1909 3.86359 15.4944 3.98877 15.8108 3.98902H16.8107C17.6594 3.98902 18.4735 4.32619 19.0736 4.92637C19.6738 5.52654 20.011 6.34055 20.011 7.18933V8.1889C20.0112 8.50545 20.1364 8.80911 20.3594 9.03376C20.3596 9.03403 20.3599 9.0343 20.3602 9.03457L21.0563 9.73069C21.0567 9.73113 21.0572 9.73157 21.0576 9.73201C21.3561 10.0291 21.593 10.3823 21.7547 10.7711C21.9166 11.1606 22 11.5782 22 12C22 12.4218 21.9166 12.8394 21.7547 13.2289C21.7228 13.3055 21.688 13.3808 21.6504 13.4545C21.3994 13.9464 20.7971 14.1418 20.3051 13.8908C19.8132 13.6398 19.6179 13.0375 19.8689 12.5455C19.883 12.5179 19.896 12.4896 19.908 12.4609C19.9687 12.3148 20 12.1582 20 12C20 11.8418 19.9687 11.6852 19.908 11.5391C19.8472 11.393 19.7582 11.2604 19.6461 11.1489L19.6441 11.1469L18.944 10.4468L18.942 10.4448C18.3461 9.8456 18.0115 9.03506 18.011 8.19004V7.18933C18.011 6.87099 17.8845 6.56568 17.6594 6.34058C17.4343 6.11548 17.129 5.98902 16.8107 5.98902H15.8105C14.9655 5.98854 14.1544 5.65386 13.5552 5.05802L13.5532 5.05604L12.8531 4.35594L12.8511 4.35395C12.7396 4.24178 12.607 4.15276 12.4609 4.09201C12.3148 4.03127 12.1582 4 12 4Z" fill="#1A1A1A"/>
<path fill-rule="evenodd" clip-rule="evenodd" d="M7.98962 9.48965C7.98962 8.66118 8.66123 7.98958 9.48969 7.98958C10.3182 7.98958 10.9898 8.66118 10.9898 9.48965C10.9898 10.3181 10.3182 10.9897 9.48969 10.9897C8.66123 10.9897 7.98962 10.3181 7.98962 9.48965ZM15.6976 8.28247C16.0881 8.673 16.0881 9.30616 15.6976 9.69669L9.69673 15.6975C9.30621 16.088 8.67304 16.088 8.28252 15.6975C7.89199 15.307 7.89199 14.6738 8.28252 14.2833L14.2834 8.28247C14.6739 7.89195 15.307 7.89195 15.6976 8.28247ZM12.9903 14.4903C12.9903 13.6619 13.6619 12.9903 14.4904 12.9903C15.3189 12.9903 15.9905 13.6619 15.9905 14.4903C15.9905 15.3188 15.3189 15.9904 14.4904 15.9904C13.6619 15.9904 12.9903 15.3188 12.9903 14.4903Z" fill="#1A1A1A"/>
<path fill-rule="evenodd" clip-rule="evenodd" d="M21.7071 16.2929C22.0976 16.6834 22.0976 17.3166 21.7071 17.7071L17.7071 21.7071C17.3166 22.0976 16.6834 22.0976 16.2929 21.7071L14.2929 19.7071C13.9024 19.3166 13.9024 18.6834 14.2929 18.2929C14.6834 17.9024 15.3166 17.9024 15.7071 18.2929L17 19.5858L20.2929 16.2929C20.6834 15.9024 21.3166 15.9024 21.7071 16.2929Z" fill="#808080"/>
</svg>
