<svg width="24" height="24" viewBox="0 0 24 24" fill="none" xmlns="http://www.w3.org/2000/svg">
<path d="M10.25 17.25C10.25 16.2835 11.0335 15.5 12 15.5C12.9665 15.5 13.75 16.2835 13.75 17.25C13.75 18.2165 12.9665 19 12 19C11.0335 19 10.25 18.2165 10.25 17.25ZM18.125 11.125C18.6082 11.125 19 11.5168 19 12C19 12.4832 18.6082 12.875 18.125 12.875H5.875C5.39175 12.875 5 12.4832 5 12C5 11.5168 5.39175 11.125 5.875 11.125H18.125ZM10.25 6.75C10.25 5.7835 11.0335 5 12 5C12.9665 5 13.75 5.7835 13.75 6.75C13.75 7.7165 12.9665 8.5 12 8.5C11.0335 8.5 10.25 7.7165 10.25 6.75Z" fill="#1A1A1A"/>
</svg>
