<svg width="24" height="24" viewBox="0 0 24 24" fill="none" xmlns="http://www.w3.org/2000/svg">
<path fill-rule="evenodd" clip-rule="evenodd" d="M5 6C4.73478 6 4.48043 6.10536 4.29289 6.29289C4.10536 6.48043 4 6.73478 4 7V19C4 19.2652 4.10536 19.5196 4.29289 19.7071C4.48043 19.8946 4.73478 20 5 20H11.5C12.0523 20 12.5 20.4477 12.5 21C12.5 21.5523 12.0523 22 11.5 22H5C4.20435 22 3.44129 21.6839 2.87868 21.1213C2.31607 20.5587 2 19.7956 2 19V7C2 6.20435 2.31607 5.44129 2.87868 4.87868C3.44129 4.31607 4.20435 4 5 4H15C15.7956 4 16.5587 4.31607 17.1213 4.87868C17.6839 5.44129 18 6.20435 18 7V11.5C18 12.0523 17.5523 12.5 17 12.5C16.4477 12.5 16 12.0523 16 11.5V7C16 6.73478 15.8946 6.48043 15.7071 6.29289C15.5196 6.10536 15.2652 6 15 6H5Z" fill="#1A1A1A"/>
<path fill-rule="evenodd" clip-rule="evenodd" d="M6 9C6 8.44772 6.44772 8 7 8H13C13.5523 8 14 8.44772 14 9C14 9.55228 13.5523 10 13 10H7C6.44772 10 6 9.55228 6 9Z" fill="#808080"/>
<path fill-rule="evenodd" clip-rule="evenodd" d="M6 13C6 12.4477 6.44772 12 7 12H11C11.5523 12 12 12.4477 12 13C12 13.5523 11.5523 14 11 14H7C6.44772 14 6 13.5523 6 13Z" fill="#808080"/>
<path fill-rule="evenodd" clip-rule="evenodd" d="M7 6C6.44772 6 6 5.55228 6 5L6 3C6 2.44772 6.44772 2 7 2C7.55228 2 8 2.44772 8 3L8 5C8 5.55228 7.55228 6 7 6Z" fill="#1A1A1A"/>
<path fill-rule="evenodd" clip-rule="evenodd" d="M13 6C12.4477 6 12 5.55228 12 5L12 3C12 2.44772 12.4477 2 13 2C13.5523 2 14 2.44772 14 3L14 5C14 5.55228 13.5523 6 13 6Z" fill="#1A1A1A"/>
<path fill-rule="evenodd" clip-rule="evenodd" d="M18.516 14.8049C18.8712 14.4496 19.3531 14.25 19.8555 14.25C20.358 14.25 20.8398 14.4496 21.1951 14.8049C21.5504 15.1602 21.75 15.642 21.75 16.1445C21.75 16.6469 21.5504 17.1288 21.1951 17.484L17.1488 21.5303C17.0082 21.671 16.8174 21.75 16.6185 21.75H15C14.5858 21.75 14.25 21.4142 14.25 21V19.3815C14.25 19.1826 14.329 18.9918 14.4697 18.8512L18.516 14.8049ZM19.8555 15.75C19.7509 15.75 19.6506 15.7916 19.5766 15.8655L15.75 19.6921V20.25H16.3079L20.1345 16.4234C20.2084 16.3494 20.25 16.2491 20.25 16.1445C20.25 16.0398 20.2084 15.9395 20.1345 15.8655C20.0605 15.7916 19.9602 15.75 19.8555 15.75Z" fill="#808080"/>
</svg>
