<svg width="24" height="24" viewBox="0 0 24 24" fill="none" xmlns="http://www.w3.org/2000/svg">
<path fill-rule="evenodd" clip-rule="evenodd" d="M14.7128 11C14.2944 11.0161 13.8965 11.1878 13.5993 11.4821C13.2867 11.7915 13.1111 12.2113 13.1111 12.6489V13.8437C13.111 13.9895 13.0524 14.1294 12.9483 14.2325L12.4883 14.688C12.1757 14.9974 12.0001 15.4171 12 15.8547V20.3498C12 20.7875 12.1756 21.2072 12.4882 21.5167C12.8007 21.8261 13.2246 22 13.6667 22H15.3333C15.947 22 16.4444 21.5075 16.4444 20.8999V14.429L15.4687 12.4969C15.3764 12.314 15.5107 12.0989 15.7172 12.0989H18.2828C18.4893 12.0989 18.6236 12.314 18.5312 12.4969L17.5556 14.4289V20.8999C17.5556 21.5075 18.053 22 18.6667 22H20.3333C20.7754 22 21.1993 21.8261 21.5118 21.5167C21.8244 21.2072 22 20.7875 22 20.3498V15.8546C21.9999 15.417 21.8242 14.9973 21.5117 14.6879L21.0517 14.2324C20.9475 14.1293 20.889 13.9894 20.8889 13.8436V12.6489C20.8889 12.2113 20.7133 11.7915 20.4007 11.4821C20.1035 11.1878 19.7056 11.0161 19.2871 11L14.7128 11ZM13.2738 20.1887C13.0569 19.9739 13.0569 19.6256 13.2738 19.4108L14.385 18.3107C14.6019 18.0959 14.9537 18.0959 15.1706 18.3107C15.3876 18.5255 15.3876 18.8738 15.1706 19.0886L14.0595 20.1887C13.8426 20.4035 13.4908 20.4035 13.2738 20.1887ZM20.7262 19.4108C20.9431 19.6256 20.9431 19.9739 20.7262 20.1887C20.5092 20.4035 20.1574 20.4035 19.9405 20.1887L18.8294 19.0886C18.6124 18.8738 18.6124 18.5255 18.8294 18.3107C19.0463 18.0959 19.3981 18.0959 19.615 18.3107L20.7262 19.4108Z" fill="#1A1A1A"/>
<path fill-rule="evenodd" clip-rule="evenodd" d="M15.1213 2.87868C14.5587 2.31607 13.7956 2 13 2H5C4.20435 2 3.44129 2.31607 2.87868 2.87868C2.31607 3.44129 2 4.20435 2 5V19C2 19.7956 2.31607 20.5587 2.87868 21.1213C3.44129 21.6839 4.20435 22 5 22H10.3961C10.1385 21.4941 10 20.9298 10 20.3498V19V15.8547C10.0002 14.8805 10.3913 13.9496 11.0811 13.2667L11.1111 13.2307V12.6489C11.1111 12.4296 11.1309 12.2125 11.1695 12H6.14286C5.57454 12 5.02949 11.7788 4.62763 11.3849C4.22576 10.9911 4 10.457 4 9.9V6.1C4 5.54305 4.22576 5.0089 4.62763 4.61508C5.02949 4.22125 5.57454 4 6.14286 4H11.8571C12.4255 4 12.9705 4.22125 13.3724 4.61508C13.7742 5.0089 14 5.54305 14 6.1V9.08182C14.2081 9.03684 14.4208 9.00978 14.6357 9.00149C14.6614 9.0005 14.6871 9 14.7128 9H16V5C16 4.20435 15.6839 3.44129 15.1213 2.87868ZM10 19C10 18.4477 9.55228 18 9 18C8.44772 18 8 18.4477 8 19C8 19.5523 8.44772 20 9 20C9.55228 20 10 19.5523 10 19ZM6 15C6 15.5523 5.55228 16 5 16C4.44772 16 4 15.5523 4 15C4 14.4477 4.44772 14 5 14C5.55228 14 6 14.4477 6 15ZM5 20C5.55228 20 6 19.5523 6 19C6 18.4477 5.55228 18 5 18C4.44772 18 4 18.4477 4 19C4 19.5523 4.44772 20 5 20ZM10 15C10 15.5523 9.55228 16 9 16C8.44772 16 8 15.5523 8 15C8 14.4477 8.44772 14 9 14C9.55228 14 10 14.4477 10 15Z" fill="#1A1A1A"/>
</svg>
