<svg width="24" height="24" viewBox="0 0 24 24" fill="none" xmlns="http://www.w3.org/2000/svg">
<path fill-rule="evenodd" clip-rule="evenodd" d="M15.0866 12.3806C15.6932 12.1293 16.3434 12 17 12C17.6566 12 18.3068 12.1293 18.9134 12.3806C19.52 12.6319 20.0712 13.0002 20.5355 13.4645C20.9998 13.9288 21.3681 14.48 21.6194 15.0866C21.8707 15.6932 22 16.3434 22 17C22 17.6566 21.8707 18.3068 21.6194 18.9134C21.3681 19.5201 20.9998 20.0713 20.5355 20.5355C20.0712 20.9998 19.52 21.3681 18.9134 21.6194C18.3068 21.8707 17.6566 22 17 22C16.3434 22 15.6932 21.8707 15.0866 21.6194C14.48 21.3681 13.9288 20.9998 13.4645 20.5355C13.0002 20.0713 12.6319 19.5201 12.3806 18.9134C12.1293 18.3068 12 17.6566 12 17C12 16.3434 12.1293 15.6932 12.3806 15.0866C12.6319 14.48 13.0002 13.9288 13.4645 13.4645C13.9288 13.0002 14.48 12.6319 15.0866 12.3806ZM15.4825 14.3912C16.0571 14.0707 16.7231 13.9423 17.3787 14.0239C18.0343 14.1056 18.6464 14.3934 19.1199 14.8462C19.5937 15.2992 19.9025 15.8926 19.9951 16.536C20.0324 16.795 19.8527 17.0351 19.5937 17.0724C19.3348 17.1096 19.0947 16.9299 19.0574 16.671C18.9956 16.2413 18.7888 15.8403 18.4652 15.5309C18.1414 15.2213 17.7188 15.021 17.2615 14.964C16.8042 14.9071 16.3411 14.9971 15.944 15.2186C15.7928 15.303 15.6546 15.4044 15.5318 15.52H15.7369C15.9985 15.52 16.2105 15.7321 16.2105 15.9937C16.2105 16.2553 15.9985 16.4674 15.7369 16.4674H14.6421C14.635 16.4675 14.6279 16.4675 14.6207 16.4674H14.4737C14.2121 16.4674 14.0001 16.2553 14.0001 15.9937V14.774C14.0001 14.5124 14.2121 14.3004 14.4737 14.3004C14.7343 14.3004 14.9457 14.5107 14.9474 14.7709C15.1102 14.6264 15.2895 14.4989 15.4825 14.3912ZM14.4063 16.9276C14.6652 16.8904 14.9053 17.0701 14.9426 17.329C15.0044 17.7587 15.2112 18.1597 15.5348 18.4691C15.8586 18.7787 16.2812 18.979 16.7385 19.036C17.1958 19.0929 17.6589 19.0029 18.056 18.7814C18.2072 18.6971 18.3454 18.5956 18.4682 18.48H18.2631C18.0015 18.48 17.7895 18.2679 17.7895 18.0063C17.7895 17.7447 18.0015 17.5326 18.2631 17.5326H19.3579C19.365 17.5325 19.3721 17.5325 19.3793 17.5326H19.5263C19.7879 17.5326 19.9999 17.7447 19.9999 18.0063V19.226C19.9999 19.4876 19.7879 19.6996 19.5263 19.6996C19.2657 19.6996 19.0543 19.4893 19.0526 19.2292C18.8898 19.3736 18.7105 19.5011 18.5175 19.6088C17.9429 19.9293 17.2769 20.0577 16.6213 19.9761C15.9657 19.8944 15.3536 19.6066 14.8801 19.1538C14.4063 18.7008 14.0975 18.1074 14.0049 17.464C13.9676 17.205 14.1473 16.9649 14.4063 16.9276Z" fill="#1A1A1A"/>
<path fill-rule="evenodd" clip-rule="evenodd" d="M13 2C13.7956 2 14.5587 2.31607 15.1213 2.87868C15.6839 3.44129 16 4.20435 16 5V10.0718C15.4247 10.1548 14.8607 10.3094 14.3212 10.5328C14.1465 10.6052 13.975 10.6846 13.8072 10.7706C13.9331 10.4998 14 10.2033 14 9.9V6.1C14 5.54305 13.7742 5.0089 13.3724 4.61508C12.9705 4.22125 12.4255 4 11.8571 4H6.14286C5.57454 4 5.02949 4.22125 4.62763 4.61508C4.22576 5.0089 4 5.54305 4 6.1V9.9C4 10.457 4.22576 10.9911 4.62763 11.3849C5.02949 11.7788 5.57454 12 6.14286 12H11.8571C11.9444 12 12.0311 11.9948 12.1169 11.9845C12.0945 12.0063 12.0723 12.0282 12.0503 12.0503C11.4002 12.7003 10.8846 13.4719 10.5328 14.3212C10.1811 15.1705 10 16.0808 10 17C10 17.9193 10.1811 18.8295 10.5328 19.6788C10.8846 20.5281 11.4002 21.2997 12.0503 21.9498C12.0671 21.9666 12.084 21.9833 12.101 22H5C4.20435 22 3.44129 21.6839 2.87868 21.1213C2.31607 20.5587 2 19.7957 2 19V5C2 4.20435 2.31607 3.44129 2.87868 2.87868C3.44129 2.31607 4.20435 2 5 2H13ZM9 20C9.55228 20 10 19.5523 10 19C10 18.4477 9.55228 18 9 18C8.44772 18 8 18.4477 8 19C8 19.5523 8.44772 20 9 20ZM5 16C5.55228 16 6 15.5523 6 15C6 14.4477 5.55228 14 5 14C4.44772 14 4 14.4477 4 15C4 15.5523 4.44772 16 5 16ZM5 20C5.55228 20 6 19.5523 6 19C6 18.4477 5.55228 18 5 18C4.44772 18 4 18.4477 4 19C4 19.5523 4.44772 20 5 20ZM9 16C9.55228 16 10 15.5523 10 15C10 14.4477 9.55228 14 9 14C8.44772 14 8 14.4477 8 15C8 15.5523 8.44772 16 9 16Z" fill="#1A1A1A"/>
</svg>
