<svg width="24" height="24" viewBox="0 0 24 24" fill="none" xmlns="http://www.w3.org/2000/svg">
<path fill-rule="evenodd" clip-rule="evenodd" d="M18 12C17.2025 12 16.4253 12.2552 15.7669 12.7298C15.1088 13.2041 14.6 13.8751 14.3007 14.6547C14.0014 15.4341 13.9236 16.2902 14.0759 17.1158C14.2283 17.9414 14.605 18.7037 15.1622 19.3047L17.4245 21.7455C17.5752 21.9081 17.7829 22 18 22C18.2171 22 18.4248 21.9081 18.5755 21.7455L20.8379 19.3045C21.3952 18.7036 21.7717 17.9414 21.9241 17.1158C22.0764 16.2902 21.9986 15.4341 21.6993 14.6547C21.4 13.8751 20.8912 13.2041 20.2331 12.7298C19.5747 12.2552 18.7975 12 18 12ZM18 14.5C18.8837 14.5 19.6 15.2425 19.6 16.1584V16.175C19.6 17.0909 18.8837 17.8333 18 17.8333C17.1163 17.8333 16.4 17.0909 16.4 16.175V16.1584C16.4 15.2425 17.1163 14.5 18 14.5Z" fill="#1A1A1A"/>
<path fill-rule="evenodd" clip-rule="evenodd" d="M13 2C13.7956 2 14.5587 2.31607 15.1213 2.87868C15.6839 3.44129 16 4.20435 16 5V10.3591C15.5035 10.5428 15.0318 10.7943 14.5975 11.1073C13.6101 11.8189 12.8663 12.8108 12.4336 13.9378C12.0012 15.064 11.8905 16.2939 12.1091 17.4787C12.3278 18.6638 12.8717 19.7757 13.6957 20.6646L14.5395 21.5749C14.078 21.8508 13.5467 22 13 22H5C4.20435 22 3.44129 21.6839 2.87868 21.1213C2.31607 20.5587 2 19.7956 2 19V5C2 4.20435 2.31607 3.44129 2.87868 2.87868C3.44129 2.31607 4.20435 2 5 2H13ZM5 20C5.55228 20 6 19.5523 6 19C6 18.4477 5.55228 18 5 18C4.44772 18 4 18.4477 4 19C4 19.5523 4.44772 20 5 20ZM9 20C9.55228 20 10 19.5523 10 19C10 18.4477 9.55228 18 9 18C8.44772 18 8 18.4477 8 19C8 19.5523 8.44772 20 9 20ZM9 16C9.55228 16 10 15.5523 10 15C10 14.4477 9.55228 14 9 14C8.44772 14 8 14.4477 8 15C8 15.5523 8.44772 16 9 16ZM13.3724 4.61508C12.9705 4.22125 12.4255 4 11.8571 4H6.14286C5.57454 4 5.02949 4.22125 4.62763 4.61508C4.22576 5.0089 4 5.54305 4 6.1V9.9C4 10.457 4.22576 10.9911 4.62763 11.3849C5.02949 11.7788 5.57454 12 6.14286 12H11.8571C12.4255 12 12.9705 11.7788 13.3724 11.3849C13.7742 10.9911 14 10.457 14 9.9V6.1C14 5.54305 13.7742 5.0089 13.3724 4.61508ZM5 16C5.55228 16 6 15.5523 6 15C6 14.4477 5.55228 14 5 14C4.44772 14 4 14.4477 4 15C4 15.5523 4.44772 16 5 16Z" fill="#1A1A1A"/>
</svg>
