<svg width="24" height="24" viewBox="0 0 24 24" fill="none" xmlns="http://www.w3.org/2000/svg">
<path fill-rule="evenodd" clip-rule="evenodd" d="M15.1213 2.87868C14.5587 2.31607 13.7956 2 13 2H5C4.20435 2 3.44129 2.31607 2.87868 2.87868C2.31607 3.44129 2 4.20435 2 5V19C2 19.7956 2.31607 20.5587 2.87868 21.1213C3.44129 21.6839 4.20435 22 5 22H13C13.7956 22 14.5587 21.6839 15.1213 21.1213C15.6839 20.5587 16 19.7956 16 19V5C16 4.20435 15.6839 3.44129 15.1213 2.87868ZM11.8571 4C12.4255 4 12.9705 4.22125 13.3724 4.61508C13.7742 5.0089 14 5.54305 14 6.1V9.9C14 10.457 13.7742 10.9911 13.3724 11.3849C12.9705 11.7788 12.4255 12 11.8571 12H6.14286C5.57454 12 5.02949 11.7788 4.62763 11.3849C4.22576 10.9911 4 10.457 4 9.9V6.1C4 5.54305 4.22576 5.0089 4.62763 4.61508C5.02949 4.22125 5.57454 4 6.14286 4H11.8571ZM6 15C6 15.5523 5.55228 16 5 16C4.44772 16 4 15.5523 4 15C4 14.4477 4.44772 14 5 14C5.55228 14 6 14.4477 6 15ZM10 15C10 15.5523 9.55228 16 9 16C8.44772 16 8 15.5523 8 15C8 14.4477 8.44772 14 9 14C9.55228 14 10 14.4477 10 15ZM14 15C14 15.5523 13.5523 16 13 16C12.4477 16 12 15.5523 12 15C12 14.4477 12.4477 14 13 14C13.5523 14 14 14.4477 14 15ZM14 19C14 19.5523 13.5523 20 13 20C12.4477 20 12 19.5523 12 19C12 18.4477 12.4477 18 13 18C13.5523 18 14 18.4477 14 19ZM6 19C6 19.5523 5.55228 20 5 20C4.44772 20 4 19.5523 4 19C4 18.4477 4.44772 18 5 18C5.55228 18 6 18.4477 6 19ZM22 10.125H18V7H19.6C20.2365 7 20.847 7.26339 21.2971 7.73223C21.7471 8.20107 22 8.83696 22 9.5V10.125ZM18 17H19.6C20.2365 17 20.847 16.7366 21.2971 16.2678C21.7471 15.7989 22 15.163 22 14.5V11.375H18V17ZM10 19C10 19.5523 9.55228 20 9 20C8.44772 20 8 19.5523 8 19C8 18.4477 8.44772 18 9 18C9.55228 18 10 18.4477 10 19Z" fill="#1A1A1A"/>
</svg>
