<svg width="24" height="24" viewBox="0 0 24 24" fill="none" xmlns="http://www.w3.org/2000/svg">
<path fill-rule="evenodd" clip-rule="evenodd" d="M5 4C4.73478 4 4.48043 4.10536 4.29289 4.29289C4.10536 4.48043 4 4.73478 4 5V19C4 19.2652 4.10536 19.5196 4.29289 19.7071C4.48043 19.8946 4.73478 20 5 20H9C9.55228 20 10 20.4477 10 21C10 21.5523 9.55228 22 9 22H5C4.20435 22 3.44129 21.6839 2.87868 21.1213C2.31607 20.5587 2 19.7957 2 19V5C2 4.20435 2.31607 3.44129 2.87868 2.87868C3.44129 2.31607 4.20435 2 5 2H13C13.7956 2 14.5587 2.31607 15.1213 2.87868C15.6839 3.44129 16 4.20435 16 5V9C16 9.55229 15.5523 10 15 10C14.4477 10 14 9.55229 14 9V5C14 4.73478 13.8946 4.48043 13.7071 4.29289C13.5196 4.10536 13.2652 4 13 4H5Z" fill="#1A1A1A"/>
<path fill-rule="evenodd" clip-rule="evenodd" d="M5.58579 5.58579C5.96086 5.21071 6.46957 5 7 5H11C11.5304 5 12.0391 5.21071 12.4142 5.58579C12.7893 5.96086 13 6.46957 13 7V9C13 9.53043 12.7893 10.0391 12.4142 10.4142C12.0391 10.7893 11.5304 11 11 11H7C6.46957 11 5.96086 10.7893 5.58579 10.4142C5.21071 10.0391 5 9.53043 5 9V7C5 6.46957 5.21071 5.96086 5.58579 5.58579ZM11 7L7 7L7 9H11V7Z" fill="#1A1A1A"/>
<path fill-rule="evenodd" clip-rule="evenodd" d="M6 13C6.55228 13 7 13.4477 7 14V14.01C7 14.5623 6.55228 15.01 6 15.01C5.44772 15.01 5 14.5623 5 14.01V14C5 13.4477 5.44772 13 6 13Z" fill="#808080"/>
<path fill-rule="evenodd" clip-rule="evenodd" d="M10 17C10.5523 17 11 17.4477 11 18V18.01C11 18.5623 10.5523 19.01 10 19.01C9.44772 19.01 9 18.5623 9 18.01V18C9 17.4477 9.44772 17 10 17Z" fill="#808080"/>
<path fill-rule="evenodd" clip-rule="evenodd" d="M6 17C6.55228 17 7 17.4477 7 18V18.01C7 18.5623 6.55228 19.01 6 19.01C5.44772 19.01 5 18.5623 5 18.01V18C5 17.4477 5.44772 17 6 17Z" fill="#808080"/>
<path fill-rule="evenodd" clip-rule="evenodd" d="M10 13C10.5523 13 11 13.4477 11 14V14.01C11 14.5623 10.5523 15.01 10 15.01C9.44772 15.01 9 14.5623 9 14.01V14C9 13.4477 9.44772 13 10 13Z" fill="#808080"/>
<path fill-rule="evenodd" clip-rule="evenodd" d="M14.8964 16.8964L15.8964 15.8964C16.0917 15.7012 16.4083 15.7012 16.6036 15.8964C16.7988 16.0917 16.7988 16.4083 16.6036 16.6036L15.9571 17.25L16.6036 17.8964C16.7988 18.0917 16.7988 18.4083 16.6036 18.6036C16.4083 18.7988 16.0917 18.7988 15.8964 18.6036L14.8964 17.6036C14.7012 17.4083 14.7012 17.0917 14.8964 16.8964ZM17.8964 15.8964C18.0917 15.7012 18.4083 15.7012 18.6036 15.8964L19.6036 16.8964C19.7988 17.0917 19.7988 17.4083 19.6036 17.6036L18.6036 18.6036C18.4083 18.7988 18.0917 18.7988 17.8964 18.6036C17.7012 18.4083 17.7012 18.0917 17.8964 17.8964L18.5429 17.25L17.8964 16.6036C17.7012 16.4083 17.7012 16.0917 17.8964 15.8964Z" fill="#808080"/>
<path fill-rule="evenodd" clip-rule="evenodd" d="M13.8912 13.8912C14.782 13.0004 15.9902 12.5 17.25 12.5C18.5098 12.5 19.718 13.0004 20.6088 13.8912C21.4996 14.782 22 15.9902 22 17.25C22 18.5098 21.4996 19.718 20.6088 20.6088C19.718 21.4996 18.5098 22 17.25 22C15.9902 22 14.782 21.4996 13.8912 20.6088C13.0004 19.718 12.5 18.5098 12.5 17.25C12.5 15.9902 13.0004 14.782 13.8912 13.8912ZM17.25 14C16.388 14 15.5614 14.3424 14.9519 14.9519C14.3424 15.5614 14 16.388 14 17.25C14 18.112 14.3424 18.9386 14.9519 19.5481C15.5614 20.1576 16.388 20.5 17.25 20.5C18.112 20.5 18.9386 20.1576 19.5481 19.5481C20.1576 18.9386 20.5 18.112 20.5 17.25C20.5 16.388 20.1576 15.5614 19.5481 14.9519C18.9386 14.3424 18.112 14 17.25 14Z" fill="#1A1A1A"/>
</svg>
