<svg width="24" height="24" viewBox="0 0 24 24" fill="none" xmlns="http://www.w3.org/2000/svg">
<path fill-rule="evenodd" clip-rule="evenodd" d="M3.87868 6.87868C4.44129 6.31607 5.20435 6 6 6H7C7.55228 6 8 6.44772 8 7C8 7.55228 7.55228 8 7 8H6C5.73478 8 5.48043 8.10536 5.29289 8.29289C5.10536 8.48043 5 8.73478 5 9V18C5 18.2652 5.10536 18.5196 5.29289 18.7071C5.48043 18.8946 5.73478 19 6 19H15C15.2652 19 15.5196 18.8946 15.7071 18.7071C15.8946 18.5196 16 18.2652 16 18V17C16 16.4477 16.4477 16 17 16C17.5523 16 18 16.4477 18 17V18C18 18.7957 17.6839 19.5587 17.1213 20.1213C16.5587 20.6839 15.7957 21 15 21H6C5.20435 21 4.44129 20.6839 3.87868 20.1213C3.31607 19.5587 3 18.7956 3 18V9C3 8.20435 3.31607 7.44129 3.87868 6.87868Z" fill="#808080"/>
<path fill-rule="evenodd" clip-rule="evenodd" d="M15.2929 4.29289C15.6834 3.90237 16.3166 3.90237 16.7071 4.29289L19.7071 7.29289C20.0976 7.68342 20.0976 8.31658 19.7071 8.70711C19.3166 9.09763 18.6834 9.09763 18.2929 8.70711L15.2929 5.70711C14.9024 5.31658 14.9024 4.68342 15.2929 4.29289Z" fill="#1A1A1A"/>
<path fill-rule="evenodd" clip-rule="evenodd" d="M16.7087 2.90712C17.29 2.32622 18.0782 1.99989 18.9 1.99989C19.7222 1.99989 20.5107 2.32651 21.0921 2.90789C21.6735 3.48928 22.0001 4.2778 22.0001 5.1C22.0001 5.92182 21.6738 6.70999 21.0929 7.29129C21.0926 7.29156 21.0924 7.29184 21.0921 7.29211L12.7084 15.7058C12.5207 15.8942 12.2658 16 12 16H9C8.44772 16 8 15.5523 8 15V12C8 11.7342 8.10585 11.4793 8.29416 11.2916L16.7079 2.90789C16.7082 2.90763 16.7084 2.90738 16.7087 2.90712ZM18.9 3.99989C18.6082 3.99989 18.3284 4.1158 18.1221 4.32211L10 12.4153V14H11.5847L19.6779 5.87789C19.8842 5.67158 20.0001 5.39177 20.0001 5.1C20.0001 4.80823 19.8842 4.52842 19.6779 4.32211C19.4716 4.1158 19.1918 3.99989 18.9 3.99989Z" fill="#1A1A1A"/>
</svg>
