<svg width="24" height="24" viewBox="0 0 24 24" fill="none" xmlns="http://www.w3.org/2000/svg">
<path d="M18.125 8.49997C18.6082 8.49997 19 8.89172 19 9.37498C19 9.85823 18.6082 10.25 18.125 10.25H5.875C5.39175 10.25 5 9.85823 5 9.37498C5 8.89172 5.39175 8.49997 5.875 8.49997H18.125Z" fill="#1A1A1A"/>
<path d="M18.125 13.75C18.6082 13.75 19 14.1418 19 14.625C19 15.1083 18.6082 15.5 18.125 15.5H5.875C5.39175 15.5 5 15.1083 5 14.625C5 14.1418 5.39175 13.75 5.875 13.75H18.125Z" fill="#1A1A1A"/>
<path d="M17.5063 5.25628C17.8481 4.91457 18.4019 4.91457 18.7437 5.25628C19.0854 5.598 19.0854 6.15189 18.7437 6.4936L6.49365 18.7437C6.15194 19.0854 5.59806 19.0854 5.25635 18.7437C4.91464 18.402 4.91464 17.8481 5.25635 17.5064L17.5063 5.25628Z" fill="#1A1A1A"/>
</svg>
