<svg width="24" height="24" viewBox="0 0 24 24" fill="none" xmlns="http://www.w3.org/2000/svg">
<path d="M10.993 6.29302C11.3835 5.90249 12.0165 5.90249 12.407 6.29302L18.7068 12.5928C19.0974 12.9833 19.0974 13.6164 18.7068 14.0069C18.3163 14.3974 17.6833 14.3974 17.2928 14.0069L10.993 7.70708C10.6024 7.31655 10.6024 6.68354 10.993 6.29302Z" fill="#808080"/>
<path d="M15.001 3C15.4632 3 15.9093 3.15985 16.2646 3.44922L16.4111 3.58105L21.418 8.58496C21.7905 8.95955 21.9999 9.46672 22 9.99512C22 10.5229 21.7906 11.0288 21.4189 11.4033L13.9004 19H19.0078C19.5601 19 20.0078 19.4477 20.0078 20C20.0078 20.5523 19.5601 21 19.0078 21H8.50293C8.23436 21 7.9771 20.8919 7.78906 20.7002L3.57617 16.4004L3.57715 16.3994C3.20785 16.0253 3 15.5211 3 14.9951C3.00003 14.4666 3.20941 13.9596 3.58203 13.585L13.5908 3.58105C13.9656 3.2087 14.4728 3.00007 15.001 3ZM5 14.9951L5.00488 15L8.92383 19H11.0879L19.998 9.99707L19.999 9.99512L15.002 5L5 14.9951Z" fill="#1A1A1A"/>
</svg>
