<svg width="24" height="24" viewBox="0 0 24 24" fill="none" xmlns="http://www.w3.org/2000/svg">
<path fill-rule="evenodd" clip-rule="evenodd" d="M11.2919 9.87977C11.6825 10.2702 11.6826 10.9034 11.2922 11.294C11.1047 11.4816 10.9993 11.7359 10.9994 12.0012C10.9994 12.2664 11.1048 12.5208 11.2924 12.7083C11.48 12.8958 11.7344 13.0011 11.9996 13.001C12.2648 13.001 12.5192 12.8956 12.7067 12.708C13.0972 12.3174 13.7303 12.3173 14.1209 12.7078C14.5115 13.0982 14.5116 13.7314 14.1212 14.122C13.5587 14.6847 12.7956 15.0009 12 15.001C11.2043 15.0012 10.4412 14.6852 9.87846 14.1227C9.31574 13.5602 8.99953 12.7972 8.99939 12.0015C8.99925 11.2059 9.31519 10.4427 9.87771 9.88002C10.2682 9.48942 10.9013 9.48931 11.2919 9.87977Z" fill="#1A1A1A"/>
<path d="M11.9974 7C11.4537 6.99859 10.9113 7.05224 10.3784 7.16012C9.83711 7.2697 9.30946 6.91972 9.19988 6.37841C9.0903 5.83711 9.44028 5.30946 9.98159 5.19988C10.6464 5.06531 11.323 4.99834 12.0013 5C16.0563 5.00048 19.3381 7.28647 21.8575 11.4855C22.0475 11.8022 22.0475 12.1978 21.8575 12.5145C21.1604 13.6763 20.405 14.6933 19.5887 15.5569C19.2094 15.9583 18.5765 15.9761 18.1751 15.5967C17.7737 15.2174 17.7559 14.5844 18.1353 14.1831C18.7203 13.5641 19.2838 12.8377 19.8229 11.9999C17.6096 8.55891 14.9988 7 12 7L11.9974 7Z" fill="#1A1A1A"/>
<path d="M8.17013 6.79943C8.46095 7.26894 8.31609 7.88531 7.84657 8.17613C6.53417 8.98903 5.30516 10.247 4.17707 12.0001C6.39041 15.4411 9.00116 17 12 17H12.0066C13.4714 17.0097 14.9088 16.6022 16.1506 15.8253C16.6188 15.5323 17.2358 15.6744 17.5287 16.1426C17.8217 16.6108 17.6796 17.2278 17.2114 17.5207C15.6487 18.4985 13.8401 19.0115 11.9967 19C7.94268 18.9988 4.66152 16.7128 2.14251 12.5145C1.9525 12.1978 1.9525 11.8022 2.14251 11.4855C3.47221 9.26934 5.01483 7.57754 6.79343 6.47587C7.26294 6.18505 7.87931 6.32991 8.17013 6.79943Z" fill="#1A1A1A"/>
<path fill-rule="evenodd" clip-rule="evenodd" d="M2.29289 2.29289C2.68342 1.90237 3.31658 1.90237 3.70711 2.29289L21.7071 20.2929C22.0976 20.6834 22.0976 21.3166 21.7071 21.7071C21.3166 22.0976 20.6834 22.0976 20.2929 21.7071L2.29289 3.70711C1.90237 3.31658 1.90237 2.68342 2.29289 2.29289Z" fill="#808080"/>
</svg>
