<svg width="24" height="24" viewBox="0 0 24 24" fill="none" xmlns="http://www.w3.org/2000/svg">
<path d="M19 6.99999H15L14.999 2.99899L19 6.99999Z" fill="#1A1A1A"/>
<path fill-rule="evenodd" clip-rule="evenodd" d="M12.117 2.007L12 2H7L6.824 2.005C6.06011 2.04989 5.34224 2.38499 4.81728 2.94174C4.29233 3.49849 3.99996 4.23479 4 5V19L4.005 19.176C4.04989 19.9399 4.38499 20.6578 4.94174 21.1827C5.49849 21.7077 6.23479 22 7 22H17L17.176 21.995C17.9399 21.9501 18.6578 21.615 19.1827 21.0583C19.7077 20.5015 20 19.7652 20 19V10L19.993 9.883C19.9667 9.65978 19.8659 9.45194 19.707 9.29301C19.5481 9.13408 19.3402 9.03332 19.117 9.007L19 9H15L14.843 8.994C14.3669 8.95666 13.92 8.75023 13.5829 8.41203C13.2458 8.07383 13.0408 7.62617 13.005 7.15L13 7V3L12.993 2.883C12.9667 2.65978 12.8659 2.45194 12.707 2.29301C12.5481 2.13408 12.3402 2.03332 12.117 2.007ZM9 8C8.44772 8 8 8.44772 8 9C8 9.55228 8.44772 10 9 10H10C10.5523 10 11 9.55228 11 9C11 8.44772 10.5523 8 10 8H9ZM9 12C8.44772 12 8 12.4477 8 13C8 13.5523 8.44772 14 9 14H15C15.5523 14 16 13.5523 16 13C16 12.4477 15.5523 12 15 12H9ZM8 17C8 16.4477 8.44772 16 9 16H15C15.5523 16 16 16.4477 16 17C16 17.5523 15.5523 18 15 18H9C8.44772 18 8 17.5523 8 17Z" fill="#1A1A1A"/>
</svg>
