<svg width="24" height="24" viewBox="0 0 24 24" fill="none" xmlns="http://www.w3.org/2000/svg">
<g clip-path="url(#clip0_2913_196)">
<path d="M13.586 2C14.1164 2.00011 14.625 2.2109 15 2.586L19.414 7C19.7891 7.37499 19.9999 7.88361 20 8.414V20C20 20.5304 19.7893 21.0391 19.4142 21.4142C19.0391 21.7893 18.5304 22 18 22H6C5.46957 22 4.96086 21.7893 4.58579 21.4142C4.21071 21.0391 4 20.5304 4 20V4C4 3.46957 4.21071 2.96086 4.58579 2.58579C4.96086 2.21071 5.46957 2 6 2H13.586ZM12 4H6V20H18V10H13.5C13.1022 10 12.7206 9.84196 12.4393 9.56066C12.158 9.27936 12 8.89782 12 8.5V4ZM14 4.414V8H17.586L14 4.414Z" fill="#1A1A1A"/>
<path d="M15.7071 14.2929C15.5196 14.1054 15.2652 14 15 14H9C8.73478 14 8.48043 14.1054 8.29289 14.2929C8.10536 14.4804 8 14.7348 8 15C8 15.2652 8.10536 15.5196 8.29289 15.7071C8.48043 15.8946 8.73478 16 9 16H15C15.2652 16 15.5196 15.8946 15.7071 15.7071C15.8946 15.5196 16 15.2652 16 15C16 14.7348 15.8946 14.4804 15.7071 14.2929Z" fill="#808080"/>
<path d="M10.7071 10.2929C10.5196 10.1054 10.2652 10 10 10H9C8.73478 10 8.48043 10.1054 8.29289 10.2929C8.10536 10.4804 8 10.7348 8 11C8 11.2652 8.10536 11.5196 8.29289 11.7071C8.48043 11.8946 8.73478 12 9 12H10C10.2652 12 10.5196 11.8946 10.7071 11.7071C10.8946 11.5196 11 11.2652 11 11C11 10.7348 10.8946 10.4804 10.7071 10.2929Z" fill="#808080"/>
</g>
<defs>
<clipPath id="clip0_2913_196">
<rect width="24" height="24" fill="white"/>
</clipPath>
</defs>
</svg>
