<svg width="24" height="24" viewBox="0 0 24 24" fill="none" xmlns="http://www.w3.org/2000/svg">
<rect x="4" y="5" width="4" height="2" rx="1" fill="#1A1A1A"/>
<rect x="10" y="5" width="5" height="2" rx="1" fill="#1A1A1A"/>
<rect x="4" y="11" width="10" height="2" rx="1" fill="#1A1A1A"/>
<rect x="16" y="11" width="4" height="2" rx="1" fill="#1A1A1A"/>
<rect x="4" y="17" width="4" height="2" rx="1" fill="#1A1A1A"/>
<rect x="10" y="17" width="10" height="2" rx="1" fill="#1A1A1A"/>
<path fill-rule="evenodd" clip-rule="evenodd" d="M9 9C10.6569 9 12 7.65685 12 6C12 4.34315 10.6569 3 9 3C7.34315 3 6 4.34315 6 6C6 7.65685 7.34315 9 9 9ZM9 7C9.55228 7 10 6.55228 10 6C10 5.44772 9.55228 5 9 5C8.44772 5 8 5.44772 8 6C8 6.55228 8.44772 7 9 7Z" fill="#808080"/>
<path fill-rule="evenodd" clip-rule="evenodd" d="M15 15C16.6569 15 18 13.6569 18 12C18 10.3431 16.6569 9 15 9C13.3431 9 12 10.3431 12 12C12 13.6569 13.3431 15 15 15ZM15 13C15.5523 13 16 12.5523 16 12C16 11.4477 15.5523 11 15 11C14.4477 11 14 11.4477 14 12C14 12.5523 14.4477 13 15 13Z" fill="#808080"/>
<path fill-rule="evenodd" clip-rule="evenodd" d="M9 21C10.6569 21 12 19.6569 12 18C12 16.3431 10.6569 15 9 15C7.34315 15 6 16.3431 6 18C6 19.6569 7.34315 21 9 21ZM9 19C9.55228 19 10 18.5523 10 18C10 17.4477 9.55228 17 9 17C8.44772 17 8 17.4477 8 18C8 18.5523 8.44772 19 9 19Z" fill="#808080"/>
<circle cx="19.5" cy="6" r="3" fill="#808080"/>
</svg>
