<svg width="24" height="24" viewBox="0 0 24 24" fill="none" xmlns="http://www.w3.org/2000/svg">
<path fill-rule="evenodd" clip-rule="evenodd" d="M5 13C5.55228 13 6 13.4477 6 14V21C6 21.5523 5.55228 22 5 22C4.44772 22 4 21.5523 4 21V14C4 13.4477 4.44772 13 5 13Z" fill="#808080"/>
<path fill-rule="evenodd" clip-rule="evenodd" d="M6 5.4482V12.1164C6.77726 11.7601 7.629 11.5707 8.5 11.5707C10.0705 11.5707 11.5784 12.1865 12.7 13.2859C13.4477 14.0188 14.453 14.4293 15.5 14.4293C16.4127 14.4293 17.2937 14.1173 18 13.5518V6.88364C17.2227 7.23989 16.371 7.42929 15.5 7.42929C13.9295 7.42929 12.4216 6.8135 11.3 5.71414C10.5523 4.98123 9.54701 4.57071 8.5 4.57071C7.5873 4.57071 6.70631 4.88267 6 5.4482ZM4.3 4.28586C5.42157 3.18649 6.92948 2.57071 8.5 2.57071C10.0705 2.57071 11.5784 3.18649 12.7 4.28586C13.4477 5.01876 14.453 5.42928 15.5 5.42928C16.547 5.42928 17.5523 5.01876 18.3 4.28586C18.5875 4.00401 19.0161 3.9221 19.3873 4.07804C19.7585 4.23399 20 4.59736 20 5V14C20 14.2687 19.8919 14.5261 19.7 14.7141C18.5784 15.8135 17.0705 16.4293 15.5 16.4293C13.9295 16.4293 12.4216 15.8135 11.3 14.7141C10.5523 13.9812 9.54701 13.5707 8.5 13.5707C7.45299 13.5707 6.44772 13.9812 5.7 14.7141C5.41246 14.996 4.98392 15.0779 4.6127 14.922C4.24148 14.766 4 14.4026 4 14V5C4 4.73132 4.10812 4.47393 4.3 4.28586Z" fill="#1A1A1A"/>
</svg>
