<svg width="24" height="24" viewBox="0 0 24 24" fill="none" xmlns="http://www.w3.org/2000/svg">
<path fill-rule="evenodd" clip-rule="evenodd" d="M10.5287 2.07832C10.8996 1.92222 11.3279 2.0036 11.6156 2.28485C12.3171 2.9704 13.2055 4.48165 13.6461 6.21002C14.0203 7.67785 14.1076 9.45053 13.3562 11.0999C13.445 11.1099 13.5101 11.0913 13.5685 11.0685C13.9047 10.9372 14.5122 10.4204 15.4793 8.83273C15.6431 8.56378 15.9241 8.3877 16.2375 8.35754C16.551 8.32737 16.8604 8.44664 17.0725 8.67942C17.6872 9.35404 18.2824 10.3834 18.7215 11.4237C19.158 12.458 19.5 13.6436 19.5 14.6471C19.5 16.6047 18.7041 18.4773 17.2952 19.8544C15.887 21.2307 13.9818 22 12 22C10.0182 22 8.11302 21.2307 6.70484 19.8544C5.29587 18.4773 4.5 16.6047 4.5 14.6471C4.5 12.5269 5.4378 10.1744 6.95798 8.64742C6.99301 8.61229 7.02876 8.57648 7.06409 8.54111C8.39494 7.20835 9.91667 5.68444 9.91667 3C9.91667 2.59762 10.1578 2.23443 10.5287 2.07832Z" fill="#1A1A1A"/>
</svg>
