<svg width="24" height="24" viewBox="0 0 24 24" fill="none" xmlns="http://www.w3.org/2000/svg">
<path d="M6.5 4.99998L7.98567 6.49286L13.9878 13.0985L15.5 14.5L8.59766 21.5372C7.54319 22.6247 5.72437 21.6431 6.05552 20.1657L7.32609 14.5L5.75538 14.494C5.47561 14.4928 5.2002 14.4246 4.95222 14.2952C4.70425 14.1657 4.49094 13.9788 4.33016 13.75C4.16939 13.5212 4.06582 13.2573 4.02815 12.9803C3.99048 12.7033 4.0198 12.4213 4.11364 12.158L6.5 4.99998ZM13.9878 13.0985L7.98567 6.49286L6.06284 12.158C6.04962 12.1955 6.04556 12.2356 6.051 12.2751C6.05644 12.3145 6.07123 12.352 6.09413 12.3846C6.11703 12.4172 6.14738 12.4438 6.18266 12.4623C6.21794 12.4807 6.25712 12.4905 6.29695 12.4908L8.80008 12.5008C8.91231 12.5012 9.02302 12.5268 9.12404 12.5757C9.22507 12.6245 9.31385 12.6954 9.38383 12.783C9.45381 12.8707 9.50322 12.9729 9.52841 13.0822C9.55361 13.1915 9.55395 13.305 9.5294 13.4144L8.5294 18.4999L13.9878 13.0985Z" fill="#1A1A1A"/>
<path d="M15.0293 12.0001L17.0293 10.0001L12.9999 10C12.8812 9.99976 12.7642 9.97135 12.6586 9.91713C12.553 9.86291 12.4617 9.78441 12.3924 9.6881C12.323 9.59179 12.2776 9.48041 12.2597 9.36311C12.2418 9.24582 12.2521 9.12597 12.2896 9.0134L14.3412 4.00841L8.99994 4.00841L8.49994 5.5L7.06592 3.88046L7.43608 2.83888C7.61416 2.34208 8.08538 2.00922 8.61462 2.00922L15.0705 2.00922C15.2687 2.00905 15.4642 2.05596 15.6407 2.14609C15.8172 2.23621 15.9697 2.36697 16.0857 2.52757C16.2017 2.68817 16.2778 2.87402 16.3078 3.06979C16.3377 3.26557 16.3704 3.82051 16.3078 4.00841L15.5566 6.0076L14.8054 8.00679H18.7652C19.8697 8.00679 20.4319 9.33326 19.6636 10.1259L16.5392 13.3466L15.0293 12.0001Z" fill="#808080"/>
</svg>
