<svg width="24" height="24" viewBox="0 0 24 24" fill="none" xmlns="http://www.w3.org/2000/svg">
<path d="M5.95049 7.0072L2.22881 3.2887C2.15718 3.21951 2.10006 3.13676 2.06078 3.04527C2.0215 2.95379 2.00084 2.8554 2.00003 2.75586C1.99921 2.65631 2.01824 2.5576 2.05601 2.46549C2.09378 2.37337 2.06652 2.33938 2.35326 2.05154C2.66477 1.73882 2.69985 1.7631 2.79208 1.72544C2.88431 1.68779 2.98312 1.66887 3.08275 1.66978C3.18238 1.67069 3.28083 1.69142 3.37235 1.73075C3.46388 1.77009 3.54665 1.82724 3.61583 1.89887L22.1242 20.3914C22.2567 20.5335 22.3289 20.7215 22.3254 20.9157C22.322 21.1099 22.2833 21.2983 21.958 21.6249C21.6327 21.9515 21.4573 21.9789 21.2629 21.9823C21.0685 21.9857 20.8804 21.9137 20.7381 21.7812L14.4513 15.5008L8.59768 21.5373C7.5432 22.6249 5.72439 21.6433 6.05553 20.1659L7.32611 14.5002L5.7554 14.4942C5.47562 14.493 5.20021 14.4248 4.95224 14.2953C4.70427 14.1659 4.49096 13.9789 4.33018 13.7501C4.1694 13.5214 4.06584 13.2574 4.02817 12.9804C3.99049 12.7034 4.01981 12.4215 4.11366 12.1581L5.95049 7.0072ZM12.9391 14.0995L7.43616 8.50007L6.06286 12.1581C6.04963 12.1957 6.04557 12.2358 6.05101 12.2752C6.05646 12.3147 6.07124 12.3522 6.09414 12.3848C6.11704 12.4173 6.14739 12.444 6.18267 12.4624C6.21795 12.4809 6.25713 12.4907 6.29696 12.491L8.80009 12.501C8.91232 12.5014 9.02303 12.527 9.12406 12.5758C9.22509 12.6247 9.31386 12.6955 9.38384 12.7832C9.45383 12.8709 9.50324 12.9731 9.52843 13.0824C9.55362 13.1917 9.55396 13.3052 9.52942 13.4146L8.52942 18.5001L12.9391 14.0995Z" fill="#1A1A1A"/>
<path d="M15.0293 12.0001L17.0293 10.0001L12.9999 10C12.8812 9.99976 12.7642 9.97135 12.6586 9.91713C12.553 9.86291 12.4617 9.78441 12.3924 9.6881C12.323 9.59179 12.2776 9.48041 12.2597 9.36311C12.2418 9.24582 12.2521 9.12597 12.2896 9.0134L14.3412 4.00841L8.99994 4.00841L8.49994 5.5L7.06592 3.88046L7.43608 2.83888C7.61416 2.34208 8.08538 2.00922 8.61462 2.00922L15.0705 2.00922C15.2687 2.00905 15.4642 2.05596 15.6407 2.14609C15.8172 2.23621 15.9697 2.36697 16.0857 2.52757C16.2017 2.68817 16.2778 2.87402 16.3078 3.06979C16.3377 3.26557 16.3704 3.82051 16.3078 4.00841L15.5566 6.0076L14.8054 8.00679H18.7652C19.8697 8.00679 20.4319 9.33326 19.6636 10.1259L16.5392 13.3466L15.0293 12.0001Z" fill="#808080"/>
</svg>
