<svg width="24" height="24" viewBox="0 0 24 24" fill="none" xmlns="http://www.w3.org/2000/svg">
<path fill-rule="evenodd" clip-rule="evenodd" d="M12 2C12.5523 2 13 2.44772 13 3V21C13 21.5523 12.5523 22 12 22C11.4477 22 11 21.5523 11 21V3C11 2.44772 11.4477 2 12 2Z" fill="#1A1A1A"/>
<path fill-rule="evenodd" clip-rule="evenodd" d="M15.7702 6.02675C16.2216 5.9202 16.687 6.13797 16.8944 6.55278L21.8944 16.5528C22.0494 16.8628 22.0329 17.2309 21.8507 17.5257C21.6684 17.8205 21.3466 18 21 18H16C15.4477 18 15 17.5523 15 17V7C15 6.53622 15.3189 6.1333 15.7702 6.02675ZM17 11.2361V16H19.382L17 11.2361Z" fill="#1A1A1A"/>
<path fill-rule="evenodd" clip-rule="evenodd" d="M8.22975 6.02675C8.68112 6.1333 9 6.53622 9 7V17C9 17.5523 8.55229 18 8 18H3C2.65342 18 2.33156 17.8205 2.14935 17.5257C1.96714 17.2309 1.95058 16.8628 2.10557 16.5528L7.10557 6.55278C7.31298 6.13797 7.77838 5.9202 8.22975 6.02675ZM4.61803 16H7V11.2361L4.61803 16Z" fill="#1A1A1A"/>
</svg>
