<svg width="24" height="24" viewBox="0 0 24 24" fill="none" xmlns="http://www.w3.org/2000/svg">
<path d="M17.8845 13.0386C18.3491 12.8871 18.8335 13.1951 18.9662 13.726C19.0988 14.2568 18.8292 14.8104 18.3647 14.9621L6.11547 18.9614C5.65095 19.1129 5.16647 18.8049 5.03375 18.274C4.90123 17.7432 5.17076 17.1896 5.63528 17.0379L17.8845 13.0386Z" fill="#1A1A1A"/>
<path d="M5.03375 5.72601C5.16648 5.19515 5.65097 4.88712 6.11551 5.03857L18.3651 9.03818C18.7408 9.16083 19 9.55356 19 10C19 10.4464 18.7408 10.8392 18.3651 10.9618L6.11551 14.9614C5.65097 15.1129 5.16648 14.8048 5.03375 14.274C4.90123 13.7431 5.17077 13.1895 5.6353 13.0378L14.9387 10L5.6353 6.96221C5.17077 6.81054 4.90123 6.25687 5.03375 5.72601Z" fill="#1A1A1A"/>
</svg>
