<svg width="24" height="24" viewBox="0 0 24 24" fill="none" xmlns="http://www.w3.org/2000/svg">
<path d="M7 19C7 18.4696 7.21086 17.961 7.58594 17.5859C7.96101 17.2109 8.46957 17 9 17C9.53043 17 10.039 17.2109 10.4141 17.5859C10.7891 17.961 11 18.4696 11 19C11 19.5304 10.7891 20.039 10.4141 20.4141C10.039 20.7891 9.53043 21 9 21C8.46957 21 7.96101 20.7891 7.58594 20.4141C7.21087 20.039 7 19.5304 7 19ZM13 19C13 18.4696 13.2109 17.961 13.5859 17.5859C13.961 17.2109 14.4696 17 15 17C15.5304 17 16.039 17.2109 16.4141 17.5859C16.7891 17.961 17 18.4696 17 19C17 19.5304 16.7891 20.039 16.4141 20.4141C16.039 20.7891 15.5304 21 15 21C14.4696 21 13.961 20.7891 13.5859 20.4141C13.2109 20.039 13 19.5304 13 19ZM7 12C7 11.4696 7.21087 10.961 7.58594 10.5859C7.96101 10.2109 8.46957 10 9 10C9.53043 10 10.039 10.2109 10.4141 10.5859C10.7891 10.961 11 11.4696 11 12C11 12.5304 10.7891 13.039 10.4141 13.4141C10.039 13.7891 9.53043 14 9 14C8.46957 14 7.96101 13.7891 7.58594 13.4141C7.21087 13.039 7 12.5304 7 12ZM13 12C13 11.4696 13.2109 10.961 13.5859 10.5859C13.961 10.2109 14.4696 10 15 10C15.5304 10 16.039 10.2109 16.4141 10.5859C16.7891 10.961 17 11.4696 17 12C17 12.5304 16.7891 13.039 16.4141 13.4141C16.039 13.7891 15.5304 14 15 14C14.4696 14 13.961 13.7891 13.5859 13.4141C13.2109 13.039 13 12.5304 13 12ZM7 5C7 4.46957 7.21087 3.96101 7.58594 3.58594C7.96101 3.21087 8.46957 3 9 3C9.53043 3 10.039 3.21087 10.4141 3.58594C10.7891 3.96101 11 4.46957 11 5C11 5.53043 10.7891 6.03899 10.4141 6.41406C10.039 6.78913 9.53043 7 9 7C8.46957 7 7.96101 6.78913 7.58594 6.41406C7.21087 6.03899 7 5.53043 7 5ZM13 5C13 4.46957 13.2109 3.96101 13.5859 3.58594C13.961 3.21087 14.4696 3 15 3C15.5304 3 16.039 3.21087 16.4141 3.58594C16.7891 3.96101 17 4.46957 17 5C17 5.53043 16.7891 6.03899 16.4141 6.41406C16.039 6.78913 15.5304 7 15 7C14.4696 7 13.961 6.78913 13.5859 6.41406C13.2109 6.03899 13 5.53043 13 5Z" fill="#1A1A1A"/>
</svg>
