<svg width="24" height="24" viewBox="0 0 24 24" fill="none" xmlns="http://www.w3.org/2000/svg">
<path d="M21.7811 9.80041C21.8031 9.72163 21.8292 9.64485 21.8479 9.56472L21.8572 9.51665C22.0482 8.74674 22.0476 7.94177 21.8554 7.17216C21.6632 6.40255 21.2854 5.69177 20.7549 5.102C20.2662 4.44422 19.6292 3.91105 18.8956 3.54584C18.162 3.18062 17.3526 2.99366 16.5332 3.00017H16.4985C16.4317 3.00017 16.3569 3.00484 16.2862 3.00684H16.2054C14.7944 3.08564 13.3919 3.2763 12.0111 3.57704L9.02189 3.09965H8.99852C7.5748 2.85342 6.10962 3.08834 4.83425 3.76732C4.11611 4.20093 3.49914 4.78329 3.02485 5.47523L2.99748 5.51195L2.98079 5.53532C2.35401 6.4651 2.01319 7.55805 2.00038 8.67928C1.98756 9.80052 2.30332 10.901 2.90868 11.8448C2.89599 11.8675 2.88865 11.8929 2.87663 11.9163C2.81882 12.032 2.76951 12.1519 2.72908 12.2748C2.70771 12.3416 2.69169 12.4123 2.67633 12.4818C2.66387 12.5383 2.65318 12.5948 2.64428 12.6514C2.6356 12.7221 2.6307 12.7932 2.62959 12.8644C2.62959 12.9218 2.62292 12.9779 2.62559 13.0346C2.63004 13.1094 2.63849 13.1837 2.65096 13.2576C2.65897 13.3104 2.66298 13.3631 2.67499 13.4152C2.69547 13.4975 2.72129 13.5781 2.75244 13.6569C2.7678 13.699 2.77782 13.7424 2.79651 13.7837C2.85126 13.9062 2.91803 14.0214 2.99681 14.1296C3.29898 14.5621 3.74468 14.8734 4.25471 15.0083C4.23578 15.293 4.28322 15.5782 4.39329 15.8414C4.50336 16.1046 4.67305 16.3387 4.889 16.5252C5.27164 16.8604 5.74087 17.0811 6.24304 17.1622C6.34653 17.498 6.52813 17.8045 6.7725 18.0569C7.10596 18.4182 7.55651 18.65 8.04442 18.7112C8.16059 19.1071 8.38092 19.465 8.68271 19.7461C9.05461 20.1119 9.55269 20.3203 10.0741 20.3269C10.4575 20.3243 10.834 20.2246 11.1685 20.0372C11.6652 20.3216 12.2474 20.4177 12.8096 20.3082C13.1047 20.2544 13.3844 20.1362 13.6286 19.9621C13.8729 19.7879 14.0759 19.5621 14.2231 19.3007C14.2371 19.2787 14.2451 19.2593 14.2578 19.2373C14.8253 19.3535 15.4162 19.2513 15.9123 18.9515C16.3485 18.7052 16.6806 18.3091 16.847 17.8365C17.4439 17.8445 18.0221 17.6295 18.4675 17.2323C18.7113 17.0188 18.9006 16.7503 19.0197 16.4489C19.1389 16.1476 19.1844 15.8221 19.1525 15.4997C19.1525 15.481 19.1478 15.4663 19.1465 15.4483C19.4949 15.3438 19.8084 15.1465 20.0532 14.8774C20.3696 14.5437 20.5734 14.1191 20.6357 13.6634C20.698 13.2077 20.6157 12.744 20.4004 12.3376C21.0008 11.6442 21.455 10.8366 21.7357 9.96333C21.7517 9.91191 21.7651 9.85583 21.7811 9.80041ZM20.6381 8.66537C20.6046 9.00104 20.5308 9.33146 20.4184 9.64952L20.397 9.71629C20.175 10.3102 19.8549 10.8626 19.4503 11.3507C17.3558 9.52266 14.3092 6.85464 14.0588 6.61562C13.7696 6.33886 13.3855 6.18313 12.9852 6.18029C12.861 6.17883 12.7374 6.19662 12.6186 6.23304C12.1953 6.36657 11.1551 6.70041 10.2471 7.03758C9.89988 7.16644 9.50328 6.83728 9.38243 6.55686C9.30231 6.38861 9.28896 6.19632 9.34371 6.01872C9.45254 5.82175 9.63548 5.67553 9.85181 5.61277C11.9057 4.89084 14.0516 4.46373 16.2254 4.34419H16.3062C16.3803 4.34419 16.4538 4.33885 16.5219 4.33752C17.0205 4.32969 17.5155 4.42351 17.9767 4.61327C18.6609 4.92418 19.2615 5.39332 19.7287 5.98199C20.1471 6.45411 20.4393 7.02442 20.578 7.63982L20.584 7.67054C20.6167 7.83481 20.637 8.0013 20.6447 8.16862C20.6467 8.2227 20.6501 8.29081 20.6501 8.3509C20.6501 8.44771 20.6501 8.54385 20.6387 8.63933L20.6381 8.66537ZM3.97629 13.1114C3.97228 13.082 3.97072 13.052 3.97161 13.0213C3.96439 12.9569 3.96439 12.892 3.97161 12.8276C3.97956 12.7899 3.98914 12.7524 4.00032 12.7155C4.01412 12.6558 4.03326 12.5982 4.05774 12.5425C4.08 12.5025 4.10515 12.4642 4.13319 12.4277C4.17325 12.3618 4.2211 12.3029 4.27674 12.2508L4.28075 12.2474L5.53664 11.1825C5.62008 11.1182 5.71537 11.0711 5.81706 11.0437C5.91875 11.0163 6.02484 11.0092 6.12927 11.0228C6.2337 11.0365 6.33442 11.0706 6.42565 11.1232C6.51689 11.1758 6.59687 11.2458 6.661 11.3294C6.70803 11.3976 6.73855 11.4758 6.75013 11.5579C6.76172 11.6399 6.75407 11.7235 6.72777 11.8021L4.75813 13.721C4.62219 13.7233 4.48796 13.6904 4.36851 13.6254C4.24905 13.5605 4.14843 13.4658 4.07644 13.3504C4.02607 13.279 3.99189 13.1974 3.97629 13.1114ZM5.65615 14.7105L7.81741 12.6046L7.80739 12.5946C7.92919 12.5346 8.06637 12.5132 8.20065 12.5332C8.37224 12.5799 8.52714 12.6761 8.64532 12.8096C8.76283 12.9098 8.84162 13.0473 8.86833 13.1995C8.87826 13.3538 8.84447 13.5077 8.77084 13.6435L8.75349 13.7003L6.56953 15.8282C6.41628 15.8349 6.26337 15.8086 6.1212 15.751C5.97903 15.6934 5.85093 15.6059 5.74562 15.4943C5.65913 15.385 5.60492 15.2537 5.58911 15.1152C5.5733 14.9767 5.59652 14.8365 5.65615 14.7105ZM7.51562 16.7702L9.77235 14.5743C9.9159 14.603 10.0474 14.6764 10.1476 14.7839C10.286 14.9051 10.3823 15.0671 10.4227 15.2466C10.4329 15.3238 10.4295 15.4022 10.4127 15.4783L8.46105 17.3778C8.33084 17.4019 8.19667 17.3924 8.07111 17.3504C7.94556 17.3083 7.83276 17.2351 7.7433 17.1375C7.63896 17.0352 7.56086 16.9092 7.51562 16.7702ZM9.61011 18.7813C9.48906 18.6749 9.39365 18.5425 9.33102 18.394L11.1745 16.6C11.306 16.6434 11.4262 16.7148 11.527 16.809C11.6211 16.8842 11.6922 16.9844 11.732 17.0981C11.7547 17.1823 11.7547 17.2709 11.732 17.3551C11.6489 17.6246 11.5099 17.8735 11.324 18.0856L10.8193 18.6731H10.8233C10.8066 18.6838 10.7879 18.6885 10.7725 18.7005C10.5843 18.8723 10.3421 18.9732 10.0875 18.9856C9.90778 18.9825 9.73642 18.9091 9.61011 18.7813ZM12.5973 18.9863C12.4985 19.0018 12.3992 19.0063 12.2995 18.9996L12.3489 18.9422L12.3649 18.9228L12.3656 18.9235C12.5677 18.6732 12.739 18.3995 12.8757 18.1083L13.1708 18.4207C13.1463 18.4839 13.1174 18.5447 13.084 18.603C13.0365 18.699 12.9681 18.7833 12.8839 18.8496C12.7997 18.9159 12.7018 18.9626 12.5973 18.9863ZM16.8704 16.4992L15.6826 15.1832C15.5806 15.0639 15.4398 14.9843 15.2849 14.9586C15.1301 14.9328 14.9711 14.9625 14.836 15.0425C14.7009 15.1224 14.5983 15.2474 14.5462 15.3955C14.4942 15.5436 14.4961 15.7053 14.5516 15.8522C14.5825 15.9355 14.6297 16.0117 14.6904 16.0765L15.6492 17.1448C15.6425 17.2134 15.6285 17.2801 15.6071 17.3451C15.5515 17.5342 15.4246 17.6943 15.2533 17.7918C15.0445 17.9287 14.7912 17.9803 14.5455 17.936L13.7443 17.0854C13.658 16.9942 13.5474 16.9295 13.4256 16.8989C13.3038 16.8683 13.1759 16.873 13.0566 16.9125C13.0458 16.8477 13.0317 16.7835 13.0146 16.7202C12.9042 16.3713 12.6992 16.06 12.4223 15.8208C12.2285 15.6435 12.0062 15.5002 11.7647 15.3968C11.7684 15.2726 11.7606 15.1484 11.7413 15.0256C11.6551 14.571 11.4267 14.1555 11.089 13.8392C10.8435 13.5905 10.5399 13.4069 10.2057 13.305C10.2092 13.216 10.2059 13.127 10.1957 13.038C10.1331 12.5883 9.91816 12.1738 9.58674 11.8635C9.28488 11.5474 8.89701 11.3267 8.47106 11.2286C8.32618 11.2006 8.17841 11.1905 8.03106 11.1985C7.97879 10.9505 7.87281 10.7169 7.7206 10.5142C7.54919 10.2916 7.33556 10.105 7.09194 9.96502C6.84832 9.82509 6.57949 9.73457 6.30085 9.69867C6.02221 9.66276 5.73922 9.68216 5.46808 9.75576C5.19695 9.82935 4.94299 9.9557 4.72074 10.1276L4.69737 10.1463L3.8728 10.8406C3.48601 10.1366 3.30093 9.33951 3.33792 8.53707C3.37491 7.73462 3.63253 6.95794 4.08245 6.29246L4.09647 6.27243C4.46216 5.72745 4.94166 5.26822 5.50192 4.9264C6.52407 4.39395 7.69458 4.21751 8.82827 4.42498L9.13807 4.47439C8.68051 4.68084 8.31497 5.04852 8.11118 5.50728C8.0127 5.75904 7.96586 6.02804 7.97343 6.29827C7.981 6.56851 8.04283 6.83446 8.15525 7.08032C8.35525 7.56406 8.72825 7.95598 9.20151 8.17965C9.67477 8.40332 10.2144 8.44271 10.7151 8.29014C11.5964 7.96365 12.6073 7.63582 12.9852 7.51631C13.0152 7.51532 13.0451 7.5211 13.0726 7.53324C13.1002 7.54537 13.1246 7.56355 13.1441 7.58641C13.4706 7.89354 17.4119 11.3434 19.0583 12.7782L19.1919 12.8924C19.2956 13.0603 19.3399 13.2582 19.3177 13.4543C19.2956 13.6505 19.2082 13.8335 19.0697 13.974C18.9746 14.0766 18.8496 14.1466 18.7125 14.1743L17.5554 13.0012C17.4295 12.8814 17.2619 12.8151 17.088 12.8164C16.9142 12.8178 16.7477 12.8866 16.6236 13.0084C16.4995 13.1303 16.4276 13.2955 16.4231 13.4693C16.4186 13.6431 16.4818 13.8119 16.5993 13.94L17.705 15.0603C17.7094 15.0804 17.7148 15.1002 17.721 15.1198L17.729 15.1405C17.7789 15.283 17.8092 15.4317 17.8191 15.5825C17.8377 15.6969 17.8279 15.8142 17.7906 15.924C17.7532 16.0338 17.6894 16.1327 17.6048 16.2121C17.4052 16.399 17.1415 16.5018 16.8684 16.4992H16.8704Z" fill="#1A1A1A"/>
<path fill-rule="evenodd" clip-rule="evenodd" d="M2.89129 11.8832C2.89659 11.8701 2.90188 11.8571 2.90872 11.8448L3.87284 10.8406L4.69742 10.1463L4.72079 10.1276C4.94303 9.9557 5.19699 9.82935 5.46813 9.75575C5.73926 9.68216 6.02225 9.66276 6.30089 9.69866C6.57954 9.73457 6.84836 9.82508 7.09198 9.96501C7.3356 10.1049 7.54923 10.2916 7.72064 10.5142C7.87286 10.7169 7.97883 10.9505 8.03111 11.1985C8.17845 11.1905 8.32622 11.2006 8.4711 11.2286C8.89705 11.3267 9.28492 11.5474 9.58678 11.8635C9.91821 12.1738 10.1331 12.5883 10.1957 13.038C10.2059 13.127 10.2093 13.216 10.2057 13.305C10.54 13.4069 10.8435 13.5905 11.089 13.8392C11.4267 14.1555 11.6551 14.571 11.7414 15.0256C11.7607 15.1484 11.7685 15.2726 11.7647 15.3968C12.0062 15.5002 12.2286 15.6435 12.4224 15.8208C12.6992 16.06 12.9043 16.3713 13.0146 16.7202C13.0318 16.7835 13.0458 16.8477 13.0567 16.9125C13.0567 17.3676 12.9361 17.8993 12.8757 18.1083C12.7391 18.3995 12.5678 18.6732 12.3656 18.9235L12.365 18.9228L12.3489 18.9422L12.2995 18.9996L11.1685 20.0372C10.8341 20.2246 10.4576 20.3243 10.0742 20.3269C9.55273 20.3203 9.05465 20.1119 8.68276 19.7461C8.38097 19.465 8.16064 19.1071 8.04446 18.7112C7.55655 18.65 7.106 18.4182 6.77254 18.0569C6.52818 17.8045 6.34657 17.498 6.24308 17.1622C5.74091 17.0811 5.27168 16.8604 4.88904 16.5252C4.67309 16.3387 4.5034 16.1046 4.39333 15.8414C4.28326 15.5782 4.23582 15.293 4.25475 15.0083C3.74472 14.8734 3.29902 14.5621 2.99686 14.1296C2.91807 14.0214 2.8513 13.9062 2.79655 13.7837C2.78501 13.7582 2.77677 13.7318 2.76854 13.7055C2.76345 13.6892 2.75836 13.673 2.75249 13.6569C2.72133 13.5781 2.69551 13.4975 2.67504 13.4152C2.667 13.3803 2.66254 13.3452 2.65808 13.31C2.65587 13.2925 2.65365 13.2751 2.651 13.2576C2.63854 13.1837 2.63008 13.1094 2.62563 13.0346C2.62408 13.0016 2.62569 12.9688 2.62731 12.9358C2.62847 12.9122 2.62964 12.8884 2.62964 12.8644C2.63074 12.7932 2.63565 12.7221 2.64433 12.6514C2.65323 12.5948 2.66391 12.5383 2.67637 12.4818C2.69173 12.4123 2.70775 12.3416 2.72912 12.2748C2.76955 12.1519 2.81887 12.032 2.87668 11.9163C2.88221 11.9055 2.88676 11.8943 2.89129 11.8832ZM3.97633 13.1114C3.97233 13.082 3.97077 13.052 3.97166 13.0213C3.96444 12.9569 3.96444 12.892 3.97166 12.8276C3.9796 12.7899 3.98918 12.7524 4.00037 12.7155C4.01417 12.6558 4.03331 12.5982 4.05779 12.5425C4.08004 12.5025 4.10519 12.4642 4.13324 12.4277C4.1733 12.3618 4.22115 12.3028 4.27678 12.2508L4.28079 12.2474L5.53668 11.1825C5.62012 11.1182 5.71542 11.0711 5.81711 11.0437C5.9188 11.0163 6.02489 11.0092 6.12932 11.0228C6.23375 11.0365 6.33446 11.0706 6.4257 11.1232C6.51694 11.1758 6.59691 11.2458 6.66104 11.3294C6.70808 11.3976 6.73859 11.4758 6.75018 11.5579C6.76177 11.6399 6.75411 11.7235 6.72781 11.8021L4.75818 13.721C4.62223 13.7233 4.48801 13.6904 4.36855 13.6254C4.2491 13.5605 4.14848 13.4658 4.07648 13.3504C4.02611 13.279 3.99193 13.1974 3.97633 13.1114ZM5.6562 14.7105L7.81745 12.6046L7.80744 12.5946C7.92923 12.5346 8.06641 12.5132 8.2007 12.5332C8.37229 12.5799 8.52719 12.6761 8.64537 12.8096C8.76288 12.9098 8.84166 13.0473 8.86837 13.1995C8.8783 13.3538 8.84451 13.5077 8.77089 13.6435L8.75353 13.7003L6.56957 15.8282C6.41632 15.8349 6.26342 15.8086 6.12124 15.751C5.97907 15.6934 5.85098 15.6059 5.74566 15.4943C5.65917 15.385 5.60496 15.2537 5.58915 15.1152C5.57334 14.9767 5.59656 14.8365 5.6562 14.7105ZM7.51566 16.7702L9.7724 14.5743C9.91595 14.603 10.0475 14.6764 10.1476 14.7839C10.286 14.9051 10.3824 15.0671 10.4227 15.2466C10.4329 15.3238 10.4295 15.4022 10.4127 15.4783L8.46109 17.3778C8.33089 17.4019 8.19671 17.3924 8.07116 17.3504C7.94561 17.3083 7.8328 17.2351 7.74334 17.1375C7.63901 17.0352 7.5609 16.9092 7.51566 16.7702ZM9.61015 18.7813C9.48911 18.6749 9.3937 18.5425 9.33107 18.394L11.1745 16.6C11.306 16.6434 11.4262 16.7148 11.527 16.809C11.6212 16.8842 11.6922 16.9844 11.732 17.0981C11.7547 17.1823 11.7547 17.2709 11.732 17.3551C11.649 17.6246 11.51 17.8735 11.3241 18.0856L10.8193 18.6731H10.8233C10.816 18.6778 10.8083 18.6813 10.8007 18.6848C10.7909 18.6893 10.7812 18.6937 10.7726 18.7005C10.5844 18.8723 10.3421 18.9732 10.0875 18.9856C9.90783 18.9825 9.73647 18.9091 9.61015 18.7813Z" fill="#808080"/>
<path d="M21.7812 9.80041C21.789 9.77238 21.7973 9.74461 21.8057 9.71685C21.8208 9.66658 21.8359 9.61634 21.8479 9.56472L21.8573 9.51665C22.0482 8.74674 22.0476 7.94176 21.8554 7.17216C21.6633 6.40255 21.2854 5.69176 20.7549 5.102C20.2662 4.44422 19.6292 3.91105 18.8956 3.54583C18.1621 3.18062 17.3527 2.99366 16.5332 3.00016H16.4985C16.4562 3.00016 16.4106 3.00204 16.3649 3.00393C16.3385 3.00502 16.3121 3.00611 16.2862 3.00684H16.2054C14.7944 3.08564 13.3919 3.2763 12.0111 3.57703L9.13811 4.47439C8.68055 4.68084 8.31501 5.04852 8.11123 5.50728C8.01275 5.75904 7.9659 6.02804 7.97347 6.29827C7.98104 6.5685 8.04287 6.83446 8.15529 7.08031C8.35529 7.56406 8.72829 7.95597 9.20155 8.17964C9.67482 8.40331 10.2144 8.4427 10.7152 8.29013C11.5965 7.96364 12.6073 7.63582 12.9852 7.5163L14.4824 7.00139L14.3207 6.85208C14.1849 6.73113 14.0942 6.64925 14.0589 6.61557C13.7697 6.33882 13.3856 6.18309 12.9853 6.18025C12.8611 6.17879 12.7375 6.19658 12.6187 6.233C12.1954 6.36653 11.1551 6.70041 10.2471 7.03758C9.89992 7.16644 9.50333 6.83728 9.38248 6.55686C9.30236 6.3886 9.289 6.19631 9.34375 6.01871C9.45258 5.82175 9.63552 5.67553 9.85185 5.61277C11.9058 4.89084 14.0516 4.46373 16.2255 4.34419H16.3062C16.3497 4.34419 16.393 4.34235 16.4351 4.34056C16.4647 4.3393 16.4938 4.33806 16.5219 4.33751C17.0205 4.32969 17.5156 4.42351 17.9768 4.61326C18.661 4.92417 19.2615 5.39332 19.7287 5.98199C20.1471 6.45411 20.4393 7.02441 20.578 7.63982L20.584 7.67053C20.6167 7.8348 20.637 8.0013 20.6448 8.16862L20.6461 8.20331C20.648 8.25018 20.6501 8.30307 20.6501 8.35089C20.6501 8.44771 20.6501 8.54385 20.6388 8.63933L20.6381 8.66537C20.6046 9.00104 20.5309 9.33146 20.4184 9.64952L20.3971 9.71628C20.175 10.3102 19.855 10.8626 19.4503 11.3507L20.4004 12.3376C21.0009 11.6442 21.4551 10.8366 21.7358 9.96332C21.745 9.93359 21.7535 9.90203 21.762 9.87021C21.7682 9.84709 21.7744 9.82369 21.7812 9.80041Z" fill="#808080"/>
</svg>
