<svg width="24" height="24" viewBox="0 0 24 24" fill="none" xmlns="http://www.w3.org/2000/svg">
<path d="M20 12C20 8.39285 19.5252 6.53883 18.4932 5.50684C17.4612 4.47484 15.6071 4 12 4C8.39285 4 6.53883 4.47484 5.50684 5.50684C4.47484 6.53883 4 8.39285 4 12C4 15.6071 4.47484 17.4612 5.50684 18.4932C6.53883 19.5252 8.39285 20 12 20C15.6071 20 17.4612 19.5252 18.4932 18.4932C19.5252 17.4612 20 15.6071 20 12ZM22 12C22 15.5929 21.5752 18.2392 19.9072 19.9072C18.2392 21.5752 15.5929 22 12 22C8.40715 22 5.76078 21.5752 4.09277 19.9072C2.42477 18.2392 2 15.5929 2 12C2 8.40715 2.42477 5.76078 4.09277 4.09277C5.76078 2.42477 8.40715 2 12 2C15.5929 2 18.2392 2.42477 19.9072 4.09277C21.5752 5.76078 22 8.40715 22 12Z" fill="#1A1A1A"/>
<path d="M11 16.0049V15.9951C11 15.4455 11.4477 15 12 15C12.5523 15 13 15.4455 13 15.9951V16.0049C13 16.5545 12.5523 17 12 17C11.4477 17 11 16.5545 11 16.0049Z" fill="black"/>
<path d="M11.4268 8.05786C12.0858 7.92605 12.7699 8.02137 13.3682 8.32739L13.5879 8.45044C14.0863 8.75969 14.4847 9.2101 14.7315 9.74634C15.0133 10.359 15.0802 11.0488 14.9219 11.7043C14.7634 12.3601 14.3891 12.9441 13.8584 13.3606C13.3277 13.777 12.6717 14.0023 11.9971 14.0002C11.4449 13.9986 10.9985 13.5495 11 12.9973C11.0017 12.4451 11.4507 11.9986 12.0029 12.0002L12.1699 11.9866C12.3346 11.9592 12.4904 11.8905 12.6231 11.7864C12.8 11.6476 12.9257 11.4532 12.9785 11.2346C13.0312 11.0162 13.008 10.7864 12.9141 10.5823C12.8436 10.4292 12.7364 10.297 12.6025 10.1975L12.46 10.1086L12.458 10.1077C12.2612 10.0069 12.0361 9.97645 11.8193 10.0198C11.6025 10.0632 11.4066 10.1782 11.2637 10.3469L11.1934 10.4221C10.8285 10.7738 10.2487 10.7986 9.85353 10.4641C9.43234 10.1073 9.37979 9.47637 9.73634 9.05493L9.90724 8.87036C10.3214 8.45729 10.8495 8.17335 11.4268 8.05786Z" fill="black"/>
</svg>
