<svg width="24" height="24" viewBox="0 0 24 24" fill="none" xmlns="http://www.w3.org/2000/svg">
<path fill-rule="evenodd" clip-rule="evenodd" d="M8.17317 2.7612C9.38642 2.25866 10.6868 2 12 2C13.3132 2 14.6136 2.25866 15.8268 2.7612C17.0401 3.26375 18.1425 4.00035 19.0711 4.92893C19.9997 5.85752 20.7362 6.95991 21.2388 8.17317C21.7413 9.38642 22 10.6868 22 12C22 13.3132 21.7413 14.6136 21.2388 15.8268C20.7362 17.0401 19.9997 18.1425 19.0711 19.0711C18.1425 19.9997 17.0401 20.7362 15.8268 21.2388C14.6136 21.7413 13.3132 22 12 22C10.6868 22 9.38642 21.7413 8.17317 21.2388C6.95991 20.7362 5.85752 19.9997 4.92893 19.0711C4.00035 18.1425 3.26375 17.0401 2.7612 15.8268C2.25866 14.6136 2 13.3132 2 12C2 10.6868 2.25866 9.38642 2.7612 8.17317C3.26375 6.95991 4.00035 5.85752 4.92893 4.92893C5.85752 4.00035 6.95991 3.26375 8.17317 2.7612ZM12 4C10.9494 4 9.90914 4.20693 8.93853 4.60896C7.96793 5.011 7.08601 5.60028 6.34315 6.34315C5.60028 7.08601 5.011 7.96793 4.60896 8.93853C4.20693 9.90914 4 10.9494 4 12C4 13.0506 4.20693 14.0909 4.60896 15.0615C5.011 16.0321 5.60028 16.914 6.34315 17.6569C7.08601 18.3997 7.96793 18.989 8.93853 19.391C9.90914 19.7931 10.9494 20 12 20C13.0506 20 14.0909 19.7931 15.0615 19.391C16.0321 18.989 16.914 18.3997 17.6569 17.6569C18.3997 16.914 18.989 16.0321 19.391 15.0615C19.7931 14.0909 20 13.0506 20 12C20 10.9494 19.7931 9.90914 19.391 8.93853C18.989 7.96793 18.3997 7.08601 17.6569 6.34315C16.914 5.60028 16.0321 5.011 15.0615 4.60896C14.0909 4.20693 13.0506 4 12 4Z" fill="#1A1A1A"/>
<path fill-rule="evenodd" clip-rule="evenodd" d="M12 16C12.5523 16 13 16.4455 13 16.995V17.005C13 17.5545 12.5523 18 12 18C11.4477 18 11 17.5545 11 17.005V16.995C11 16.4455 11.4477 16 12 16Z" fill="#808080"/>
<path fill-rule="evenodd" clip-rule="evenodd" d="M10.4748 6.34491C10.9742 6.0978 11.5242 5.96998 12.0814 5.97153C12.6385 5.97307 13.1878 6.10394 13.6858 6.35381C14.1838 6.60369 14.6171 6.96576 14.9514 7.41151C15.2857 7.85727 15.512 8.37455 15.6124 8.92262C15.7128 9.47069 15.6847 10.0346 15.5302 10.5699C15.3756 11.1053 15.0989 11.5974 14.7219 12.0077C14.3448 12.4179 13.8777 12.735 13.3572 12.934C13.3488 12.9373 13.3403 12.9404 13.3318 12.9434C13.2295 12.9793 13.1417 13.0475 13.0816 13.1377C13.0215 13.2279 12.9923 13.3352 12.9985 13.4434C13.0297 13.9948 12.6081 14.4671 12.0567 14.4984C11.5053 14.5297 11.0329 14.108 11.0017 13.5566C10.971 13.0156 11.1169 12.4792 11.4175 12.0283C11.715 11.5821 12.148 11.2435 12.6524 11.0623C12.8799 10.9736 13.0841 10.8341 13.2494 10.6542C13.417 10.4719 13.5399 10.2532 13.6086 10.0153C13.6773 9.77732 13.6898 9.5267 13.6452 9.28311C13.6005 9.03953 13.5 8.80963 13.3514 8.61151C13.2028 8.4134 13.0102 8.25248 12.7889 8.14142C12.5675 8.03037 12.3234 7.97221 12.0758 7.97152C11.8282 7.97083 11.5837 8.02764 11.3618 8.13747C11.1398 8.24729 10.9464 8.40714 10.7967 8.60443C10.4629 9.04441 9.83561 9.13048 9.39563 8.79666C8.95564 8.46284 8.86958 7.83555 9.2034 7.39557C9.54018 6.95168 9.97541 6.59202 10.4748 6.34491Z" fill="#808080"/>
</svg>
