<svg width="24" height="24" viewBox="0 0 24 24" fill="none" xmlns="http://www.w3.org/2000/svg">
<path d="M8 21V20.333C7.99991 20.2852 7.97964 20.2116 7.89648 20.1377C7.80931 20.0602 7.66814 20 7.5 20H4.5C4.33186 20 4.19069 20.0602 4.10352 20.1377C4.02036 20.2116 4.00009 20.2852 4 20.333V21C4 21.5523 3.55228 22 3 22C2.44772 22 2 21.5523 2 21V20.333C2.0001 19.6737 2.2962 19.0695 2.77539 18.6436C3.25082 18.221 3.8725 18 4.5 18H7.5C8.1275 18 8.74918 18.221 9.22461 18.6436C9.7038 19.0695 9.9999 19.6737 10 20.333V21C10 21.5523 9.55228 22 9 22C8.44772 22 8 21.5523 8 21ZM20 21V20.333C19.9999 20.2852 19.9796 20.2116 19.8965 20.1377C19.8093 20.0602 19.6681 20 19.5 20H16.5C16.3319 20 16.1907 20.0602 16.1035 20.1377C16.0204 20.2116 16.0001 20.2852 16 20.333V21C16 21.5523 15.5523 22 15 22C14.4477 22 14 21.5523 14 21V20.333C14.0001 19.6737 14.2962 19.0695 14.7754 18.6436C15.2508 18.221 15.8725 18 16.5 18H19.5C20.1275 18 20.7492 18.221 21.2246 18.6436C21.7038 19.0695 21.9999 19.6737 22 20.333V21C22 21.5523 21.5523 22 21 22C20.4477 22 20 21.5523 20 21ZM4 15C4 14.4696 4.21087 13.961 4.58594 13.5859C4.96101 13.2109 5.46957 13 6 13C6.53043 13 7.03899 13.2109 7.41406 13.5859C7.78913 13.961 8 14.4696 8 15C8 15.5304 7.78913 16.039 7.41406 16.4141C7.03899 16.7891 6.53043 17 6 17C5.46957 17 4.96101 16.7891 4.58594 16.4141C4.21087 16.039 4 15.5304 4 15ZM16 15C16 14.4696 16.2109 13.961 16.5859 13.5859C16.961 13.2109 17.4696 13 18 13C18.5304 13 19.039 13.2109 19.4141 13.5859C19.7891 13.961 20 14.4696 20 15C20 15.5304 19.7891 16.039 19.4141 16.4141C19.039 16.7891 18.5304 17 18 17C17.4696 17 16.961 16.7891 16.5859 16.4141C16.2109 16.039 16 15.5304 16 15ZM14 10V9.33301C13.9999 9.28515 13.9796 9.21161 13.8965 9.1377C13.8093 9.06021 13.6681 9 13.5 9H10.5C10.3319 9 10.1907 9.06021 10.1035 9.1377C10.0204 9.21161 10.0001 9.28515 10 9.33301V10C10 10.5523 9.55228 11 9 11C8.44772 11 8 10.5523 8 10V9.33301C8.0001 8.67374 8.2962 8.0695 8.77539 7.64355C9.25082 7.22096 9.8725 7 10.5 7H13.5C14.1275 7 14.7492 7.22096 15.2246 7.64355C15.7038 8.0695 15.9999 8.67374 16 9.33301V10C16 10.5523 15.5523 11 15 11C14.4477 11 14 10.5523 14 10ZM10 4C10 3.46957 10.2109 2.96101 10.5859 2.58594C10.961 2.21087 11.4696 2 12 2C12.5304 2 13.039 2.21087 13.4141 2.58594C13.7891 2.96101 14 3.46957 14 4C14 4.53043 13.7891 5.03899 13.4141 5.41406C13.039 5.78913 12.5304 6 12 6C11.4696 6 10.961 5.78913 10.5859 5.41406C10.2109 5.03899 10 4.53043 10 4Z" fill="#1A1A1A"/>
<path d="M11.25 13C11.25 12.5858 11.5858 12.25 12 12.25C12.4142 12.25 12.75 12.5858 12.75 13V14.4355L14.3681 15.3467C14.7288 15.5499 14.8563 16.0073 14.6533 16.3682C14.4501 16.7288 13.9927 16.8563 13.6318 16.6533L12 15.7354L10.3681 16.6533C10.0073 16.8563 9.54987 16.7288 9.34665 16.3682C9.14367 16.0073 9.27118 15.5499 9.63181 15.3467L11.25 14.4355V13Z" fill="#808080"/>
</svg>
