<svg width="24" height="24" viewBox="0 0 24 24" fill="none" xmlns="http://www.w3.org/2000/svg">
<path d="M9.89101 7.556C9.34101 7.872 7.89901 8.516 8.77701 9.324C9.20701 9.718 9.68401 10 10.285 10H13.715C14.315 10 14.794 9.718 15.223 9.324C16.102 8.517 14.659 7.872 14.109 7.556C13.4658 7.19176 12.7392 7.00031 12 7.00031C11.2608 7.00031 10.5342 7.19176 9.89101 7.556ZM13.5 3.5C13.5 3.89782 13.342 4.27936 13.0607 4.56066C12.7794 4.84196 12.3978 5 12 5C11.6022 5 11.2207 4.84196 10.9394 4.56066C10.658 4.27936 10.5 3.89782 10.5 3.5C10.5 3.10218 10.658 2.72064 10.9394 2.43934C11.2207 2.15804 11.6022 2 12 2C12.3978 2 12.7794 2.15804 13.0607 2.43934C13.342 2.72064 13.5 3.10218 13.5 3.5ZM16.391 19.556C15.841 19.872 14.399 20.516 15.277 21.324C15.707 21.718 16.184 22 16.785 22H20.215C20.815 22 21.294 21.718 21.723 21.324C22.602 20.516 21.159 19.871 20.609 19.556C19.9658 19.1918 19.2392 19.0003 18.5 19.0003C17.7608 19.0003 17.0342 19.1918 16.391 19.556ZM20 15.5C20 15.8978 19.842 16.2794 19.5607 16.5607C19.2794 16.842 18.8978 17 18.5 17C18.1022 17 17.7207 16.842 17.4394 16.5607C17.1581 16.2794 17 15.8978 17 15.5C17 15.1022 17.1581 14.7206 17.4394 14.4393C17.7207 14.158 18.1022 14 18.5 14C18.8978 14 19.2794 14.158 19.5607 14.4393C19.842 14.7206 20 15.1022 20 15.5ZM3.39101 19.556C2.84101 19.872 1.39901 20.516 2.27701 21.324C2.70701 21.718 3.18401 22 3.78501 22H7.21501C7.81501 22 8.29401 21.718 8.72301 21.324C9.60101 20.516 8.15901 19.871 7.60901 19.556C6.9658 19.1918 6.2392 19.0003 5.50001 19.0003C4.76082 19.0003 4.03423 19.1918 3.39101 19.556ZM7.00001 15.5C7.00001 15.697 6.96122 15.892 6.88583 16.074C6.81045 16.256 6.69996 16.4214 6.56067 16.5607C6.42139 16.6999 6.25603 16.8104 6.07404 16.8858C5.89205 16.9612 5.697 17 5.50001 17C5.30303 17 5.10798 16.9612 4.92599 16.8858C4.744 16.8104 4.57864 16.6999 4.43935 16.5607C4.30007 16.4214 4.18958 16.256 4.11419 16.074C4.03881 15.892 4.00001 15.697 4.00001 15.5C4.00001 15.1022 4.15805 14.7206 4.43935 14.4393C4.72066 14.158 5.10219 14 5.50001 14C5.89784 14 6.27937 14.158 6.56067 14.4393C6.84198 14.7206 7.00001 15.1022 7.00001 15.5Z" stroke="#1A1A1A" stroke-width="1.5" stroke-linecap="round" stroke-linejoin="round"/>
<path d="M12 13V15.5M12 15.5L14.5 17M12 15.5L9.5 17" stroke="#808080" stroke-width="1.5" stroke-linecap="round" stroke-linejoin="round"/>
</svg>
