<svg width="24" height="24" viewBox="0 0 24 24" fill="none" xmlns="http://www.w3.org/2000/svg">
<path fill-rule="evenodd" clip-rule="evenodd" d="M13 9.22222C13 8.66994 12.5523 8.22222 12 8.22222C11.4477 8.22222 11 8.66994 11 9.22222V12C11 12.1974 11.0584 12.3904 11.168 12.5547L12.2791 14.2214C12.5854 14.6809 13.2063 14.8051 13.6658 14.4987C14.1253 14.1924 14.2495 13.5715 13.9432 13.112L13 11.6972V9.22222Z" fill="#808080"/>
<path fill-rule="evenodd" clip-rule="evenodd" d="M17.253 5.97328C15.7678 4.68052 13.857 3.97806 11.8851 4.00052C9.9131 4.02299 8.01889 4.7688 6.56372 6.09502C5.10862 7.42118 4.19441 9.23476 3.99478 11.1895C3.93867 11.739 3.44779 12.1389 2.89836 12.0828C2.34893 12.0267 1.94902 11.5358 2.00513 10.9864C2.25484 8.54126 3.39826 6.27396 5.21652 4.61683C7.03472 2.95975 9.40045 2.0287 11.8623 2.00065C14.3241 1.97261 16.7105 2.84952 18.5661 4.46471C20.4218 6.07995 21.6169 8.32057 21.9225 10.7593C22.2281 13.1981 21.6228 15.6635 20.2226 17.6851C18.8223 19.7066 16.7254 21.1426 14.3323 21.7199C11.9392 22.2972 9.41672 21.9755 7.24596 20.8161C5.96777 20.1334 4.86408 19.1882 3.99996 18.0552V20.0879C3.99996 20.6402 3.55224 21.0879 2.99996 21.0879C2.44767 21.0879 1.99996 20.6402 1.99996 20.0879V15.0879C1.99996 14.5357 2.44767 14.0879 2.99996 14.0879H3.47792C3.49344 14.0876 3.50894 14.0876 3.52439 14.0879H8.01285C8.56514 14.0879 9.01285 14.5357 9.01285 15.0879C9.01285 15.6402 8.56514 16.0879 8.01285 16.0879H5.08007C5.82143 17.3314 6.89252 18.3599 8.18822 19.0519C9.92633 19.9803 11.9466 20.238 13.8633 19.7757C15.78 19.3133 17.4583 18.1635 18.5784 16.5463C19.6986 14.9292 20.1824 12.9577 19.938 11.008C19.6937 9.05829 18.7382 7.26597 17.253 5.97328Z" fill="#1A1A1A"/>
</svg>
