<svg width="24" height="24" viewBox="0 0 24 24" fill="none" xmlns="http://www.w3.org/2000/svg">
<path fill-rule="evenodd" clip-rule="evenodd" d="M12 22C17.5228 22 22 17.5228 22 12C22 6.47715 17.5228 2 12 2C6.47715 2 2 6.47715 2 12C2 17.5228 6.47715 22 12 22ZM15.6346 6.3201C15.4232 6.11424 15.1455 5.9999 14.8571 6H9.14286L9.05714 6.003C8.76963 6.02571 8.50091 6.16168 8.30486 6.38367C8.1088 6.60566 7.99991 6.89725 8 7.2V8.4L8.00286 8.5632C8.02828 9.25983 8.21859 9.93884 8.5566 10.5389C8.89461 11.1389 9.36967 11.6411 9.93886 12C9.34719 12.3733 8.85764 12.901 8.51787 13.5319C8.17811 14.1627 7.99969 14.8752 8 15.6V16.8L8.00286 16.89C8.02448 17.1919 8.15398 17.474 8.3654 17.6799C8.57682 17.8858 8.85453 18.0001 9.14286 18H14.8571L14.9429 17.997C15.2304 17.9743 15.4991 17.8383 15.6951 17.6163C15.8912 17.3943 16.0001 17.1027 16 16.8V15.6L15.9971 15.4368C15.9717 14.7402 15.7814 14.0612 15.4434 13.4611C15.1054 12.8611 14.6303 12.3589 14.0611 12C14.6528 11.6267 15.1424 11.099 15.4821 10.4681C15.8219 9.83725 16.0003 9.12476 16 8.4V7.2L15.9971 7.11C15.9755 6.80811 15.846 6.52595 15.6346 6.3201Z" fill="#1A1A1A"/>
</svg>
