<svg width="24" height="24" viewBox="0 0 24 24" fill="none" xmlns="http://www.w3.org/2000/svg">
<path fill-rule="evenodd" clip-rule="evenodd" d="M11 6C11 5.44772 11.4455 5 11.995 5H12.005C12.5545 5 13 5.44772 13 6C13 6.55228 12.5545 7 12.005 7H11.995C11.4455 7 11 6.55228 11 6Z" fill="#808080"/>
<path fill-rule="evenodd" clip-rule="evenodd" d="M10 10C10 9.44772 10.4477 9 11 9H12C12.5523 9 13 9.44772 13 10V17C13.5523 17 14 17.4477 14 18C14 18.5523 13.5523 19 13 19H12C11.4477 19 11 18.5523 11 18V11C10.4477 11 10 10.5523 10 10Z" fill="#1A1A1A"/>
</svg>
