<svg width="24" height="24" viewBox="0 0 24 24" fill="none" xmlns="http://www.w3.org/2000/svg">
<path d="M6.11547 13.0386C5.65095 12.8871 5.16647 13.1951 5.03375 13.726C4.90123 14.2568 5.17076 14.8104 5.63528 14.9621L17.8845 18.9614C18.3491 19.1129 18.8335 18.8049 18.9662 18.274C19.0988 17.7432 18.8292 17.1896 18.3647 17.0379L6.11547 13.0386Z" fill="#1A1A1A"/>
<path d="M18.9662 5.72601C18.8335 5.19515 18.349 4.88712 17.8845 5.03857L5.63487 9.03818C5.25924 9.16083 5 9.55356 5 10C5 10.4464 5.25924 10.8392 5.63487 10.9618L17.8845 14.9614C18.349 15.1129 18.8335 14.8048 18.9662 14.274C19.0988 13.7431 18.8292 13.1895 18.3647 13.0378L9.06128 10L18.3647 6.96221C18.8292 6.81054 19.0988 6.25687 18.9662 5.72601Z" fill="#1A1A1A"/>
</svg>
