<svg width="24" height="24" viewBox="0 0 24 24" fill="none" xmlns="http://www.w3.org/2000/svg">
<path fill-rule="evenodd" clip-rule="evenodd" d="M8 10C8.55228 10 9 10.4477 9 11V16C9 16.5523 8.55228 17 8 17C7.44772 17 7 16.5523 7 16V11C7 10.4477 7.44772 10 8 10Z" fill="#808080"/>
<path fill-rule="evenodd" clip-rule="evenodd" d="M8 7C8.55228 7 9 7.44772 9 8V8.01C9 8.56228 8.55228 9.01 8 9.01C7.44772 9.01 7 8.56228 7 8.01V8C7 7.44772 7.44772 7 8 7Z" fill="#808080"/>
<path fill-rule="evenodd" clip-rule="evenodd" d="M11 16C11 16.5523 11.4477 17 12 17C12.5523 17 13 16.5523 13 16V13C13 12.7348 13.1054 12.4804 13.2929 12.2929C13.4804 12.1054 13.7348 12 14 12C14.2652 12 14.5196 12.1054 14.7071 12.2929C14.8946 12.4804 15 12.7348 15 13V16C15 16.5523 15.4477 17 16 17C16.5523 17 17 16.5523 17 16V13C17 12.2043 16.6839 11.4413 16.1213 10.8787C15.5587 10.3161 14.7957 10 14 10C13.5483 10 13.1071 10.1019 12.7071 10.2929C12.5261 10.1119 12.2761 10 12 10C11.4477 10 11 10.4477 11 11V16Z" fill="#808080"/>
<path fill-rule="evenodd" clip-rule="evenodd" d="M7 4C6.20435 4 5.44129 4.31607 4.87868 4.87868C4.31607 5.44129 4 6.20435 4 7V17C4 17.7956 4.31607 18.5587 4.87868 19.1213C5.44129 19.6839 6.20435 20 7 20H17C17.7956 20 18.5587 19.6839 19.1213 19.1213C19.6839 18.5587 20 17.7956 20 17V7C20 6.20435 19.6839 5.44129 19.1213 4.87868C18.5587 4.31607 17.7956 4 17 4H7ZM3.46447 3.46447C4.40215 2.52678 5.67392 2 7 2H17C18.3261 2 19.5979 2.52678 20.5355 3.46447C21.4732 4.40215 22 5.67392 22 7V17C22 18.3261 21.4732 19.5979 20.5355 20.5355C19.5979 21.4732 18.3261 22 17 22H7C5.67392 22 4.40215 21.4732 3.46447 20.5355C2.52678 19.5979 2 18.3261 2 17V7C2 5.67392 2.52678 4.40215 3.46447 3.46447Z" fill="#1A1A1A"/>
</svg>
