<svg width="24" height="24" viewBox="0 0 24 24" fill="none" xmlns="http://www.w3.org/2000/svg">
<path fill-rule="evenodd" clip-rule="evenodd" d="M15.7071 8.29289C16.0977 8.68342 16.0977 9.31658 15.7071 9.70711L9.70713 15.7071C9.3166 16.0976 8.68344 16.0976 8.29291 15.7071C7.90239 15.3166 7.90239 14.6834 8.29291 14.2929L14.2929 8.29289C14.6834 7.90237 15.3166 7.90237 15.7071 8.29289Z" fill="#1A1A1A"/>
<path fill-rule="evenodd" clip-rule="evenodd" d="M12.1946 6.14687L11.7568 6.65369C11.3958 7.07164 10.7643 7.11778 10.3463 6.75676C9.92838 6.39573 9.88224 5.76425 10.2433 5.34631L10.7063 4.81031C10.7222 4.79189 10.7388 4.77405 10.756 4.75684C11.8813 3.63165 13.4076 2.99958 14.9989 2.99969C16.5903 2.99981 18.1165 3.63209 19.2417 4.75744C20.3669 5.8828 20.9989 7.40904 20.9988 9.00042C20.9987 10.5918 20.3664 12.118 19.2411 13.2432C19.2246 13.2596 19.2075 13.2756 19.1899 13.2909L18.6559 13.7548C18.239 14.1171 17.6074 14.0728 17.2452 13.6559C16.8829 13.239 16.9272 12.6074 17.3441 12.2452L17.8502 11.8054C18.5859 11.0576 18.9988 10.0502 18.9988 9.00028C18.9989 7.93934 18.5775 6.92181 17.8274 6.17156C17.0772 5.4213 16.0598 4.99977 14.9988 4.99969C13.9494 4.99962 12.9424 5.41192 12.1946 6.14687Z" fill="#1A1A1A"/>
<path fill-rule="evenodd" clip-rule="evenodd" d="M6.7494 10.3379C7.11509 10.7517 7.07603 11.3837 6.66216 11.7494L6.16036 12.1928C5.7956 12.5583 5.50555 12.9915 5.30653 13.4681C5.10411 13.953 4.99988 14.4731 4.99988 14.9985C4.99988 15.5239 5.10411 16.044 5.30653 16.5289C5.50895 17.0137 5.80554 17.4535 6.17913 17.8229C6.94068 18.576 7.96851 18.9984 9.03952 18.9984C10.0866 18.9984 11.0923 18.5947 11.8483 17.873L12.1975 17.4034C12.527 16.9602 13.1534 16.868 13.5966 17.1975C14.0399 17.527 14.132 18.1534 13.8025 18.5966L13.4055 19.1306C13.3754 19.1712 13.3421 19.2095 13.3062 19.2451C12.1702 20.3684 10.6371 20.9984 9.03952 20.9984C7.44197 20.9984 5.90886 20.3684 4.77291 19.2451C4.21121 18.6897 3.76528 18.0284 3.46093 17.2994C3.15659 16.5705 2.99988 15.7884 2.99988 14.9985C2.99988 14.2086 3.15659 13.4265 3.46093 12.6976C3.76528 11.9686 4.21121 11.3073 4.77291 10.7519C4.78621 10.7388 4.79987 10.726 4.81388 10.7136L5.33788 10.2506C5.75175 9.88493 6.38371 9.92399 6.7494 10.3379Z" fill="#1A1A1A"/>
</svg>
