<svg width="24" height="24" viewBox="0 0 24 24" fill="none" xmlns="http://www.w3.org/2000/svg">
<path fill-rule="evenodd" clip-rule="evenodd" d="M12 5C12 4.44772 12.4477 4 13 4H21C21.5523 4 22 4.44772 22 5C22 5.55228 21.5523 6 21 6H13C12.4477 6 12 5.55228 12 5Z" fill="#808080"/>
<path fill-rule="evenodd" clip-rule="evenodd" d="M12 9C12 8.44772 12.4477 8 13 8H18C18.5523 8 19 8.44772 19 9C19 9.55228 18.5523 10 18 10H13C12.4477 10 12 9.55228 12 9Z" fill="#808080"/>
<path fill-rule="evenodd" clip-rule="evenodd" d="M12 15C12 14.4477 12.4477 14 13 14H21C21.5523 14 22 14.4477 22 15C22 15.5523 21.5523 16 21 16H13C12.4477 16 12 15.5523 12 15Z" fill="#808080"/>
<path fill-rule="evenodd" clip-rule="evenodd" d="M12 19C12 18.4477 12.4477 18 13 18H18C18.5523 18 19 18.4477 19 19C19 19.5523 18.5523 20 18 20H13C12.4477 20 12 19.5523 12 19Z" fill="#808080"/>
<path fill-rule="evenodd" clip-rule="evenodd" d="M6.00042 3C5.75185 3 5.51182 3.07303 5.30769 3.20581C5.1041 3.33824 4.94623 3.52329 4.84595 3.73504L4.29684 4.89919L3.09134 5.08268C2.84609 5.11924 2.62091 5.22634 2.43979 5.38536C2.25804 5.54495 2.12821 5.74986 2.05877 5.97327C1.9894 6.19647 1.98138 6.4342 2.03505 6.6611C2.08864 6.88763 2.20299 7.09975 2.37121 7.27093L2.3724 7.27214L3.27092 8.18865L3.05642 9.49666L3.05484 9.50696C3.01992 9.73475 3.04567 9.96899 3.13098 10.185C3.21638 10.4013 3.35998 10.5951 3.55186 10.7405C3.74424 10.8863 3.9765 10.9766 4.2232 10.9954C4.47003 11.0143 4.71462 10.9603 4.92853 10.8435L6.00042 10.2538L7.06851 10.8414C7.28233 10.9596 7.52738 11.0148 7.77501 10.9966C8.0237 10.9783 8.25788 10.8874 8.45143 10.7401C8.64447 10.5932 8.78831 10.3972 8.87289 10.1788C8.95726 9.961 8.98121 9.72508 8.94371 9.49623L8.72978 8.18879L9.63018 7.27037L9.63211 7.2684C9.79932 7.0969 9.91277 6.88485 9.96568 6.65863C10.0186 6.43256 10.0103 6.19586 9.94121 5.97357C9.87206 5.75109 9.74305 5.54693 9.5625 5.38755C9.38178 5.22802 9.15684 5.12027 8.91158 5.083L7.704 4.89919L7.15557 3.73647L7.15489 3.73504C7.05461 3.52331 6.89675 3.33825 6.69315 3.20581C6.48902 3.07303 6.24898 3 6.00042 3ZM5.65227 6.01211L6.00036 5.27414L6.34845 6.01211C6.455 6.23801 6.667 6.39604 6.91392 6.43362L7.76024 6.56244L7.1255 7.20988C6.95831 7.38041 6.88234 7.62036 6.9209 7.85604L7.06319 8.7257L6.36184 8.3399C6.13675 8.21608 5.86396 8.21608 5.63888 8.3399L4.93721 8.72587L5.07978 7.85627C5.11843 7.62053 5.04246 7.38047 4.87522 7.20988L4.24048 6.56244L5.0868 6.43362C5.33371 6.39604 5.54572 6.23801 5.65227 6.01211Z" fill="#1A1A1A"/>
<path fill-rule="evenodd" clip-rule="evenodd" d="M6.00042 13C5.75185 13 5.51182 13.073 5.30769 13.2058C5.1041 13.3382 4.94623 13.5233 4.84595 13.735L4.29684 14.8992L3.09134 15.0827C2.84609 15.1192 2.62091 15.2263 2.43979 15.3854C2.25804 15.545 2.12821 15.7499 2.05877 15.9733C1.9894 16.1965 1.98138 16.4342 2.03505 16.6611C2.08864 16.8876 2.20299 17.0997 2.37121 17.2709L2.3724 17.2721L3.27092 18.1887L3.05642 19.4967L3.05484 19.507C3.01992 19.7347 3.04567 19.969 3.13098 20.185C3.21638 20.4013 3.35998 20.5951 3.55186 20.7405C3.74424 20.8863 3.9765 20.9766 4.2232 20.9954C4.47003 21.0143 4.71462 20.9603 4.92853 20.8435L6.00042 20.2538L7.06851 20.8414C7.28233 20.9596 7.52738 21.0148 7.77501 20.9966C8.0237 20.9783 8.25788 20.8874 8.45143 20.7401C8.64447 20.5932 8.78831 20.3972 8.87289 20.1788C8.95726 19.961 8.98121 19.7251 8.94371 19.4962L8.72978 18.1888L9.63018 17.2704L9.63211 17.2684C9.79932 17.0969 9.91277 16.8849 9.96568 16.6586C10.0186 16.4326 10.0103 16.1959 9.94121 15.9736C9.87206 15.7511 9.74305 15.5469 9.5625 15.3876C9.38178 15.228 9.15684 15.1203 8.91158 15.083L7.704 14.8992L7.15557 13.7365L7.15489 13.735C7.05461 13.5233 6.89675 13.3382 6.69315 13.2058C6.48902 13.073 6.24898 13 6.00042 13ZM5.65227 16.0121L6.00036 15.2741L6.34845 16.0121C6.455 16.238 6.667 16.396 6.91392 16.4336L7.76024 16.5624L7.1255 17.2099C6.95831 17.3804 6.88234 17.6204 6.9209 17.856L7.06319 18.7257L6.36184 18.3399C6.13675 18.2161 5.86396 18.2161 5.63888 18.3399L4.93721 18.7259L5.07978 17.8563C5.11843 17.6205 5.04246 17.3805 4.87522 17.2099L4.24048 16.5624L5.0868 16.4336C5.33371 16.396 5.54572 16.238 5.65227 16.0121Z" fill="#1A1A1A"/>
</svg>
