<svg width="24" height="24" viewBox="0 0 24 24" fill="none" xmlns="http://www.w3.org/2000/svg">
<path fill-rule="evenodd" clip-rule="evenodd" d="M2 6C2 5.44772 2.44772 5 3 5H18C18.5523 5 19 5.44772 19 6C19 6.55228 18.5523 7 18 7H3C2.44772 7 2 6.55228 2 6ZM2 10C2 9.44772 2.44772 9 3 9H13C13.5523 9 14 9.44772 14 10C14 10.5523 13.5523 11 13 11H3C2.44772 11 2 10.5523 2 10ZM2 14C2 13.4477 2.44772 13 3 13H9C9.55228 13 10 13.4477 10 14C10 14.5523 9.55228 15 9 15H3C2.44772 15 2 14.5523 2 14Z" fill="#1A1A1A"/>
<path fill-rule="evenodd" clip-rule="evenodd" d="M18 11C18.5523 11 19 11.4477 19 12V14H21C21.5523 14 22 14.4477 22 15C22 15.5523 21.5523 16 21 16H19V18C19 18.5523 18.5523 19 18 19C17.4477 19 17 18.5523 17 18V16H15C14.4477 16 14 15.5523 14 15C14 14.4477 14.4477 14 15 14H17V12C17 11.4477 17.4477 11 18 11Z" fill="#1A1A1A"/>
</svg>
