<svg width="24" height="24" viewBox="0 0 24 24" fill="none" xmlns="http://www.w3.org/2000/svg">
<path fill-rule="evenodd" clip-rule="evenodd" d="M18.1917 11.2097C18.5259 11.0712 18.884 11 19.2457 11C19.6074 11 19.9656 11.0712 20.2997 11.2097C20.6339 11.3481 20.9375 11.551 21.1933 11.8067C21.449 12.0625 21.6519 12.3661 21.7903 12.7003C21.9288 13.0344 22 13.3926 22 13.7543C22 14.116 21.9288 14.4741 21.7903 14.8083C21.6522 15.1418 21.4499 15.4449 21.1948 15.7003L18.1849 18.7369C18.018 18.9053 17.7907 19 17.5536 19H14.8889C14.398 19 14 18.602 14 18.1111V15.4464C14 15.2093 14.0947 14.982 14.2631 14.8151L17.2996 11.8052C17.5551 11.5502 17.8582 11.3478 18.1917 11.2097Z" fill="#1A1A1A"/>
<path fill-rule="evenodd" clip-rule="evenodd" d="M2 6C2 5.44772 2.44772 5 3 5H18C18.5523 5 19 5.44772 19 6C19 6.55228 18.5523 7 18 7H3C2.44772 7 2 6.55228 2 6ZM2 10C2 9.44772 2.44772 9 3 9H13C13.5523 9 14 9.44772 14 10C14 10.5523 13.5523 11 13 11H3C2.44772 11 2 10.5523 2 10ZM2 14C2 13.4477 2.44772 13 3 13H9C9.55228 13 10 13.4477 10 14C10 14.5523 9.55228 15 9 15H3C2.44772 15 2 14.5523 2 14Z" fill="#1A1A1A"/>
</svg>
