<svg width="24" height="24" viewBox="0 0 24 24" fill="none" xmlns="http://www.w3.org/2000/svg">
<path fill-rule="evenodd" clip-rule="evenodd" d="M6 5C5.86739 5 5.74021 5.05268 5.64645 5.14645C5.55268 5.24021 5.5 5.36739 5.5 5.5V7H6.5V5.5C6.5 5.36739 6.44732 5.24021 6.35355 5.14645C6.25979 5.05268 6.13261 5 6 5ZM8.5 5.5C8.5 4.83696 8.23661 4.20107 7.76777 3.73223C7.29893 3.26339 6.66304 3 6 3C5.33696 3 4.70107 3.26339 4.23223 3.73223C3.76339 4.20107 3.5 4.83696 3.5 5.5V10C3.5 10.5523 3.94772 11 4.5 11C5.05228 11 5.5 10.5523 5.5 10V9H6.5V10C6.5 10.5523 6.94772 11 7.5 11C8.05228 11 8.5 10.5523 8.5 10V5.5Z" fill="#1A1A1A"/>
<path fill-rule="evenodd" clip-rule="evenodd" d="M3.5 14C3.5 13.4477 3.94772 13 4.5 13H6C6.66304 13 7.29893 13.2634 7.76777 13.7322C8.23661 14.2011 8.5 14.837 8.5 15.5C8.5 16.044 8.32267 16.5698 8.00001 17C8.32267 17.4302 8.5 17.956 8.5 18.5C8.5 19.163 8.23661 19.7989 7.76777 20.2678C7.29893 20.7366 6.66304 21 6 21H4.5C3.94772 21 3.5 20.5523 3.5 20V14ZM5.5 18V19H6C6.13261 19 6.25978 18.9473 6.35355 18.8536C6.44732 18.7598 6.5 18.6326 6.5 18.5C6.5 18.3674 6.44732 18.2402 6.35355 18.1464C6.25978 18.0527 6.13261 18 6 18H5.5ZM6 16C6.13261 16 6.25978 15.9473 6.35355 15.8536C6.44732 15.7598 6.5 15.6326 6.5 15.5C6.5 15.3674 6.44732 15.2402 6.35355 15.1464C6.25979 15.0527 6.13261 15 6 15H5.5V16H6Z" fill="#1A1A1A"/>
<path fill-rule="evenodd" clip-rule="evenodd" d="M12 19C12 18.4477 12.4477 18 13 18H18C18.5523 18 19 18.4477 19 19C19 19.5523 18.5523 20 18 20H13C12.4477 20 12 19.5523 12 19Z" fill="#808080"/>
<path fill-rule="evenodd" clip-rule="evenodd" d="M12 15C12 14.4477 12.4477 14 13 14H21C21.5523 14 22 14.4477 22 15C22 15.5523 21.5523 16 21 16H13C12.4477 16 12 15.5523 12 15Z" fill="#808080"/>
<path fill-rule="evenodd" clip-rule="evenodd" d="M12 9C12 8.44772 12.4477 8 13 8H18C18.5523 8 19 8.44772 19 9C19 9.55228 18.5523 10 18 10H13C12.4477 10 12 9.55228 12 9Z" fill="#808080"/>
<path fill-rule="evenodd" clip-rule="evenodd" d="M12 5C12 4.44772 12.4477 4 13 4H21C21.5523 4 22 4.44772 22 5C22 5.55228 21.5523 6 21 6H13C12.4477 6 12 5.55228 12 5Z" fill="#808080"/>
</svg>
