<svg width="24" height="24" viewBox="0 0 24 24" fill="none" xmlns="http://www.w3.org/2000/svg">
<path fill-rule="evenodd" clip-rule="evenodd" d="M12 19C12 18.4477 12.4477 18 13 18H18C18.5523 18 19 18.4477 19 19C19 19.5523 18.5523 20 18 20H13C12.4477 20 12 19.5523 12 19Z" fill="#808080"/>
<path fill-rule="evenodd" clip-rule="evenodd" d="M12 15C12 14.4477 12.4477 14 13 14H21C21.5523 14 22 14.4477 22 15C22 15.5523 21.5523 16 21 16H13C12.4477 16 12 15.5523 12 15Z" fill="#808080"/>
<path fill-rule="evenodd" clip-rule="evenodd" d="M12 9C12 8.44772 12.4477 8 13 8H18C18.5523 8 19 8.44772 19 9C19 9.55228 18.5523 10 18 10H13C12.4477 10 12 9.55228 12 9Z" fill="#808080"/>
<path fill-rule="evenodd" clip-rule="evenodd" d="M12 5C12 4.44772 12.4477 4 13 4H21C21.5523 4 22 4.44772 22 5C22 5.55228 21.5523 6 21 6H13C12.4477 6 12 5.55228 12 5Z" fill="#808080"/>
<path fill-rule="evenodd" clip-rule="evenodd" d="M6.00005 15C5.73484 15 5.48048 15.1054 5.29294 15.2929C5.10541 15.4804 5.00005 15.7348 5.00005 16C5.00005 16.5523 4.55234 17 4.00005 17C3.44777 17 3.00005 16.5523 3.00005 16C3.00005 15.2044 3.31612 14.4413 3.87873 13.8787C4.44134 13.3161 5.2044 13 6.00005 13C6.7957 13 7.55876 13.3161 8.12137 13.8787C8.68398 14.4413 9.00005 15.2044 9.00005 16C9.00005 16.6051 8.73554 17.0689 8.47386 17.402C8.28598 17.6411 8.0388 17.8824 7.84521 18.0714C7.79492 18.1205 7.74824 18.166 7.70716 18.2071C7.68579 18.2285 7.66346 18.2489 7.64024 18.2682L6.7621 19H8.00005C8.55234 19 9.00005 19.4477 9.00005 20C9.00005 20.5523 8.55234 21 8.00005 21H4.00005C3.57903 21 3.20311 20.7363 3.05978 20.3404C2.91645 19.9446 3.03643 19.5013 3.35987 19.2318L6.32571 16.7602C6.37825 16.7081 6.42993 16.6575 6.478 16.6105L6.48726 16.6014C6.54931 16.5407 6.60506 16.4861 6.65802 16.4328C6.7653 16.3249 6.84303 16.2404 6.90125 16.1663C6.95858 16.0933 6.98297 16.0478 6.99314 16.0238C7.0005 16.0064 7.00015 16.0014 7.00006 16.0002C7.00006 16.0001 7.00005 16.0001 7.00005 16C7.00005 15.7348 6.89469 15.4804 6.70716 15.2929C6.51962 15.1054 6.26527 15 6.00005 15Z" fill="#1A1A1A"/>
<path fill-rule="evenodd" clip-rule="evenodd" d="M6.38268 3.07612C6.75636 3.2309 7 3.59554 7 4V10C7 10.5523 6.55228 11 6 11C5.44772 11 5 10.5523 5 10V6.41421L4.70711 6.70711C4.31658 7.09763 3.68342 7.09763 3.29289 6.70711C2.90237 6.31658 2.90237 5.68342 3.29289 5.29289L5.29289 3.29289C5.57889 3.00689 6.00901 2.92134 6.38268 3.07612Z" fill="#1A1A1A"/>
</svg>
