<svg width="24" height="24" viewBox="0 0 24 24" fill="none" xmlns="http://www.w3.org/2000/svg">
<path fill-rule="evenodd" clip-rule="evenodd" d="M20.2929 13.2929C20.6834 12.9024 21.3166 12.9024 21.7071 13.2929C22.0976 13.6834 22.0976 14.3166 21.7071 14.7071L17.7071 18.7071C17.3166 19.0976 16.6834 19.0976 16.2929 18.7071L14.2929 16.7071C13.9024 16.3166 13.9024 15.6834 14.2929 15.2929C14.6834 14.9024 15.3166 14.9024 15.7071 15.2929L17 16.5858L20.2929 13.2929Z" fill="#1A1A1A"/>
<path fill-rule="evenodd" clip-rule="evenodd" d="M2 6C2 5.44772 2.44772 5 3 5H18C18.5523 5 19 5.44772 19 6C19 6.55228 18.5523 7 18 7H3C2.44772 7 2 6.55228 2 6ZM2 10C2 9.44772 2.44772 9 3 9H13C13.5523 9 14 9.44772 14 10C14 10.5523 13.5523 11 13 11H3C2.44772 11 2 10.5523 2 10ZM2 14C2 13.4477 2.44772 13 3 13H9C9.55228 13 10 13.4477 10 14C10 14.5523 9.55228 15 9 15H3C2.44772 15 2 14.5523 2 14Z" fill="#1A1A1A"/>
</svg>
