<svg width="24" height="24" viewBox="0 0 24 24" fill="none" xmlns="http://www.w3.org/2000/svg">
<path fill-rule="evenodd" clip-rule="evenodd" d="M12 19C12 18.4477 12.4477 18 13 18H18C18.5523 18 19 18.4477 19 19C19 19.5523 18.5523 20 18 20H13C12.4477 20 12 19.5523 12 19Z" fill="#808080"/>
<path fill-rule="evenodd" clip-rule="evenodd" d="M12 15C12 14.4477 12.4477 14 13 14H21C21.5523 14 22 14.4477 22 15C22 15.5523 21.5523 16 21 16H13C12.4477 16 12 15.5523 12 15Z" fill="#808080"/>
<path fill-rule="evenodd" clip-rule="evenodd" d="M12 9C12 8.44772 12.4477 8 13 8H18C18.5523 8 19 8.44772 19 9C19 9.55228 18.5523 10 18 10H13C12.4477 10 12 9.55228 12 9Z" fill="#808080"/>
<path fill-rule="evenodd" clip-rule="evenodd" d="M12 5C12 4.44772 12.4477 4 13 4H21C21.5523 4 22 4.44772 22 5C22 5.55228 21.5523 6 21 6H13C12.4477 6 12 5.55228 12 5Z" fill="#808080"/>
<path fill-rule="evenodd" clip-rule="evenodd" d="M6 11C8.20914 11 10 9.20914 10 7C10 4.79086 8.20914 3 6 3C3.79086 3 2 4.79086 2 7C2 9.20914 3.79086 11 6 11ZM6 9C7.10457 9 8 8.10457 8 7C8 5.89543 7.10457 5 6 5C4.89543 5 4 5.89543 4 7C4 8.10457 4.89543 9 6 9Z" fill="#1A1A1A"/>
<path fill-rule="evenodd" clip-rule="evenodd" d="M6 21C8.20914 21 10 19.2091 10 17C10 14.7909 8.20914 13 6 13C3.79086 13 2 14.7909 2 17C2 19.2091 3.79086 21 6 21ZM6 19C7.10457 19 8 18.1046 8 17C8 15.8954 7.10457 15 6 15C4.89543 15 4 15.8954 4 17C4 18.1046 4.89543 19 6 19Z" fill="#1A1A1A"/>
</svg>
