<svg width="24" height="24" viewBox="0 0 24 24" fill="none" xmlns="http://www.w3.org/2000/svg">
<path fill-rule="evenodd" clip-rule="evenodd" d="M11.1135 4C10.458 4 9.82563 4.26489 9.3566 4.74225C8.88699 5.22021 8.62009 5.87215 8.62009 6.55556V9H13.607V6.55556C13.607 5.87215 13.3401 5.22021 12.8705 4.74225C12.4014 4.26488 11.7691 4 11.1135 4ZM15.607 9.06204V6.55556C15.607 5.35298 15.1378 4.19618 14.2971 3.34055C13.4558 2.48432 12.311 2 11.1135 2C9.91606 2 8.77126 2.48432 7.92999 3.34055C7.0893 4.19618 6.62009 5.35298 6.62009 6.55556V9.02414C5.96456 9.10782 5.35099 9.40637 4.87868 9.87868C4.31607 10.4413 4 11.2044 4 12V17C4 17.7956 4.31607 18.5587 4.87868 19.1213C5.44129 19.6839 6.20435 20 7 20H11C11.5523 20 12 19.5523 12 19C12 18.4477 11.5523 18 11 18H7C6.73478 18 6.48043 17.8946 6.29289 17.7071C6.10536 17.5196 6 17.2652 6 17V12C6 11.7348 6.10536 11.4804 6.29289 11.2929C6.48043 11.1054 6.73478 11 7 11H15C15.2652 11 15.5196 11.1054 15.7071 11.2929C15.7695 11.3553 15.8227 11.425 15.866 11.5C16.1421 11.9783 16.7537 12.1422 17.232 11.866C17.7103 11.5899 17.8742 10.9783 17.5981 10.5C17.4681 10.2748 17.3083 10.0657 17.1213 9.87868C16.704 9.46136 16.1764 9.17968 15.607 9.06204Z" fill="#1A1A1A"/>
<path d="M9.78273 13.2262C10.1326 12.87 10.611 12.6667 11.1136 12.6667C11.6162 12.6667 12.0946 12.87 12.4445 13.2262C12.7938 13.5817 12.987 14.0602 12.987 14.5556C12.987 15.0509 12.7938 15.5294 12.4445 15.8849C12.0946 16.2411 11.6162 16.4444 11.1136 16.4444C10.611 16.4444 10.1326 16.2411 9.78273 15.8849C9.4334 15.5294 9.24023 15.0509 9.24023 14.5556C9.24023 14.0602 9.4334 13.5817 9.78273 13.2262Z" fill="#808080"/>
<path fill-rule="evenodd" clip-rule="evenodd" d="M19.2012 16C19.0963 16 18.9925 16.0207 18.8955 16.0608C18.7986 16.1009 18.7106 16.1598 18.6364 16.234L18.6333 16.2371L18.6333 16.2371L16 18.8472V20H17.1528L19.7629 17.3667L19.766 17.3636C19.8402 17.2894 19.8991 17.2014 19.9392 17.1045C19.9793 17.0075 20 16.9037 20 16.7988C20 16.6939 19.9793 16.59 19.9392 16.4931C19.8991 16.3962 19.8402 16.3081 19.766 16.234C19.6919 16.1598 19.6038 16.1009 19.5069 16.0608C19.41 16.0207 19.3061 16 19.2012 16ZM18.1302 14.213C18.4697 14.0724 18.8337 14 19.2012 14C19.5688 14 19.9327 14.0724 20.2723 14.213C20.6118 14.3537 20.9204 14.5599 21.1803 14.8197C21.4401 15.0796 21.6463 15.3882 21.787 15.7277C21.9276 16.0673 22 16.4312 22 16.7988C22 17.1663 21.9276 17.5303 21.787 17.8698C21.6466 18.2086 21.4411 18.5166 21.182 18.7761L18.2798 21.704C18.092 21.8934 17.8363 22 17.5696 22H15C14.4477 22 14 21.5523 14 21V18.4304C14 18.1637 14.1066 17.908 14.296 17.7202L17.2239 14.818C17.4834 14.5589 17.7914 14.3534 18.1302 14.213Z" fill="#808080"/>
</svg>
