<svg width="24" height="24" viewBox="0 0 24 24" fill="none" xmlns="http://www.w3.org/2000/svg">
<path d="M3 19V9C3 8.20448 3.31658 7.44123 3.87891 6.87891C4.44123 6.31658 5.20448 6 6 6H8C8.55228 6 9 6.44772 9 7C9 7.55228 8.55228 8 8 8H6C5.73552 8 5.48064 8.10529 5.29297 8.29297C5.10529 8.48064 5 8.73552 5 9V19C5 19.2645 5.10529 19.5194 5.29297 19.707C5.48064 19.8947 5.73552 20 6 20H11C11.5523 20 12 20.4477 12 21C12 21.5523 11.5523 22 11 22H6C5.20448 22 4.44123 21.6834 3.87891 21.1211C3.31658 20.5588 3 19.7955 3 19ZM19 13V9C19 8.73552 18.8947 8.48064 18.707 8.29297C18.5194 8.10529 18.2645 8 18 8H16C15.4477 8 15 7.55228 15 7C15 6.44772 15.4477 6 16 6H18C18.7955 6 19.5588 6.31658 20.1211 6.87891C20.6834 7.44123 21 8.20448 21 9V13C21 13.5523 20.5523 14 20 14C19.4477 14 19 13.5523 19 13Z" fill="#1A1A1A"/>
<path d="M7 14.0098V14C7 13.4477 7.44772 13 8 13C8.55228 13 9 13.4477 9 14V14.0098C9 14.5621 8.55228 15.0098 8 15.0098C7.44772 15.0098 7 14.5621 7 14.0098Z" fill="#808080"/>
<path d="M7 17.0098V17C7 16.4477 7.44772 16 8 16C8.55228 16 9 16.4477 9 17V17.0098C9 17.5621 8.55228 18.0098 8 18.0098C7.44772 18.0098 7 17.5621 7 17.0098Z" fill="#808080"/>
<path d="M11 13.9998V13.99C11 13.4377 11.4477 12.99 12 12.99C12.5523 12.99 13 13.4377 13 13.99V13.9998C13 14.552 12.5523 14.9998 12 14.9998C11.4477 14.9998 11 14.552 11 13.9998Z" fill="#808080"/>
<path d="M15 13.9998V13.99C15 13.4377 15.4477 12.99 16 12.99C16.5523 12.99 17 13.4377 17 13.99V13.9998C17 14.552 16.5523 14.9998 16 14.9998C15.4477 14.9998 15 14.552 15 13.9998Z" fill="#808080"/>
<path d="M11 17.0098V17C11 16.4477 11.4477 16 12 16C12.5523 16 13 16.4477 13 17V17.0098C13 17.5621 12.5523 18.0098 12 18.0098C11.4477 18.0098 11 17.5621 11 17.0098Z" fill="#808080"/>
<path fill-rule="evenodd" clip-rule="evenodd" d="M21.7071 16.2929C22.0976 16.6834 22.0976 17.3166 21.7071 17.7071L17.7071 21.7071C17.3166 22.0976 16.6834 22.0976 16.2929 21.7071L14.2929 19.7071C13.9024 19.3166 13.9024 18.6834 14.2929 18.2929C14.6834 17.9024 15.3166 17.9024 15.7071 18.2929L17 19.5858L20.2929 16.2929C20.6834 15.9024 21.3166 15.9024 21.7071 16.2929Z" fill="#808080"/>
<path d="M15 4.75C15 4.59826 14.932 4.41986 14.7559 4.26562C14.5753 4.10764 14.3044 4 14 4H10C9.69557 4 9.42469 4.10764 9.24414 4.26562C9.06805 4.41986 9 4.59826 9 4.75V9H15V4.75ZM17 9C17.5523 9 18 9.44772 18 10C18 10.5523 17.5523 11 17 11H7C6.44772 11 6 10.5523 6 10C6 9.44772 6.44772 9 7 9V4.75C7 3.97434 7.35409 3.26171 7.92773 2.75977C8.49714 2.26169 9.24458 2 10 2H14C14.7554 2 15.5029 2.26169 16.0723 2.75977C16.6459 3.26171 17 3.97434 17 4.75V9Z" fill="#1A1A1A"/>
</svg>
