<svg width="24" height="24" viewBox="0 0 24 24" fill="none" xmlns="http://www.w3.org/2000/svg">
<path fill-rule="evenodd" clip-rule="evenodd" d="M12.8293 22H21C21.5523 22 22 21.5523 22 21V15C22 13.6739 21.4732 12.4021 20.5355 11.4645C19.5979 10.5268 18.3261 10 17 10H13V8H16C16.2652 8 16.5196 7.89464 16.7071 7.70711L18.7071 5.70711C19.0976 5.31658 19.0976 4.68342 18.7071 4.29289L16.7071 2.29289C16.5196 2.10536 16.2652 2 16 2H12C11.4477 2 11 2.44772 11 3V9.80958C11.0324 9.84063 11.0644 9.87203 11.0962 9.90381C12.3152 11.1228 13 12.7761 13 14.5V21C13 21.3506 12.9398 21.6872 12.8293 22ZM15.5858 6H13V4H15.5858L16.5858 5L15.5858 6Z" fill="#1A1A1A"/>
<path fill-rule="evenodd" clip-rule="evenodd" d="M6.5 10C5.30653 10 4.16193 10.4741 3.31802 11.318C2.47411 12.1619 2 13.3065 2 14.5V21C2 21.5523 2.44772 22 3 22H10C10.5523 22 11 21.5523 11 21V14.5C11 13.3065 10.5259 12.1619 9.68198 11.318C8.83807 10.4741 7.69347 10 6.5 10ZM6 14C5.44772 14 5 14.4477 5 15C5 15.5523 5.44772 16 6 16H7C7.55228 16 8 15.5523 8 15C8 14.4477 7.55228 14 7 14H6Z" fill="#1A1A1A"/>
</svg>
