<svg width="24" height="24" viewBox="0 0 24 24" fill="none" xmlns="http://www.w3.org/2000/svg">
<path fill-rule="evenodd" clip-rule="evenodd" d="M10.0081 4C8.81717 4 7.65395 4.349 6.66561 5.00151C5.6774 5.65394 4.909 6.58001 4.45574 7.66122C4.00252 8.74231 3.88412 9.9312 4.11497 11.0781C4.34583 12.225 4.916 13.2802 5.75527 14.1095C5.75524 14.1095 5.75531 14.1096 5.75527 14.1095L9.47279 17.7819C9.61291 17.9202 9.80538 18 10.0085 18C10.5608 18 11.0085 18.4477 11.0085 19C11.0085 19.5523 10.5608 20 10.0085 20C9.28297 20 8.58471 19.7155 8.06779 19.2053L4.34972 15.5323C3.22893 14.4248 2.46419 13.0123 2.1543 11.4727C1.8444 9.93315 2.0036 8.33746 2.61126 6.88798C3.21886 5.43861 4.24696 4.20177 5.56368 3.33245C6.88027 2.46323 8.42691 2 10.0081 2C11.5893 2 13.1359 2.46323 14.4525 3.33245C15.7692 4.20177 16.7973 5.43861 17.4049 6.88798C17.7711 7.76135 17.9499 8.21078 17.9978 8.93388C18.0343 9.48495 17.6172 9.96129 17.0661 9.99781C16.515 10.0343 16.0387 9.6172 16.0022 9.06612C15.9787 8.71156 15.9285 8.53922 15.5604 7.66122C15.1072 6.58001 14.3388 5.65394 13.3506 5.00151C12.3622 4.349 11.199 4 10.0081 4Z" fill="#1A1A1A"/>
<path fill-rule="evenodd" clip-rule="evenodd" d="M10.0048 8.38327C9.1075 8.38327 8.37793 9.11193 8.37793 10.0135C8.37793 10.915 9.1075 11.6437 10.0048 11.6437C10.902 11.6437 11.6316 10.915 11.6316 10.0135C11.6316 9.11193 10.902 8.38327 10.0048 8.38327ZM6.37793 10.0135C6.37793 8.00978 8.00051 6.38327 10.0048 6.38327C12.009 6.38327 13.6316 8.00978 13.6316 10.0135C13.6316 12.0172 12.009 13.6437 10.0048 13.6437C8.00051 13.6437 6.37793 12.0172 6.37793 10.0135Z" fill="#808080"/>
<path fill-rule="evenodd" clip-rule="evenodd" d="M17.4994 12C18.0517 12 18.4994 12.4477 18.4994 13V14.7143C18.4994 15.2666 18.0517 15.7143 17.4994 15.7143C16.9472 15.7143 16.4994 15.2666 16.4994 14.7143V13C16.4994 12.4477 16.9472 12 17.4994 12ZM13.1317 14.5041C13.4056 14.0245 14.0164 13.8577 14.496 14.1316L15.9969 14.9888C16.4764 15.2627 16.6432 15.8735 16.3693 16.3531C16.0954 16.8326 15.4846 16.9994 15.005 16.7255L13.5041 15.8684C13.0245 15.5945 12.8578 14.9837 13.1317 14.5041ZM21.8671 14.5038C22.1412 14.9833 21.9746 15.5942 21.4951 15.8682L19.9954 16.7253C19.5159 16.9994 18.905 16.8328 18.631 16.3533C18.3569 15.8739 18.5235 15.263 19.003 14.9889L20.5027 14.1318C20.9822 13.8577 21.5931 14.0243 21.8671 14.5038ZM16.3693 17.6469C16.6432 18.1265 16.4764 18.7373 15.9969 19.0112L14.496 19.8684C14.0164 20.1423 13.4056 19.9755 13.1317 19.4959C12.8578 19.0163 13.0245 18.4055 13.5041 18.1316L15.005 17.2745C15.4846 17.0006 16.0954 17.1673 16.3693 17.6469ZM18.6308 17.6469C18.9047 17.1673 19.5155 17.0006 19.9951 17.2745L21.496 18.1316C21.9756 18.4055 22.1423 19.0163 21.8685 19.4959C21.5946 19.9755 20.9838 20.1423 20.5042 19.8684L19.0033 19.0112C18.5237 18.7373 18.3569 18.1265 18.6308 17.6469ZM17.4994 18.2857C18.0517 18.2857 18.4994 18.7334 18.4994 19.2857V21C18.4994 21.5523 18.0517 22 17.4994 22C16.9472 22 16.4994 21.5523 16.4994 21V19.2857C16.4994 18.7334 16.9472 18.2857 17.4994 18.2857Z" fill="#808080"/>
<path fill-rule="evenodd" clip-rule="evenodd" d="M15.2024 14.702C15.8118 14.0925 16.6383 13.75 17.5001 13.75C18.362 13.75 19.1885 14.0925 19.7979 14.702C20.4072 15.3115 20.7494 16.1381 20.7494 17C20.7494 17.8619 20.4072 18.6885 19.7979 19.298C19.1885 19.9075 18.362 20.25 17.5001 20.25C16.6383 20.25 15.8118 19.9075 15.2024 19.298C14.5931 18.6885 14.2509 17.8619 14.2509 17C14.2509 16.1381 14.5931 15.3115 15.2024 14.702ZM17.5001 15.7283C17.1631 15.7283 16.8399 15.8622 16.6015 16.1006C16.3631 16.3391 16.2291 16.6626 16.2291 17C16.2291 17.3374 16.3631 17.6609 16.6015 17.8994C16.8399 18.1378 17.1631 18.2717 17.5001 18.2717C17.8371 18.2717 18.1604 18.1378 18.3988 17.8994C18.6372 17.6609 18.7712 17.3374 18.7712 17C18.7712 16.6626 18.6372 16.3391 18.3988 16.1006C18.1604 15.8622 17.8371 15.7283 17.5001 15.7283Z" fill="#1A1A1A"/>
</svg>
