<svg width="24" height="24" viewBox="0 0 24 24" fill="none" xmlns="http://www.w3.org/2000/svg">
<path d="M21.5617 14C21.9344 14 22.1291 14.4382 21.9042 14.7213L21.871 14.7587L20.2122 16.4444L21.871 18.1302C22.1347 18.3978 21.9672 18.8476 21.6116 18.8862L21.5617 18.8889H15.8749V21.5556C15.8749 21.6644 15.8355 21.7695 15.7643 21.8508C15.6931 21.9322 15.595 21.9842 15.4886 21.9969L15.4374 22C15.3303 22 15.2269 21.96 15.1468 21.8877C15.0668 21.8153 15.0156 21.7157 15.0031 21.6076L15 21.5556V14.4444C15 14.3356 15.0394 14.2305 15.1105 14.1492C15.1817 14.0678 15.2799 14.0158 15.3863 14.0031L15.4374 14H21.5617Z" fill="#1A1A1A"/>
<path fill-rule="evenodd" clip-rule="evenodd" d="M22 3C22 2.65342 21.8205 2.33156 21.5257 2.14935C21.2309 1.96714 20.8628 1.95058 20.5528 2.10557L16.2764 4.24377C16.107 4.32847 16 4.5016 16 4.69098V12H21.5617C21.7138 12 21.86 12.0123 22 12.0358V3ZM14 12.4704C13.8564 12.5756 13.724 12.6967 13.6056 12.832C13.2129 13.2807 13.0001 13.8549 13 14.4444V19.118L10.2764 17.7562C10.107 17.6715 10 17.4984 10 17.309V3.19098C10 2.81929 10.3912 2.57755 10.7236 2.74377L13.7236 4.24377C13.893 4.32847 14 4.5016 14 4.69098V12.4704ZM7.27639 2.74377L2.55279 5.10557C2.214 5.27497 2 5.62123 2 6V19C2 19.3466 2.17945 19.6684 2.47427 19.8507C2.76909 20.0329 3.13723 20.0494 3.44721 19.8944L7.72361 17.7562C7.893 17.6715 8 17.4984 8 17.309V3.19098C8 2.81929 7.60884 2.57755 7.27639 2.74377Z" fill="#1A1A1A"/>
</svg>
