<svg width="24" height="24" viewBox="0 0 24 24" fill="none" xmlns="http://www.w3.org/2000/svg">
<path fill-rule="evenodd" clip-rule="evenodd" d="M17.8961 8.6381C17.958 9.01372 17.9926 9.39535 17.9989 9.78027C18.0005 9.87722 18.0003 9.97403 17.9983 10.0706C17.6722 10.0241 17.3389 10 17 10C13.1995 10 10.1064 13.0273 10.0028 16.8032L10.0022 16.8295L10.0002 16.9694C9.99992 16.9893 9.99993 17.0091 10.0002 17.0289L10.0027 17.1908L10.0035 17.2232C10.0333 18.1656 10.2528 19.0825 10.6391 19.9232C10.4318 19.9738 10.2175 20 10.0004 20C9.78867 20 9.5795 19.9751 9.37693 19.9269C8.96057 19.828 8.57089 19.6305 8.24344 19.3471L8.24088 19.3447C8.19806 19.3075 8.15634 19.2689 8.11578 19.2288L4.34309 15.5003C3.31854 14.4874 2.59322 13.2203 2.24127 11.8358C2.22913 11.7881 2.21744 11.7403 2.20621 11.6923C2.07022 11.1118 2 10.5136 2 9.90819C2 7.81079 2.84284 5.7993 4.3431 4.31621C5.84336 2.83313 7.87815 1.99994 9.99984 1.99994C10.8618 1.99994 11.7094 2.13745 12.5126 2.40018C12.5744 2.42039 12.6359 2.44134 12.6972 2.46302C13.3102 2.68004 13.8974 2.97136 14.4445 3.33276C15.7601 4.20172 16.7855 5.43681 17.391 6.88184C17.6286 7.44897 17.7974 8.03844 17.8961 8.6381ZM8.97938 7.47278C9.3029 7.34031 9.64966 7.27212 9.99984 7.27212C10.7071 7.27212 11.3853 7.54985 11.8854 8.04421C12.3855 8.53857 12.6664 9.20906 12.6664 9.90819C12.6664 10.6073 12.3855 11.2778 11.8854 11.7722C11.3853 12.2665 10.7071 12.5443 9.99984 12.5443C9.64966 12.5443 9.3029 12.4761 8.97938 12.3436C8.65585 12.2111 8.36189 12.017 8.11427 11.7722C7.86665 11.5274 7.67023 11.2368 7.53623 10.917C7.40222 10.5971 7.33324 10.2544 7.33324 9.90819C7.33324 9.56202 7.40222 9.21923 7.53623 8.89941C7.67023 8.57959 7.86665 8.28899 8.11427 8.04421C8.36189 7.79943 8.65585 7.60526 8.97938 7.47278Z" fill="#1A1A1A"/>
<path fill-rule="evenodd" clip-rule="evenodd" d="M17 12C16.3434 12 15.6932 12.1293 15.0866 12.3806C14.48 12.6319 13.9288 13.0002 13.4645 13.4645C13.0002 13.9288 12.6319 14.48 12.3806 15.0866C12.1293 15.6932 12 16.3434 12 17C12 17.6566 12.1293 18.3068 12.3806 18.9134C12.6319 19.52 13.0002 20.0712 13.4645 20.5355C13.9288 20.9998 14.48 21.3681 15.0866 21.6194C15.6932 21.8707 16.3434 22 17 22C17.6566 22 18.3068 21.8707 18.9134 21.6194C19.52 21.3681 20.0712 20.9998 20.5355 20.5355C20.9998 20.0712 21.3681 19.52 21.6194 18.9134C21.8707 18.3068 22 17.6566 22 17C22 16.3434 21.8707 15.6932 21.6194 15.0866C21.3681 14.48 20.9998 13.9288 20.5355 13.4645C20.0712 13.0002 19.52 12.6319 18.9134 12.3806C18.3068 12.1293 17.6566 12 17 12ZM17.8107 14.2179C17.3759 14.0139 16.8786 13.9507 16.3997 14.0386C15.9204 14.1265 15.4877 14.3604 15.172 14.7024C14.9128 14.9831 14.9509 15.4033 15.2571 15.6409C15.5634 15.8785 16.0218 15.8436 16.281 15.5629C16.3848 15.4504 16.5271 15.3735 16.6847 15.3446C16.8423 15.3157 17.0059 15.3365 17.149 15.4037L17.1504 15.4043C17.2959 15.4723 17.4123 15.5833 17.4805 15.7193C17.5488 15.8554 17.5651 16.0086 17.5267 16.1541C17.4883 16.2997 17.3976 16.4291 17.269 16.5216C17.1405 16.614 16.9818 16.6641 16.8184 16.6636C16.4172 16.6625 16.0909 16.9598 16.0897 17.3276C16.0885 17.6954 16.4128 17.9944 16.814 17.9955C17.3041 17.9969 17.7804 17.8467 18.166 17.5694C18.5515 17.2921 18.8239 16.9037 18.939 16.467C19.0541 16.0303 19.0053 15.5708 18.8005 15.1626C18.5958 14.7547 18.2471 14.4219 17.8107 14.2179ZM17.5427 19.3274C17.5427 18.9596 17.2174 18.6615 16.8162 18.6615C16.415 18.6615 16.0897 18.9596 16.0897 19.3274V19.3341C16.0897 19.7018 16.415 20 16.8162 20C17.2174 20 17.5427 19.7018 17.5427 19.3341V19.3274Z" fill="#1A1A1A"/>
</svg>
