<svg width="24" height="24" viewBox="0 0 24 24" fill="none" xmlns="http://www.w3.org/2000/svg">
<path fill-rule="evenodd" clip-rule="evenodd" d="M17.2505 15.2102L16.8096 16.145C16.6747 16.4311 16.4061 16.6313 16.0933 16.6789L15.0213 16.842L15.8254 17.6621C16.0372 17.8782 16.1334 18.1823 16.0845 18.4809L15.9039 19.5824L16.7926 19.0935C17.0778 18.9366 17.4233 18.9366 17.7084 19.0935L18.5968 19.5822L18.4165 18.4806C18.3677 18.1821 18.4639 17.8781 18.6757 17.6621L19.4797 16.842L18.4077 16.6789C18.0949 16.6313 17.8264 16.4311 17.6914 16.145L17.2505 15.2102ZM16.5457 12.7095C16.7537 12.5742 16.9979 12.5 17.2505 12.5C17.5032 12.5 17.7474 12.5742 17.9553 12.7095C18.1628 12.8444 18.324 13.0333 18.4267 13.2499L18.4273 13.2513L19.194 14.8767L20.8893 15.1347L20.8903 15.1349C21.1396 15.1727 21.3686 15.2823 21.5529 15.445C21.737 15.6075 21.869 15.8161 21.9398 16.0438C22.0105 16.2715 22.019 16.5139 21.9648 16.7455C21.9106 16.9772 21.7946 17.1939 21.6239 17.3689L21.6221 17.3708L20.3693 18.6487L20.666 20.4621L20.6662 20.463C20.7046 20.6975 20.6801 20.9392 20.5937 21.1622C20.5071 21.3857 20.3601 21.5857 20.1634 21.7355C19.9661 21.8856 19.7279 21.978 19.4751 21.9965C19.2233 22.015 18.9739 21.9589 18.7561 21.8383L18.7536 21.8369L17.2505 21.0101L15.7433 21.8392L15.7409 21.8405C15.5232 21.9595 15.2744 22.0143 15.0235 21.9951C14.7728 21.976 14.5364 21.8842 14.3403 21.7356C14.1447 21.5873 13.9979 21.3894 13.9104 21.1681C13.8231 20.9469 13.7967 20.7069 13.8325 20.4735L13.834 20.4637L14.1316 18.6485L12.8806 17.3725L12.8796 17.3714C12.7079 17.1968 12.5908 16.9799 12.5359 16.7478C12.4809 16.5155 12.4891 16.272 12.5602 16.0435C12.6313 15.8148 12.764 15.6055 12.9493 15.4427C13.1341 15.2805 13.3634 15.1716 13.6128 15.1345L15.3071 14.8767L16.0744 13.2499C16.177 13.0333 16.3383 12.8444 16.5457 12.7095Z" fill="#1A1A1A"/>
<path fill-rule="evenodd" clip-rule="evenodd" d="M10.3959 4.01276C9.42411 3.94926 8.45144 4.12341 7.56177 4.52024C6.67209 4.91709 5.89205 5.52474 5.289 6.29091C4.68595 7.05708 4.27802 7.95875 4.10051 8.91816C3.923 9.87758 3.98125 10.8658 4.27023 11.7976C4.55919 12.7294 5.07014 13.5767 5.75889 14.2664C5.75885 14.2664 5.75893 14.2665 5.75889 14.2664L9.47498 17.9864C9.52733 18.0388 9.58723 18.0833 9.65244 18.1182C10.1394 18.3787 10.3231 18.9846 10.0626 19.4716C9.8021 19.9586 9.19615 20.1423 8.70915 19.8818C8.47022 19.754 8.25149 19.5916 8.06003 19.3999C8.05998 19.3998 8.06008 19.3999 8.06003 19.3999L4.34394 15.6799C3.42588 14.7606 2.74495 13.6314 2.35998 12.3901C1.97502 11.1487 1.89743 9.83231 2.13389 8.5543C2.37035 7.27628 2.91378 6.07494 3.71742 5.05392C4.52106 4.0329 5.56081 3.22283 6.74705 2.69371C7.93329 2.16459 9.23035 1.93233 10.5263 2.01702C11.8223 2.10172 13.0782 2.50081 14.1856 3.1798C15.293 3.85878 16.2187 4.79724 16.883 5.91413C17.5472 7.03101 17.9301 8.29283 17.9986 9.59076C18.0277 10.1423 17.6043 10.613 17.0527 10.6421C16.5012 10.6712 16.0305 10.2478 16.0014 9.69623C15.9499 8.72184 15.6625 7.77467 15.164 6.93644C14.6655 6.09822 13.9709 5.39414 13.1402 4.88484C12.3095 4.37554 11.3677 4.07627 10.3959 4.01276Z" fill="#1A1A1A"/>
<path fill-rule="evenodd" clip-rule="evenodd" d="M10.0048 8.38327C9.1075 8.38327 8.37793 9.11193 8.37793 10.0135C8.37793 10.915 9.1075 11.6437 10.0048 11.6437C10.902 11.6437 11.6316 10.915 11.6316 10.0135C11.6316 9.11193 10.902 8.38327 10.0048 8.38327ZM6.37793 10.0135C6.37793 8.00978 8.00051 6.38327 10.0048 6.38327C12.009 6.38327 13.6316 8.00978 13.6316 10.0135C13.6316 12.0172 12.009 13.6437 10.0048 13.6437C8.00051 13.6437 6.37793 12.0172 6.37793 10.0135Z" fill="#808080"/>
</svg>
