<svg width="24" height="24" viewBox="0 0 24 24" fill="none" xmlns="http://www.w3.org/2000/svg">
<path fill-rule="evenodd" clip-rule="evenodd" d="M8.36676 8.34808C9.0719 8.03296 9.8532 7.92872 10.6163 8.04795C11.3794 8.16719 12.0916 8.50479 12.667 9.02C13.0785 9.38841 13.1134 10.0206 12.745 10.4321C12.3766 10.8435 11.7444 10.8784 11.3329 10.51C11.0452 10.2524 10.6891 10.0836 10.3075 10.024C9.92599 9.96436 9.53534 10.0165 9.18277 10.174C8.8302 10.3316 8.53078 10.5879 8.32068 10.9119C8.11058 11.2359 7.99878 11.6138 7.99878 12C7.99878 12.3862 8.11058 12.7641 8.32068 13.0881C8.53078 13.4121 8.8302 13.6684 9.18277 13.826C9.53534 13.9835 9.92599 14.0356 10.3075 13.976C10.6891 13.9164 11.0452 13.7476 11.3329 13.49C11.7444 13.1216 12.3766 13.1565 12.745 13.5679C13.1134 13.9794 13.0785 14.6116 12.667 14.98C12.0916 15.4952 11.3794 15.8328 10.6163 15.9521C9.8532 16.0713 9.0719 15.967 8.36676 15.6519C7.66162 15.3368 7.06279 14.8243 6.64259 14.1762C6.22238 13.5282 5.99878 12.7724 5.99878 12C5.99878 11.2277 6.22238 10.4718 6.64259 9.82378C7.06279 9.17574 7.66162 8.66321 8.36676 8.34808Z" fill="#808080"/>
<path fill-rule="evenodd" clip-rule="evenodd" d="M12.4693 8.30448C12.9546 8.10346 13.4747 8 14 8C14.5253 8 15.0454 8.10346 15.5307 8.30448C16.016 8.5055 16.457 8.80014 16.8284 9.17157C17.1999 9.54301 17.4945 9.98396 17.6955 10.4693C17.8965 10.9546 18 11.4747 18 12C18 12.5253 17.8965 13.0454 17.6955 13.5307C17.4945 14.016 17.1999 14.457 16.8284 14.8284C16.457 15.1999 16.016 15.4945 15.5307 15.6955C15.0454 15.8965 14.5253 16 14 16C13.4747 16 12.9546 15.8965 12.4693 15.6955C11.984 15.4945 11.543 15.1999 11.1716 14.8284C10.8001 14.457 10.5055 14.016 10.3045 13.5307C10.1035 13.0454 10 12.5253 10 12C10 11.4747 10.1035 10.9546 10.3045 10.4693C10.5055 9.98396 10.8001 9.54301 11.1716 9.17157C11.543 8.80014 11.984 8.5055 12.4693 8.30448ZM14 10C13.7374 10 13.4773 10.0517 13.2346 10.1522C12.992 10.2528 12.7715 10.4001 12.5858 10.5858C12.4001 10.7715 12.2528 10.992 12.1522 11.2346C12.0517 11.4773 12 11.7374 12 12C12 12.2626 12.0517 12.5227 12.1522 12.7654C12.2528 13.008 12.4001 13.2285 12.5858 13.4142C12.7715 13.5999 12.992 13.7472 13.2346 13.8478C13.4773 13.9483 13.7374 14 14 14C14.2626 14 14.5227 13.9483 14.7654 13.8478C15.008 13.7472 15.2285 13.5999 15.4142 13.4142C15.5999 13.2285 15.7472 13.008 15.8478 12.7654C15.9483 12.5227 16 12.2626 16 12C16 11.7374 15.9483 11.4773 15.8478 11.2346C15.7472 10.992 15.5999 10.7715 15.4142 10.5858C15.2285 10.4001 15.008 10.2528 14.7654 10.1522C14.5227 10.0517 14.2626 10 14 10Z" fill="#808080"/>
<path fill-rule="evenodd" clip-rule="evenodd" d="M6 6C5.46957 6 4.96086 6.21071 4.58579 6.58579C4.21071 6.96086 4 7.46957 4 8V16C4 16.5304 4.21071 17.0391 4.58579 17.4142C4.96086 17.7893 5.46957 18 6 18H18C18.5304 18 19.0391 17.7893 19.4142 17.4142C19.7893 17.0391 20 16.5304 20 16V8C20 7.46957 19.7893 6.96086 19.4142 6.58579C19.0391 6.21071 18.5304 6 18 6H6ZM3.17157 5.17157C3.92172 4.42143 4.93913 4 6 4H18C19.0609 4 20.0783 4.42143 20.8284 5.17157C21.5786 5.92172 22 6.93913 22 8V16C22 17.0609 21.5786 18.0783 20.8284 18.8284C20.0783 19.5786 19.0609 20 18 20H6C4.93913 20 3.92172 19.5786 3.17157 18.8284C2.42143 18.0783 2 17.0609 2 16V8C2 6.93913 2.42143 5.92172 3.17157 5.17157Z" fill="#1A1A1A"/>
</svg>
