<svg width="24" height="24" viewBox="0 0 24 24" fill="none" xmlns="http://www.w3.org/2000/svg">
<path d="M12.9998 4H10.9998V8.53516C10.9997 8.89233 10.8091 9.22275 10.4998 9.40137C10.1905 9.57978 9.80904 9.57986 9.49977 9.40137L5.57203 7.13379L4.57203 8.86621L8.49879 11.1338C8.80812 11.3124 8.99879 11.6428 8.99879 12C8.99879 12.3572 8.80812 12.6876 8.49879 12.8662L4.57203 15.1338L5.57203 16.8662L9.49977 14.5977C9.80907 14.4191 10.1904 14.4192 10.4998 14.5977C10.8091 14.7763 10.9997 15.1066 10.9998 15.4639V20H12.9998V15.4639C12.9998 15.1067 13.1904 14.7763 13.4998 14.5977C13.8091 14.4191 14.1905 14.4192 14.4998 14.5977L18.4275 16.8662L19.4275 15.1348L15.5007 12.8662C15.1915 12.6875 15.0007 12.3571 15.0007 12C15.0008 11.6428 15.1914 11.3124 15.5007 11.1338L19.4275 8.86621L18.4275 7.13379L17.9285 6.26758L17.4285 5.40234C17.8878 5.13723 18.4338 5.06489 18.9461 5.20215C19.4582 5.33947 19.8948 5.67465 20.1599 6.13379L21.1599 7.86621C21.4251 8.32555 21.4974 8.87148 21.3601 9.38379C21.2229 9.89591 20.8875 10.3324 20.4285 10.5977L17.9998 12L20.4285 13.4033C20.8875 13.6685 21.2229 14.1051 21.3601 14.6172C21.4974 15.1295 21.4251 15.6754 21.1599 16.1348L20.1599 17.8672L20.0525 18.0332C19.7843 18.4068 19.3942 18.6787 18.9461 18.7988C18.4978 18.9189 18.0234 18.8789 17.6043 18.6895L17.4285 18.5986L17.9285 17.7334L17.4275 18.5986L14.9998 17.1963V20C14.9998 20.5304 14.7889 21.039 14.4138 21.4141C14.0388 21.7891 13.5301 22 12.9998 22H10.9998C10.4694 21.9999 9.96072 21.7891 9.58571 21.4141C9.21071 21.039 8.99977 20.5304 8.99977 20V17.1953L6.57203 18.5977C6.11269 18.8629 5.56679 18.9351 5.05446 18.7979C4.54211 18.6606 4.10484 18.3256 3.83961 17.8662L2.83961 16.1338C2.57455 15.6745 2.50315 15.1284 2.64039 14.6162C2.7777 14.104 3.11281 13.6675 3.57203 13.4023L5.99879 12L3.57203 10.5977C3.11281 10.3325 2.7777 9.896 2.64039 9.38379C2.50315 8.87156 2.57455 8.3255 2.83961 7.86621L3.83961 6.13379C4.10484 5.67444 4.54211 5.33942 5.05446 5.20215C5.56679 5.06489 6.11269 5.13715 6.57203 5.40234L8.99977 6.80273V4C8.99977 3.46962 9.21071 2.961 9.58571 2.58594C9.96072 2.21092 10.4694 2.00006 10.9998 2H12.9998C13.5301 2 14.0388 2.21094 14.4138 2.58594C14.7889 2.96101 14.9998 3.46957 14.9998 4V6.80273L17.4285 5.40234L18.4275 7.13379L14.4998 9.40137C14.1904 9.57982 13.8091 9.57995 13.4998 9.40137C13.1905 9.22275 12.9998 8.89233 12.9998 8.53516V4Z" fill="#1A1A1A"/>
</svg>
