<svg width="24" height="24" viewBox="0 0 24 24" fill="none" xmlns="http://www.w3.org/2000/svg">
<path d="M15.5 10.5V15.1757C15.5 15.3201 15.4627 15.462 15.392 15.5871C15.3212 15.7122 15.2195 15.8162 15.097 15.8887C14.9744 15.9611 14.8353 15.9995 14.6936 16C14.552 16.0005 14.4126 15.9631 14.2896 15.8914L10.5909 13.2982H8.16363H5.73636C4.87802 13.2982 4.55484 12.9507 3.94791 12.3322C3.34097 11.7137 3 10.8747 3 10C3 9.12527 3.34097 8.28636 3.94791 7.66782C4.55484 7.04929 4.87802 6.7018 5.73636 6.7018H10.5909L12.4403 5.40519L12.9026 5.08104" stroke="#1A1A1A" stroke-width="2" stroke-linecap="round" stroke-linejoin="round"/>
<path d="M6.5 21H7.5C8.05228 21 8.5 20.5439 8.5 19.9814V15.9068H5.5V19.9814C5.5 20.5439 5.94772 21 6.5 21Z" fill="#808080"/>
<circle cx="18" cy="6" r="3" fill="#808080"/>
</svg>
