<svg width="24" height="24" viewBox="0 0 24 24" fill="none" xmlns="http://www.w3.org/2000/svg">
<path d="M10.0909 13.2982L13.7896 15.8914C13.9126 15.963 14.052 16.0005 14.1936 16C14.3353 15.9995 14.4744 15.9611 14.597 15.8886C14.7195 15.8162 14.8212 15.7122 14.892 15.5871C14.9627 15.462 15 15.3201 15 15.1757V4.82429C15 4.67989 14.9627 4.53804 14.892 4.41293C14.8212 4.28781 14.7195 4.18382 14.597 4.11136C14.4744 4.03889 14.3353 4.00049 14.1936 4C14.052 3.99952 13.9126 4.03696 13.7896 4.10858L10.0909 6.70179M10.0909 13.2982H7.66363ZM10.0909 6.70179H5.23636C4.37802 6.70179 4.05484 7.04928 3.44791 7.66781C2.84097 8.28635 2.5 9.12526 2.5 10C2.5 10.8747 2.84097 11.7137 3.44791 12.3322C4.05484 12.9507 4.37802 13.2982 5.23636 13.2982M5.23636 13.2982H7.66363Z" stroke="#1A1A1A" stroke-width="2" stroke-linecap="round" stroke-linejoin="round"/>
<path d="M6 21H7C7.55228 21 8 20.544 8 19.9814V15.9068H5V19.9814C5 20.544 5.44772 21 6 21Z" fill="#808080"/>
<path fill-rule="evenodd" clip-rule="evenodd" d="M22 10.2051C22 10.7677 21.5523 11.2238 21 11.2238H20C19.4477 11.2238 19 10.7677 19 10.2051C19 9.64254 19.4477 9.18648 20 9.18648H21C21.5523 9.18648 22 9.64254 22 10.2051ZM20.7071 5.41025C21.0976 5.80805 21.0976 6.45303 20.7071 6.85083L19.7071 7.86948C19.3166 8.26728 18.6834 8.26728 18.2929 7.86948C17.9024 7.47167 17.9024 6.8267 18.2929 6.42889L19.2929 5.41025C19.6834 5.01244 20.3166 5.01244 20.7071 5.41025ZM20.7071 13.5594C21.0976 13.9572 21.0976 14.6022 20.7071 15C20.3166 15.3978 19.6834 15.3978 19.2929 15L18.2929 13.9814C17.9024 13.5836 17.9024 12.9386 18.2929 12.5408C18.6834 12.143 19.3166 12.143 19.7071 12.5408L20.7071 13.5594Z" fill="#808080"/>
</svg>
