<svg width="24" height="24" viewBox="0 0 24 24" fill="none" xmlns="http://www.w3.org/2000/svg">
<path fill-rule="evenodd" clip-rule="evenodd" d="M10.9981 13.6077C11.0326 14.1589 10.6137 14.6337 10.0625 14.6682C9.90255 14.6782 9.74974 14.7374 9.62506 14.8373C9.60286 14.855 9.58153 14.8741 9.56118 14.8945C9.41532 15.0403 9.33337 15.2382 9.33337 15.4444V19C9.33337 19.5523 8.88566 20 8.33337 20C7.78109 20 7.33337 19.5523 7.33337 19V15.4444C7.33337 14.7077 7.62603 14.0012 8.14697 13.4803C8.2195 13.4077 8.29566 13.3396 8.37502 13.2761C8.82042 12.9194 9.36597 12.7079 9.93758 12.6721C10.4888 12.6376 10.9636 13.0565 10.9981 13.6077Z" fill="#808080"/>
<path fill-rule="evenodd" clip-rule="evenodd" d="M3.88335 2.55279C4.05274 2.214 4.39901 2 4.77778 2H17.2222C17.601 2 17.9473 2.214 18.1166 2.55279L19.8944 6.10834C19.9639 6.2472 20 6.40031 20 6.55556V7.44444C20 8.4169 19.6137 9.34954 18.9261 10.0372C18.2384 10.7248 17.3058 11.1111 16.3333 11.1111C15.3609 11.1111 14.4282 10.7248 13.7406 10.0372C13.7156 10.0121 13.6909 9.98675 13.6667 9.96106C13.6424 9.98675 13.6178 10.0121 13.5927 10.0372C12.9051 10.7248 11.9725 11.1111 11 11.1111C10.0275 11.1111 9.09491 10.7248 8.40728 10.0372C8.38223 10.0121 8.35758 9.98675 8.33333 9.96106C8.30909 9.98675 8.28444 10.0121 8.25939 10.0372C7.59799 10.6986 6.70993 11.0812 5.77778 11.1094V18H10C10.5523 18 11 18.4477 11 19C11 19.5523 10.5523 20 10 20H4.77778C4.22549 20 3.77778 19.5523 3.77778 19V10.5872C3.5237 10.4345 3.28706 10.2503 3.07394 10.0372C2.38631 9.34954 2 8.41691 2 7.44444V6.55556C2 6.40031 2.03615 6.2472 2.10557 6.10834L3.88335 2.55279ZM9.33704 7.55556C9.36385 7.95701 9.53522 8.33669 9.82149 8.62296C10.134 8.93552 10.558 9.11111 11 9.11111C11.442 9.11111 11.866 8.93552 12.1785 8.62296C12.4648 8.33669 12.6362 7.95701 12.663 7.55556H9.33704ZM14.6704 7.55556C14.6972 7.95701 14.8686 8.33669 15.1548 8.62296C15.4674 8.93552 15.8913 9.11111 16.3333 9.11111C16.7754 9.11111 17.1993 8.93552 17.5118 8.62296C17.7981 8.33669 17.9695 7.95701 17.9963 7.55556H14.6704ZM17.382 5.55556H4.61803L5.39581 4H16.6042L17.382 5.55556ZM4.0037 7.55556H7.32963C7.30282 7.95701 7.13145 8.33669 6.84518 8.62296C6.53262 8.93552 6.1087 9.11111 5.66667 9.11111C5.22464 9.11111 4.80072 8.93552 4.48816 8.62296C4.20189 8.33669 4.03051 7.95701 4.0037 7.55556Z" fill="#1A1A1A"/>
<path fill-rule="evenodd" clip-rule="evenodd" d="M15.4323 12.8616C16.0086 12.6229 16.6262 12.5 17.25 12.5C17.8738 12.5 18.4914 12.6229 19.0677 12.8616C19.644 13.1003 20.1677 13.4502 20.6088 13.8912C21.0498 14.3323 21.3997 14.856 21.6384 15.4323C21.8771 16.0086 22 16.6262 22 17.25C22 17.8738 21.8771 18.4914 21.6384 19.0677C21.3997 19.644 21.0498 20.1677 20.6088 20.6088C20.1677 21.0498 19.644 21.3997 19.0677 21.6384C18.4914 21.8771 17.8738 22 17.25 22C16.6262 22 16.0086 21.8771 15.4323 21.6384C14.856 21.3997 14.3323 21.0498 13.8912 20.6088C13.4502 20.1677 13.1003 19.644 12.8616 19.0677C12.6229 18.4914 12.5 17.8738 12.5 17.25C12.5 16.6262 12.6229 16.0086 12.8616 15.4323C13.1003 14.856 13.4502 14.3323 13.8912 13.8912C14.3323 13.4502 14.856 13.1003 15.4323 12.8616ZM17.25 14C16.8232 14 16.4006 14.0841 16.0063 14.2474C15.612 14.4107 15.2537 14.6501 14.9519 14.9519C14.6501 15.2537 14.4107 15.612 14.2474 16.0063C14.0841 16.4006 14 16.8232 14 17.25C14 17.6768 14.0841 18.0994 14.2474 18.4937C14.4107 18.888 14.6501 19.2463 14.9519 19.5481C15.2537 19.8499 15.612 20.0893 16.0063 20.2526C16.4006 20.4159 16.8232 20.5 17.25 20.5C17.6768 20.5 18.0994 20.4159 18.4937 20.2526C18.888 20.0893 19.2463 19.8499 19.5481 19.5481C19.8499 19.2463 20.0893 18.888 20.2526 18.4937C20.4159 18.0994 20.5 17.6768 20.5 17.25C20.5 16.8232 20.4159 16.4006 20.2526 16.0063C20.0893 15.612 19.8499 15.2537 19.5481 14.9519C19.2463 14.6501 18.888 14.4107 18.4937 14.2474C18.0994 14.0841 17.6768 14 17.25 14Z" fill="#1A1A1A"/>
<path fill-rule="evenodd" clip-rule="evenodd" d="M15.1186 17.3409C15.2124 17.2471 15.3396 17.1944 15.4722 17.1944H19.0277C19.1603 17.1944 19.2875 17.2471 19.3813 17.3409C19.475 17.4347 19.5277 17.5618 19.5277 17.6944C19.5277 18.2985 19.2877 18.8779 18.8606 19.3051C18.4334 19.7322 17.8541 19.9722 17.2499 19.9722C16.6458 19.9722 16.0665 19.7322 15.6393 19.3051C15.2121 18.8779 14.9722 18.2985 14.9722 17.6944C14.9722 17.5618 15.0248 17.4347 15.1186 17.3409ZM16.0741 18.1944C16.1375 18.3437 16.2295 18.481 16.3464 18.598C16.586 18.8376 16.9111 18.9722 17.2499 18.9722C17.5888 18.9722 17.9138 18.8376 18.1535 18.598C18.2704 18.481 18.3624 18.3437 18.4258 18.1944H16.0741Z" fill="#808080"/>
<path fill-rule="evenodd" clip-rule="evenodd" d="M17.8333 15.9167C17.8333 15.5025 18.169 15.1667 18.5833 15.1667H18.5877C19.0019 15.1667 19.3377 15.5025 19.3377 15.9167C19.3377 16.3309 19.0019 16.6667 18.5877 16.6667H18.5833C18.169 16.6667 17.8333 16.3309 17.8333 15.9167Z" fill="#808080"/>
<path fill-rule="evenodd" clip-rule="evenodd" d="M15.1667 15.9167C15.1667 15.5025 15.5025 15.1667 15.9167 15.1667H15.9212C16.3354 15.1667 16.6712 15.5025 16.6712 15.9167C16.6712 16.3309 16.3354 16.6667 15.9212 16.6667H15.9167C15.5025 16.6667 15.1667 16.3309 15.1667 15.9167Z" fill="#808080"/>
</svg>
