<svg width="24" height="24" viewBox="0 0 24 24" fill="none" xmlns="http://www.w3.org/2000/svg">
<path fill-rule="evenodd" clip-rule="evenodd" d="M9.58579 2.58579C9.96086 2.21071 10.4696 2 11 2H20C20.5304 2 21.0391 2.21071 21.4142 2.58579C21.7893 2.96086 22 3.46957 22 4V14C22 14.4045 21.7564 14.7691 21.3827 14.9239C21.009 15.0787 20.5789 14.9931 20.2929 14.7071L17.5858 12H11C10.4696 12 9.96086 11.7893 9.58579 11.4142C9.21071 11.0391 9 10.5304 9 10V4C9 3.46957 9.21071 2.96086 9.58579 2.58579Z" fill="#1A1A1A"/>
<path fill-rule="evenodd" clip-rule="evenodd" d="M7 9H4C3.46957 9 2.96086 9.21071 2.58579 9.58579C2.21071 9.96086 2 10.4696 2 11V21C2 21.4045 2.24364 21.7691 2.61732 21.9239C2.99099 22.0787 3.42111 21.9931 3.70711 21.7071L6.41421 19H13C13.5304 19 14.0391 18.7893 14.4142 18.4142C14.7893 18.0391 15 17.5304 15 17V14H11C9.93913 14 8.92172 13.5786 8.17157 12.8284C7.42143 12.0783 7 11.0609 7 10V9Z" fill="#1A1A1A"/>
</svg>
