<svg width="24" height="24" viewBox="0 0 24 24" fill="none" xmlns="http://www.w3.org/2000/svg">
<path fill-rule="evenodd" clip-rule="evenodd" d="M18.1649 10.7799C18.4771 10.4469 18.9113 10.25 19.375 10.25H21.25C21.6642 10.25 22 10.5858 22 11V13C22 13.4142 21.6642 13.75 21.25 13.75H19.375C18.9113 13.75 18.4771 13.5531 18.1649 13.2201C17.8543 12.8887 17.6875 12.4491 17.6875 12C17.6875 11.5509 17.8543 11.1113 18.1649 10.7799Z" fill="#1A1A1A"/>
<path d="M10.625 7C10.1724 7 9.75255 7.19236 9.45352 7.51132C9.15654 7.8281 9 8.24472 9 8.66667V14.6667C9 15.2654 9.22239 15.8516 9.63658 16.2934C10.0528 16.7374 10.6317 17 11.25 17H18.75C19.2026 17 19.6224 16.8076 19.9215 16.4887C20.1195 16.2775 20.255 16.0219 20.3234 15.75H19.375C18.337 15.75 17.3812 15.3083 16.7059 14.5879C16.0354 13.8728 15.6875 12.9389 15.6875 12C15.6875 11.0611 16.0354 10.1272 16.7059 9.41206C17.3812 8.69166 18.337 8.25 19.375 8.25H20.118C20.0188 8.05353 19.8918 7.87016 19.7384 7.70658C19.3222 7.2626 18.7433 7 18.125 7H10.625Z" fill="#1A1A1A"/>
<path fill-rule="evenodd" clip-rule="evenodd" d="M2.87868 2.87868C3.44129 2.31607 4.20435 2 5 2H12C12.7956 2 13.5587 2.31607 14.1213 2.87868C14.6839 3.44129 15 4.20435 15 5H10.625C9.59798 5 8.65651 5.43724 7.99445 6.14344C7.33753 6.84414 7 7.75504 7 8.66667V14.6667C7 15.7553 7.4035 16.8357 8.17751 17.6613C8.29004 17.7813 8.40926 17.8946 8.53449 18.0006C8.52304 18.0002 8.51154 18 8.5 18C7.94772 18 7.5 18.4477 7.5 19V19.01C7.5 19.5623 7.94772 20.01 8.5 20.01C9.05228 20.01 9.5 19.5623 9.5 19.01V19C9.5 18.8459 9.46515 18.7 9.40289 18.5696C9.96527 18.8464 10.5937 19 11.25 19H15C15 19.7957 14.6839 20.5587 14.1213 21.1213C13.5587 21.6839 12.7957 22 12 22H5C4.20435 22 3.44129 21.6839 2.87868 21.1213C2.31607 20.5587 2 19.7957 2 19V5C2 4.20435 2.31607 3.44129 2.87868 2.87868Z" fill="#1A1A1A"/>
</svg>
