<svg width="24" height="24" viewBox="0 0 24 24" fill="none" xmlns="http://www.w3.org/2000/svg">
<path fill-rule="evenodd" clip-rule="evenodd" d="M2.87868 5.87868C3.44129 5.31607 4.20435 5 5 5H19C19.7957 5 20.5587 5.31607 21.1213 5.87868C21.6839 6.44129 22 7.20435 22 8V16C22 16.7957 21.6839 17.5587 21.1213 18.1213C20.5587 18.6839 19.7957 19 19 19H5C4.20435 19 3.44129 18.6839 2.87868 18.1213C2.31607 17.5587 2 16.7956 2 16V8C2 7.20435 2.31607 6.44129 2.87868 5.87868ZM18 11C17.4477 11 17 11.4477 17 12C17 12.5523 17.4477 13 18 13H18.01C18.5623 13 19.01 12.5523 19.01 12C19.01 11.4477 18.5623 11 18.01 11H18ZM12 9C11.2044 9 10.4413 9.31607 9.87868 9.87868C9.31607 10.4413 9 11.2044 9 12C9 12.7956 9.31607 13.5587 9.87868 14.1213C10.4413 14.6839 11.2044 15 12 15C12.7956 15 13.5587 14.6839 14.1213 14.1213C14.6839 13.5587 15 12.7956 15 12C15 11.2044 14.6839 10.4413 14.1213 9.87868C13.5587 9.31607 12.7956 9 12 9ZM6 11C5.44772 11 5 11.4477 5 12C5 12.5523 5.44772 13 6 13H6.01C6.56228 13 7.01 12.5523 7.01 12C7.01 11.4477 6.56228 11 6.01 11H6Z" fill="#1A1A1A"/>
</svg>
