<svg width="24" height="24" viewBox="0 0 24 24" fill="none" xmlns="http://www.w3.org/2000/svg">
<path fill-rule="evenodd" clip-rule="evenodd" d="M10.1585 4.20736C9.36258 4.39586 8.59673 4.70614 7.88895 5.13043C6.64681 5.87504 5.6301 6.94287 4.94726 8.22001C4.26443 9.49715 3.94108 10.9357 4.01172 12.3822C4.08236 13.8287 4.54432 15.2289 5.34835 16.4334C6.15237 17.638 7.26828 18.6016 8.57706 19.2217C9.88583 19.8417 11.3384 20.0949 12.7797 19.9541C14.2211 19.8134 15.5972 19.284 16.7613 18.4225C17.3303 18.0014 17.8382 17.5087 18.2736 16.9588C17.1466 17.062 16.0018 16.9399 14.9079 16.5899C13.0149 15.9842 11.3941 14.7344 10.3271 13.0576C9.26009 11.3808 8.81438 9.38318 9.06746 7.41188C9.21367 6.27296 9.58779 5.18445 10.1585 4.20736ZM12.1266 2H12.393C12.8042 2 13.1734 2.25165 13.3238 2.63432C13.4741 3.01699 13.3749 3.45269 13.0737 3.73256C11.9604 4.76711 11.2447 6.15909 11.0512 7.66655C10.8576 9.17401 11.1985 10.7016 12.0144 11.9839C12.8304 13.2661 14.0698 14.2219 15.5174 14.685C16.9649 15.1482 18.529 15.0895 19.9377 14.5191C20.3115 14.3678 20.7396 14.4557 21.0234 14.7421C21.3072 15.0286 21.3912 15.4574 21.2365 15.8298C20.5417 17.5014 19.4062 18.9531 17.9511 20.0301C16.496 21.107 14.7758 21.7687 12.9741 21.9447C11.1724 22.1206 9.35674 21.8042 7.72077 21.0291C6.0848 20.2541 4.68991 19.0494 3.68488 17.5438C2.67986 16.0381 2.1024 14.2879 2.0141 12.4797C1.92581 10.6716 2.32999 8.87344 3.18353 7.27701C4.03707 5.68059 5.30796 4.3458 6.86063 3.41503C8.4133 2.48427 10.1895 1.99243 11.9998 1.992C12.0423 1.99199 12.0848 1.99469 12.1266 2Z" fill="#1A1A1A"/>
<path fill-rule="evenodd" clip-rule="evenodd" d="M17 3C17.5523 3 18 3.44772 18 4C18 4.26522 18.1054 4.51957 18.2929 4.70711C18.4804 4.89464 18.7348 5 19 5C19.5523 5 20 5.44772 20 6C20 6.55228 19.5523 7 19 7C18.7348 7 18.4804 7.10536 18.2929 7.29289C18.1054 7.48043 18 7.73478 18 8C18 8.55228 17.5523 9 17 9C16.4477 9 16 8.55228 16 8C16 7.73478 15.8946 7.48043 15.7071 7.29289C15.5196 7.10536 15.2652 7 15 7C14.4477 7 14 6.55228 14 6C14 5.44772 14.4477 5 15 5C15.2652 5 15.5196 4.89464 15.7071 4.70711C15.8946 4.51957 16 4.26522 16 4C16 3.44772 16.4477 3 17 3Z" fill="#808080"/>
<path fill-rule="evenodd" clip-rule="evenodd" d="M20 9C20.5523 9 21 9.44772 21 10C21.5523 10 22 10.4477 22 11C22 11.5523 21.5523 12 21 12C21 12.5523 20.5523 13 20 13C19.4477 13 19 12.5523 19 12C18.4477 12 18 11.5523 18 11C18 10.4477 18.4477 10 19 10C19 9.44772 19.4477 9 20 9Z" fill="#808080"/>
</svg>
