<svg width="24" height="24" viewBox="0 0 24 24" fill="none" xmlns="http://www.w3.org/2000/svg">
<path fill-rule="evenodd" clip-rule="evenodd" d="M10 4C9.20435 4 8.44129 4.31607 7.87868 4.87868C7.31607 5.44129 7 6.20435 7 7V17C7 17.7956 7.31607 18.5587 7.87868 19.1213C8.44129 19.6839 9.20435 20 10 20H14C14.7956 20 15.5587 19.6839 16.1213 19.1213C16.6839 18.5587 17 17.7956 17 17V7C17 6.20435 16.6839 5.44129 16.1213 4.87868C15.5587 4.31607 14.7956 4 14 4H10ZM6.46447 3.46447C7.40215 2.52678 8.67392 2 10 2H14C15.3261 2 16.5979 2.52678 17.5355 3.46447C18.4732 4.40215 19 5.67392 19 7V17C19 18.3261 18.4732 19.5979 17.5355 20.5355C16.5979 21.4732 15.3261 22 14 22H10C8.67392 22 7.40215 21.4732 6.46447 20.5355C5.52678 19.5979 5 18.3261 5 17V7C5 5.67392 5.52678 4.40215 6.46447 3.46447Z" fill="#1A1A1A"/>
<path fill-rule="evenodd" clip-rule="evenodd" d="M12 6C12.5523 6 13 6.44772 13 7V11C13 11.5523 12.5523 12 12 12C11.4477 12 11 11.5523 11 11V7C11 6.44772 11.4477 6 12 6Z" fill="#808080"/>
</svg>
