<svg width="24" height="24" viewBox="0 0 24 24" fill="none" xmlns="http://www.w3.org/2000/svg">
<path fill-rule="evenodd" clip-rule="evenodd" d="M11.9987 2C11.577 2 11.1594 2.08337 10.77 2.24531C10.3811 2.40704 10.0279 2.64395 9.73081 2.94246L9.72965 2.94363L9.03363 3.63965L9.03276 3.64051C8.80823 3.86333 8.50479 3.98849 8.18843 3.98874H7.18874C6.34005 3.98874 5.52612 4.32588 4.926 4.926C4.32588 5.52612 3.98874 6.34005 3.98874 7.18874V8.18843C3.98849 8.50479 3.86333 8.80823 3.64051 9.03276L3.63965 9.03363L2.94363 9.72965L2.94246 9.73081C2.64395 10.0279 2.40704 10.3811 2.24531 10.77C2.08337 11.1594 2 11.577 2 11.9987C2 12.4205 2.08337 12.8381 2.24531 13.2275C2.40706 13.6164 2.64401 13.9696 2.94256 14.2668L2.94363 14.2678L3.63965 14.9639L3.64051 14.9647C3.86333 15.1893 3.98849 15.4927 3.98874 15.8091V16.8087C3.98874 17.6574 4.32588 18.4714 4.926 19.0715C5.52612 19.6716 6.34005 20.0087 7.18874 20.0087H8.18817C8.50471 20.0089 8.80901 20.1348 9.03363 20.3578L9.72965 21.0539L9.73076 21.055C10.0279 21.3535 10.3811 21.5904 10.77 21.7522C11.1594 21.9141 11.577 21.9975 11.9987 21.9975C12.4205 21.9975 12.8381 21.9141 13.2275 21.7522C13.6163 21.5905 13.9694 21.3536 14.2665 21.0552L14.2678 21.0539L14.9639 20.3578L14.9647 20.357C15.1893 20.1341 15.4929 20.0089 15.8093 20.0087H16.8087C17.6574 20.0087 18.4714 19.6716 19.0715 19.0715C19.6716 18.4714 20.0087 17.6574 20.0087 16.8087V15.8093C20.0089 15.4929 20.1341 15.1893 20.357 14.9647L20.3578 14.9639L21.0539 14.2678L21.0552 14.2665C21.3536 13.9694 21.5905 13.6163 21.7522 13.2275C21.9141 12.8381 21.9975 12.4205 21.9975 11.9987C21.9975 11.577 21.9141 11.1594 21.7522 10.77C21.5904 10.3811 21.3535 10.0279 21.055 9.73076L21.0539 9.72965L20.3572 9.03295C20.1342 8.80834 20.0089 8.50471 20.0087 8.18817V7.18874C20.0087 6.34005 19.6716 5.52612 19.0715 4.926C18.4714 4.32588 17.6574 3.98874 16.8087 3.98874H15.8091C15.4927 3.98849 15.1893 3.86333 14.9647 3.64051L14.9639 3.63965L14.2678 2.94363L14.2668 2.94256C13.9696 2.64401 13.6164 2.40706 13.2275 2.24531C12.8381 2.08337 12.4205 2 11.9987 2ZM13.8039 8.35815C13.7012 8.10183 13.4101 7.97733 13.1538 8.08008C12.8974 8.18282 12.7729 8.47389 12.8757 8.73021L14.7493 13.4045C14.8348 13.6178 15.0547 13.7454 15.2823 13.7138C15.5099 13.6821 15.6866 13.4994 15.7107 13.2708L15.9247 11.2367L17.1272 12.8913C17.2623 13.0772 17.5067 13.1471 17.7196 13.0607C17.9326 12.9743 18.0592 12.7539 18.0266 12.5264L17.3121 7.54149C17.2729 7.26814 17.0195 7.07831 16.7462 7.11749C16.4728 7.15667 16.283 7.41003 16.3222 7.68338L16.7506 10.672L15.9682 9.59548C15.8465 9.42804 15.6343 9.35288 15.4343 9.40646C15.2344 9.46003 15.0882 9.63125 15.0665 9.83709L14.9272 11.1606L13.8039 8.35815ZM5.99179 10.2891C5.83977 10.112 5.58545 10.0636 5.37903 10.1725C5.17261 10.2815 5.06902 10.5187 5.12942 10.7441L6.42352 15.5738C6.49499 15.8405 6.76916 15.9988 7.03589 15.9273C7.30262 15.8559 7.46091 15.5817 7.38944 15.315L6.664 12.6076L8.8453 15.1489C8.99731 15.326 9.25164 15.3743 9.45805 15.2654C9.66447 15.1565 9.76807 14.9192 9.70767 14.6938L8.41357 9.86416C8.3421 9.59742 8.06793 9.43913 7.8012 9.5106C7.53446 9.58208 7.37617 9.85624 7.44764 10.123L8.17308 12.8304L5.99179 10.2891ZM9.53986 9.04473C9.27313 9.1162 9.11484 9.39037 9.18631 9.6571L10.4804 14.4867C10.5519 14.7535 10.826 14.9118 11.0928 14.8403L13.411 14.2191C13.6777 14.1476 13.836 13.8735 13.7646 13.6067C13.6931 13.34 13.4189 13.1817 13.1522 13.2532L11.3169 13.745L10.9287 12.2961L11.8946 12.0372C12.1614 11.9658 12.3196 11.6916 12.2482 11.4249C12.1767 11.1581 11.9025 10.9998 11.6358 11.0713L10.6699 11.3301L10.2816 9.88125L12.1169 9.38949C12.3836 9.31802 12.5419 9.04385 12.4705 8.77712C12.399 8.51039 12.1248 8.35209 11.8581 8.42356L9.53986 9.04473Z" fill="#1A1A1A"/>
</svg>
