<svg width="24" height="24" viewBox="0 0 24 24" fill="none" xmlns="http://www.w3.org/2000/svg">
<path fill-rule="evenodd" clip-rule="evenodd" d="M4.71526 4.00098C4.5378 4.00098 4.35991 4.07375 4.22292 4.21581C4.08474 4.35911 4.00098 4.56098 4.00098 4.77875V17.2232C4.00098 17.441 4.08474 17.6428 4.22292 17.7861C4.35992 17.9282 4.5378 18.001 4.71526 18.001H11.001C11.5533 18.001 12.001 18.4487 12.001 19.001C12.001 19.5533 11.5533 20.001 11.001 20.001H4.71526C3.98341 20.001 3.28922 19.6991 2.78323 19.1744C2.27844 18.6509 2.00098 17.9484 2.00098 17.2232V4.77875C2.00098 4.05354 2.27844 3.35103 2.78323 2.82754C3.28923 2.30281 3.98341 2.00098 4.71526 2.00098H13.2867C14.0185 2.00098 14.7127 2.30281 15.2187 2.82754C15.7235 3.35103 16.001 4.05354 16.001 4.77875V14.001C16.001 14.5533 15.5533 15.001 15.001 15.001C14.4487 15.001 14.001 14.5533 14.001 14.001V4.77875C14.001 4.56098 13.9172 4.35911 13.779 4.21581C13.642 4.07375 13.4642 4.00098 13.2867 4.00098H4.71526Z" fill="#1A1A1A"/>
<path fill-rule="evenodd" clip-rule="evenodd" d="M6 7C6 6.44772 6.44772 6 7 6H11C11.5523 6 12 6.44772 12 7C12 7.55228 11.5523 8 11 8H7C6.44772 8 6 7.55228 6 7Z" fill="#808080"/>
<path fill-rule="evenodd" clip-rule="evenodd" d="M6 10.999C6 10.4467 6.44772 9.99902 7 9.99902H11C11.5523 9.99902 12 10.4467 12 10.999C12 11.5513 11.5523 11.999 11 11.999H7C6.44772 11.999 6 11.5513 6 10.999Z" fill="#808080"/>
<path fill-rule="evenodd" clip-rule="evenodd" d="M6 15.001C6 14.4487 6.44772 14.001 7 14.001H9C9.55228 14.001 10 14.4487 10 15.001C10 15.5533 9.55228 16.001 9 16.001H7C6.44772 16.001 6 15.5533 6 15.001Z" fill="#808080"/>
<g clip-path="url(#clip0_7001_234)">
<path fill-rule="evenodd" clip-rule="evenodd" d="M21.669 15.8192C22.0456 16.2232 22.0233 16.856 21.6193 17.2325L17.3276 21.2325C16.9436 21.5905 16.3481 21.5905 15.964 21.2325L13.8182 19.2325C13.4142 18.856 13.3919 18.2232 13.7685 17.8192C14.145 17.4152 14.7778 17.3929 15.1818 17.7695L16.6458 19.134L20.2557 15.7695C20.6597 15.3929 21.2925 15.4152 21.669 15.8192Z" fill="#808080"/>
</g>
<defs>
<clipPath id="clip0_7001_234">
<rect width="9" height="9" fill="white" transform="translate(12.999 14.001)"/>
</clipPath>
</defs>
</svg>
