<svg width="24" height="24" viewBox="0 0 24 24" fill="none" xmlns="http://www.w3.org/2000/svg">
<path fill-rule="evenodd" clip-rule="evenodd" d="M4.71429 4C4.53682 4 4.35894 4.07277 4.22195 4.21483C4.08376 4.35814 4 4.56 4 4.77778V17.2222C4 17.44 4.08376 17.6419 4.22195 17.7852C4.35894 17.9272 4.53682 18 4.71429 18H11.1429C11.6951 18 12.1429 18.4477 12.1429 19C12.1429 19.5523 11.6951 20 11.1429 20H4.71429C3.98243 20 3.28825 19.6982 2.78226 19.1734C2.27746 18.6499 2 17.9474 2 17.2222V4.77778C2 4.05256 2.27746 3.35006 2.78226 2.82656C3.28825 2.30183 3.98244 2 4.71429 2H13.2857C14.0176 2 14.7118 2.30183 15.2177 2.82656C15.7225 3.35006 16 4.05256 16 4.77778V10C16 10.5523 15.5523 11 15 11C14.4477 11 14 10.5523 14 10V4.77778C14 4.56 13.9162 4.35814 13.7781 4.21483C13.6411 4.07277 13.4632 4 13.2857 4H4.71429Z" fill="#1A1A1A"/>
<path fill-rule="evenodd" clip-rule="evenodd" d="M6 7C6 6.44772 6.44772 6 7 6H11C11.5523 6 12 6.44772 12 7C12 7.55228 11.5523 8 11 8H7C6.44772 8 6 7.55228 6 7Z" fill="#808080"/>
<path fill-rule="evenodd" clip-rule="evenodd" d="M6 11C6 10.4477 6.44772 10 7 10H11C11.5523 10 12 10.4477 12 11C12 11.5523 11.5523 12 11 12H7C6.44772 12 6 11.5523 6 11Z" fill="#808080"/>
<path fill-rule="evenodd" clip-rule="evenodd" d="M6 15C6 14.4477 6.44772 14 7 14H9C9.55228 14 10 14.4477 10 15C10 15.5523 9.55228 16 9 16H7C6.44772 16 6 15.5523 6 15Z" fill="#808080"/>
<path fill-rule="evenodd" clip-rule="evenodd" d="M17.75 14C17.2043 14 16.6715 14.1601 16.2191 14.4592C15.7667 14.7582 15.4154 15.1823 15.2082 15.677C15.0011 16.1716 14.9471 16.7153 15.0525 17.2399C15.158 17.7644 15.4186 18.2474 15.8025 18.6273L17.659 20.4633C17.6818 20.4859 17.7145 20.5 17.7502 20.5C17.7859 20.5 17.8185 20.4859 17.8413 20.4634C17.8413 20.4635 17.8414 20.4634 17.8413 20.4634L19.6975 18.6273C20.0815 18.2474 20.342 17.7644 20.4475 17.2399C20.5529 16.7153 20.4989 16.1716 20.2918 15.677C20.0846 15.1823 19.7333 14.7582 19.2809 14.4592C18.8285 14.1601 18.2957 14 17.75 14ZM15.392 13.2078C16.0907 12.746 16.9112 12.5 17.75 12.5C18.5888 12.5 19.4093 12.746 20.108 13.2078C20.8068 13.6697 21.3527 14.327 21.6754 15.0976C21.9981 15.8683 22.0827 16.7168 21.918 17.5355C21.7534 18.3542 21.3474 19.1051 20.7524 19.6936L18.8961 21.53C18.5908 21.8317 18.1783 22 17.7502 22C17.3221 22 16.9099 21.832 16.6046 21.5302L14.7477 19.6937C14.1527 19.1051 13.7466 18.3542 13.582 17.5355C13.4173 16.7168 13.5019 15.8683 13.8246 15.0976C14.1473 14.327 14.6932 13.6697 15.392 13.2078Z" fill="#1A1A1A"/>
<path d="M16.8219 17.7171C16.5758 17.4705 16.4375 17.136 16.4375 16.7872C16.4375 16.4385 16.5758 16.104 16.8219 15.8574C17.0681 15.6108 17.4019 15.4722 17.75 15.4722C18.0981 15.4722 18.4319 15.6108 18.6781 15.8574C18.9242 16.104 19.0625 16.4385 19.0625 16.7872C19.0625 17.136 18.9242 17.4705 18.6781 17.7171C18.4319 17.9637 18.0981 18.1022 17.75 18.1022C17.4019 18.1022 17.0681 17.9637 16.8219 17.7171Z" fill="#808080"/>
</svg>
