<svg width="24" height="24" viewBox="0 0 24 24" fill="none" xmlns="http://www.w3.org/2000/svg">
<path fill-rule="evenodd" clip-rule="evenodd" d="M18.3698 15.1228C19.2002 14.2924 20.5467 14.2924 21.3772 15.1228C22.2076 15.9533 22.2076 17.2998 21.3772 18.1302L17.7271 21.7803C17.5864 21.921 17.3956 22 17.1967 22H15.25C14.8358 22 14.5 21.6642 14.5 21.25V19.3033C14.5 19.1044 14.579 18.9136 14.7197 18.7729L18.3698 15.1228ZM20.3165 16.1835C20.0718 15.9388 19.6751 15.9388 19.4304 16.1835L16 19.6139V20.5H16.8861L20.3165 17.0696C20.5612 16.8249 20.5612 16.4282 20.3165 16.1835Z" fill="#808080"/>
<path fill-rule="evenodd" clip-rule="evenodd" d="M4.71429 4C4.53682 4 4.35894 4.07277 4.22195 4.21483C4.08376 4.35814 4 4.56 4 4.77778V17.2222C4 17.44 4.08376 17.6419 4.22195 17.7852C4.35894 17.9272 4.53682 18 4.71429 18H11C11.5523 18 12 18.4477 12 19C12 19.5523 11.5523 20 11 20H4.71429C3.98243 20 3.28825 19.6982 2.78226 19.1734C2.27746 18.6499 2 17.9474 2 17.2222V4.77778C2 4.05256 2.27746 3.35006 2.78226 2.82656C3.28825 2.30183 3.98244 2 4.71429 2H13.2857C14.0176 2 14.7118 2.30183 15.2177 2.82656C15.7225 3.35006 16 4.05256 16 4.77778V14C16 14.5523 15.5523 15 15 15C14.4477 15 14 14.5523 14 14V4.77778C14 4.56 13.9162 4.35814 13.7781 4.21483C13.6411 4.07277 13.4632 4 13.2857 4H4.71429Z" fill="#1A1A1A"/>
<path fill-rule="evenodd" clip-rule="evenodd" d="M6 7C6 6.44772 6.44772 6 7 6H11C11.5523 6 12 6.44772 12 7C12 7.55228 11.5523 8 11 8H7C6.44772 8 6 7.55228 6 7Z" fill="#808080"/>
<path fill-rule="evenodd" clip-rule="evenodd" d="M6 11C6 10.4477 6.44772 10 7 10H11C11.5523 10 12 10.4477 12 11C12 11.5523 11.5523 12 11 12H7C6.44772 12 6 11.5523 6 11Z" fill="#808080"/>
<path fill-rule="evenodd" clip-rule="evenodd" d="M6 15C6 14.4477 6.44772 14 7 14H9C9.55228 14 10 14.4477 10 15C10 15.5523 9.55228 16 9 16H7C6.44772 16 6 15.5523 6 15Z" fill="#808080"/>
</svg>
