<svg width="24" height="24" viewBox="0 0 24 24" fill="none" xmlns="http://www.w3.org/2000/svg">
<path d="M12 21L4 16.5V7.5L12 3L20 7.5V12" stroke="#1A1A1A" stroke-width="2" stroke-linecap="round" stroke-linejoin="round"/>
<path d="M12 12L20 7.5" stroke="#1A1A1A" stroke-width="2" stroke-linecap="round" stroke-linejoin="round"/>
<path d="M12 12V21" stroke="#1A1A1A" stroke-width="2" stroke-linecap="round" stroke-linejoin="round"/>
<path d="M12 12L4 7.5" stroke="#1A1A1A" stroke-width="2" stroke-linecap="round" stroke-linejoin="round"/>
<path fill-rule="evenodd" clip-rule="evenodd" d="M19.5 15C19.7416 15 19.9375 15.1959 19.9375 15.4375V18.0625H22.5625C22.8041 18.0625 23 18.2584 23 18.5C23 18.7416 22.8041 18.9375 22.5625 18.9375H19.9375V21.5625C19.9375 21.8041 19.7416 22 19.5 22C19.2584 22 19.0625 21.8041 19.0625 21.5625V18.9375H16.4375C16.1959 18.9375 16 18.7416 16 18.5C16 18.2584 16.1959 18.0625 16.4375 18.0625H19.0625V15.4375C19.0625 15.1959 19.2584 15 19.5 15Z" fill="#1A1A1A" stroke="#808080" stroke-linecap="round" stroke-linejoin="round"/>
</svg>
