<svg width="24" height="24" viewBox="0 0 24 24" fill="none" xmlns="http://www.w3.org/2000/svg">
<g clip-path="url(#clip0_4614_248)">
<path d="M12 21L4 16.5V7.5L12 3L20 7.5V12" stroke="#1A1A1A" stroke-width="2" stroke-linecap="round" stroke-linejoin="round"/>
<path d="M12 12L20 7.5" stroke="#1A1A1A" stroke-width="2" stroke-linecap="round" stroke-linejoin="round"/>
<path d="M12 12V21" stroke="#1A1A1A" stroke-width="2" stroke-linecap="round" stroke-linejoin="round"/>
<path d="M12 12L4 7.5" stroke="#1A1A1A" stroke-width="2" stroke-linecap="round" stroke-linejoin="round"/>
<path d="M20.121 19.1216C20.5406 18.7021 20.8265 18.1676 20.9423 17.5856C21.0581 17.0036 20.9988 16.4004 20.7717 15.8522C20.5447 15.3039 20.1602 14.8353 19.6668 14.5057C19.1734 14.176 18.5934 14 18 14C17.4066 14 16.8266 14.176 16.3332 14.5057C15.8398 14.8353 15.4553 15.3039 15.2283 15.8522C15.0012 16.4004 14.9419 17.0036 15.0577 17.5856C15.1735 18.1676 15.4594 18.7021 15.879 19.1216C16.297 19.5406 17.004 20.1666 18 21.0006C19.051 20.1106 19.759 19.4846 20.121 19.1216Z" stroke="#808080" stroke-width="2" stroke-linecap="round" stroke-linejoin="round"/>
<path d="M18 17.0006V17.0106" stroke="#808080" stroke-width="2" stroke-linecap="round" stroke-linejoin="round"/>
</g>
<defs>
<clipPath id="clip0_4614_248">
<rect width="24" height="24" fill="white"/>
</clipPath>
</defs>
</svg>
