<svg width="24" height="24" viewBox="0 0 24 24" fill="none" xmlns="http://www.w3.org/2000/svg">
<path fill-rule="evenodd" clip-rule="evenodd" d="M5 6C4.73478 6 4.48043 6.10536 4.29289 6.29289C4.10536 6.48043 4 6.73478 4 7V17C4 17.2652 4.10536 17.5196 4.29289 17.7071C4.48043 17.8946 4.73478 18 5 18H19C19.2652 18 19.5196 17.8946 19.7071 17.7071C19.8946 17.5196 20 17.2652 20 17V7C20 6.73478 19.8946 6.48043 19.7071 6.29289C19.5196 6.10536 19.2652 6 19 6H5ZM2.87868 4.87868C3.44129 4.31607 4.20435 4 5 4H19C19.7957 4 20.5587 4.31607 21.1213 4.87868C21.6839 5.44129 22 6.20435 22 7V17C22 17.7957 21.6839 18.5587 21.1213 19.1213C20.5587 19.6839 19.7957 20 19 20H5C4.20435 20 3.44129 19.6839 2.87868 19.1213C2.31607 18.5587 2 17.7956 2 17V7C2 6.20435 2.31607 5.44129 2.87868 4.87868Z" fill="#1A1A1A"/>
<path fill-rule="evenodd" clip-rule="evenodd" d="M5.29289 10.2929C5.68342 9.90237 6.31658 9.90237 6.70711 10.2929L7 10.5858L7.29289 10.2929C7.68342 9.90237 8.31658 9.90237 8.70711 10.2929C9.09763 10.6834 9.09763 11.3166 8.70711 11.7071L8.41421 12L8.70711 12.2929C9.09763 12.6834 9.09763 13.3166 8.70711 13.7071C8.31658 14.0976 7.68342 14.0976 7.29289 13.7071L7 13.4142L6.70711 13.7071C6.31658 14.0976 5.68342 14.0976 5.29289 13.7071C4.90237 13.3166 4.90237 12.6834 5.29289 12.2929L5.58579 12L5.29289 11.7071C4.90237 11.3166 4.90237 10.6834 5.29289 10.2929Z" fill="#808080"/>
<path fill-rule="evenodd" clip-rule="evenodd" d="M10.2929 10.2929C10.6834 9.90237 11.3166 9.90237 11.7071 10.2929L12 10.5858L12.2929 10.2929C12.6834 9.90237 13.3166 9.90237 13.7071 10.2929C14.0976 10.6834 14.0976 11.3166 13.7071 11.7071L13.4142 12L13.7071 12.2929C14.0976 12.6834 14.0976 13.3166 13.7071 13.7071C13.3166 14.0976 12.6834 14.0976 12.2929 13.7071L12 13.4142L11.7071 13.7071C11.3166 14.0976 10.6834 14.0976 10.2929 13.7071C9.90237 13.3166 9.90237 12.6834 10.2929 12.2929L10.5858 12L10.2929 11.7071C9.90237 11.3166 9.90237 10.6834 10.2929 10.2929Z" fill="#808080"/>
<path fill-rule="evenodd" clip-rule="evenodd" d="M15 13C15 12.4477 15.4477 12 16 12H18C18.5523 12 19 12.4477 19 13C19 13.5523 18.5523 14 18 14H16C15.4477 14 15 13.5523 15 13Z" fill="#808080"/>
</svg>
