<svg width="24" height="24" viewBox="0 0 24 24" fill="none" xmlns="http://www.w3.org/2000/svg">
<path fill-rule="evenodd" clip-rule="evenodd" d="M12.7929 4.79289C13.1834 4.40237 13.8166 4.40237 14.2071 4.79289L18.2071 8.79289C18.5976 9.18342 18.5976 9.81658 18.2071 10.2071C17.8166 10.5976 17.1834 10.5976 16.7929 10.2071L12.7929 6.20711C12.4024 5.81658 12.4024 5.18342 12.7929 4.79289Z" fill="#808080"/>
<path fill-rule="evenodd" clip-rule="evenodd" d="M15.5013 2.30272C15.9838 2.10286 16.501 2 17.0232 2C17.5454 2 18.0626 2.10286 18.5451 2.30272C19.0275 2.50257 19.4659 2.7955 19.8352 3.16478C20.2045 3.53406 20.4974 3.97246 20.6973 4.45495C20.8971 4.93744 21 5.45456 21 5.9768C21 6.49904 20.8971 7.01617 20.6973 7.49866C20.4974 7.98114 20.2045 8.41954 19.8352 8.78882L8.92829 19.6958C8.73348 19.8906 8.46927 20 8.19378 20H4.03876C3.46507 20 3 19.5349 3 18.9612V14.8062C3 14.5307 3.10944 14.2665 3.30424 14.0717L14.2112 3.16478C14.5805 2.7955 15.0189 2.50257 15.5013 2.30272ZM17.0232 4.07751C16.7738 4.07751 16.5268 4.12664 16.2964 4.22209C16.0659 4.31753 15.8566 4.45744 15.6802 4.6338L5.07751 15.2365V17.9225H7.76351L18.3662 7.3198C18.5426 7.14343 18.6825 6.93406 18.7779 6.70363C18.8734 6.4732 18.9225 6.22622 18.9225 5.9768C18.9225 5.72738 18.8734 5.4804 18.7779 5.24997C18.6825 5.01954 18.5426 4.81017 18.3662 4.6338C18.1898 4.45744 17.9805 4.31753 17.75 4.22209C17.5196 4.12664 17.2726 4.07751 17.0232 4.07751Z" fill="#1A1A1A"/>
<path fill-rule="evenodd" clip-rule="evenodd" d="M19 14C19.5523 14 20 14.4477 20 15V18C20 18.5523 19.5523 19 19 19C18.4477 19 18 18.5523 18 18V15C18 14.4477 18.4477 14 19 14Z" fill="#808080"/>
<path fill-rule="evenodd" clip-rule="evenodd" d="M19 20C19.5523 20 20 20.4455 20 20.995V21.005C20 21.5545 19.5523 22 19 22C18.4477 22 18 21.5545 18 21.005V20.995C18 20.4455 18.4477 20 19 20Z" fill="#808080"/>
</svg>
