<svg width="24" height="24" viewBox="0 0 24 24" fill="none" xmlns="http://www.w3.org/2000/svg">
<path fill-rule="evenodd" clip-rule="evenodd" d="M17.2929 14.2929C17.6834 13.9024 18.3166 13.9024 18.7071 14.2929L21.7071 17.2929C22.0976 17.6834 22.0976 18.3166 21.7071 18.7071C21.3166 19.0976 20.6834 19.0976 20.2929 18.7071L19 17.4142V21C19 21.5523 18.5523 22 18 22C17.4477 22 17 21.5523 17 21V17.4142L15.7071 18.7071C15.3166 19.0976 14.6834 19.0976 14.2929 18.7071C13.9024 18.3166 13.9024 17.6834 14.2929 17.2929L17.2929 14.2929Z" fill="#808080"/>
<path fill-rule="evenodd" clip-rule="evenodd" d="M13 7C13 6.44772 13.4455 6 13.995 6H14.005C14.5545 6 15 6.44772 15 7C15 7.55228 14.5545 8 14.005 8H13.995C13.4455 8 13 7.55228 13 7Z" fill="#808080"/>
<path fill-rule="evenodd" clip-rule="evenodd" d="M7.69967 10.7145L3.70711 14.7071C3.31658 15.0976 2.68342 15.0976 2.29289 14.7071C1.90237 14.3166 1.90237 13.6834 2.29289 13.2929L6.29289 9.29289L6.30661 9.27943C6.92076 8.68845 7.67726 8.33025 8.5 8.33025C9.32274 8.33025 10.0792 8.68845 10.6934 9.27943L10.7071 9.29289L13 11.5858L13.2929 11.2929L13.307 11.2791C13.7151 10.8868 14.1873 10.594 14.7097 10.4432C15.2403 10.2901 15.7946 10.5961 15.9478 11.1267C16.1009 11.6573 15.7949 12.2116 15.2643 12.3648C15.1024 12.4115 14.9089 12.5151 14.6995 12.7148L13.7071 13.7071C13.3166 14.0976 12.6834 14.0976 12.2929 13.7071L9.30033 10.7145C8.98903 10.4174 8.71183 10.3302 8.5 10.3302C8.28816 10.3302 8.01097 10.4174 7.69967 10.7145Z" fill="#808080"/>
<path fill-rule="evenodd" clip-rule="evenodd" d="M6 4C5.46957 4 4.96086 4.21071 4.58579 4.58579C4.21071 4.96086 4 5.46957 4 6V16C4 16.5304 4.21071 17.0391 4.58579 17.4142C4.96086 17.7893 5.46957 18 6 18H10C10.5523 18 11 18.4477 11 19C11 19.5523 10.5523 20 10 20H6C4.93913 20 3.92172 19.5786 3.17157 18.8284C2.42143 18.0783 2 17.0609 2 16V6C2 4.93913 2.42143 3.92172 3.17157 3.17157C3.92172 2.42143 4.93913 2 6 2H16C17.0609 2 18.0783 2.42143 18.8284 3.17157C19.5786 3.92172 20 4.93913 20 6V10C20 10.5523 19.5523 11 19 11C18.4477 11 18 10.5523 18 10V6C18 5.46957 17.7893 4.96086 17.4142 4.58579C17.0391 4.21071 16.5304 4 16 4H6Z" fill="#1A1A1A"/>
</svg>
