<svg width="24" height="24" viewBox="0 0 24 24" fill="none" xmlns="http://www.w3.org/2000/svg">
<path d="M16.4071 11.3311C17.2019 11.3044 17.9461 11.6162 18.5634 12.1602L18.6932 12.2803L18.7069 12.293L21.7069 15.293L21.7753 15.3691C22.0957 15.7619 22.0731 16.3409 21.7069 16.707C21.3408 17.0732 20.7618 17.0958 20.369 16.7754L20.2929 16.707L17.3065 13.7207L17.1786 13.6074C16.8854 13.37 16.6268 13.3149 16.4237 13.334L16.3212 13.3379C15.8144 13.334 15.3833 12.9471 15.3348 12.4316C15.2831 11.8818 15.6864 11.3946 16.2362 11.3428L16.4071 11.3311Z" fill="#808080"/>
<path d="M9.5 9.3302C10.2199 9.3302 10.8895 9.60397 11.457 10.0685L11.6934 10.2794L16.707 15.2931L16.7754 15.3693C17.0957 15.762 17.0731 16.3411 16.707 16.7072C16.3409 17.0732 15.7619 17.0958 15.3691 16.7755L15.293 16.7072L10.3066 11.7208L10.1904 11.6173C9.92375 11.3981 9.68661 11.3302 9.5 11.3302C9.28675 11.3302 9.00721 11.4188 8.69336 11.7208L3.70703 16.7072C3.31653 17.0976 2.68348 17.0976 2.29297 16.7072C1.90248 16.3167 1.90253 15.6836 2.29297 15.2931L7.30664 10.2794C7.92079 9.68843 8.67726 9.3302 9.5 9.3302Z" fill="#808080"/>
<path d="M15.0049 7L15.1069 7.00488C15.6087 7.05611 16 7.48224 16 8C16 8.51776 15.6087 8.94389 15.1069 8.99512L15.0049 9H14.9951C14.4455 9 14 8.55228 14 8C14 7.44772 14.4455 7 14.9951 7H15.0049Z" fill="#808080"/>
<path d="M2 18V8C2 7.44772 2.44772 7 3 7C3.55228 7 4 7.44772 4 8V18C4 18.5304 4.21087 19.039 4.58594 19.4141L4.73242 19.5469C5.08834 19.8385 5.53581 20 6 20H16C16.5523 20 17 20.4477 17 21C17 21.5523 16.5523 22 16 22H6C5.00539 22 4.04921 21.6293 3.31543 20.9648L3.17188 20.8281C2.42173 20.078 2 19.0609 2 18Z" fill="#1A1A1A"/>
<path d="M20 16V6C20 5.53581 19.8385 5.08834 19.5469 4.73242L19.4141 4.58594C19.039 4.21087 18.5304 4 18 4H8C7.44772 4 7 3.55228 7 3C7 2.44772 7.44772 2 8 2H18C19.0609 2 20.078 2.42173 20.8281 3.17188L20.9648 3.31543C21.6293 4.04921 22 5.00539 22 6V16C22 16.5523 21.5523 17 21 17C20.4477 17 20 16.5523 20 16Z" fill="#1A1A1A"/>
<path d="M2.29298 2.29296C2.65909 1.92685 3.2381 1.90425 3.63087 2.2246L3.70704 2.29296L21.707 20.293L21.7754 20.3691C22.0958 20.7619 22.0732 21.3409 21.707 21.707C21.3409 22.0731 20.7619 22.0957 20.3692 21.7754L20.293 21.707L2.29298 3.70703L2.22462 3.63085C1.90427 3.23808 1.92686 2.65908 2.29298 2.29296Z" fill="#808080"/>
</svg>
