<svg width="24" height="24" viewBox="0 0 24 24" fill="none" xmlns="http://www.w3.org/2000/svg">
<g clip-path="url(#clip0_2966_781)">
<path fill-rule="evenodd" clip-rule="evenodd" d="M9.09384 14.9062C9.54015 15.3525 9.54015 16.0761 9.09384 16.5224L3.95098 21.6653C3.50467 22.1116 2.78105 22.1116 2.33474 21.6653C1.88842 21.2189 1.88842 20.4953 2.33474 20.049L7.47759 14.9062C7.92391 14.4598 8.64752 14.4598 9.09384 14.9062Z" fill="#808080"/>
<path fill-rule="evenodd" clip-rule="evenodd" d="M15.951 2.90616C16.3973 3.35247 16.3973 4.07609 15.951 4.52241L11.3796 9.09383C11.2642 9.20919 11.1255 9.29852 10.9727 9.3558L6.6331 10.9832L5.90198 11.7143L12.2857 18.098L13.0169 17.3669L14.6442 13.0273C14.7015 12.8745 14.7908 12.7358 14.9062 12.6204L19.4776 8.04902C19.9239 7.60271 20.6476 7.60271 21.0939 8.04902C21.5402 8.49533 21.5402 9.21895 21.0939 9.66526L16.6975 14.0616L15.0701 18.4013C15.0128 18.554 14.9235 18.6928 14.8081 18.8081L13.0939 20.5224C12.6475 20.9687 11.9239 20.9687 11.4776 20.5224L3.47762 12.5224C3.0313 12.0761 3.0313 11.3525 3.47762 10.9062L5.1919 9.19188C5.30726 9.07652 5.44599 8.98719 5.59874 8.92991L9.93838 7.30254L14.3348 2.90616C14.7811 2.45985 15.5047 2.45985 15.951 2.90616Z" fill="#1A1A1A"/>
<path fill-rule="evenodd" clip-rule="evenodd" d="M13.7633 2.33474C14.2096 1.88842 14.9333 1.88842 15.3796 2.33474L21.6653 8.62045C22.1116 9.06676 22.1116 9.79038 21.6653 10.2367C21.219 10.683 20.4954 10.683 20.049 10.2367L13.7633 3.95098C13.317 3.50467 13.317 2.78105 13.7633 2.33474Z" fill="#1A1A1A"/>
</g>
<defs>
<clipPath id="clip0_2966_781">
<rect width="24" height="24" fill="white"/>
</clipPath>
</defs>
</svg>
