<svg width="24" height="24" viewBox="0 0 24 24" fill="none" xmlns="http://www.w3.org/2000/svg">
<path fill-rule="evenodd" clip-rule="evenodd" d="M6.87868 2.87868C7.44129 2.31607 8.20435 2 9 2H15C15.7956 2 16.5587 2.31607 17.1213 2.87868C17.6839 3.44129 18 4.20435 18 5V8H19C19.7957 8 20.5587 8.31607 21.1213 8.87868C21.6839 9.44129 22 10.2043 22 11V15C22 15.7957 21.6839 16.5587 21.1213 17.1213C20.9343 17.3083 20.7251 17.4681 20.5 17.5981C20.0217 17.8742 19.4101 17.7103 19.134 17.232C18.8578 16.7537 19.0217 16.1421 19.5 15.866C19.575 15.8227 19.6447 15.7695 19.7071 15.7071C19.8946 15.5196 20 15.2652 20 15V11C20 10.7348 19.8946 10.4804 19.7071 10.2929C19.5196 10.1054 19.2652 10 19 10H5C4.73478 10 4.48043 10.1054 4.29289 10.2929C4.10536 10.4804 4 10.7348 4 11V15C4 15.2652 4.10536 15.5196 4.29289 15.7071C4.35527 15.7695 4.42496 15.8227 4.49997 15.866C4.97827 16.1421 5.14217 16.7537 4.86604 17.232C4.58991 17.7103 3.97833 17.8742 3.50003 17.5981C3.27485 17.4681 3.06566 17.3083 2.87868 17.1213C2.31607 16.5587 2 15.7956 2 15V11C2 10.2044 2.31607 9.44129 2.87868 8.87868C3.44129 8.31607 4.20435 8 5 8H6V5C6 4.20435 6.31607 3.44129 6.87868 2.87868ZM8 8H16V5C16 4.73478 15.8946 4.48043 15.7071 4.29289C15.5196 4.10536 15.2652 4 15 4H9C8.73478 4 8.48043 4.10536 8.29289 4.29289C8.10536 4.48043 8 4.73478 8 5V8Z" fill="#1A1A1A"/>
<path fill-rule="evenodd" clip-rule="evenodd" d="M7 14L17 14C17.2652 14 17.5196 14.1054 17.7071 14.2929C17.8946 14.4804 18 14.7348 18 15V20C18 20.415 17.8997 20.8615 17.6649 21.2371C17.4335 21.6075 16.9975 22 16.375 22L7.625 22C7.00249 22 6.56653 21.6075 6.33506 21.2371C6.10029 20.8615 6 20.415 6 20L6 15C6 14.4477 6.44772 14 7 14ZM8 16V20L16 20V16L8 16Z" fill="#808080"/>
</svg>
