<svg width="24" height="24" viewBox="0 0 24 24" fill="none" xmlns="http://www.w3.org/2000/svg">
<path d="M10.9951 4.90137C10.9724 4.67237 10.8712 4.45711 10.707 4.29297C10.5429 4.12883 10.3276 4.02757 10.0986 4.00488L10 4C9.73478 4 9.4805 4.10543 9.29297 4.29297C9.10543 4.48051 9 4.73478 9 5V6C9 6.53043 8.78913 7.03899 8.41406 7.41406C8.03899 7.78913 7.53043 8 7 8H4V11H5C5.79565 11 6.55849 11.3163 7.12109 11.8789C7.6837 12.4415 8 13.2044 8 14L7.98535 14.2969C7.91709 14.9835 7.61329 15.6289 7.12109 16.1211C6.55849 16.6837 5.79565 17 5 17H4V20H7V19C7 18.2043 7.3163 17.4415 7.87891 16.8789C8.44151 16.3163 9.20435 16 10 16C10.7957 16 11.5585 16.3163 12.1211 16.8789C12.6837 17.4415 13 18.2043 13 19V20H16V17C16 16.4696 16.2109 15.961 16.5859 15.5859C16.961 15.2109 17.4696 15 18 15H19C19.2652 15 19.5195 14.8946 19.707 14.707C19.8946 14.5195 20 14.2652 20 14C20 13.7348 19.8946 13.4805 19.707 13.293C19.5195 13.1054 19.2652 13 19 13H18C17.4696 13 16.961 12.7891 16.5859 12.4141C16.2109 12.039 16 11.5304 16 11V8H13C12.4696 8 11.961 7.78913 11.5859 7.41406C11.2109 7.03899 11 6.53043 11 6V5L10.9951 4.90137ZM13 6H16C16.5304 6 17.039 6.21087 17.4141 6.58594C17.7891 6.96101 18 7.46957 18 8V11H19C19.7957 11 20.5585 11.3163 21.1211 11.8789C21.6837 12.4415 22 13.2043 22 14C22 14.7957 21.6837 15.5585 21.1211 16.1211C20.5585 16.6837 19.7957 17 19 17H18V20C18 20.5304 17.7891 21.039 17.4141 21.4141C17.039 21.7891 16.5304 22 16 22H13C12.4696 22 11.961 21.7891 11.5859 21.4141C11.2109 21.039 11 20.5304 11 20V19C11 18.7348 10.8946 18.4805 10.707 18.293C10.5195 18.1054 10.2652 18 10 18C9.73478 18 9.48051 18.1054 9.29297 18.293C9.10543 18.4805 9 18.7348 9 19V20C9 20.5304 8.78913 21.039 8.41406 21.4141C8.03899 21.7891 7.53043 22 7 22H4C3.46957 22 2.96101 21.7891 2.58594 21.4141C2.21086 21.039 2 20.5304 2 20V17C2 16.4696 2.21086 15.961 2.58594 15.5859C2.96101 15.2109 3.46957 15 4 15H5C5.26522 15 5.51949 14.8946 5.70703 14.707C5.87117 14.5429 5.97243 14.3276 5.99512 14.0986L6 14C6 13.7348 5.89457 13.4805 5.70703 13.293C5.51949 13.1054 5.26522 13 5 13H4C3.46957 13 2.96101 12.7891 2.58594 12.4141C2.21086 12.039 2 11.5304 2 11V8C2 7.46957 2.21086 6.96101 2.58594 6.58594C2.96101 6.21087 3.46957 6 4 6H7V5C7 4.20435 7.3163 3.44151 7.87891 2.87891C8.44152 2.3163 9.20435 2 10 2L10.2969 2.01465C10.9835 2.08291 11.6289 2.38671 12.1211 2.87891C12.6837 3.44151 13 4.20435 13 5V6Z" fill="#1A1A1A"/>
</svg>
