<svg width="24" height="24" viewBox="0 0 24 24" fill="none" xmlns="http://www.w3.org/2000/svg">
<path fill-rule="evenodd" clip-rule="evenodd" d="M4.58579 5.58579C4.96086 5.21071 5.46957 5 6 5H9C9.53043 5 10.0391 5.21071 10.4142 5.58579C10.7893 5.96086 11 6.46957 11 7V13C11 14.5025 10.6219 15.8236 9.78098 16.8747C8.94259 17.9227 7.72684 18.5989 6.24262 18.9701C5.70684 19.1041 5.16387 18.7784 5.02988 18.2426C4.89588 17.7068 5.2216 17.1639 5.75738 17.0299C6.94016 16.7341 7.72441 16.2438 8.21927 15.6253C8.7116 15.0099 9 14.1645 9 13V12H6C5.46957 12 4.96086 11.7893 4.58579 11.4142C4.21071 11.0391 4 10.5304 4 10V7C4 6.46957 4.21071 5.96086 4.58579 5.58579ZM9 10V7L6 7L6 10H9Z" fill="#1A1A1A"/>
<path fill-rule="evenodd" clip-rule="evenodd" d="M13.5858 5.58579C13.9609 5.21071 14.4696 5 15 5H18C18.5304 5 19.0391 5.21071 19.4142 5.58579C19.7893 5.96086 20 6.46957 20 7V13C20 14.5025 19.6219 15.8236 18.781 16.8747C17.9426 17.9227 16.7268 18.5989 15.2426 18.9701C14.7068 19.1041 14.1639 18.7784 14.0299 18.2426C13.8959 17.7068 14.2216 17.1639 14.7574 17.0299C15.9402 16.7341 16.7244 16.2438 17.2193 15.6253C17.7116 15.0099 18 14.1645 18 13V12H15C14.4696 12 13.9609 11.7893 13.5858 11.4142C13.2107 11.0391 13 10.5304 13 10V7C13 6.46957 13.2107 5.96086 13.5858 5.58579ZM18 10L18 7H15L15 10H18Z" fill="#808080"/>
</svg>
