<svg width="24" height="24" viewBox="0 0 24 24" fill="none" xmlns="http://www.w3.org/2000/svg">
<path fill-rule="evenodd" clip-rule="evenodd" d="M19.4666 13.75V13.5C19.4666 12.9086 19.237 12.3382 18.8232 11.915C18.4088 11.4912 17.8432 11.25 17.2498 11.25C16.6563 11.25 16.0907 11.4912 15.6763 11.915C15.2625 12.3382 15.033 12.9086 15.033 13.5V13.75V15.25H19.4666V13.75ZM17.2498 12.75C17.0651 12.75 16.8846 12.8248 16.7488 12.9637C16.6125 13.1031 16.533 13.2957 16.533 13.5V13.75H17.9666V13.5C17.9666 13.2957 17.8871 13.1031 17.7507 12.9637C17.6149 12.8248 17.4344 12.75 17.2498 12.75Z" fill="#808080"/>
<path fill-rule="evenodd" clip-rule="evenodd" d="M15.033 13.75H14.4781C14.2264 13.75 13.9781 13.8057 13.7506 13.9126C13.5231 14.0195 13.3223 14.1748 13.1612 14.3667C13.0002 14.5586 12.8825 14.7828 12.8153 15.0235C12.748 15.2642 12.7326 15.5165 12.7697 15.7635L13.3833 19.8395C13.4626 20.3664 13.7241 20.8505 14.1249 21.2022C14.5262 21.5542 15.0403 21.75 15.5746 21.75H18.9246C19.459 21.7501 19.9734 21.5544 20.3748 21.2024C20.7758 20.8507 21.0374 20.3666 21.1167 19.8395L21.7303 15.7636C21.7674 15.5166 21.752 15.2642 21.6847 15.0235C21.6175 14.7828 21.4998 14.5586 21.3388 14.3667C21.1777 14.1748 20.9769 14.0195 20.7494 13.9126C20.5219 13.8057 20.2737 13.75 20.022 13.75H19.4666H15.033ZM14.4779 15.25C14.4477 15.25 14.4172 15.2566 14.3885 15.2701C14.3598 15.2836 14.3329 15.304 14.3103 15.3309C14.2877 15.3578 14.2702 15.3905 14.26 15.4271C14.2497 15.4637 14.2473 15.5024 14.253 15.5404L14.8666 19.6164C14.8939 19.7977 14.9833 19.9597 15.1142 20.0746C15.2448 20.1892 15.4082 20.25 15.5747 20.25H18.9248C19.0913 20.25 19.2551 20.1893 19.3857 20.0747C19.5167 19.9598 19.6061 19.7978 19.6334 19.6165L20.247 15.5405C20.2527 15.5025 20.2503 15.4637 20.24 15.4271C20.2298 15.3905 20.2123 15.3578 20.1897 15.3309C20.1671 15.304 20.1402 15.2836 20.1115 15.2701C20.0828 15.2566 20.0523 15.25 20.0221 15.25H14.4779Z" fill="#1A1A1A"/>
<path fill-rule="evenodd" clip-rule="evenodd" d="M5 4C4.73478 4 4.48043 4.10536 4.29289 4.29289C4.10536 4.48043 4 4.73478 4 5V19.1315L5.4453 18.1679C5.84192 17.9035 6.37004 17.9558 6.70711 18.2929L8 19.5858L9.29289 18.2929C9.68342 17.9024 10.3166 17.9024 10.7071 18.2929C11.0976 18.6834 11.0976 19.3166 10.7071 19.7071L8.70711 21.7071C8.31658 22.0976 7.68342 22.0976 7.29289 21.7071L5.87258 20.2868L3.5547 21.8321C3.24784 22.0366 2.8533 22.0557 2.52814 21.8817C2.20298 21.7077 2 21.3688 2 21V5C2 4.20435 2.31607 3.44129 2.87868 2.87868C3.44129 2.31607 4.20435 2 5 2H15C15.7956 2 16.5587 2.31607 17.1213 2.87868C17.6839 3.44129 18 4.20435 18 5V8C18 8.55228 17.5523 9 17 9C16.4477 9 16 8.55228 16 8V5C16 4.73478 15.8946 4.48043 15.7071 4.29289C15.5196 4.10536 15.2652 4 15 4H5Z" fill="#1A1A1A"/>
<path fill-rule="evenodd" clip-rule="evenodd" d="M6 15C6 14.4477 6.44772 14 7 14H9C9.55228 14 10 14.4477 10 15C10 15.5523 9.55228 16 9 16H7C6.44772 16 6 15.5523 6 15Z" fill="#808080"/>
<path fill-rule="evenodd" clip-rule="evenodd" d="M6 11C6 10.4477 6.44772 10 7 10H13C13.5523 10 14 10.4477 14 11C14 11.5523 13.5523 12 13 12H7C6.44772 12 6 11.5523 6 11Z" fill="#808080"/>
<path fill-rule="evenodd" clip-rule="evenodd" d="M6 7C6 6.44772 6.44772 6 7 6H13C13.5523 6 14 6.44772 14 7C14 7.55228 13.5523 8 13 8H7C6.44772 8 6 7.55228 6 7Z" fill="#808080"/>
</svg>
