<svg width="24" height="24" viewBox="0 0 24 24" fill="none" xmlns="http://www.w3.org/2000/svg">
<path fill-rule="evenodd" clip-rule="evenodd" d="M17.25 14C15.4551 14 14 15.4551 14 17.25C14 19.0449 15.4551 20.5 17.25 20.5C19.0449 20.5 20.5 19.0449 20.5 17.25C20.5 15.4551 19.0449 14 17.25 14ZM12.5 17.25C12.5 14.6266 14.6266 12.5 17.25 12.5C19.8734 12.5 22 14.6266 22 17.25C22 19.8734 19.8734 22 17.25 22C14.6266 22 12.5 19.8734 12.5 17.25Z" fill="#1A1A1A"/>
<path fill-rule="evenodd" clip-rule="evenodd" d="M17.3247 16.5507C17.3247 16.3622 17.4775 16.2094 17.6659 16.2094H18.1623C18.3845 16.2094 18.5976 16.2977 18.7547 16.4548C18.9117 16.6119 19 16.8249 19 17.0471C19 17.2693 18.9117 17.4823 18.7547 17.6394C18.5976 17.7965 18.3845 17.8848 18.1623 17.8848H18.0072V18.5363C18.0072 18.7248 17.8544 18.8776 17.6659 18.8776C17.4775 18.8776 17.3247 18.7248 17.3247 18.5363V16.5507ZM18.0072 17.2022H18.1623C18.2035 17.2022 18.2429 17.1859 18.272 17.1568C18.3011 17.1277 18.3175 17.0882 18.3175 17.0471C18.3175 17.006 18.3011 16.9665 18.272 16.9374C18.2429 16.9083 18.2035 16.892 18.1623 16.892H18.0072V17.2022Z" fill="#808080"/>
<path fill-rule="evenodd" clip-rule="evenodd" d="M15.5 15.9637C15.5 15.7752 15.6528 15.6224 15.8413 15.6224H16.3377C16.5598 15.6224 16.7729 15.7107 16.93 15.8678C17.0871 16.0249 17.1753 16.2379 17.1753 16.4601C17.1753 16.6823 17.0871 16.8953 16.93 17.0524C16.8644 17.118 16.7891 17.1716 16.7075 17.2117L17.1071 17.7445C17.2202 17.8953 17.1896 18.1092 17.0388 18.2223C16.888 18.3354 16.6741 18.3048 16.561 18.1541L16.1825 17.6494V17.9493C16.1825 18.1378 16.0298 18.2906 15.8413 18.2906C15.6528 18.2906 15.5 18.1378 15.5 17.9493V15.9637ZM16.1825 16.6152V16.305H16.3377C16.3788 16.305 16.4183 16.3213 16.4474 16.3504C16.4764 16.3795 16.4928 16.419 16.4928 16.4601C16.4928 16.5012 16.4764 16.5407 16.4474 16.5698C16.4183 16.5989 16.3788 16.6152 16.3377 16.6152H16.1825Z" fill="#808080"/>
<path fill-rule="evenodd" clip-rule="evenodd" d="M5 4C4.73478 4 4.48043 4.10536 4.29289 4.29289C4.10536 4.48043 4 4.73478 4 5V19.1315L5.4453 18.1679C5.84192 17.9035 6.37004 17.9558 6.70711 18.2929L8 19.5858L9.29289 18.2929C9.68342 17.9024 10.3166 17.9024 10.7071 18.2929C11.0976 18.6834 11.0976 19.3166 10.7071 19.7071L8.70711 21.7071C8.31658 22.0976 7.68342 22.0976 7.29289 21.7071L5.87258 20.2868L3.5547 21.8321C3.24784 22.0366 2.8533 22.0557 2.52814 21.8817C2.20298 21.7077 2 21.3688 2 21V5C2 4.20435 2.31607 3.44129 2.87868 2.87868C3.44129 2.31607 4.20435 2 5 2H15C15.7956 2 16.5587 2.31607 17.1213 2.87868C17.6839 3.44129 18 4.20435 18 5V9C18 9.55228 17.5523 10 17 10C16.4477 10 16 9.55228 16 9V5C16 4.73478 15.8946 4.48043 15.7071 4.29289C15.5196 4.10536 15.2652 4 15 4H5Z" fill="#1A1A1A"/>
<path fill-rule="evenodd" clip-rule="evenodd" d="M6 15C6 14.4477 6.44772 14 7 14H9C9.55228 14 10 14.4477 10 15C10 15.5523 9.55228 16 9 16H7C6.44772 16 6 15.5523 6 15Z" fill="#808080"/>
<path fill-rule="evenodd" clip-rule="evenodd" d="M6 11C6 10.4477 6.44772 10 7 10H13C13.5523 10 14 10.4477 14 11C14 11.5523 13.5523 12 13 12H7C6.44772 12 6 11.5523 6 11Z" fill="#808080"/>
<path fill-rule="evenodd" clip-rule="evenodd" d="M6 7C6 6.44772 6.44772 6 7 6H13C13.5523 6 14 6.44772 14 7C14 7.55228 13.5523 8 13 8H7C6.44772 8 6 7.55228 6 7Z" fill="#808080"/>
</svg>
