<svg width="24" height="24" viewBox="0 0 24 24" fill="none" xmlns="http://www.w3.org/2000/svg">
<path fill-rule="evenodd" clip-rule="evenodd" d="M4.71429 4C4.53682 4 4.35894 4.07277 4.22195 4.21483C4.08376 4.35814 4 4.56 4 4.77778V17.0929L5.00275 16.3997C5.40573 16.1211 5.95121 16.1754 6.29127 16.5281L7.28571 17.5594L8.28016 16.5281C8.66352 16.1305 9.29658 16.119 9.69414 16.5024C10.0917 16.8857 10.1032 17.5188 9.71984 17.9164L8.00556 19.6941C7.81709 19.8896 7.55724 20 7.28571 20C7.01419 20 6.75434 19.8896 6.56587 19.6941L5.4413 18.5279L3.56868 19.8226C3.26283 20.034 2.86491 20.0583 2.53561 19.8856C2.20631 19.713 2 19.3718 2 19V4.77778C2 4.05256 2.27746 3.35006 2.78226 2.82656C3.28825 2.30183 3.98244 2 4.71429 2H13.2857C14.0176 2 14.7118 2.30183 15.2177 2.82656C15.7225 3.35006 16 4.05256 16 4.77778V9C16 9.55228 15.5523 10 15 10C14.4477 10 14 9.55228 14 9V4.77778C14 4.56 13.9162 4.35814 13.7781 4.21483C13.6411 4.07277 13.4632 4 13.2857 4H4.71429Z" fill="#1A1A1A"/>
<path fill-rule="evenodd" clip-rule="evenodd" d="M5.42859 13.6667C5.42859 13.1144 5.8763 12.6667 6.42859 12.6667H8.14287C8.69516 12.6667 9.14287 13.1144 9.14287 13.6667C9.14287 14.219 8.69516 14.6667 8.14287 14.6667H6.42859C5.8763 14.6667 5.42859 14.219 5.42859 13.6667Z" fill="#808080"/>
<path fill-rule="evenodd" clip-rule="evenodd" d="M5.42859 10.1111C5.42859 9.55883 5.8763 9.11111 6.42859 9.11111H11.5714C12.1237 9.11111 12.5714 9.55883 12.5714 10.1111C12.5714 10.6634 12.1237 11.1111 11.5714 11.1111H6.42859C5.8763 11.1111 5.42859 10.6634 5.42859 10.1111Z" fill="#808080"/>
<path fill-rule="evenodd" clip-rule="evenodd" d="M5.42859 6.55556C5.42859 6.00327 5.8763 5.55556 6.42859 5.55556H11.5714C12.1237 5.55556 12.5714 6.00327 12.5714 6.55556C12.5714 7.10784 12.1237 7.55556 11.5714 7.55556H6.42859C5.8763 7.55556 5.42859 7.10784 5.42859 6.55556Z" fill="#808080"/>
<path fill-rule="evenodd" clip-rule="evenodd" d="M15.125 14.8889C15.0957 14.8889 15.0652 14.9006 15.0408 14.9254C15.016 14.9505 15 14.9872 15 15.0278V16.0556H20.5V15.0278C20.5 14.9872 20.484 14.9505 20.4592 14.9254C20.4348 14.9006 20.4043 14.8889 20.375 14.8889H15.125ZM22 15.0278C22 14.5969 21.8316 14.1813 21.5282 13.8731C21.2244 13.5645 20.8098 13.3889 20.375 13.3889H15.125C14.6902 13.3889 14.2756 13.5645 13.9718 13.8731C13.6684 14.1813 13.5 14.5969 13.5 15.0278V20.3611C13.5 20.792 13.6684 21.2076 13.9718 21.5158C14.2756 21.8244 14.6902 22 15.125 22H20.375C20.8098 22 21.2244 21.8244 21.5282 21.5158C21.8316 21.2076 22 20.792 22 20.3611V15.0278ZM20.5 17.5556H15V20.3611C15 20.4017 15.016 20.4383 15.0408 20.4635C15.0652 20.4883 15.0957 20.5 15.125 20.5H20.375C20.4043 20.5 20.4348 20.4883 20.4592 20.4635C20.484 20.4383 20.5 20.4017 20.5 20.3611V17.5556Z" fill="#1A1A1A"/>
<path fill-rule="evenodd" clip-rule="evenodd" d="M16 12.5C16.4142 12.5 16.75 12.8358 16.75 13.25V15.0278C16.75 15.442 16.4142 15.7778 16 15.7778C15.5858 15.7778 15.25 15.442 15.25 15.0278V13.25C15.25 12.8358 15.5858 12.5 16 12.5ZM19.5 12.5C19.9142 12.5 20.25 12.8358 20.25 13.25V15.0278C20.25 15.442 19.9142 15.7778 19.5 15.7778C19.0858 15.7778 18.75 15.442 18.75 15.0278V13.25C18.75 12.8358 19.0858 12.5 19.5 12.5Z" fill="#808080"/>
</svg>
