<svg width="24" height="24" viewBox="0 0 24 24" fill="none" xmlns="http://www.w3.org/2000/svg">
<path fill-rule="evenodd" clip-rule="evenodd" d="M7.42494 4.22243C9.15328 3.22229 11.162 2.8191 13.1416 3.07496C15.1212 3.33081 16.9619 4.23153 18.3802 5.63835C19.7985 7.04517 20.7156 8.88005 20.9904 10.8604C21.0664 11.4083 20.6846 11.9142 20.1375 11.9903C19.5905 12.0665 19.0854 11.684 19.0094 11.1361C18.795 9.59103 18.0795 8.15942 16.9729 7.06179C15.8663 5.96416 14.4302 5.26141 12.8856 5.06178C11.3411 4.86216 9.77388 5.17674 8.4254 5.95706C7.53813 6.4705 6.77794 7.16683 6.19113 7.99328H7.99997C8.55225 7.99328 8.99996 8.44173 8.99996 8.99493C8.99996 9.54812 8.55225 9.99658 7.99997 9.99658H4.52236C4.50721 9.99693 4.49202 9.99693 4.47681 9.99658H3.99999C3.44771 9.99658 3 9.54812 3 8.99493V4.98833C3 4.43514 3.44771 3.98668 3.99999 3.98668C4.55227 3.98668 4.99999 4.43514 4.99999 4.98833V6.26329C5.67854 5.45158 6.49758 4.75906 7.42494 4.22243Z" fill="#1A1A1A"/>
<path fill-rule="evenodd" clip-rule="evenodd" d="M3.86235 12.0095C4.40937 11.9334 4.91445 12.3158 4.99047 12.8638C5.20483 14.4088 5.92041 15.8405 7.02698 16.9381C8.13355 18.0357 9.56971 18.7385 11.1142 18.9381C12.6588 19.1377 14.226 18.8231 15.5745 18.0428C16.4618 17.5294 17.2219 16.833 17.8087 16.0066H15.9999C15.4476 16.0066 14.9999 15.5581 14.9999 15.0049C14.9999 14.4518 15.4476 14.0033 15.9999 14.0033H19.4775C19.4927 14.0029 19.5079 14.0029 19.5231 14.0033H19.9999C20.5522 14.0033 20.9999 14.4518 20.9999 15.0049V19.0115C20.9999 19.5647 20.5522 20.0132 19.9999 20.0132C19.4476 20.0132 18.9999 19.5647 18.9999 19.0115V17.7366C18.3213 18.5483 17.5023 19.2408 16.5749 19.7774C14.8466 20.7776 12.8379 21.1808 10.8583 20.9249C8.87869 20.6691 7.03797 19.7684 5.6197 18.3615C4.20142 16.9547 3.28427 15.1198 3.00952 13.1395C2.9335 12.5916 3.31532 12.0857 3.86235 12.0095Z" fill="#1A1A1A"/>
</svg>
