<svg width="24" height="24" viewBox="0 0 24 24" fill="none" xmlns="http://www.w3.org/2000/svg">
<path fill-rule="evenodd" clip-rule="evenodd" d="M4.87868 10.8787C5.44129 10.3161 6.20435 10 7 10C7.79565 10 8.55871 10.3161 9.12132 10.8787C9.68393 11.4413 10 12.2043 10 13C10 13.7957 9.68393 14.5587 9.12132 15.1213C8.55871 15.6839 7.79565 16 7 16C6.20435 16 5.44129 15.6839 4.87868 15.1213C4.31607 14.5587 4 13.7957 4 13C4 12.2043 4.31607 11.4413 4.87868 10.8787ZM7 12C6.73478 12 6.48043 12.1054 6.29289 12.2929C6.10536 12.4804 6 12.7348 6 13C6 13.2652 6.10536 13.5196 6.29289 13.7071C6.48043 13.8946 6.73478 14 7 14C7.26522 14 7.51957 13.8946 7.70711 13.7071C7.89464 13.5196 8 13.2652 8 13C8 12.7348 7.89464 12.4804 7.70711 12.2929C7.51957 12.1054 7.26522 12 7 12Z" fill="#1A1A1A"/>
<path fill-rule="evenodd" clip-rule="evenodd" d="M5 19C4.73478 19 4.48043 19.1054 4.29289 19.2929C4.10536 19.4804 4 19.7348 4 20V21C4 21.5523 3.55228 22 3 22C2.44772 22 2 21.5523 2 21V20C2 19.2043 2.31607 18.4413 2.87868 17.8787C3.44129 17.3161 4.20435 17 5 17H9C9.79565 17 10.5587 17.3161 11.1213 17.8787C11.6839 18.4413 12 19.2043 12 20V21C12 21.5523 11.5523 22 11 22C10.4477 22 10 21.5523 10 21V20C10 19.7348 9.89464 19.4804 9.70711 19.2929C9.51957 19.1054 9.26522 19 9 19H5Z" fill="#1A1A1A"/>
<path fill-rule="evenodd" clip-rule="evenodd" d="M13 4V9.5H14.7C15.2347 9.5 15.6714 9.91968 15.6987 10.4476L17.5862 9.58963C17.7162 9.53056 17.8572 9.5 18 9.5H20V4H13ZM13.7 11.5H12.75C12.2859 11.5 11.8408 11.3156 11.5126 10.9874C11.1844 10.6592 11 10.2141 11 9.75V3.75C11 3.28587 11.1844 2.84075 11.5126 2.51256C11.8408 2.18437 12.2859 2 12.75 2H20.25C20.7141 2 21.1592 2.18437 21.4874 2.51256C21.8156 2.84075 22 3.28587 22 3.75V9.75C22 10.2141 21.8156 10.6592 21.4874 10.9874C21.1592 11.3156 20.7141 11.5 20.25 11.5H18.2166L15.1138 12.9104C14.8043 13.0511 14.4445 13.0248 14.1586 12.8408C13.8728 12.6567 13.7 12.34 13.7 12V11.5Z" fill="#808080"/>
</svg>
