<svg width="24" height="24" viewBox="0 0 24 24" fill="none" xmlns="http://www.w3.org/2000/svg">
<path fill-rule="evenodd" clip-rule="evenodd" d="M12 22C17.5228 22 22 17.5228 22 12C22 6.47715 17.5228 2 12 2C6.47715 2 2 6.47715 2 12C2 17.5228 6.47715 22 12 22ZM10.084 7.36326C11.3233 6.86609 12.7102 6.87975 13.9393 7.4012C15.1684 7.9226 16.138 8.90851 16.6361 10.1409C17.1342 11.3731 17.1205 12.7518 16.5981 13.974C16.2879 14.6996 15.8134 15.3351 15.2197 15.8358V14.2573C15.2197 13.705 14.772 13.2573 14.2197 13.2573C13.6674 13.2573 13.2197 13.705 13.2197 14.2573V17.5656C13.2194 17.5809 13.2194 17.5963 13.2197 17.6116V18C13.2197 18.5523 13.6674 19 14.2197 19H17.9764C18.5287 19 18.9764 18.5523 18.9764 18C18.9764 17.4477 18.5287 17 17.9764 17H16.9092C17.5535 16.3656 18.0751 15.607 18.4371 14.7601C19.1687 13.0485 19.1879 11.1171 18.4903 9.39139C17.7928 7.66575 16.4363 6.28799 14.7204 5.56004C13.0047 4.83213 11.0692 4.81309 9.33932 5.50706C8.82674 5.71269 8.57791 6.29491 8.78355 6.80749C8.98918 7.32006 9.57141 7.56889 10.084 7.36326ZM8.17961 8.38883C8.17961 7.83654 7.7319 7.38883 7.17961 7.38883C6.62733 7.38883 6.17961 7.83654 6.17961 8.38883V8.39631C6.17961 8.9486 6.62733 9.39631 7.17961 9.39631C7.7319 9.39631 8.17961 8.9486 8.17961 8.39631V8.38883ZM7 11.2632C7 10.7109 6.55228 10.2632 6 10.2632C5.44772 10.2632 5 10.7109 5 11.2632V11.2707C5 11.823 5.44772 12.2707 6 12.2707C6.55228 12.2707 7 11.823 7 11.2707V11.2632ZM7.42827 14.3322C7.42827 13.7799 6.98055 13.3322 6.42827 13.3322C5.87598 13.3322 5.42827 13.7799 5.42827 14.3322V14.3397C5.42827 14.892 5.87598 15.3397 6.42827 15.3397C6.98055 15.3397 7.42827 14.892 7.42827 14.3397V14.3322ZM9.32917 16.7799C9.32917 16.2276 8.88146 15.7799 8.32917 15.7799C7.77689 15.7799 7.32917 16.2276 7.32917 16.7799V16.7874C7.32917 17.3397 7.77689 17.7874 8.32917 17.7874C8.88146 17.7874 9.32917 17.3397 9.32917 16.7874V16.7799ZM12.2143 17.9551C12.2143 17.4028 11.7666 16.9551 11.2143 16.9551C10.6621 16.9551 10.2143 17.4028 10.2143 17.9551V17.9626C10.2143 18.5149 10.6621 18.9626 11.2143 18.9626C11.7666 18.9626 12.2143 18.5149 12.2143 17.9626V17.9551Z" fill="#1A1A1A"/>
</svg>
