<svg width="24" height="24" viewBox="0 0 24 24" fill="none" xmlns="http://www.w3.org/2000/svg">
<path fill-rule="evenodd" clip-rule="evenodd" d="M14.7135 5.55768C12.995 4.82832 11.0562 4.80923 9.3236 5.5046C8.81048 5.71054 8.227 5.4629 8.02038 4.95148C7.81375 4.44007 8.06221 3.85853 8.57534 3.65259C10.8008 2.75943 13.291 2.78395 15.4983 3.72077C17.7056 4.65759 19.4491 6.42995 20.3452 8.64797C21.2414 10.866 21.2168 13.348 20.2768 15.5479C19.6966 16.9059 18.797 18.0877 17.67 19.0035H19.967C20.5202 19.0035 20.9686 19.4504 20.9686 20.0017C20.9686 20.5531 20.5202 21 19.967 21H14.959C14.4059 21 13.9574 20.5531 13.9574 20.0017V19.4759C13.9571 19.4606 13.9571 19.4453 13.9574 19.4301V15.0104C13.9574 14.4591 14.4059 14.0122 14.959 14.0122C15.5122 14.0122 15.9606 14.4591 15.9606 15.0104V17.7883C17.0464 17.0398 17.9083 15.9955 18.4338 14.7657C19.1656 13.0529 19.1847 11.1206 18.487 9.39375C17.7893 7.66691 16.432 6.28704 14.7135 5.55768Z" fill="#1A1A1A"/>
<path fill-rule="evenodd" clip-rule="evenodd" d="M5.5741 6.1858C6.12726 6.1858 6.57569 6.63051 6.57569 7.17909V7.18903C6.57569 7.73761 6.12726 8.18232 5.5741 8.18232C5.02093 8.18232 4.5725 7.73761 4.5725 7.18903V7.17909C4.5725 6.63051 5.02093 6.1858 5.5741 6.1858Z" fill="#1A1A1A"/>
<path fill-rule="evenodd" clip-rule="evenodd" d="M4.00159 10.0191C4.55476 10.0191 5.00319 10.4638 5.00319 11.0124V11.0223C5.00319 11.5709 4.55476 12.0156 4.00159 12.0156C3.44843 12.0156 3 11.5709 3 11.0223V11.0124C3 10.4638 3.44843 10.0191 4.00159 10.0191Z" fill="#1A1A1A"/>
<path fill-rule="evenodd" clip-rule="evenodd" d="M4.5725 14.112C5.12567 14.112 5.5741 14.5567 5.5741 15.1053V15.1152C5.5741 15.6638 5.12567 16.1085 4.5725 16.1085C4.01934 16.1085 3.57091 15.6638 3.57091 15.1152V15.1053C3.57091 14.5567 4.01934 14.112 4.5725 14.112Z" fill="#1A1A1A"/>
<path fill-rule="evenodd" clip-rule="evenodd" d="M7.10654 17.3763C7.6597 17.3763 8.10813 17.821 8.10813 18.3696V18.3795C8.10813 18.9281 7.6597 19.3728 7.10654 19.3728C6.55337 19.3728 6.10494 18.9281 6.10494 18.3795V18.3696C6.10494 17.821 6.55337 17.3763 7.10654 17.3763Z" fill="#1A1A1A"/>
<path fill-rule="evenodd" clip-rule="evenodd" d="M10.9527 18.9436C11.5058 18.9436 11.9543 19.3883 11.9543 19.9369V19.9468C11.9543 20.4954 11.5058 20.9401 10.9527 20.9401C10.3995 20.9401 9.95107 20.4954 9.95107 19.9468V19.9369C9.95107 19.3883 10.3995 18.9436 10.9527 18.9436Z" fill="#1A1A1A"/>
</svg>
