<svg width="24" height="24" viewBox="0 0 24 24" fill="none" xmlns="http://www.w3.org/2000/svg">
<path fill-rule="evenodd" clip-rule="evenodd" d="M14.5564 4.95292C13.2034 4.17369 11.6309 3.85955 10.0812 4.05889C8.53149 4.25824 7.09051 4.96001 5.98023 6.0561C5.73841 6.29483 5.51521 6.54936 5.31177 6.81743C4.97744 7.25798 4.34817 7.34491 3.90626 7.01162C3.46435 6.67832 3.37714 6.05099 3.71147 5.61045C3.97224 5.26684 4.25832 4.9406 4.56823 4.63465C5.99126 3.2298 7.83815 2.33035 9.82441 2.07485C11.8107 1.81935 13.8261 2.22198 15.5602 3.22071C16.4907 3.75659 17.3125 4.44814 17.9933 5.25872V3.98554C17.9933 3.43313 18.4425 2.9853 18.9967 2.9853C19.5508 2.9853 20 3.43313 20 3.98554V7.98652C20 8.53894 19.5508 8.98677 18.9967 8.98677H18.5182C18.503 8.98712 18.4877 8.98711 18.4725 8.98677H14.9833C14.4291 8.98677 13.9799 8.53894 13.9799 7.98652C13.9799 7.4341 14.4291 6.98628 14.9833 6.98628H16.7982C16.2094 6.16099 15.4467 5.46563 14.5564 4.95292Z" fill="#1A1A1A"/>
<path fill-rule="evenodd" clip-rule="evenodd" d="M3.57508 13.0877C4.12921 13.0877 4.57843 13.5356 4.57843 14.088V14.098C4.57843 14.6504 4.12921 15.0982 3.57508 15.0982C3.02095 15.0982 2.57173 14.6504 2.57173 14.098V14.088C2.57173 13.5356 3.02095 13.0877 3.57508 13.0877Z" fill="#1A1A1A"/>
<path fill-rule="evenodd" clip-rule="evenodd" d="M3.00335 8.98682C3.55748 8.98682 4.0067 9.43464 4.0067 9.98706V9.99706C4.0067 10.5495 3.55748 10.9973 3.00335 10.9973C2.44921 10.9973 2 10.5495 2 9.99706V9.98706C2 9.43464 2.44921 8.98682 3.00335 8.98682ZM6.11358 16.3586C6.66771 16.3586 7.11693 16.8064 7.11693 17.3589V17.3689C7.11693 17.9213 6.66771 18.3691 6.11358 18.3691C5.55945 18.3691 5.11023 17.9213 5.11023 17.3689V17.3589C5.11023 16.8064 5.55945 16.3586 6.11358 16.3586Z" fill="#1A1A1A"/>
<path fill-rule="evenodd" clip-rule="evenodd" d="M17.25 14C15.4551 14 14 15.4551 14 17.25C14 19.0449 15.4551 20.5 17.25 20.5C19.0449 20.5 20.5 19.0449 20.5 17.25C20.5 15.4551 19.0449 14 17.25 14ZM12.5 17.25C12.5 14.6266 14.6266 12.5 17.25 12.5C19.8734 12.5 22 14.6266 22 17.25C22 19.8734 19.8734 22 17.25 22C14.6266 22 12.5 19.8734 12.5 17.25Z" fill="#1A1A1A"/>
<path fill-rule="evenodd" clip-rule="evenodd" d="M17.25 14.7469C17.5952 14.7469 17.875 15.0267 17.875 15.3719V17.2469C17.875 17.592 17.5952 17.8719 17.25 17.8719C16.9048 17.8719 16.625 17.592 16.625 17.2469V15.3719C16.625 15.0267 16.9048 14.7469 17.25 14.7469ZM17.25 18.4969C17.5952 18.4969 17.875 18.7767 17.875 19.1219V19.1281C17.875 19.4733 17.5952 19.7531 17.25 19.7531C16.9048 19.7531 16.625 19.4733 16.625 19.1281V19.1219C16.625 18.7767 16.9048 18.4969 17.25 18.4969Z" fill="#808080"/>
</svg>
