<svg width="24" height="24" viewBox="0 0 24 24" fill="none" xmlns="http://www.w3.org/2000/svg">
<path d="M2 4.2C2 3.53625 2.55859 3 3.25 3H6.375C9.48047 3 12 5.41875 12 8.4C12 10.605 10.625 12.4988 8.65234 13.3388L10.6602 18.1538C10.918 18.7688 10.6055 19.4663 9.96484 19.7138C9.32422 19.9613 8.59766 19.6613 8.33984 19.0463L6.15234 13.8H4.5V18.6C4.5 19.2638 3.94141 19.8 3.25 19.8C2.55859 19.8 2 19.2638 2 18.6V12.6V4.2ZM4.5 11.4H6.375C8.10156 11.4 9.5 10.0575 9.5 8.4C9.5 6.7425 8.10156 5.4 6.375 5.4H4.5V11.4ZM14.5 7.8H17.625C20.043 7.8 22 9.67875 22 12C22 14.3212 20.043 16.2 17.625 16.2H15.75V19.8C15.75 20.4638 15.1914 21 14.5 21C13.8086 21 13.25 20.4638 13.25 19.8V9C13.25 8.33625 13.8086 7.8 14.5 7.8ZM17.625 13.8C18.6602 13.8 19.5 12.9937 19.5 12C19.5 11.0063 18.6602 10.2 17.625 10.2H15.75V13.8H17.625Z" fill="#1A1A1A"/>
</svg>
