<svg width="24" height="24" viewBox="0 0 24 24" fill="none" xmlns="http://www.w3.org/2000/svg">
<path fill-rule="evenodd" clip-rule="evenodd" d="M7 4C6.73478 4 6.48043 4.10536 6.29289 4.29289C6.10536 4.48043 6 4.73478 6 5V19C6 19.2652 6.10536 19.5196 6.29289 19.7071C6.48043 19.8946 6.73478 20 7 20H12C12.5523 20 13 20.4477 13 21C13 21.5523 12.5523 22 12 22H7C6.20435 22 5.44129 21.6839 4.87868 21.1213C4.31607 20.5587 4 19.7957 4 19V5C4 4.20435 4.31607 3.44129 4.87868 2.87868C5.44129 2.31607 6.20435 2 7 2H15C15.7956 2 16.5587 2.31607 17.1213 2.87868C17.6839 3.44129 18 4.20435 18 5V11C18 11.5523 17.5523 12 17 12C16.4477 12 16 11.5523 16 11V5C16 4.73478 15.8946 4.48043 15.7071 4.29289C15.5196 4.10536 15.2652 4 15 4H7Z" fill="#1A1A1A"/>
<path fill-rule="evenodd" clip-rule="evenodd" d="M7.58579 5.58579C7.96086 5.21071 8.46957 5 9 5H13C13.5304 5 14.0391 5.21071 14.4142 5.58579C14.7893 5.96086 15 6.46957 15 7V9C15 9.53043 14.7893 10.0391 14.4142 10.4142C14.0391 10.7893 13.5304 11 13 11H9C8.46957 11 7.96086 10.7893 7.58579 10.4142C7.21071 10.0391 7 9.53043 7 9V7C7 6.46957 7.21071 5.96086 7.58579 5.58579ZM13 7L9 7L9 9H13V7Z" fill="#1A1A1A"/>
<path fill-rule="evenodd" clip-rule="evenodd" d="M8 13C8.55228 13 9 13.4477 9 14V14.01C9 14.5623 8.55228 15.01 8 15.01C7.44772 15.01 7 14.5623 7 14.01V14C7 13.4477 7.44772 13 8 13Z" fill="#808080"/>
<path fill-rule="evenodd" clip-rule="evenodd" d="M11 13C11.5523 13 12 13.4477 12 14V14.01C12 14.5623 11.5523 15.01 11 15.01C10.4477 15.01 10 14.5623 10 14.01V14C10 13.4477 10.4477 13 11 13ZM14 13C14.5523 13 15 13.4477 15 14V14.01C15 14.5623 14.5523 15.01 14 15.01C13.4477 15.01 13 14.5623 13 14.01V14C13 13.4477 13.4477 13 14 13Z" fill="#808080"/>
<path fill-rule="evenodd" clip-rule="evenodd" d="M8 16C8.55228 16 9 16.4477 9 17V17.01C9 17.5623 8.55228 18.01 8 18.01C7.44772 18.01 7 17.5623 7 17.01V17C7 16.4477 7.44772 16 8 16Z" fill="#808080"/>
<path fill-rule="evenodd" clip-rule="evenodd" d="M11 16C11.5523 16 12 16.4477 12 17V17.01C12 17.5623 11.5523 18.01 11 18.01C10.4477 18.01 10 17.5623 10 17.01V17C10 16.4477 10.4477 16 11 16Z" fill="#808080"/>
<circle cx="17.6276" cy="17.0877" r="2.22768" stroke="#1A1A1A" stroke-width="2"/>
<rect x="20.2847" y="19.5776" width="2.42076" height="1" rx="0.5" transform="rotate(45 20.2847 19.5776)" fill="#808080"/>
</svg>
