<svg width="24" height="24" viewBox="0 0 24 24" fill="none" xmlns="http://www.w3.org/2000/svg">
<path fill-rule="evenodd" clip-rule="evenodd" d="M10.1112 14.6667C9.90487 14.6667 9.70704 14.7486 9.56118 14.8945C9.41532 15.0403 9.33337 15.2382 9.33337 15.4444V19C9.33337 19.5523 8.88566 20 8.33337 20C7.78109 20 7.33337 19.5523 7.33337 19V15.4444C7.33337 14.7077 7.62603 14.0012 8.14697 13.4803C8.6679 12.9593 9.37444 12.6667 10.1112 12.6667H11.8889C12.2178 12.6667 12.5408 12.725 12.8438 12.836C13.3624 13.0258 13.629 13.6001 13.4391 14.1188C13.2492 14.6374 12.6749 14.9039 12.1563 14.7141C12.0714 14.683 11.9811 14.6667 11.8889 14.6667H10.1112Z" fill="#808080"/>
<path fill-rule="evenodd" clip-rule="evenodd" d="M3.88335 2.55279C4.05274 2.214 4.39901 2 4.77778 2H17.2222C17.601 2 17.9473 2.214 18.1166 2.55279L19.8944 6.10834C19.9639 6.2472 20 6.40031 20 6.55556V7.44444C20 8.4169 19.6137 9.34954 18.9261 10.0372C18.2384 10.7248 17.3058 11.1111 16.3333 11.1111C15.3609 11.1111 14.4282 10.7248 13.7406 10.0372C13.7156 10.0121 13.6909 9.98675 13.6667 9.96106C13.6424 9.98675 13.6178 10.0121 13.5927 10.0372C12.9051 10.7248 11.9725 11.1111 11 11.1111C10.0275 11.1111 9.09491 10.7248 8.40728 10.0372C8.38223 10.0121 8.35758 9.98675 8.33333 9.96106C8.30909 9.98675 8.28444 10.0121 8.25939 10.0372C7.59799 10.6986 6.70993 11.0812 5.77778 11.1094V18H11C11.5523 18 12 18.4477 12 19C12 19.5523 11.5523 20 11 20H4.77778C4.22549 20 3.77778 19.5523 3.77778 19V10.5872C3.5237 10.4345 3.28706 10.2503 3.07394 10.0372C2.38631 9.34954 2 8.41691 2 7.44444V6.55556C2 6.40031 2.03615 6.2472 2.10557 6.10834L3.88335 2.55279ZM9.33704 7.55556C9.36384 7.95701 9.53522 8.33669 9.82149 8.62296C10.134 8.93552 10.558 9.11111 11 9.11111C11.442 9.11111 11.866 8.93552 12.1785 8.62296C12.4648 8.33669 12.6362 7.95701 12.663 7.55556H9.33704ZM14.6704 7.55556C14.6972 7.95701 14.8686 8.33669 15.1548 8.62296C15.4674 8.93552 15.8913 9.11111 16.3333 9.11111C16.7754 9.11111 17.1993 8.93552 17.5118 8.62296C17.7981 8.33669 17.9695 7.95701 17.9963 7.55556H14.6704ZM17.382 5.55556H4.61803L5.39581 4H16.6042L17.382 5.55556ZM4.0037 7.55556H7.32963C7.30282 7.95701 7.13145 8.33669 6.84518 8.62296C6.53262 8.93552 6.1087 9.11111 5.66667 9.11111C5.22464 9.11111 4.80072 8.93552 4.48816 8.62296C4.20189 8.33669 4.03051 7.95701 4.0037 7.55556Z" fill="#1A1A1A"/>
<circle cx="17.6277" cy="17.0877" r="2.22768" stroke="#1A1A1A" stroke-width="2"/>
<rect x="20.2848" y="19.5776" width="2.42076" height="1" rx="0.5" transform="rotate(45 20.2848 19.5776)" fill="#808080"/>
</svg>
