<svg width="24" height="24" viewBox="0 0 24 24" fill="none" xmlns="http://www.w3.org/2000/svg">
<path fill-rule="evenodd" clip-rule="evenodd" d="M14.9525 9.04749C15.343 9.43801 15.343 10.0712 14.9525 10.4617L10.8997 14.5145C10.5092 14.905 9.87604 14.905 9.48552 14.5145C9.095 14.1239 9.095 13.4908 9.48552 13.1002L13.5383 9.04749C13.9288 8.65696 14.562 8.65696 14.9525 9.04749Z" fill="#808080"/>
<path fill-rule="evenodd" clip-rule="evenodd" d="M21.7071 2.29289C21.9813 2.56705 22.0722 2.97497 21.9406 3.33964L15.5544 21.0244C15.545 21.0505 15.5345 21.0761 15.5229 21.1013C15.4001 21.3695 15.2028 21.5967 14.9545 21.756C14.7063 21.9153 14.4176 22 14.1226 22C13.8276 22 13.5389 21.9153 13.2907 21.756C13.0484 21.6006 12.8547 21.3804 12.7313 21.1207L9.4473 14.5527L2.87934 11.2687C2.6196 11.1453 2.39945 10.9516 2.24399 10.7093C2.08468 10.4611 2 10.1724 2 9.8774C2 9.58245 2.08468 9.29369 2.24399 9.04546C2.40329 8.79722 2.63051 8.59994 2.89865 8.47707C2.92386 8.46552 2.94953 8.45502 2.97561 8.4456L20.6604 2.05944C21.025 1.92776 21.4329 2.01873 21.7071 2.29289ZM4.70735 9.94666L10.6399 12.9129C10.8334 13.0097 10.9903 13.1666 11.0871 13.3601L14.0533 19.2926L19.3359 4.66414L4.70735 9.94666Z" fill="#1A1A1A"/>
</svg>
