<svg width="24" height="24" viewBox="0 0 24 24" fill="none" xmlns="http://www.w3.org/2000/svg">
<path d="M5 20V12C5 11.4477 5.44772 11 6 11C6.55228 11 7 11.4477 7 12V20C7 20.5523 6.55228 21 6 21C5.44772 21 5 20.5523 5 20ZM5 8V4C5 3.44772 5.44772 3 6 3C6.55228 3 7 3.44772 7 4V8C7 8.55228 6.55228 9 6 9C5.44772 9 5 8.55228 5 8Z" fill="#1A1A1A"/>
<path d="M11 20V18C11 17.4477 11.4477 17 12 17C12.5523 17 13 17.4477 13 18V20C13 20.5523 12.5523 21 12 21C11.4477 21 11 20.5523 11 20ZM11 14V4C11 3.44772 11.4477 3 12 3C12.5523 3 13 3.44772 13 4V14C13 14.5523 12.5523 15 12 15C11.4477 15 11 14.5523 11 14Z" fill="#1A1A1A"/>
<path d="M17 20V9C17 8.44772 17.4477 8 18 8C18.5523 8 19 8.44772 19 9V20C19 20.5523 18.5523 21 18 21C17.4477 21 17 20.5523 17 20ZM17 5V4C17 3.44772 17.4477 3 18 3C18.5523 3 19 3.44772 19 4V5C19 5.55228 18.5523 6 18 6C17.4477 6 17 5.55228 17 5Z" fill="#1A1A1A"/>
<path d="M6.99512 9.90137C6.97243 9.67237 6.87117 9.45711 6.70703 9.29297C6.54289 9.12883 6.32763 9.02757 6.09863 9.00488L6 9C5.73478 9 5.48051 9.10543 5.29297 9.29297C5.10543 9.48051 5 9.73478 5 10L5.00488 10.0986C5.02757 10.3276 5.12883 10.5429 5.29297 10.707C5.48051 10.8946 5.73478 11 6 11C6.26522 11 6.51949 10.8946 6.70703 10.707C6.89457 10.5195 7 10.2652 7 10L6.99512 9.90137ZM8.98535 10.2969C8.91709 10.9835 8.61329 11.6289 8.12109 12.1211C7.55849 12.6837 6.79565 13 6 13C5.20435 13 4.44151 12.6837 3.87891 12.1211C3.38671 11.6289 3.08291 10.9835 3.01465 10.2969L3 10C3 9.20435 3.3163 8.44152 3.87891 7.87891C4.44151 7.3163 5.20435 7 6 7L6.29688 7.01465C6.98351 7.08291 7.6289 7.38671 8.12109 7.87891C8.6837 8.44152 9 9.20435 9 10L8.98535 10.2969Z" fill="#808080"/>
<path d="M13 16C13 15.7348 12.8946 15.4805 12.707 15.293C12.5195 15.1054 12.2652 15 12 15C11.7348 15 11.4805 15.1054 11.293 15.293C11.1054 15.4805 11 15.7348 11 16C11 16.2652 11.1054 16.5195 11.293 16.707C11.4805 16.8946 11.7348 17 12 17C12.2652 17 12.5195 16.8946 12.707 16.707C12.8946 16.5195 13 16.2652 13 16ZM15 16C15 16.7957 14.6837 17.5585 14.1211 18.1211C13.5585 18.6837 12.7957 19 12 19C11.2043 19 10.4415 18.6837 9.87891 18.1211C9.3163 17.5585 9 16.7957 9 16C9 15.2043 9.3163 14.4415 9.87891 13.8789C10.4415 13.3163 11.2043 13 12 13C12.7957 13 13.5585 13.3163 14.1211 13.8789C14.6837 14.4415 15 15.2043 15 16Z" fill="#808080"/>
<path d="M19 7C19 6.73478 18.8946 6.48051 18.707 6.29297C18.5429 6.12883 18.3276 6.02757 18.0986 6.00488L18 6C17.7348 6 17.4805 6.10543 17.293 6.29297C17.1054 6.48051 17 6.73478 17 7L17.0049 7.09863C17.0276 7.32763 17.1288 7.54289 17.293 7.70703C17.4805 7.89457 17.7348 8 18 8C18.2652 8 18.5195 7.89457 18.707 7.70703C18.8946 7.51949 19 7.26522 19 7ZM21 7C21 7.79565 20.6837 8.55849 20.1211 9.12109C19.5585 9.6837 18.7957 10 18 10C17.2043 10 16.4415 9.6837 15.8789 9.12109C15.3867 8.6289 15.0829 7.98351 15.0146 7.29688L15 7C15 6.20435 15.3163 5.44151 15.8789 4.87891C16.4415 4.3163 17.2044 4 18 4L18.2969 4.01465C18.9835 4.08291 19.6289 4.38671 20.1211 4.87891C20.6837 5.44151 21 6.20435 21 7Z" fill="#808080"/>
</svg>
