<svg width="24" height="24" viewBox="0 0 24 24" fill="none" xmlns="http://www.w3.org/2000/svg">
<path fill-rule="evenodd" clip-rule="evenodd" d="M14.6467 4.08124C13.9735 1.30643 10.0268 1.30625 9.35318 4.08071C9.23686 4.55757 8.69431 4.78399 8.27246 4.52759C5.83343 3.0433 3.04359 5.83421 4.52886 8.27226C4.5882 8.36959 4.62391 8.47987 4.63272 8.59352C4.64153 8.70716 4.62339 8.82129 4.57976 8.92659C4.53613 9.0319 4.46825 9.12542 4.38165 9.19954C4.29504 9.27366 4.19216 9.32628 4.08138 9.35312C1.30657 10.0263 1.30611 13.9731 4.08057 14.6467C4.19125 14.6736 4.29402 14.7263 4.38053 14.8004C4.46703 14.8745 4.53483 14.9679 4.57841 15.0732C4.62199 15.1784 4.64012 15.2925 4.63133 15.4061C4.62254 15.5196 4.58707 15.6295 4.52782 15.7268C3.04284 18.166 5.8339 20.9564 8.27213 19.471C8.36945 19.4117 8.47973 19.3759 8.59338 19.3671C8.70702 19.3583 8.82115 19.3765 8.92646 19.4201C9.03177 19.4637 9.12528 19.5316 9.1994 19.6182C9.27352 19.7048 9.32614 19.8077 9.35298 19.9185C10.0261 22.6933 13.973 22.6937 14.6465 19.9193C14.6735 19.8088 14.7262 19.7057 14.8002 19.6193C14.8743 19.5328 14.9678 19.465 15.0731 19.4215C15.1783 19.3779 15.2923 19.3597 15.4059 19.3685C15.5195 19.3773 15.6296 19.4129 15.7268 19.4722C18.166 20.9571 20.956 18.1656 19.4707 15.7274C19.4113 15.6301 19.3758 15.5201 19.367 15.4065C19.3582 15.2928 19.3763 15.1787 19.42 15.0734C19.4636 14.9681 19.5315 14.8746 19.6181 14.8005C19.7047 14.7263 19.8078 14.6737 19.9186 14.6468C22.6934 13.9737 22.6931 10.0268 19.9186 9.35319C19.8081 9.32623 19.7056 9.27363 19.6192 9.19964C19.5327 9.12553 19.4649 9.03205 19.4213 8.92681C19.3777 8.82156 19.3596 8.70752 19.3684 8.59395C19.3772 8.48038 19.4128 8.3703 19.472 8.27302C20.957 5.83386 18.1655 3.04382 15.7273 4.52919C15.63 4.58853 15.52 4.62405 15.4063 4.63286C15.2927 4.64167 15.1786 4.62352 15.0733 4.5799C14.968 4.53627 14.8744 4.46839 14.8003 4.38178C14.7262 4.29518 14.6735 4.19202 14.6467 4.08124ZM11.2967 4.55276C11.4754 3.81584 12.524 3.81575 12.703 4.55248C12.804 4.96919 13.002 5.35645 13.2808 5.68222C13.5597 6.00805 13.9115 6.26344 14.3078 6.4276C14.704 6.59175 15.1334 6.66003 15.5609 6.62688C15.9885 6.59372 16.4023 6.46008 16.7684 6.23681C17.4161 5.84266 18.1585 6.58411 17.7638 7.2328C17.5409 7.59883 17.4074 8.0123 17.3744 8.4396C17.3413 8.8669 17.4095 9.29598 17.5735 9.69195C17.7374 10.0879 17.9925 10.4396 18.318 10.7185C18.6435 10.9973 19.0301 11.1954 19.4466 11.2967C20.1835 11.4755 20.1841 12.5241 19.4474 12.7031C19.0307 12.8041 18.6434 13.0022 18.3176 13.281C17.9918 13.5598 17.7364 13.9117 17.5723 14.3079C17.4081 14.7041 17.3398 15.1335 17.373 15.5611C17.4061 15.9887 17.5398 16.4024 17.7631 16.7686C18.1572 17.4162 17.4158 18.1587 16.7671 17.764C16.401 17.541 15.9876 17.4076 15.5603 17.3745C15.133 17.3414 14.7039 17.4096 14.3079 17.5736C13.9119 17.7376 13.5602 17.9926 13.2814 18.3181C13.0026 18.6436 12.8045 19.0303 12.7032 19.4467C12.5244 20.1836 11.4757 20.1843 11.2967 19.4475C11.1957 19.0308 10.9977 18.6436 10.7189 18.3178C10.44 17.9919 10.0882 17.7366 9.69196 17.5724C9.29575 17.4082 8.86637 17.34 8.43878 17.3731L7.23128 17.7632C6.58364 18.1573 5.84131 17.4157 6.23602 16.767C6.4589 16.401 6.59229 15.9876 6.62536 15.5604C6.65844 15.1331 6.59022 14.704 6.42626 14.308C6.2623 13.9121 6.00721 13.5604 5.68174 13.2815C5.35627 13.0027 4.96906 12.8045 4.55262 12.7032C3.8157 12.5244 3.81588 11.4758 4.55262 11.2968C4.96933 11.1958 5.35631 10.9978 5.68208 10.719C6.00792 10.4402 6.2633 10.0883 6.42746 9.6921C6.59161 9.29588 6.65989 8.86651 6.62674 8.43891C6.5936 8.01144 6.45982 7.59752 6.23667 7.23142C5.84248 6.58372 6.58461 5.84151 7.23335 6.23646C8.81134 7.19588 10.8607 6.3455 11.2967 4.55276Z" fill="#1A1A1A"/>
<path fill-rule="evenodd" clip-rule="evenodd" d="M9.17157 9.17157C9.92172 8.42143 10.9391 8 12 8C13.0609 8 14.0783 8.42143 14.8284 9.17157C15.5786 9.92172 16 10.9391 16 12C16 13.0609 15.5786 14.0783 14.8284 14.8284C14.0783 15.5786 13.0609 16 12 16C10.9391 16 9.92172 15.5786 9.17157 14.8284C8.42143 14.0783 8 13.0609 8 12C8 10.9391 8.42143 9.92172 9.17157 9.17157ZM12 10C11.4696 10 10.9609 10.2107 10.5858 10.5858C10.2107 10.9609 10 11.4696 10 12C10 12.5304 10.2107 13.0391 10.5858 13.4142C10.9609 13.7893 11.4696 14 12 14C12.5304 14 13.0391 13.7893 13.4142 13.4142C13.7893 13.0391 14 12.5304 14 12C14 11.4696 13.7893 10.9609 13.4142 10.5858C13.0391 10.2107 12.5304 10 12 10Z" fill="#808080"/>
</svg>
