<svg width="24" height="24" viewBox="0 0 24 24" fill="none" xmlns="http://www.w3.org/2000/svg">
<path fill-rule="evenodd" clip-rule="evenodd" d="M4.56478 6C4.19761 5.99997 3.83428 6.07798 3.49951 6.22925C3.16465 6.38056 2.86568 6.60189 2.62376 6.87912C2.38178 7.1564 2.20272 7.48298 2.09991 7.83682C1.99708 8.19071 1.97323 8.56266 2.03019 8.92683L3.01197 15.1976C3.13481 15.9828 3.53892 16.6954 4.14651 17.208C4.75375 17.7203 5.52466 18 6.31942 18H11.6795C11.8601 18 12.0396 17.9856 12.2162 17.9573C12.1746 17.7994 12.1389 17.6397 12.1091 17.4787C11.8905 16.2939 12.0012 15.064 12.4336 13.9378C12.8663 12.8108 13.6101 11.8189 14.5975 11.1073C14.9519 10.8518 15.3313 10.6374 15.7286 10.4673L15.9698 8.92699C16.0267 8.56282 16.0029 8.19071 15.9001 7.83682C15.7973 7.48298 15.6182 7.1564 15.3762 6.87912C15.1343 6.60189 14.8353 6.38056 14.5005 6.22925C14.1657 6.07798 13.8024 5.99997 13.4352 6H12.5V5.4C12.5 4.48479 12.1209 3.61574 11.4603 2.98156C10.8011 2.34871 9.91538 2 9 2C8.08462 2 7.19892 2.34871 6.5397 2.98156C5.87909 3.61574 5.5 4.48479 5.5 5.4V6H4.56478ZM7.5 9C7.5 9.55228 7.05228 10 6.5 10C5.94772 10 5.5 9.55228 5.5 9C5.5 8.44772 5.94772 8 6.5 8C7.05228 8 7.5 8.44772 7.5 9ZM18 12C17.2025 12 16.4253 12.2552 15.7669 12.7298C15.1088 13.2041 14.6 13.8751 14.3007 14.6547C14.0014 15.4341 13.9236 16.2902 14.0759 17.1158C14.2283 17.9414 14.605 18.7037 15.1622 19.3047L17.4245 21.7455C17.5752 21.9081 17.7829 22 18 22C18.2171 22 18.4248 21.9081 18.5755 21.7455L20.8379 19.3045C21.3952 18.7036 21.7717 17.9414 21.9241 17.1158C22.0764 16.2902 21.9986 15.4341 21.6993 14.6547C21.4 13.8751 20.8912 13.2041 20.2331 12.7298C19.5747 12.2552 18.7975 12 18 12ZM7.92476 4.42433C8.20323 4.15701 8.5893 4 9 4C9.4107 4 9.79677 4.15701 10.0752 4.42433C10.3523 4.69032 10.5 5.04217 10.5 5.4V6H7.5V5.4C7.5 5.04217 7.64769 4.69032 7.92476 4.42433ZM18 14.5C18.8837 14.5 19.6 15.2425 19.6 16.1584V16.175C19.6 17.0909 18.8837 17.8333 18 17.8333C17.1163 17.8333 16.4 17.0909 16.4 16.175V16.1584C16.4 15.2425 17.1163 14.5 18 14.5ZM12.5 9C12.5 9.55228 12.0523 10 11.5 10C10.9477 10 10.5 9.55228 10.5 9C10.5 8.44772 10.9477 8 11.5 8C12.0523 8 12.5 8.44772 12.5 9Z" fill="#1A1A1A"/>
</svg>
