<svg width="24" height="24" viewBox="0 0 24 24" fill="none" xmlns="http://www.w3.org/2000/svg">
<path fill-rule="evenodd" clip-rule="evenodd" d="M6.08637 7C5.64778 6.99997 5.21315 7.09078 4.81187 7.26758C4.41046 7.44442 4.05033 7.70386 3.75781 8.03069C3.46517 8.35766 3.24728 8.74426 3.12191 9.165C2.99649 9.58586 2.9673 10.0287 3.03686 10.4624L4.3459 18.6144C4.49917 19.5696 5.00266 20.4317 5.7532 21.0491C6.50283 21.6657 7.45117 22 8.42591 22H15.5727C16.5476 22.0002 17.4964 21.6661 18.2463 21.0495C18.9971 20.4321 19.5008 19.57 19.6541 18.6145L20.9631 10.4625C21.0327 10.0289 21.0035 9.58586 20.8781 9.165C20.7527 8.74427 20.5348 8.35766 20.2422 8.03069C19.9497 7.70386 19.5895 7.44442 19.1881 7.26758C18.7869 7.09078 18.3522 6.99997 17.9136 7H6.08637ZM6.08626 9C5.92331 8.99998 5.76351 9.03381 5.61822 9.09782C5.473 9.1618 5.34731 9.25365 5.24808 9.36452C5.14899 9.47524 5.07849 9.60236 5.03861 9.73618C4.99879 9.86981 4.98975 10.0091 5.01159 10.1455L6.32063 18.2975C6.39463 18.7587 6.63979 19.1887 7.02375 19.5045C7.40864 19.8211 7.9058 20 8.42595 20H15.573C16.0933 20.0001 16.5909 19.8214 16.976 19.5047C17.3601 19.1889 17.6053 18.759 17.6793 18.2976L18.9884 10.1456C19.0103 10.0092 19.0012 9.86986 18.9614 9.73618C18.9215 9.60236 18.851 9.47523 18.7519 9.36452C18.6527 9.25365 18.527 9.1618 18.3818 9.09782C18.2365 9.03381 18.0767 8.99998 17.9137 9H6.08626Z" fill="#1A1A1A"/>
<path fill-rule="evenodd" clip-rule="evenodd" d="M12 4C11.4696 4 10.9609 4.21071 10.5858 4.58579C10.2107 4.96086 10 5.46957 10 6V11C10 11.5523 9.55228 12 9 12C8.44772 12 8 11.5523 8 11V6C8 4.93913 8.42143 3.92172 9.17157 3.17157C9.92172 2.42143 10.9391 2 12 2C13.0609 2 14.0783 2.42143 14.8284 3.17157C15.5786 3.92172 16 4.93913 16 6V11C16 11.5523 15.5523 12 15 12C14.4477 12 14 11.5523 14 11V6C14 5.46957 13.7893 4.96086 13.4142 4.58579C13.0391 4.21071 12.5304 4 12 4Z" fill="#808080"/>
</svg>
