<svg width="24" height="24" viewBox="0 0 24 24" fill="none" xmlns="http://www.w3.org/2000/svg">
<path fill-rule="evenodd" clip-rule="evenodd" d="M21.32 14.4826C20.8816 13.7302 20.2542 13.1054 19.5001 12.6699C18.7519 12.2379 17.9045 12.0072 17.0406 12.0002C16.1766 11.9931 15.3256 12.2101 14.5705 12.6299C13.8153 13.0497 13.1819 13.658 12.7318 14.3954C12.2818 15.1329 12.0305 15.9744 12.0025 16.8379L12 16.9999L12.0025 17.1619C12.0307 18.0323 12.2857 18.8802 12.7423 19.6217C13.1989 20.3632 13.8413 20.9726 14.6058 21.3896C15.3703 21.8065 16.2305 22.0166 17.1011 21.999C17.9718 21.9814 18.8227 21.7367 19.5697 21.2891C20.3167 20.8416 20.9339 20.2067 21.3601 19.4473C21.7864 18.6879 22.0069 17.8304 21.9998 16.9596C21.9928 16.0888 21.7585 15.235 21.32 14.4826ZM18.5314 15.501C18.6529 15.5086 18.7675 15.5604 18.8536 15.6464C18.9397 15.7325 18.9914 15.8471 18.999 15.9686C19.0067 16.0901 18.9697 16.2102 18.8951 16.3064L18.8536 16.3534L16.8536 18.3534L16.8066 18.3949C16.7189 18.463 16.611 18.4999 16.5001 18.4999C16.3891 18.4999 16.2812 18.463 16.1936 18.3949L16.1466 18.3534L15.1465 17.3534L15.105 17.3064C15.0305 17.2102 14.9935 17.0901 15.0012 16.9686C15.0089 16.8472 15.0606 16.7326 15.1467 16.6466C15.2327 16.5605 15.3473 16.5088 15.4687 16.5011C15.5902 16.4935 15.7103 16.5304 15.8065 16.6049L15.8535 16.6464L16.5001 17.2924L18.1466 15.6464L18.1936 15.6049C18.2898 15.5303 18.4099 15.4934 18.5314 15.501Z" fill="#1A1A1A"/>
<path fill-rule="evenodd" clip-rule="evenodd" d="M4.56478 6C4.19761 5.99997 3.83428 6.07798 3.49951 6.22925C3.16465 6.38056 2.86568 6.60189 2.62376 6.87912C2.38178 7.1564 2.20272 7.48298 2.09991 7.83682C1.99708 8.19071 1.97323 8.56266 2.03019 8.92683L3.01197 15.1976C3.13481 15.9828 3.53892 16.6954 4.14651 17.208C4.75375 17.7203 5.52466 18 6.31942 18H10.0716C10.0347 17.7444 10.0119 17.4863 10.0035 17.2267L10 16.9999L10.0035 16.7731C10.0427 15.5642 10.3945 14.3861 11.0246 13.3536C11.6546 12.3211 12.5415 11.4695 13.5987 10.8818C14.2819 10.502 15.0212 10.2408 15.7852 10.1062L15.9698 8.92699C16.0267 8.56282 16.0029 8.19071 15.9001 7.83682C15.7973 7.48298 15.6182 7.1564 15.3762 6.87912C15.1343 6.60189 14.8353 6.38056 14.5005 6.22925C14.1657 6.07798 13.8024 5.99997 13.4352 6H12.5V5.4C12.5 4.48479 12.1209 3.61574 11.4603 2.98156C10.8011 2.34871 9.91538 2 9 2C8.08462 2 7.19892 2.34871 6.5397 2.98156C5.87909 3.61574 5.5 4.48479 5.5 5.4V6H4.56478ZM12.5 9C12.5 9.55228 12.0523 10 11.5 10C10.9477 10 10.5 9.55228 10.5 9C10.5 8.44772 10.9477 8 11.5 8C12.0523 8 12.5 8.44772 12.5 9ZM7.5 9C7.5 9.55228 7.05228 10 6.5 10C5.94772 10 5.5 9.55228 5.5 9C5.5 8.44772 5.94772 8 6.5 8C7.05228 8 7.5 8.44772 7.5 9ZM7.92476 4.42433C8.20323 4.15701 8.5893 4 9 4C9.4107 4 9.79677 4.15701 10.0752 4.42433C10.3523 4.69032 10.5 5.04217 10.5 5.4V6H7.5V5.4C7.5 5.04217 7.64769 4.69032 7.92476 4.42433Z" fill="#1A1A1A"/>
</svg>
