<svg width="24" height="24" viewBox="0 0 24 24" fill="none" xmlns="http://www.w3.org/2000/svg">
<path fill-rule="evenodd" clip-rule="evenodd" d="M3.49951 6.22925C3.83428 6.07798 4.19761 5.99997 4.56478 6H5.5V5.4C5.5 4.48479 5.87909 3.61574 6.5397 2.98156C7.19892 2.34871 8.08462 2 9 2C9.91538 2 10.8011 2.34871 11.4603 2.98156C12.1209 3.61574 12.5 4.48479 12.5 5.4V6H13.4352C13.8024 5.99997 14.1657 6.07798 14.5005 6.22925C14.8353 6.38056 15.1343 6.60189 15.3762 6.87912C15.6182 7.1564 15.7973 7.48298 15.9001 7.83682C16.0029 8.19071 16.0267 8.56282 15.9698 8.92699L15.7851 10.1063C14.3798 10.354 13.073 11.0276 12.0503 12.0503C10.7375 13.3631 10 15.1435 10 17C10 17.3354 10.0241 17.6695 10.0718 18H6.31942C5.52466 18 4.75375 17.7203 4.14651 17.208C3.53892 16.6954 3.13481 15.9828 3.01197 15.1976L2.03019 8.92683C1.97323 8.56266 1.99708 8.19071 2.09991 7.83682C2.20272 7.48298 2.38178 7.1564 2.62376 6.87912C2.86568 6.60189 3.16465 6.38056 3.49951 6.22925ZM6.5 10C7.05228 10 7.5 9.55228 7.5 9C7.5 8.44772 7.05228 8 6.5 8C5.94772 8 5.5 8.44772 5.5 9C5.5 9.55228 5.94772 10 6.5 10ZM9 4C8.5893 4 8.20323 4.15701 7.92476 4.42433C7.64769 4.69032 7.5 5.04217 7.5 5.4V6H10.5V5.4C10.5 5.04217 10.3523 4.69032 10.0752 4.42433C9.79677 4.15701 9.4107 4 9 4ZM11.5 10C12.0523 10 12.5 9.55228 12.5 9C12.5 8.44772 12.0523 8 11.5 8C10.9477 8 10.5 8.44772 10.5 9C10.5 9.55228 10.9477 10 11.5 10Z" fill="#1A1A1A"/>
<path fill-rule="evenodd" clip-rule="evenodd" d="M17.1716 12.003C17.2422 11.9965 17.313 12.0006 17.3817 12.0147C18.5681 12.1055 19.6882 12.6172 20.5355 13.4645C21.4732 14.4022 22 15.6739 22 17C22 17.6566 21.8707 18.3068 21.6194 18.9134C21.3681 19.52 20.9998 20.0712 20.5355 20.5355C20.0712 20.9998 19.52 21.368 18.9134 21.6193C18.4247 21.8218 17.9076 21.945 17.3818 21.9853C17.313 21.9994 17.2422 22.0035 17.1716 21.997C17.1145 21.9989 17.0573 21.9999 17 21.9999C16.9427 21.9999 16.8855 21.9989 16.8284 21.997C16.7578 22.0035 16.6869 21.9994 16.6182 21.9853C16.0923 21.945 15.5753 21.8217 15.0866 21.6193C14.48 21.368 13.9288 20.9998 13.4645 20.5355C13.0002 20.0712 12.6319 19.52 12.3806 18.9134C12.1293 18.3068 12 17.6566 12 17C12 15.6739 12.5268 14.4022 13.4645 13.4645C14.3118 12.6173 15.4318 12.1055 16.6183 12.0147C16.687 12.0006 16.7578 11.9965 16.8283 12.003C16.8854 12.0011 16.9427 12.0001 17 12.0001C17.0573 12.0001 17.1145 12.0011 17.1716 12.003ZM17 13.7555C16.8259 14.1112 16.6811 14.4797 16.5665 14.8572H17.4334C17.3189 14.4797 17.1741 14.1112 17 13.7555ZM16.2486 17C16.2486 17.2392 16.2603 17.4775 16.2833 17.7143H17.7167C17.7397 17.4775 17.7513 17.2392 17.7513 17C17.7513 16.7608 17.7397 16.5225 17.7167 16.2857H16.2833C16.2603 16.5225 16.2486 16.7608 16.2486 17ZM16.5665 19.1428C16.6811 19.5203 16.8259 19.8888 17 20.2445C17.1741 19.8888 17.3189 19.5203 17.4334 19.1428H16.5665ZM15.4236 13.7953C15.0754 13.9666 14.7542 14.1951 14.4746 14.4747C14.3544 14.5949 14.2437 14.7228 14.1428 14.8572H15.0846C15.1751 14.4966 15.2883 14.1419 15.4236 13.7953ZM15.0846 19.1428H14.1429C14.244 19.2777 14.3549 19.4056 14.4746 19.5253C14.7519 19.8026 15.0727 20.032 15.4236 20.2046C15.2883 19.8581 15.1751 19.5034 15.0846 19.1428ZM19.1509 17.7143H20.4993C20.5471 17.4798 20.5714 17.2405 20.5714 17C20.5714 16.7583 20.5469 16.5191 20.4993 16.2857H19.1509C19.1702 16.5228 19.1799 16.761 19.1799 17C19.1799 17.239 19.1702 17.4773 19.1509 17.7143ZM14.8491 16.2857H13.5007C13.4531 16.5191 13.4286 16.7583 13.4286 17C13.4286 17.2405 13.4529 17.4798 13.5007 17.7143H14.8491C14.8298 17.4773 14.8201 17.239 14.8201 17C14.8201 16.761 14.8298 16.5228 14.8491 16.2857ZM18.5763 20.2047C18.9273 20.032 19.2481 19.8027 19.5254 19.5253C19.6451 19.4056 19.756 19.2777 19.8571 19.1428H18.9153C18.8249 19.5034 18.7117 19.8581 18.5763 20.2047ZM18.9153 14.8572H19.8572C19.7563 14.7228 19.6456 14.5949 19.5254 14.4747C19.2458 14.1951 18.9246 13.9666 18.5763 13.7953C18.7117 14.1419 18.8249 14.4966 18.9153 14.8572Z" fill="#1A1A1A"/>
</svg>
