<svg width="24" height="24" viewBox="0 0 24 24" fill="none" xmlns="http://www.w3.org/2000/svg">
<path fill-rule="evenodd" clip-rule="evenodd" d="M9.00003 15C9.00003 13.4684 8.76232 12.3481 8.08214 11.6679C7.40664 10.9924 6.52001 10.9973 6.07182 10.9997L6.00003 11C4.19656 11 2.96356 12.8235 3.00017 15.0167C3.02227 16.3463 3.57591 17.2812 4.1866 17.9963C4.36522 18.2054 4.55423 18.4019 4.73311 18.5812C4.1267 19.0827 3.3834 19.6037 2.4855 20.1425C2.01193 20.4267 1.85839 21.041 2.14256 21.5145C2.42673 21.9881 3.04099 22.1416 3.51456 21.8575C4.47275 21.2825 5.33031 20.688 6.06679 20.0719C6.33089 20.3985 6.59138 20.6896 6.84988 20.9355C7.2198 21.2874 7.64184 21.6014 8.1213 21.7612C8.6423 21.9348 9.18845 21.9104 9.70017 21.6468C10.1703 21.4046 10.5354 20.9997 10.8321 20.5547C11.0627 20.2089 11.2757 19.8798 11.4705 19.5677C12.4748 21.0801 13.7987 22 15.5 22C16.0523 22 16.5 21.5523 16.5 21C16.5 20.4477 16.0523 20 15.5 20C14.4272 20 13.3557 19.2909 12.4192 17.106C12.2657 16.7481 11.9184 16.5117 11.5291 16.5004C11.1398 16.4891 10.7793 16.7049 10.6053 17.0533C10.2988 17.6674 9.8241 18.4616 9.16798 19.4453C8.96472 19.7502 8.82972 19.8454 8.78426 19.8688L8.7837 19.8709C8.78429 19.873 8.78461 19.8741 8.75376 19.8638C8.67072 19.8361 8.49901 19.7439 8.22831 19.4864C8.01539 19.2838 7.77458 19.0115 7.5003 18.6615C8.46258 17.5158 9.00003 16.2987 9.00003 15ZM5.70746 16.6975C5.84253 16.8556 5.98591 17.0051 6.14104 17.1606C6.74255 16.3771 7.00003 15.6542 7.00003 15C7.00003 13.5316 6.73774 13.1519 6.66792 13.0821C6.63166 13.0458 6.58112 13 6.00003 13C5.80353 13 4.97254 13.3467 4.99989 14.9834C5.01182 15.7017 5.28717 16.2053 5.70746 16.6975Z" fill="#808080"/>
<path fill-rule="evenodd" clip-rule="evenodd" d="M16 7C16 6.44772 16.4477 6 17 6H21C21.5523 6 22 6.44772 22 7C22 7.55228 21.5523 8 21 8H17C16.4477 8 16 7.55228 16 7Z" fill="#808080"/>
<path fill-rule="evenodd" clip-rule="evenodd" d="M16 5C16 3.32672 17.3267 2 19 2C20.6733 2 22 3.32672 22 5V17C22 17.2652 21.8946 17.5196 21.7071 17.7071L19.7071 19.7071C19.3166 20.0976 18.6834 20.0976 18.2929 19.7071L16.2929 17.7071C16.1054 17.5196 16 17.2652 16 17V5ZM19 4C18.4313 4 18 4.43128 18 5V16.5858L19 17.5858L20 16.5858V5C20 4.43128 19.5687 4 19 4Z" fill="#1A1A1A"/>
</svg>
