<svg width="24" height="24" viewBox="0 0 24 24" fill="none" xmlns="http://www.w3.org/2000/svg">
<path d="M20 20V19H4V20C4 20.5523 3.55228 21 3 21C2.44772 21 2 20.5523 2 20V16C2 15.4477 2.44772 15 3 15C3.55228 15 4 15.4477 4 16V17H20V16C20 15.4477 20.4477 15 21 15C21.5523 15 22 15.4477 22 16V20C22 20.5523 21.5523 21 21 21C20.4477 21 20 20.5523 20 20Z" fill="#808080"/>
<path d="M13 6C13.5523 6 14 6.44772 14 7C14 7.55228 13.5523 8 13 8H11C10.4477 8 10 7.55228 10 7C10 6.44772 10.4477 6 11 6H13Z" fill="#1A1A1A"/>
<path d="M7 5C7 4.73478 6.89457 4.48051 6.70703 4.29297C6.54289 4.12883 6.32763 4.02757 6.09863 4.00488L6 4C5.73478 4 5.48051 4.10543 5.29297 4.29297C5.10543 4.48051 5 4.73478 5 5V9L5.00488 9.09863C5.02757 9.32763 5.12883 9.54289 5.29297 9.70703C5.48051 9.89457 5.73478 10 6 10C6.26522 10 6.51949 9.89457 6.70703 9.70703C6.87117 9.54289 6.97243 9.32763 6.99512 9.09863L7 9V5ZM9 9C9 9.79565 8.6837 10.5585 8.12109 11.1211C7.55849 11.6837 6.79565 12 6 12C5.20435 12 4.44151 11.6837 3.87891 11.1211C3.3163 10.5585 3 9.79565 3 9V5C3 4.20435 3.3163 3.44152 3.87891 2.87891C4.44151 2.3163 5.20435 2 6 2L6.29688 2.01465C6.98351 2.08291 7.6289 2.38671 8.12109 2.87891C8.6837 3.44152 9 4.20435 9 5V9Z" fill="#1A1A1A"/>
<path d="M15 11V3C15 2.44772 15.4477 2 16 2H20C20.5523 2 21 2.44772 21 3C21 3.55228 20.5523 4 20 4H17V6H19C19.5523 6 20 6.44772 20 7C20 7.55228 19.5523 8 19 8H17V11C17 11.5523 16.5523 12 16 12C15.4477 12 15 11.5523 15 11Z" fill="#1A1A1A"/>
</svg>
