<svg width="24" height="24" viewBox="0 0 24 24" fill="none" xmlns="http://www.w3.org/2000/svg">
<path d="M8.58692 8.23612L2.77955 9.07328L2.67669 9.09409C2.52099 9.13519 2.37904 9.21664 2.26535 9.33013C2.15165 9.44362 2.07029 9.58507 2.02957 9.74005C1.98884 9.89502 1.99021 10.058 2.03354 10.2122C2.07687 10.3665 2.1606 10.5066 2.27619 10.6182L6.48334 14.69L5.49117 20.4415L5.47934 20.541C5.46981 20.7012 5.50325 20.8609 5.57624 21.004C5.64922 21.147 5.75914 21.2682 5.89472 21.3551C6.0303 21.4421 6.18668 21.4916 6.34785 21.4987C6.50902 21.5057 6.66918 21.4701 6.81194 21.3954L12.0058 18.6803L17.1878 21.3954L17.2789 21.437C17.4291 21.4959 17.5924 21.5139 17.752 21.4893C17.9115 21.4647 18.0616 21.3983 18.1869 21.297C18.3122 21.1957 18.4081 21.063 18.4648 20.9127C18.5214 20.7623 18.5369 20.5997 18.5095 20.4415L17.5164 14.69L21.7254 10.6173L21.7964 10.5403C21.8978 10.4161 21.9643 10.2674 21.9891 10.1094C22.0139 9.95129 21.9961 9.78951 21.9376 9.64049C21.879 9.49148 21.7818 9.36057 21.6558 9.26109C21.5297 9.16161 21.3795 9.09711 21.2202 9.07418L15.4129 8.23612L12.8168 3.00498C12.7417 2.85342 12.6254 2.72579 12.4811 2.63655C12.3368 2.5473 12.1703 2.5 12.0003 2.5C11.8304 2.5 11.6639 2.5473 11.5196 2.63655C11.3753 2.72579 11.259 2.85342 11.1839 3.00498L8.58692 8.23612Z" fill="#1A1A1A"/>
</svg>
