<svg width="24" height="24" viewBox="0 0 24 24" fill="none" xmlns="http://www.w3.org/2000/svg">
<path d="M16 5V4C16 3.46957 15.7893 2.96086 15.4142 2.58579C15.0391 2.21071 14.5304 2 14 2H10C9.46957 2 8.96086 2.21071 8.58579 2.58579C8.21071 2.96086 8 3.46957 8 4V5C6.93913 5 5.92172 5.42143 5.17157 6.17157C4.42143 6.92172 4 7.93913 4 9V20C4 20.5304 4.21071 21.0391 4.58579 21.4142C4.96086 21.7893 5.46957 22 6 22H18C18.5304 22 19.0391 21.7893 19.4142 21.4142C19.7893 21.0391 20 20.5304 20 20V9C20 7.93913 19.5786 6.92172 18.8284 6.17157C18.0783 5.42143 17.0609 5 16 5ZM10 4H14V5H10V4ZM18 20H6V9C6 8.46957 6.21071 7.96086 6.58579 7.58579C6.96086 7.21071 7.46957 7 8 7H16C16.5304 7 17.0391 7.21071 17.4142 7.58579C17.7893 7.96086 18 8.46957 18 9V20Z" fill="#1A1A1A"/>
<path d="M13.6464 10.6464L12.3536 9.35355C12.1583 9.15829 11.8417 9.15829 11.6464 9.35355L10.3536 10.6464C10.1583 10.8417 10.1583 11.1583 10.3536 11.3536L11.6464 12.6464C11.8417 12.8417 12.1583 12.8417 12.3536 12.6464L13.6464 11.3536C13.8417 11.1583 13.8417 10.8417 13.6464 10.6464Z" fill="#808080"/>
<path d="M6 15H18V17H11V18C11 18 11 19 10 19C9 19 9 18 9 18V17H6V15Z" fill="#808080"/>
</svg>
