<svg width="24" height="24" viewBox="0 0 24 24" fill="none" xmlns="http://www.w3.org/2000/svg">
<path d="M20 5L17 5C16.7348 5 16.4805 5.10543 16.293 5.29297C16.1288 5.45711 16.0276 5.67237 16.0049 5.90137L16 6L16 11L20 11C20.5523 11 21 11.4477 21 12C21 12.5523 20.5523 13 20 13L16 13L16 18C16 18.2652 16.1054 18.5195 16.293 18.707C16.4805 18.8946 16.7348 19 17 19L20 19C20.5523 19 21 19.4477 21 20C21 20.5523 20.5523 21 20 21L17 21C16.2044 21 15.4415 20.6837 14.8789 20.1211C14.3163 19.5585 14 18.7957 14 18L14 6C14 5.20435 14.3163 4.44151 14.8789 3.87891C15.4415 3.3163 16.2043 3 17 3L20 3C20.5523 3 21 3.44772 21 4C21 4.55228 20.5523 5 20 5Z" fill="#808080"/>
<path d="M8 9C8 8.73478 7.89457 8.48051 7.70703 8.29297C7.51949 8.10543 7.26522 8 7 8C6.73478 8 6.48051 8.10543 6.29297 8.29297C6.10543 8.48051 6 8.73478 6 9C6 9.26522 6.10543 9.51949 6.29297 9.70703C6.48051 9.89457 6.73478 10 7 10C7.26522 10 7.51949 9.89457 7.70703 9.70703C7.89457 9.51949 8 9.26522 8 9ZM10 9C10 9.79565 9.6837 10.5585 9.12109 11.1211C8.55849 11.6837 7.79565 12 7 12C6.20435 12 5.44151 11.6837 4.87891 11.1211C4.3163 10.5585 4 9.79565 4 9C4 8.20435 4.3163 7.44151 4.87891 6.87891C5.44151 6.3163 6.20435 6 7 6C7.79565 6 8.55849 6.3163 9.12109 6.87891C9.6837 7.44151 10 8.20435 10 9Z" fill="#1A1A1A"/>
<path d="M10 17V16C10 15.7348 9.89457 15.4805 9.70703 15.293C9.51949 15.1054 9.26522 15 9 15H5C4.73478 15 4.48051 15.1054 4.29297 15.293C4.10543 15.4805 4 15.7348 4 16V17C4 17.5523 3.55228 18 3 18C2.44772 18 2 17.5523 2 17V16C2 15.2043 2.3163 14.4415 2.87891 13.8789C3.44151 13.3163 4.20435 13 5 13H9C9.79565 13 10.5585 13.3163 11.1211 13.8789C11.6837 14.4415 12 15.2043 12 16V17C12 17.5523 11.5523 18 11 18C10.4477 18 10 17.5523 10 17Z" fill="#1A1A1A"/>
<path d="M22 12.5C22 12.8978 21.8419 13.2792 21.5605 13.5605C21.2792 13.8419 20.8978 14 20.5 14H19.5C19.1022 14 18.7208 13.8419 18.4395 13.5605C18.1581 13.2792 18 12.8978 18 12.5V11.5C18 11.1022 18.1581 10.7208 18.4395 10.4395C18.7208 10.1581 19.1022 10 19.5 10H20.5C20.8978 10 21.2792 10.1581 21.5605 10.4395C21.8419 10.7208 22 11.1022 22 11.5V12.5Z" fill="#1A1A1A"/>
<path d="M22 20.5C22 20.8978 21.8419 21.2792 21.5605 21.5605C21.2792 21.8419 20.8978 22 20.5 22H19.5C19.1022 22 18.7208 21.8419 18.4395 21.5605C18.1581 21.2792 18 20.8978 18 20.5V19.5C18 19.1022 18.1581 18.7208 18.4395 18.4395C18.7208 18.1581 19.1022 18 19.5 18H20.5C20.8978 18 21.2792 18.1581 21.5605 18.4395C21.8419 18.7208 22 19.1022 22 19.5V20.5Z" fill="#1A1A1A"/>
<path d="M22 4.5C22 4.89783 21.8419 5.27924 21.5605 5.56055C21.2792 5.84185 20.8978 6 20.5 6H19.5C19.1022 6 18.7208 5.84185 18.4395 5.56055C18.1581 5.27924 18 4.89782 18 4.5V3.5C18 3.10218 18.1581 2.72076 18.4395 2.43945C18.7208 2.15815 19.1022 2 19.5 2H20.5C20.8978 2 21.2792 2.15815 21.5605 2.43945C21.8419 2.72076 22 3.10217 22 3.5V4.5Z" fill="#1A1A1A"/>
</svg>
