<svg width="24" height="24" viewBox="0 0 24 24" fill="none" xmlns="http://www.w3.org/2000/svg">
<path d="M17.4553 12.9086H11.0913V6.54469C11.0913 6.04261 10.6843 5.63556 10.1822 5.63556C5.67054 5.63556 2 9.30604 2 13.8177C2 18.3294 5.67054 22 10.1822 22C14.6939 22 18.3644 18.3294 18.3644 13.8177C18.3644 13.3156 17.9574 12.9086 17.4553 12.9086ZM10.1822 20C6.67314 20 4 17.3269 4 13.8177C4 10.6173 5.92003 8.19633 9 7.75382V14C9 14.5021 9.49792 15 10 15H16.251C15.8085 18.08 13.3827 20 10.1822 20Z" fill="#1A1A1A"/>
<path d="M13.8188 2C13.3167 2 12.9097 2.40705 12.9097 2.90913V10.1812C12.9097 10.6833 13.3167 11.0904 13.8188 11.0904H21.0909C21.593 11.0904 22 10.6833 22 10.1812C22 5.67012 18.33 2 13.8188 2ZM15.0001 9V4C17.7826 4.39978 19.6003 6.21744 20.0001 9H15.0001Z" fill="#808080"/>
</svg>
