<svg width="24" height="24" viewBox="0 0 24 24" fill="none" xmlns="http://www.w3.org/2000/svg">
<path fill-rule="evenodd" clip-rule="evenodd" d="M3.17157 3.17157C3.92172 2.42143 4.93913 2 6 2L11.172 2C11.9675 2.00017 12.7306 2.31631 13.2931 2.87889L21.0031 10.5889C21.6425 11.2284 22.0017 12.0957 22.0017 13C22.0017 13.9043 21.6425 14.7716 21.0032 15.4111L15.4111 21.0031C14.7716 21.6425 13.9043 22.0017 13 22.0017C12.0957 22.0017 11.2284 21.6425 10.5889 21.0032L2.879 13.2932C2.31642 12.7307 2.00017 11.9677 2 11.1722L2 6C2 4.93913 2.42143 3.92172 3.17157 3.17157ZM7.5 5.5C6.96957 5.5 6.46086 5.71071 6.08579 6.08579C5.71071 6.46086 5.5 6.96957 5.5 7.5C5.5 8.03043 5.71072 8.53914 6.08579 8.91421C6.46086 9.28928 6.96957 9.5 7.5 9.5C8.03043 9.5 8.53914 9.28928 8.91421 8.91421C9.28929 8.53914 9.5 8.03043 9.5 7.5C9.5 6.96957 9.28929 6.46086 8.91421 6.08579C8.53914 5.71071 8.03043 5.5 7.5 5.5ZM12.2019 9.62294C12.2752 9.40295 12.1877 9.16141 11.9904 9.0395C11.7932 8.91759 11.538 8.9473 11.374 9.11127L9.11126 11.374C8.916 11.5693 8.916 11.8859 9.11126 12.0811C9.30653 12.2764 9.62311 12.2764 9.81837 12.0811L10.5834 11.3161L10.1218 12.7008C10.0485 12.9208 10.1361 13.1624 10.3333 13.2843C10.5306 13.4062 10.7858 13.3765 10.9497 13.2125L13.2125 10.9497C13.4077 10.7545 13.4077 10.4379 13.2125 10.2426C13.0172 10.0474 12.7006 10.0474 12.5054 10.2426L11.7403 11.0077L12.2019 9.62294ZM16.082 13.7316C16.2516 13.5136 16.2123 13.1995 15.9943 13.0299C15.7764 12.8604 15.4622 12.8997 15.2927 13.1177L13.3128 15.6632C13.1728 15.8432 13.1723 16.0952 13.3116 16.2757C13.451 16.4562 13.6948 16.5196 13.9044 16.4298L14.7354 16.0736L14.3793 16.9046C14.2894 17.1142 14.3528 17.3581 14.5333 17.4974C14.7139 17.6367 14.9658 17.6363 15.1458 17.4963L17.6914 15.5164C17.9094 15.3468 17.9486 15.0327 17.7791 14.8147C17.6096 14.5967 17.2954 14.5575 17.0774 14.727L16.062 15.5168L16.1469 15.3186C16.2275 15.1307 16.1855 14.9127 16.0409 14.7681C15.8963 14.6236 15.6783 14.5816 15.4904 14.6621L15.2923 14.747L16.082 13.7316ZM14.061 11.0912C13.8657 10.8959 13.5492 10.8959 13.3539 11.0912L11.0912 13.3539C10.8959 13.5492 10.8959 13.8658 11.0912 14.061L12.2225 15.1924C12.4178 15.3877 12.7344 15.3877 12.9296 15.1924C13.1249 14.9971 13.1249 14.6805 12.9296 14.4853L12.1518 13.7075L12.5761 13.2832L12.9296 13.6368C13.1249 13.832 13.4415 13.832 13.6367 13.6368C13.832 13.4415 13.832 13.1249 13.6367 12.9296L13.2832 12.5761L13.7074 12.1518L14.4853 12.9296C14.6805 13.1249 14.9971 13.1249 15.1924 12.9296C15.3876 12.7344 15.3876 12.4178 15.1924 12.2225L14.061 11.0912Z" fill="#1A1A1A"/>
</svg>
