<svg width="24" height="24" viewBox="0 0 24 24" fill="none" xmlns="http://www.w3.org/2000/svg">
<path fill-rule="evenodd" clip-rule="evenodd" d="M3.17157 3.17157C3.92172 2.42143 4.93913 2 6 2H11.172C11.9675 2.00017 12.7306 2.31631 13.2931 2.87889L21.0031 10.5889C21.6425 11.2284 22.0017 12.0957 22.0017 13C22.0017 13.9043 21.6425 14.7716 21.0032 15.4111L15.4111 21.0031C14.7716 21.6425 13.9043 22.0017 13 22.0017C12.0957 22.0017 11.2284 21.6425 10.5889 21.0032L2.879 13.2932C2.31642 12.7307 2.00017 11.9677 2 11.1722V6C2 4.93913 2.42143 3.92172 3.17157 3.17157ZM7.5 5.5C6.96957 5.5 6.46086 5.71071 6.08579 6.08579C5.71071 6.46086 5.5 6.96957 5.5 7.5C5.5 8.03043 5.71071 8.53914 6.08579 8.91421C6.46086 9.28929 6.96957 9.5 7.5 9.5C8.03043 9.5 8.53914 9.28929 8.91421 8.91421C9.28929 8.53914 9.5 8.03043 9.5 7.5C9.5 6.96957 9.28929 6.46086 8.91421 6.08579C8.53914 5.71071 8.03043 5.5 7.5 5.5Z" fill="#1A1A1A"/>
</svg>
