<svg width="24" height="24" viewBox="0 0 24 24" fill="none" xmlns="http://www.w3.org/2000/svg">
<path fill-rule="evenodd" clip-rule="evenodd" d="M18.3966 2.54284C18.3661 2.4199 18.3034 2.30727 18.215 2.21647C18.1266 2.12567 18.0156 2.05997 17.8935 2.02607C17.7713 1.99218 17.6423 1.99132 17.5197 2.02357C17.3971 2.05583 17.2853 2.12004 17.1957 2.20965L14.3329 5.06968C14.2456 5.15709 14.1824 5.26559 14.1496 5.38463C14.1167 5.50367 14.1153 5.62918 14.1454 5.74894L14.6607 7.81388C14.6539 7.82046 14.6472 7.82714 14.6406 7.8339L11.2182 11.2531C11.0285 11.4564 10.9253 11.7253 10.9302 12.0031C10.9351 12.281 11.0478 12.5461 11.2445 12.7426C11.4412 12.9391 11.7065 13.0517 11.9847 13.0566C12.2628 13.0615 12.5319 12.9583 12.7355 12.7689L16.1608 9.35115C16.1675 9.34409 16.1742 9.33693 16.1808 9.3297L18.2463 9.84593C18.3662 9.87602 18.4918 9.87458 18.6109 9.84175C18.7301 9.80892 18.8387 9.74582 18.9262 9.6586L21.789 6.79857C21.879 6.70908 21.9436 6.59725 21.9761 6.47457C22.0087 6.3519 22.0079 6.22278 21.9739 6.1005C21.94 5.97821 21.8741 5.86715 21.7829 5.77873C21.6918 5.69031 21.5788 5.62771 21.4555 5.59736L19.0092 4.98817L18.3966 2.54284Z" fill="#808080"/>
<path fill-rule="evenodd" clip-rule="evenodd" d="M11.4687 7.80388C11.5201 7.93505 11.5452 8.07506 11.5425 8.21591C11.5397 8.35676 11.5092 8.49569 11.4527 8.62477C11.3963 8.75385 11.3149 8.87055 11.2132 8.96819C11.1116 9.06584 10.9917 9.14252 10.8604 9.19386C10.3909 9.37782 9.97477 9.67575 9.64953 10.0607C9.32428 10.4457 9.10019 10.9056 8.99751 11.3988C8.89483 11.892 8.91679 12.403 9.06142 12.8856C9.20604 13.3682 9.46877 13.8072 9.82585 14.1629C10.1829 14.5186 10.6231 14.7798 11.1066 14.9229C11.5901 15.066 12.1017 15.0865 12.595 14.9824C13.0884 14.8784 13.5481 14.6532 13.9325 14.3271C14.3169 14.0011 14.6139 13.5845 14.7967 13.115C14.8478 12.9837 14.9243 12.8638 15.0218 12.762C15.1193 12.6603 15.236 12.5788 15.365 12.5221C15.4941 12.4654 15.6331 12.4346 15.774 12.4316C15.915 12.4285 16.0552 12.4533 16.1865 12.5043C16.3179 12.5554 16.438 12.6319 16.5398 12.7293C16.6416 12.8267 16.7232 12.9432 16.78 13.0722C16.8368 13.2011 16.8675 13.3399 16.8706 13.4808C16.8736 13.6216 16.8489 13.7616 16.7977 13.8929C16.4856 14.6947 15.9783 15.4061 15.3218 15.9628C14.6653 16.5195 13.8802 16.904 13.0376 17.0815C12.195 17.259 11.3214 17.2239 10.4958 16.9794C9.67017 16.7348 8.91858 16.2886 8.30895 15.681C7.69932 15.0733 7.25089 14.3235 7.00418 13.4993C6.75748 12.675 6.72028 11.8023 6.89596 10.9601C7.07164 10.1179 7.45465 9.33273 8.01037 8.67554C8.56609 8.01835 9.277 7.50989 10.0788 7.19612C10.3438 7.09279 10.639 7.09875 10.8996 7.2127C11.1602 7.32666 11.3649 7.53928 11.4687 7.80388Z" fill="#1A1A1A"/>
<path fill-rule="evenodd" clip-rule="evenodd" d="M12.4306 3.08626C12.4503 3.36993 12.3564 3.6498 12.1695 3.86432C11.9827 4.07885 11.7183 4.21048 11.4343 4.23027C9.93883 4.33382 8.5045 4.8641 7.30179 5.75812C6.09908 6.65214 5.17855 7.87231 4.64959 9.27365C4.12062 10.675 4.00545 12.1986 4.31777 13.6634C4.63008 15.1282 5.35675 16.4726 6.41143 17.537C7.46611 18.6013 8.80446 19.3408 10.2674 19.6675C11.7304 19.9943 13.2566 19.8945 14.6645 19.3802C16.0724 18.8659 17.303 17.9586 18.2099 16.7661C19.1169 15.5736 19.6621 14.146 19.7808 12.6531C19.8034 12.3694 19.9378 12.1063 20.1546 11.9216C20.3713 11.737 20.6526 11.6459 20.9366 11.6685C21.2206 11.6911 21.4839 11.8254 21.6687 12.042C21.8536 12.2585 21.9447 12.5396 21.9221 12.8232C21.7706 14.7255 21.0758 16.5443 19.9201 18.0636C18.7643 19.5829 17.1964 20.7388 15.4024 21.394C13.6085 22.0493 11.664 22.1762 9.79991 21.7599C7.93586 21.3435 6.23063 20.4013 4.8868 19.0452C3.54297 17.6891 2.61704 15.9761 2.21902 14.1098C1.82099 12.2434 1.9676 10.3022 2.64143 8.5166C3.31526 6.73104 4.48798 5.17626 6.02027 4.03696C7.55256 2.89767 9.38 2.22176 11.2855 2.08954C11.5694 2.06989 11.8496 2.1637 12.0643 2.35034C12.279 2.53698 12.4108 2.8026 12.4306 3.08626Z" fill="#1A1A1A"/>
</svg>
