<svg width="24" height="24" viewBox="0 0 24 24" fill="none" xmlns="http://www.w3.org/2000/svg">
<path d="M14 5.5C14 4.30653 13.5259 3.16193 12.682 2.31802C11.8381 1.47411 10.6935 1 9.50003 1C8.30655 1 7.16196 1.47411 6.31805 2.31802C5.47413 3.16193 5.00003 4.30653 5.00003 5.5V13C4.30887 13.7832 3.83416 14.7333 3.62284 15.7562C3.41152 16.7792 3.47093 17.8396 3.79518 18.8326C4.11943 19.8255 4.6973 20.7166 5.47161 21.4177C6.24592 22.1188 7.18985 22.6056 8.21003 22.83C8.63055 22.926 9.05903 22.9829 9.49003 23C10.6515 23.0074 11.7901 22.6774 12.7678 22.0503C13.7454 21.4231 14.52 20.5257 14.9975 19.4669C15.475 18.4081 15.6349 17.2334 15.4579 16.0855C15.2808 14.9376 14.7744 13.8657 14 13V5.5ZM12 20.11C11.4733 20.5382 10.8463 20.8254 10.178 20.9444C9.5097 21.0634 8.82209 21.0104 8.17993 20.7904C7.53777 20.5703 6.96217 20.1905 6.50733 19.6865C6.05249 19.1826 5.73338 18.5713 5.58003 17.91C5.42553 17.2415 5.44557 16.5446 5.63821 15.8861C5.83084 15.2276 6.18961 14.6298 6.68003 14.15C6.77452 14.0574 6.84969 13.9469 6.90118 13.8251C6.95268 13.7032 6.97948 13.5723 6.98003 13.44V5.5C6.98003 4.83696 7.24342 4.20107 7.71226 3.73223C8.1811 3.26339 8.81699 3 9.48003 3C10.1431 3 10.779 3.26339 11.2478 3.73223C11.7166 4.20107 11.98 4.83696 11.98 5.5V13.44C11.9806 13.5723 12.0074 13.7032 12.0589 13.8251C12.1104 13.9469 12.1855 14.0574 12.28 14.15C12.6888 14.5449 13.0087 15.0223 13.2185 15.5505C13.4282 16.0787 13.523 16.6456 13.4965 17.2133C13.47 17.781 13.3228 18.3366 13.0648 18.843C12.8068 19.3493 12.4438 19.7949 12 20.15V20.11Z" fill="#1A1A1A"/>
<path d="M19 2.5H19.5C19.7652 2.5 20.0196 2.60536 20.2071 2.79289C20.3946 2.98043 20.5 3.23478 20.5 3.5C20.5 3.76522 20.3946 4.01957 20.2071 4.20711C20.0196 4.39464 19.7652 4.5 19.5 4.5H19V5C19 5.26522 18.8946 5.51957 18.7071 5.70711C18.5196 5.89464 18.2652 6 18 6C17.7348 6 17.4804 5.89464 17.2929 5.70711C17.1054 5.51957 17 5.26522 17 5V4.5H16.5C16.2348 4.5 15.9804 4.39464 15.7929 4.20711C15.6054 4.01957 15.5 3.76522 15.5 3.5C15.5 3.23478 15.6054 2.98043 15.7929 2.79289C15.9804 2.60536 16.2348 2.5 16.5 2.5H17V2C17 1.73478 17.1054 1.48043 17.2929 1.29289C17.4804 1.10536 17.7348 1 18 1C18.2652 1 18.5196 1.10536 18.7071 1.29289C18.8946 1.48043 19 1.73478 19 2V2.5Z" fill="#808080"/>
<path d="M10.5 5.5V15.28C10.8023 15.4545 11.0536 15.7051 11.2291 16.0068C11.4045 16.3086 11.4979 16.651 11.5 17C11.5 17.5304 11.2893 18.0391 10.9142 18.4142C10.5391 18.7893 10.0304 19 9.5 19C8.96957 19 8.46086 18.7893 8.08579 18.4142C7.71071 18.0391 7.5 17.5304 7.5 17C7.50211 16.651 7.59552 16.3086 7.77095 16.0068C7.94638 15.7051 8.19772 15.4545 8.5 15.28V5.5C8.5 5.23478 8.60536 4.98043 8.79289 4.79289C8.98043 4.60536 9.23478 4.5 9.5 4.5C9.76522 4.5 10.0196 4.60536 10.2071 4.79289C10.3946 4.98043 10.5 5.23478 10.5 5.5Z" fill="#808080"/>
</svg>
