<svg width="24" height="24" viewBox="0 0 24 24" fill="none" xmlns="http://www.w3.org/2000/svg">
<path d="M17.3125 19.6812C16.5805 19.6812 15.909 19.2475 15.6018 18.5763C15.3277 17.9711 14.4534 17.9714 14.1794 18.5763C13.8723 19.2475 13.2008 19.6813 12.4688 19.6813H6.6875C4.10281 19.6813 2 17.5794 2 14.9958V9.68554C2 7.10196 4.10281 5.00004 6.6875 5.00004H12.4688C13.2008 5.00004 13.8723 5.43376 14.1794 6.10504C14.4536 6.71013 15.3279 6.70994 15.6018 6.10504C15.909 5.43376 16.5805 5 17.3125 5C19.8972 5 22 7.10192 22 9.6855V14.9957C22 17.5793 19.8972 19.6812 17.3125 19.6812ZM14.8906 16.1194C15.8053 16.1194 16.6422 16.6568 17.0227 17.4884C17.0763 17.6056 17.1901 17.6813 17.3125 17.6813C19.0356 17.6813 20.0077 16.28 20.0077 14.5576V10.3049C20.0077 8.58253 19.0356 7.18126 17.3125 7.18126C17.1901 7.18126 17.0763 7.25693 17.0227 7.37406C16.1932 9.18939 13.5878 9.189 12.7585 7.37406C12.7049 7.25693 12.5912 7.18126 12.4688 7.18126H6.6875C4.96438 7.18126 4.00085 8.58253 4.00085 10.3049V14.5576C4.00085 16.28 4.96438 17.6813 6.6875 17.6813H12.4688C12.5912 17.6813 12.7049 17.6056 12.7585 17.4884C13.139 16.6568 13.9759 16.1194 14.8906 16.1194Z" fill="#1A1A1A"/>
<rect x="5" y="9.68124" width="8" height="2" rx="1" fill="#808080"/>
<rect x="5" y="12.6812" width="6" height="2" rx="1" fill="#808080"/>
<circle cx="15" cy="10.6812" r="1" fill="#808080"/>
<circle cx="15" cy="13.6812" r="1" fill="#808080"/>
</svg>
