<svg width="24" height="24" viewBox="0 0 24 24" fill="none" xmlns="http://www.w3.org/2000/svg">
<path d="M17.3125 22C16.5805 22 15.909 21.5663 15.6018 20.895C15.3277 20.2899 14.4534 20.2901 14.1794 20.895C13.8723 21.5663 13.2008 22 12.4688 22H6.6875C4.10281 22 2 19.8981 2 17.3145V12.0043C2 9.42071 4.10281 7.31879 6.6875 7.31879H12.4688C13.2008 7.31879 13.8723 7.75252 14.1794 8.42379C14.4536 9.02889 15.3279 9.02869 15.6018 8.42379C15.909 7.75252 16.5805 7.31876 17.3125 7.31876C19.8972 7.31876 22 9.42067 22 12.0043V17.3145C22 19.8981 19.8972 22 17.3125 22ZM14.8906 18.4382C15.8053 18.4382 16.6422 18.9756 17.0227 19.8072C17.0763 19.9243 17.1901 20 17.3125 20C19.0356 20 20.0077 18.5987 20.0077 16.8763V12.6237C20.0077 10.9013 19.0356 9.50001 17.3125 9.50001C17.1901 9.50001 17.0763 9.57568 17.0227 9.69282C16.1932 11.5081 13.5878 11.5078 12.7585 9.69282C12.7049 9.57568 12.5912 9.50001 12.4688 9.50001H6.6875C4.96438 9.50001 4.00085 10.9013 4.00085 12.6237V16.8763C4.00085 18.5987 4.96438 20 6.6875 20H12.4688C12.5912 20 12.7049 19.9243 12.7585 19.8072C13.139 18.9756 13.9759 18.4382 14.8906 18.4382Z" fill="#1A1A1A"/>
<path d="M16.0506 4.09716C16.0248 4.10247 15.9937 4.12691 15.9836 4.17072C15.7586 5.14965 14.9782 5.91255 13.9945 6.11512C13.8225 6.15053 13.6494 6.16774 13.4778 6.16771C12.6679 6.16762 11.8889 5.78369 11.399 5.11466C11.3727 5.07877 11.3347 5.06838 11.3087 5.07357L3.74052 6.66402C3.19449 6.77889 2.65812 6.42907 2.54327 5.88264C2.42848 5.33629 2.77828 4.80024 3.3247 4.68543L10.8967 3.09413C11.7054 2.92771 12.5415 3.25259 13.0303 3.92014C13.1575 4.09384 13.3764 4.17813 13.5867 4.13482C13.7972 4.0915 13.965 3.92753 14.0132 3.71774L14.0141 3.71379C14.1602 3.12587 14.4848 2.70409 14.9152 2.42727C15.3405 2.15373 15.8572 2.0289 16.3856 2.00625C17.4364 1.9612 18.596 2.31753 19.3395 2.82723C20.4346 3.54912 21.1842 4.65518 21.4487 5.94006C21.5613 6.48688 21.2092 7.02152 20.6624 7.13409C20.5939 7.14816 20.5253 7.15499 20.4576 7.15497C19.9878 7.15489 19.5669 6.82608 19.4684 6.34776C19.3125 5.59031 18.8716 4.93998 18.2257 4.51461C17.5797 4.08926 16.808 3.9412 16.0506 4.09716Z" fill="#808080"/>
<rect x="5" y="12" width="8" height="2" rx="1" fill="#808080"/>
<rect x="5" y="15" width="6" height="2" rx="1" fill="#808080"/>
<circle cx="15" cy="13" r="1" fill="#808080"/>
<circle cx="15" cy="16" r="1" fill="#808080"/>
</svg>
