<svg width="24" height="24" viewBox="0 0 24 24" fill="none" xmlns="http://www.w3.org/2000/svg">
<path fill-rule="evenodd" clip-rule="evenodd" d="M2.87868 2.87868C3.44129 2.31607 4.20435 2 5 2H14V4C14 4.55228 14.4477 5 15 5C15.5523 5 16 4.55228 16 4V2H19C19.7957 2 20.5587 2.31607 21.1213 2.87868C21.6839 3.44129 22 4.20435 22 5V7C22 7.55228 21.5523 8 21 8C20.7348 8 20.4804 8.10536 20.2929 8.29289C20.1054 8.48043 20 8.73478 20 9C20 9.26522 20.1054 9.51957 20.2929 9.70711C20.4804 9.89464 20.7348 10 21 10C21.5523 10 22 10.4477 22 11V12.4015C21.7026 12.1897 21.4145 12.0246 21.1701 11.9025C19.9478 11.2913 18.4692 11 17 11C15.5308 11 14.0522 11.2913 12.8299 11.9025C11.8026 12.4161 10 13.6887 10 16H5C4.20435 16 3.44129 15.6839 2.87868 15.1213C2.31607 14.5587 2 13.7956 2 13V11C2 10.4477 2.44772 10 3 10C3.26522 10 3.51957 9.89464 3.70711 9.70711C3.89464 9.51957 4 9.26522 4 9C4 8.73478 3.89464 8.48043 3.70711 8.29289C3.51957 8.10536 3.26522 8 3 8C2.44772 8 2 7.55228 2 7V5C2 4.20435 2.31607 3.44129 2.87868 2.87868Z" fill="#1A1A1A"/>
<path fill-rule="evenodd" clip-rule="evenodd" d="M12.1737 19.7178C12.4646 20.409 13.0797 20.9216 13.6992 21.2536C14.5949 21.7335 15.7637 22 17 22C18.2363 22 19.4051 21.7335 20.3008 21.2536C20.9203 20.9216 21.5354 20.409 21.8263 19.7178C21.5913 19.8734 21.3665 19.9993 21.1701 20.0975C19.9478 20.7087 18.4692 21 17 21C15.5308 21 14.0522 20.7087 12.8299 20.0975C12.6335 19.9993 12.4087 19.8734 12.1737 19.7178Z" fill="#1A1A1A"/>
<path fill-rule="evenodd" clip-rule="evenodd" d="M13.7243 13.6913C14.6143 13.2463 15.7738 13 17 13C18.2262 13 19.3857 13.2463 20.2757 13.6913C21.1059 14.1064 22 14.8649 22 16C22 17.1351 21.1059 17.8936 20.2757 18.3087C19.3857 18.7537 18.2262 19 17 19C15.7738 19 14.6143 18.7537 13.7243 18.3087C12.8941 17.8936 12 17.1351 12 16C12 14.8649 12.8941 14.1064 13.7243 13.6913Z" fill="#1A1A1A"/>
</svg>
