<svg width="24" height="24" viewBox="0 0 24 24" fill="none" xmlns="http://www.w3.org/2000/svg">
<path fill-rule="evenodd" clip-rule="evenodd" d="M17 12C16.3434 12 15.6932 12.1293 15.0866 12.3806C14.48 12.6319 13.9288 13.0002 13.4645 13.4645C13.0002 13.9288 12.6319 14.48 12.3806 15.0866C12.1293 15.6932 12 16.3434 12 17C12 17.6566 12.1293 18.3068 12.3806 18.9134C12.6319 19.52 13.0002 20.0712 13.4645 20.5355C13.9288 20.9998 14.48 21.3681 15.0866 21.6194C15.6932 21.8707 16.3434 22 17 22C17.6566 22 18.3068 21.8707 18.9134 21.6194C19.52 21.3681 20.0712 20.9998 20.5355 20.5355C20.9998 20.0712 21.3681 19.52 21.6194 18.9134C21.8707 18.3068 22 17.6566 22 17C22 16.3434 21.8707 15.6932 21.6194 15.0866C21.3681 14.48 20.9998 13.9288 20.5355 13.4645C20.0712 13.0002 19.52 12.6319 18.9134 12.3806C18.3068 12.1293 17.6566 12 17 12ZM17.8107 14.2179C17.3759 14.0139 16.8786 13.9507 16.3997 14.0386C15.9204 14.1265 15.4877 14.3604 15.172 14.7024C14.9128 14.9831 14.9509 15.4033 15.2571 15.6409C15.5634 15.8785 16.0218 15.8436 16.281 15.5629C16.3848 15.4504 16.5271 15.3735 16.6847 15.3446C16.8423 15.3157 17.0059 15.3365 17.149 15.4037L17.1504 15.4043C17.2959 15.4723 17.4123 15.5833 17.4805 15.7193C17.5488 15.8554 17.5651 16.0086 17.5267 16.1541C17.4883 16.2997 17.3976 16.4291 17.269 16.5216C17.1405 16.614 16.9818 16.6641 16.8184 16.6636C16.4172 16.6625 16.0909 16.9598 16.0897 17.3276C16.0885 17.6954 16.4128 17.9944 16.814 17.9955C17.3041 17.9969 17.7804 17.8467 18.166 17.5694C18.5515 17.2921 18.8239 16.9037 18.939 16.467C19.0541 16.0303 19.0053 15.5708 18.8005 15.1626C18.5958 14.7547 18.2471 14.4219 17.8107 14.2179ZM17.5427 19.3274C17.5427 18.9596 17.2174 18.6615 16.8162 18.6615C16.415 18.6615 16.0897 18.9596 16.0897 19.3274V19.3341C16.0897 19.7018 16.415 20 16.8162 20C17.2174 20 17.5427 19.7018 17.5427 19.3341V19.3274Z" fill="#1A1A1A"/>
<path d="M10.6754 14H7C5.67392 14 4.40215 14.5268 3.46447 15.4645C2.52678 16.4021 2 17.6739 2 19V21C2 21.5523 2.44772 22 3 22H12.101C12.084 21.9833 12.0671 21.9666 12.0503 21.9497C10.7375 20.637 10 18.8565 10 17C10 15.9523 10.2349 14.9289 10.6754 14Z" fill="#1A1A1A"/>
<path d="M5.46447 3.46447C6.40215 2.52678 7.67392 2 9 2C10.3261 2 11.5979 2.52678 12.5355 3.46447C13.4732 4.40215 14 5.67392 14 7C14 8.32608 13.4732 9.59785 12.5355 10.5355C11.5979 11.4732 10.3261 12 9 12C7.67392 12 6.40215 11.4732 5.46447 10.5355C4.52678 9.59785 4 8.32608 4 7C4 5.67392 4.52678 4.40215 5.46447 3.46447Z" fill="#1A1A1A"/>
</svg>
