<svg width="24" height="24" viewBox="0 0 24 24" fill="none" xmlns="http://www.w3.org/2000/svg">
<path d="M14.9854 6.70312C14.9171 6.01649 14.6133 5.3711 14.1211 4.87891C13.6289 4.38671 12.9835 4.08291 12.2969 4.01465L12 4C11.2044 4 10.4415 4.3163 9.87891 4.87891C9.3163 5.44152 9 6.20435 9 7L9.01465 7.29688C9.08291 7.98351 9.38671 8.6289 9.87891 9.12109C10.4415 9.6837 11.2044 10 12 10L12.2969 9.98535C12.9835 9.91709 13.6289 9.61329 14.1211 9.12109C14.6837 8.55848 15 7.79565 15 7L14.9854 6.70312ZM16.9941 7.24805C16.9328 8.48382 16.4142 9.6561 15.5352 10.5352C14.6561 11.4142 13.4838 11.9328 12.248 11.9941L12 12C10.6739 12 9.40253 11.4728 8.46484 10.5352C7.58579 9.6561 7.06719 8.48382 7.00586 7.24805L7 7C7 5.67392 7.52716 4.40253 8.46484 3.46484C9.40253 2.52716 10.6739 2 12 2C13.3261 2 14.5975 2.52716 15.5352 3.46484C16.4728 4.40253 17 5.67392 17 7L16.9941 7.24805Z" fill="#1A1A1A"/>
<path d="M19 15C19.5523 15 20 15.4477 20 16V18H22C22.5523 18 23 18.4477 23 19C23 19.5523 22.5523 20 22 20H20V22C20 22.5523 19.5523 23 19 23C18.4477 23 18 22.5523 18 22V20H16C15.4477 20 15 19.5523 15 19C15 18.4477 15.4477 18 16 18H18V16C18 15.4477 18.4477 15 19 15Z" fill="#808080"/>
<path d="M5 21V19C5 17.6739 5.52716 16.4025 6.46484 15.4648C7.40253 14.5272 8.67392 14 10 14H14C14.5523 14 15 14.4477 15 15C15 15.5523 14.5523 16 14 16H10C9.20435 16 8.44152 16.3163 7.87891 16.8789C7.3163 17.4415 7 18.2044 7 19V21C7 21.5523 6.55228 22 6 22C5.44772 22 5 21.5523 5 21Z" fill="#1A1A1A"/>
</svg>
