<svg width="24" height="24" viewBox="0 0 24 24" fill="none" xmlns="http://www.w3.org/2000/svg">
<path fill-rule="evenodd" clip-rule="evenodd" d="M9.17157 7.17157C9.92172 6.42143 10.9391 6 12 6C13.0609 6 14.0783 6.42143 14.8284 7.17157C15.5786 7.92172 16 8.93913 16 10C16 11.0609 15.5786 12.0783 14.8284 12.8284C14.0783 13.5786 13.0609 14 12 14C10.9391 14 9.92172 13.5786 9.17157 12.8284C8.42143 12.0783 8 11.0609 8 10C8 8.93913 8.42143 7.92172 9.17157 7.17157ZM12 8C11.4696 8 10.9609 8.21071 10.5858 8.58579C10.2107 8.96086 10 9.46957 10 10C10 10.5304 10.2107 11.0391 10.5858 11.4142C10.9609 11.7893 11.4696 12 12 12C12.5304 12 13.0391 11.7893 13.4142 11.4142C13.7893 11.0391 14 10.5304 14 10C14 9.46957 13.7893 8.96086 13.4142 8.58579C13.0391 8.21071 12.5304 8 12 8Z" fill="#808080"/>
<path fill-rule="evenodd" clip-rule="evenodd" d="M10 17C9.20435 17 8.44129 17.3161 7.87868 17.8787C7.31607 18.4413 7 19.2044 7 20V20.05C7 20.6023 6.55228 21.05 6 21.05C5.44772 21.05 5 20.6023 5 20.05V20C5 18.6739 5.52678 17.4021 6.46447 16.4645C7.40215 15.5268 8.67392 15 10 15H14C15.3261 15 16.5979 15.5268 17.5355 16.4645C18.4732 17.4021 19 18.6739 19 20V20.05C19 20.6023 18.5523 21.05 18 21.05C17.4477 21.05 17 20.6023 17 20.05V20C17 19.2044 16.6839 18.4413 16.1213 17.8787C15.5587 17.3161 14.7956 17 14 17H10Z" fill="#808080"/>
<path fill-rule="evenodd" clip-rule="evenodd" d="M5.50711 5.50711C4.47511 6.5391 4 8.39285 4 12C4 15.6071 4.47511 17.4609 5.50711 18.4929C6.5391 19.5249 8.39285 20 12 20C15.6071 20 17.4609 19.5249 18.4929 18.4929C19.5249 17.4609 20 15.6071 20 12C20 8.39285 19.5249 6.5391 18.4929 5.50711C17.4609 4.47511 15.6071 4 12 4C8.39285 4 6.5391 4.47511 5.50711 5.50711ZM4.09289 4.09289C5.7609 2.42489 8.40715 2 12 2C15.5929 2 18.2391 2.42489 19.9071 4.09289C21.5751 5.7609 22 8.40715 22 12C22 15.5929 21.5751 18.2391 19.9071 19.9071C18.2391 21.5751 15.5929 22 12 22C8.40715 22 5.7609 21.5751 4.09289 19.9071C2.42489 18.2391 2 15.5929 2 12C2 8.40715 2.42489 5.7609 4.09289 4.09289Z" fill="#1A1A1A"/>
</svg>
