<svg width="24" height="24" viewBox="0 0 24 24" fill="none" xmlns="http://www.w3.org/2000/svg">
<path d="M3 21V19C3 17.6739 3.52716 16.4025 4.46484 15.4648C5.40253 14.5272 6.67392 14 8 14H10C10.5523 14 11 14.4477 11 15C11 15.5523 10.5523 16 10 16H8C7.20435 16 6.44152 16.3163 5.87891 16.8789C5.3163 17.4415 5 18.2044 5 19V21C5 21.5523 4.55228 22 4 22C3.44772 22 3 21.5523 3 21Z" fill="#1A1A1A"/>
<path d="M15.8691 12.7246C16.2619 12.4043 16.8409 12.4269 17.207 12.793L17.3623 12.9385C18.1606 13.6424 19.2945 14 20 14L20.1025 14.0049C20.6067 14.0562 21 14.4823 21 15C21 17.2163 20.3046 18.9265 19.4248 20.0996C18.9879 20.6822 18.5009 21.1388 18.0234 21.457C17.5746 21.7563 17.0336 22 16.5 22C15.9664 22 15.4254 21.7563 14.9766 21.457C14.4991 21.1388 14.0121 20.6822 13.5752 20.0996C12.6954 18.9265 12 17.2163 12 15L12.0049 14.8975C12.0562 14.3933 12.4823 14 13 14C13.7526 14 14.9928 13.5932 15.793 12.793L15.8691 12.7246ZM16.5 14.8037C15.734 15.3514 14.8539 15.7093 14.0479 15.8809C14.1944 17.2156 14.6618 18.2165 15.1748 18.9004C15.4878 19.3177 15.8134 19.6113 16.0859 19.793C16.3871 19.9937 16.5336 20 16.5 20C16.4664 20 16.6129 19.9937 16.9141 19.793C17.1866 19.6113 17.5122 19.3177 17.8252 18.9004C18.3381 18.2165 18.8046 17.2155 18.9512 15.8809C18.1453 15.7092 17.2657 15.3512 16.5 14.8037Z" fill="#808080"/>
<path d="M12.9854 6.70312C12.9171 6.01649 12.6133 5.3711 12.1211 4.87891C11.6289 4.38671 10.9835 4.08291 10.2969 4.01465L10 4C9.20435 4 8.44152 4.3163 7.87891 4.87891C7.3163 5.44152 7 6.20435 7 7L7.01465 7.29688C7.08291 7.98351 7.38671 8.6289 7.87891 9.12109C8.44152 9.6837 9.20435 10 10 10L10.2969 9.98535C10.9835 9.91709 11.6289 9.61329 12.1211 9.12109C12.6837 8.55848 13 7.79565 13 7L12.9854 6.70312ZM14.9941 7.24805C14.9328 8.48382 14.4142 9.6561 13.5352 10.5352C12.6561 11.4142 11.4838 11.9328 10.248 11.9941L10 12C8.67392 12 7.40253 11.4728 6.46484 10.5352C5.58579 9.6561 5.06719 8.48382 5.00586 7.24805L5 7C5 5.67392 5.52716 4.40253 6.46484 3.46484C7.40253 2.52716 8.67392 2 10 2C11.3261 2 12.5975 2.52716 13.5352 3.46484C14.4728 4.40253 15 5.67392 15 7L14.9941 7.24805Z" fill="#1A1A1A"/>
</svg>
