<svg width="24" height="24" viewBox="0 0 24 24" fill="none" xmlns="http://www.w3.org/2000/svg">
<path fill-rule="evenodd" clip-rule="evenodd" d="M8.46447 3.46447C9.40215 2.52678 10.6739 2 12 2C13.3261 2 14.5979 2.52678 15.5355 3.46447C16.4732 4.40215 17 5.67392 17 7C17 8.32608 16.4732 9.59785 15.5355 10.5355C14.5979 11.4732 13.3261 12 12 12C10.6739 12 9.40215 11.4732 8.46447 10.5355C7.52678 9.59785 7 8.32608 7 7C7 5.67392 7.52678 4.40215 8.46447 3.46447ZM12 4C11.2044 4 10.4413 4.31607 9.87868 4.87868C9.31607 5.44129 9 6.20435 9 7C9 7.79565 9.31607 8.55871 9.87868 9.12132C10.4413 9.68393 11.2044 10 12 10C12.7956 10 13.5587 9.68393 14.1213 9.12132C14.6839 8.55871 15 7.79565 15 7C15 6.20435 14.6839 5.44129 14.1213 4.87868C13.5587 4.31607 12.7956 4 12 4Z" fill="#1A1A1A"/>
<path fill-rule="evenodd" clip-rule="evenodd" d="M10 16C9.20435 16 8.44129 16.3161 7.87868 16.8787C7.31607 17.4413 7 18.2044 7 19V21C7 21.5523 6.55228 22 6 22C5.44772 22 5 21.5523 5 21V19C5 17.6739 5.52678 16.4021 6.46447 15.4645C7.40215 14.5268 8.67392 14 10 14H12.5C13.0523 14 13.5 14.4477 13.5 15C13.5 15.5523 13.0523 16 12.5 16H10Z" fill="#1A1A1A"/>
<path fill-rule="evenodd" clip-rule="evenodd" d="M21.8287 20.8275C22.3878 20.2683 22.7687 19.5558 22.9231 18.7802C23.0775 18.0042 22.9983 17.1999 22.6956 16.4689C22.3929 15.7379 21.8802 15.1131 21.2224 14.6736C20.5646 14.234 19.7912 13.9994 19 13.9994C18.2088 13.9994 17.4354 14.234 16.7776 14.6736C16.1198 15.1131 15.6071 15.7379 15.3044 16.4689C15.0017 17.1999 14.9225 18.0042 15.0769 18.7802C15.2313 19.5559 15.6123 20.2684 16.1715 20.8277C16.4109 21.0676 16.9717 21.5633 17.4385 21.9709C17.6794 22.1812 17.9069 22.3781 18.074 22.5224L18.2741 22.6947L18.3488 22.7589C18.724 23.0806 19.2784 23.0802 19.6528 22.7575L19.73 22.6909L19.9354 22.5132C20.1067 22.3647 20.3392 22.1628 20.5833 21.9492C21.0546 21.5368 21.6172 21.0396 21.8287 20.8275ZM20.4129 19.4149L20.414 19.4138C20.6938 19.1341 20.8843 18.7777 20.9615 18.3898C21.0387 18.0018 20.9992 17.5996 20.8478 17.2341C20.6965 16.8686 20.4401 16.5563 20.1112 16.3365C19.7823 16.1167 19.3956 15.9994 19 15.9994C18.6044 15.9994 18.2177 16.1167 17.8888 16.3365C17.5599 16.5563 17.3035 16.8686 17.1522 17.2341C17.0008 17.5996 16.9613 18.0018 17.0385 18.3898C17.1157 18.7777 17.3062 19.1341 17.586 19.4138L17.587 19.4147C17.7659 19.5941 18.2651 20.0375 18.754 20.4644C18.8378 20.5376 18.9201 20.6092 18.9988 20.6776C19.0845 20.6028 19.1746 20.5242 19.2662 20.444C19.7646 20.008 20.2622 19.566 20.4129 19.4149Z" fill="#808080"/>
<path fill-rule="evenodd" clip-rule="evenodd" d="M19 17C19.5523 17 20 17.4455 20 17.995V18.005C20 18.5545 19.5523 19 19 19C18.4477 19 18 18.5545 18 18.005V17.995C18 17.4455 18.4477 17 19 17Z" fill="#808080"/>
</svg>
