<svg width="24" height="24" viewBox="0 0 24 24" fill="none" xmlns="http://www.w3.org/2000/svg">
<path fill-rule="evenodd" clip-rule="evenodd" d="M6.46447 3.46447C7.40215 2.52678 8.67392 2 10 2C11.3261 2 12.5979 2.52678 13.5355 3.46447C14.4732 4.40215 15 5.67392 15 7C15 8.32608 14.4732 9.59785 13.5355 10.5355C12.5979 11.4732 11.3261 12 10 12C8.67392 12 7.40215 11.4732 6.46447 10.5355C5.52678 9.59785 5 8.32608 5 7C5 5.67392 5.52678 4.40215 6.46447 3.46447ZM10 4C9.20435 4 8.44129 4.31607 7.87868 4.87868C7.31607 5.44129 7 6.20435 7 7C7 7.79565 7.31607 8.55871 7.87868 9.12132C8.44129 9.68393 9.20435 10 10 10C10.7956 10 11.5587 9.68393 12.1213 9.12132C12.6839 8.55871 13 7.79565 13 7C13 6.20435 12.6839 5.44129 12.1213 4.87868C11.5587 4.31607 10.7956 4 10 4Z" fill="#1A1A1A"/>
<path fill-rule="evenodd" clip-rule="evenodd" d="M8 16C7.20435 16 6.44129 16.3161 5.87868 16.8787C5.31607 17.4413 5 18.2044 5 19V21C5 21.5523 4.55228 22 4 22C3.44772 22 3 21.5523 3 21V19C3 17.6739 3.52678 16.4021 4.46447 15.4645C5.40215 14.5268 6.67392 14 8 14H10C10.5523 14 11 14.4477 11 15C11 15.5523 10.5523 16 10 16H8Z" fill="#1A1A1A"/>
<path fill-rule="evenodd" clip-rule="evenodd" d="M16.0057 14.0011V15.0048L17.0022 15.0048V14.0011H16.0057ZM19.0011 15.0048V13.751C19.0011 13.2866 18.8168 12.8412 18.4888 12.5128C18.1608 12.1845 17.7159 12 17.2521 12H15.7559C15.292 12 14.8471 12.1845 14.5191 12.5128C14.1912 12.8412 14.0069 13.2866 14.0069 13.751V15.0048H13.749C13.2851 15.0048 12.8403 15.1893 12.5123 15.5177C12.1843 15.8461 12 16.2914 12 16.7558V20.249C12 20.7134 12.1843 21.1588 12.5123 21.4872C12.8403 21.8155 13.2851 22 13.749 22L19.251 22C19.7149 22 20.1597 21.8155 20.4877 21.4872C20.8157 21.1588 21 20.7134 21 20.249V16.7558C21 16.2914 20.8157 15.8461 20.4877 15.5177C20.1597 15.1893 19.7149 15.0048 19.251 15.0048H19.0011ZM13.9988 17.0059V19.9989L19.0012 19.9989V17.0059L13.9988 17.0059ZM19.251 17.0059C19.2509 17.0059 19.2512 17.0059 19.251 17.0059V17.0059Z" fill="#808080"/>
</svg>
