<svg width="24" height="24" viewBox="0 0 24 24" fill="none" xmlns="http://www.w3.org/2000/svg">
<path fill-rule="evenodd" clip-rule="evenodd" d="M6.46447 3.46447C7.40215 2.52678 8.67392 2 10 2C11.3261 2 12.5979 2.52678 13.5355 3.46447C14.4732 4.40215 15 5.67392 15 7C15 8.32608 14.4732 9.59785 13.5355 10.5355C12.5979 11.4732 11.3261 12 10 12C8.67392 12 7.40215 11.4732 6.46447 10.5355C5.52678 9.59785 5 8.32608 5 7C5 5.67392 5.52678 4.40215 6.46447 3.46447ZM10 4C9.20435 4 8.44129 4.31607 7.87868 4.87868C7.31607 5.44129 7 6.20435 7 7C7 7.79565 7.31607 8.55871 7.87868 9.12132C8.44129 9.68393 9.20435 10 10 10C10.7956 10 11.5587 9.68393 12.1213 9.12132C12.6839 8.55871 13 7.79565 13 7C13 6.20435 12.6839 5.44129 12.1213 4.87868C11.5587 4.31607 10.7956 4 10 4Z" fill="#1A1A1A"/>
<path fill-rule="evenodd" clip-rule="evenodd" d="M16.5005 15.4856L16.0325 16.4685C15.9062 16.7336 15.6627 16.9173 15.3811 16.9597L14.3408 17.1166L15.0915 17.8751C15.2963 18.082 15.3898 18.3806 15.3413 18.6732L15.1635 19.7476L16.0989 19.2379C16.3504 19.1009 16.6506 19.1009 16.9021 19.2379L17.8371 19.7474L17.6596 18.6729C17.6113 18.3804 17.7048 18.0819 17.9095 17.8751L18.6602 17.1166L17.6199 16.9597C17.3383 16.9173 17.0948 16.7336 16.9686 16.4685L16.5005 15.4856ZM15.8661 13.1878C16.0566 13.065 16.2763 13 16.5005 13C16.7247 13 16.9444 13.065 17.1349 13.1878C17.3255 13.3106 17.4793 13.4862 17.5791 13.6949L17.5797 13.6963L18.3179 15.2463L19.9684 15.4952C19.9682 15.4951 19.9686 15.4952 19.9684 15.4952C19.9685 15.4952 19.9692 15.4953 19.9693 15.4953C20.1912 15.5287 20.3997 15.6259 20.5712 15.7759C20.7431 15.9261 20.871 16.1233 20.9407 16.3453C21.0103 16.5672 21.0188 16.805 20.9653 17.0316C20.9117 17.2583 20.7983 17.465 20.6377 17.6281L20.636 17.6298L19.4426 18.8355L19.7235 20.536C19.7235 20.5358 19.7235 20.5362 19.7235 20.536C19.7235 20.5361 19.7236 20.5369 19.7237 20.537C19.7617 20.7672 19.7371 21.0039 19.6525 21.2203C19.5678 21.437 19.4263 21.6246 19.2442 21.7619C19.062 21.8992 18.8465 21.9806 18.6221 21.997C18.3986 22.0132 18.1752 21.9642 17.9771 21.8556C17.9763 21.8551 17.9755 21.8547 17.9747 21.8542L16.5005 21.051L15.0225 21.8563L15.0204 21.8575C14.8224 21.9647 14.5995 22.0125 14.3768 21.9956C14.1541 21.9788 13.9403 21.8979 13.7593 21.762C13.5782 21.6261 13.437 21.4405 13.3515 21.226C13.266 21.0115 13.2395 20.7765 13.275 20.5472L13.2765 20.5376L13.5583 18.8354L12.3666 17.6314C12.3662 17.631 12.3659 17.6307 12.3655 17.6303C12.204 17.4676 12.0897 17.261 12.0354 17.034C11.9811 16.8065 11.9894 16.5677 12.0593 16.3449C12.1292 16.1221 12.258 15.9242 12.4309 15.7738C12.6028 15.6243 12.8116 15.5277 13.0335 15.495L14.6831 15.2463L15.4219 13.6949C15.5217 13.4862 15.6755 13.3106 15.8661 13.1878Z" fill="#808080"/>
<path fill-rule="evenodd" clip-rule="evenodd" d="M8 16C7.20435 16 6.44129 16.3161 5.87868 16.8787C5.31607 17.4413 5 18.2044 5 19V21C5 21.5523 4.55228 22 4 22C3.44772 22 3 21.5523 3 21V19C3 17.6739 3.52678 16.4021 4.46447 15.4645C5.40215 14.5268 6.67392 14 8 14H10C10.5523 14 11 14.4477 11 15C11 15.5523 10.5523 16 10 16H8Z" fill="#1A1A1A"/>
</svg>
