<svg width="24" height="24" viewBox="0 0 24 24" fill="none" xmlns="http://www.w3.org/2000/svg">
<path fill-rule="evenodd" clip-rule="evenodd" d="M5.46447 3.46447C6.40215 2.52678 7.67392 2 9 2C10.3261 2 11.5979 2.52678 12.5355 3.46447C13.4732 4.40215 14 5.67392 14 7C14 8.32608 13.4732 9.59785 12.5355 10.5355C11.5979 11.4732 10.3261 12 9 12C7.67392 12 6.40215 11.4732 5.46447 10.5355C4.52678 9.59785 4 8.32608 4 7C4 5.67392 4.52678 4.40215 5.46447 3.46447Z" fill="#1A1A1A"/>
<path fill-rule="evenodd" clip-rule="evenodd" d="M10.6754 14H7C5.67392 14 4.40215 14.5268 3.46447 15.4645C2.52678 16.4021 2 17.6739 2 19V21C2 21.5523 2.44772 22 3 22H12.101C12.084 21.9833 12.0671 21.9666 12.0503 21.9497C10.7375 20.637 10 18.8565 10 17C10 15.9523 10.2349 14.9289 10.6754 14Z" fill="#1A1A1A"/>
<path fill-rule="evenodd" clip-rule="evenodd" d="M13.4645 13.4645C14.4021 12.5268 15.6739 12 17 12C18.3261 12 19.5979 12.5268 20.5355 13.4645C21.4732 14.4021 22 15.6739 22 17C22 18.3261 21.4732 19.5979 20.5355 20.5355C19.5979 21.4732 18.3261 22 17 22C15.6739 22 14.4021 21.4732 13.4645 20.5355C12.5268 19.5979 12 18.3261 12 17C12 15.6739 12.5268 14.4021 13.4645 13.4645ZM18 15.496C18 14.9437 17.5523 14.496 17 14.496C16.4477 14.496 16 14.9437 16 15.496V16.5858L15.2929 17.2929C14.9024 17.6834 14.9024 18.3166 15.2929 18.7071C15.6834 19.0976 16.3166 19.0976 16.7071 18.7071L17.7071 17.7071C17.8946 17.5195 18 17.2652 18 17V15.496Z" fill="#1A1A1A"/>
</svg>
