<svg width="24" height="24" viewBox="0 0 24 24" fill="none" xmlns="http://www.w3.org/2000/svg">
<path fill-rule="evenodd" clip-rule="evenodd" d="M6.46447 3.46447C7.40215 2.52678 8.67392 2 10 2C11.3261 2 12.5979 2.52678 13.5355 3.46447C14.4732 4.40215 15 5.67392 15 7C15 8.32608 14.4732 9.59785 13.5355 10.5355C12.5979 11.4732 11.3261 12 10 12C8.67392 12 7.40215 11.4732 6.46447 10.5355C5.52678 9.59785 5 8.32608 5 7C5 5.67392 5.52678 4.40215 6.46447 3.46447ZM10 4C9.20435 4 8.44129 4.31607 7.87868 4.87868C7.31607 5.44129 7 6.20435 7 7C7 7.79565 7.31607 8.55871 7.87868 9.12132C8.44129 9.68393 9.20435 10 10 10C10.7956 10 11.5587 9.68393 12.1213 9.12132C12.6839 8.55871 13 7.79565 13 7C13 6.20435 12.6839 5.44129 12.1213 4.87868C11.5587 4.31607 10.7956 4 10 4Z" fill="#1A1A1A"/>
<path fill-rule="evenodd" clip-rule="evenodd" d="M8 16C7.20435 16 6.44129 16.3161 5.87868 16.8787C5.31607 17.4413 5 18.2044 5 19V21C5 21.5523 4.55228 22 4 22C3.44772 22 3 21.5523 3 21V19C3 17.6739 3.52678 16.4021 4.46447 15.4645C5.40215 14.5268 6.67392 14 8 14H10C10.5523 14 11 14.4477 11 15C11 15.5523 10.5523 16 10 16H8Z" fill="#1A1A1A"/>
<path d="M16 16.5V14.5M18 13V14C18 14.1326 17.9473 14.2598 17.8536 14.3536C17.7598 14.4473 17.6326 14.5 17.5 14.5H14.5C14.3674 14.5 14.2402 14.4473 14.1464 14.3536C14.0527 14.2598 14 14.1326 14 14V13C14 12.8674 14.0527 12.7402 14.1464 12.6464C14.2402 12.5527 14.3674 12.5 14.5 12.5H17.5C17.6326 12.5 17.7598 12.5527 17.8536 12.6464C17.9473 12.7402 18 12.8674 18 13Z" stroke="#808080" stroke-width="1.4" stroke-linecap="round" stroke-linejoin="round"/>
<path d="M13 19.5V21C13 21.1326 13.0527 21.2598 13.1464 21.3536C13.2402 21.4473 13.3674 21.5 13.5 21.5H21.5C21.6326 21.5 21.7598 21.4473 21.8536 21.3536C21.9473 21.2598 22 21.1326 22 21V19.5M13 19.5L13.86 16.84C13.8948 16.7365 13.9625 16.6473 14.0528 16.5859C14.1431 16.5245 14.251 16.4943 14.36 16.5H20.64C20.7448 16.4997 20.8471 16.5324 20.9323 16.5934C21.0176 16.6544 21.0815 16.7407 21.115 16.84L22 19.5M13 19.5H22" stroke="#808080" stroke-width="1.4" stroke-linecap="round" stroke-linejoin="round"/>
</svg>
