<svg width="24" height="24" viewBox="0 0 24 24" fill="none" xmlns="http://www.w3.org/2000/svg">
<path fill-rule="evenodd" clip-rule="evenodd" d="M6.46447 3.46447C7.40215 2.52678 8.67392 2 10 2C11.3261 2 12.5979 2.52678 13.5355 3.46447C14.4732 4.40215 15 5.67392 15 7C15 8.32608 14.4732 9.59785 13.5355 10.5355C12.5979 11.4732 11.3261 12 10 12C8.67392 12 7.40215 11.4732 6.46447 10.5355C5.52678 9.59785 5 8.32608 5 7C5 5.67392 5.52678 4.40215 6.46447 3.46447ZM10 4C9.20435 4 8.44129 4.31607 7.87868 4.87868C7.31607 5.44129 7 6.20435 7 7C7 7.79565 7.31607 8.55871 7.87868 9.12132C8.44129 9.68393 9.20435 10 10 10C10.7956 10 11.5587 9.68393 12.1213 9.12132C12.6839 8.55871 13 7.79565 13 7C13 6.20435 12.6839 5.44129 12.1213 4.87868C11.5587 4.31607 10.7956 4 10 4Z" fill="#1A1A1A"/>
<path fill-rule="evenodd" clip-rule="evenodd" d="M16.9995 13C17.5474 13 17.9916 13.4477 17.9916 14V15.5C17.9916 15.6749 17.9471 15.8393 17.8688 15.9824C17.9525 15.8425 18.0715 15.7214 18.2218 15.634L19.5106 14.884C19.9851 14.6078 20.5919 14.7717 20.8659 15.25C21.1399 15.7283 20.9773 16.3399 20.5028 16.616L19.214 17.366C19.0633 17.4537 18.8994 17.497 18.737 17.5C18.8993 17.503 19.0631 17.5463 19.2137 17.6338L20.5035 18.3838C20.9781 18.6598 21.1409 19.2713 20.8671 19.7497C20.5932 20.2281 19.9865 20.3922 19.5119 20.1162L18.2221 19.3662C18.0717 19.2787 17.9526 19.1576 17.8688 19.0176C17.9471 19.1607 17.9916 19.3251 17.9916 19.5V21C17.9916 21.5523 17.5474 22 16.9995 22C16.4516 22 16.0074 21.5523 16.0074 21V19.5C16.0074 19.3306 16.0491 19.1711 16.1228 19.0313C16.0396 19.1655 15.9234 19.2816 15.7779 19.3662L14.4881 20.1162C14.0135 20.3922 13.4068 20.2281 13.1329 19.7497C12.8591 19.2713 13.0219 18.6598 13.4965 18.3838L14.7863 17.6338C14.9369 17.5463 15.1007 17.503 15.263 17.5C15.1007 17.497 14.9369 17.4537 14.7863 17.3662L13.4965 16.6162C13.0219 16.3402 12.8591 15.7287 13.1329 15.2503C13.4068 14.7719 14.0135 14.6078 14.4881 14.8838L15.7779 15.6338C15.9234 15.7184 16.0396 15.8345 16.1228 15.9687C16.0491 15.8289 16.0074 15.6694 16.0074 15.5V14C16.0074 13.4477 16.4516 13 16.9995 13ZM16.1578 16.0297C16.313 16.324 16.3189 16.6898 16.1415 16.9997C15.961 17.315 15.6359 17.4938 15.2993 17.5C15.6359 17.5062 15.961 17.685 16.1415 18.0003C16.3189 18.3102 16.313 18.676 16.1578 18.9703C16.3332 18.6878 16.6446 18.5 16.9995 18.5C17.3601 18.5 17.6758 18.6939 17.8495 18.984C17.6872 18.6874 17.6783 18.315 17.8585 18.0003C18.039 17.685 18.3641 17.5062 18.7007 17.5C18.3642 17.4938 18.0392 17.3152 17.8587 17C17.6784 16.6852 17.6871 16.3127 17.8495 16.016C17.6758 16.3061 17.3601 16.5 16.9995 16.5C16.6446 16.5 16.3332 16.3122 16.1578 16.0297Z" fill="#808080"/>
<path fill-rule="evenodd" clip-rule="evenodd" d="M14.8787 15.3787C15.4413 14.8161 16.2043 14.5 17 14.5C17.7957 14.5 18.5587 14.8161 19.1213 15.3787C19.6839 15.9413 20 16.7043 20 17.5C20 18.2957 19.6839 19.0587 19.1213 19.6213C18.5587 20.1839 17.7957 20.5 17 20.5C16.2043 20.5 15.4413 20.1839 14.8787 19.6213C14.3161 19.0587 14 18.2957 14 17.5C14 16.7043 14.3161 15.9413 14.8787 15.3787ZM17 16.5C16.7348 16.5 16.4804 16.6054 16.2929 16.7929C16.1054 16.9804 16 17.2348 16 17.5C16 17.7652 16.1054 18.0196 16.2929 18.2071C16.4804 18.3946 16.7348 18.5 17 18.5C17.2652 18.5 17.5196 18.3946 17.7071 18.2071C17.8946 18.0196 18 17.7652 18 17.5C18 17.2348 17.8946 16.9804 17.7071 16.7929C17.5196 16.6054 17.2652 16.5 17 16.5Z" fill="#1A1A1A"/>
<path fill-rule="evenodd" clip-rule="evenodd" d="M8 16C7.20435 16 6.44129 16.3161 5.87868 16.8787C5.31607 17.4413 5 18.2044 5 19V21C5 21.5523 4.55228 22 4 22C3.44772 22 3 21.5523 3 21V19C3 17.6739 3.52678 16.4021 4.46447 15.4645C5.40215 14.5268 6.67392 14 8 14H10C10.5523 14 11 14.4477 11 15C11 15.5523 10.5523 16 10 16H8Z" fill="#1A1A1A"/>
</svg>
