<svg width="24" height="24" viewBox="0 0 24 24" fill="none" xmlns="http://www.w3.org/2000/svg">
<path fill-rule="evenodd" clip-rule="evenodd" d="M17.25 14C15.4551 14 14 15.4551 14 17.25C14 19.0449 15.4551 20.5 17.25 20.5C19.0449 20.5 20.5 19.0449 20.5 17.25C20.5 15.4551 19.0449 14 17.25 14ZM12.5 17.25C12.5 14.6266 14.6266 12.5 17.25 12.5C19.8734 12.5 22 14.6266 22 17.25C22 19.8734 19.8734 22 17.25 22C14.6266 22 12.5 19.8734 12.5 17.25Z" fill="#1A1A1A"/>
<path fill-rule="evenodd" clip-rule="evenodd" d="M18.7803 16.053C19.0732 16.3459 19.0732 16.8207 18.7803 17.1136L17.447 18.447C17.3063 18.5876 17.1156 18.6666 16.9167 18.6666C16.7178 18.6666 16.527 18.5876 16.3863 18.447L15.7197 17.7803C15.4268 17.4874 15.4268 17.0125 15.7197 16.7196C16.0126 16.4268 16.4874 16.4268 16.7803 16.7196L16.9167 16.856L17.7197 16.053C18.0126 15.7601 18.4874 15.7601 18.7803 16.053Z" fill="#808080"/>
<path fill-rule="evenodd" clip-rule="evenodd" d="M5 4C4.73478 4 4.48043 4.10536 4.29289 4.29289C4.10536 4.48043 4 4.73478 4 5V19C4.01124 19.7519 4.20844 19.9924 5 20H10C11 20 11 21 11 21C11 21 11 22 10 22H4.5C3 22 2 21 2 19.5V5C2 4.20435 2.31607 3.44129 2.87868 2.87868C3.44129 2.31607 4.20435 2 5 2H15C15.7956 2 16.5587 2.31607 17.1213 2.87868C17.6839 3.44129 18 4.20435 18 5V9C18 9.55228 17.5523 10 17 10C16.4477 10 16 9.55228 16 9V5C16 4.73478 15.8946 4.48043 15.7071 4.29289C15.5196 4.10536 15.2652 4 15 4H5Z" fill="#1A1A1A"/>
<path fill-rule="evenodd" clip-rule="evenodd" d="M6 15C6 14.4477 6.44772 14 7 14H9C9.55228 14 10 14.4477 10 15C10 15.5523 9.55228 16 9 16H7C6.44772 16 6 15.5523 6 15Z" fill="#808080"/>
<path fill-rule="evenodd" clip-rule="evenodd" d="M6 11C6 10.4477 6.44772 10 7 10H13C13.5523 10 14 10.4477 14 11C14 11.5523 13.5523 12 13 12H7C6.44772 12 6 11.5523 6 11Z" fill="#808080"/>
<path fill-rule="evenodd" clip-rule="evenodd" d="M6 7C6 6.44772 6.44772 6 7 6H13C13.5523 6 14 6.44772 14 7C14 7.55228 13.5523 8 13 8H7C6.44772 8 6 7.55228 6 7Z" fill="#808080"/>
</svg>
