<svg width="24" height="24" viewBox="0 0 24 24" fill="none" xmlns="http://www.w3.org/2000/svg">
<path d="M19.5001 12.6699C20.2542 13.1054 20.8816 13.7302 21.32 14.4826C21.7585 15.235 21.9928 16.0888 21.9998 16.9596C22.0069 17.8304 21.7864 18.6879 21.3601 19.4473C20.9339 20.2067 20.3167 20.8415 19.5697 21.2891C18.8227 21.7367 17.9718 21.9814 17.1011 21.999C16.2305 22.0166 15.3703 21.8065 14.6058 21.3896C13.8413 20.9726 13.1989 20.3632 12.7423 19.6217C12.2857 18.8802 12.0307 18.0323 12.0025 17.1619L12 16.9999L12.0025 16.8379C12.0305 15.9744 12.2818 15.1329 12.7318 14.3954C13.1819 13.658 13.8153 13.0497 14.5705 12.6299C15.3256 12.2101 16.1766 11.9931 17.0406 12.0002C17.9045 12.0072 18.7519 12.2379 19.5001 12.6699ZM18.5001 17.4999H15.5C15.3674 17.4999 15.2403 17.5526 15.1465 17.6464C15.0527 17.7402 15 17.8673 15 17.9999V18.0249C15 18.5349 15.1961 19.0254 15.5476 19.3948C15.8991 19.7643 16.3792 19.9845 16.8886 20.0099L17.0021 20.0124C17.513 20.0088 18.0034 19.8109 18.3739 19.459C18.7444 19.1071 18.9671 18.6275 18.9971 18.1174L19.0001 18.0144C19.002 17.9476 18.9905 17.881 18.9663 17.8186C18.942 17.7563 18.9055 17.6995 18.8589 17.6515C18.8122 17.6035 18.7565 17.5654 18.6948 17.5393C18.6332 17.5133 18.567 17.4999 18.5001 17.4999ZM15.505 14.9999L15.4415 15.0034C15.315 15.0185 15.199 15.0813 15.1172 15.179C15.0354 15.2768 14.994 15.402 15.0015 15.5292C15.0089 15.6565 15.0647 15.776 15.1574 15.8635C15.25 15.951 15.3726 15.9998 15.5 15.9999L15.5635 15.9964C15.6901 15.9814 15.8061 15.9186 15.8879 15.8209C15.9697 15.7231 16.0111 15.5979 16.0036 15.4706C15.9962 15.3434 15.9404 15.2239 15.8477 15.1364C15.7551 15.0489 15.6325 15.0001 15.505 14.9999ZM18.5051 14.9999L18.4416 15.0034C18.315 15.0185 18.199 15.0813 18.1172 15.179C18.0354 15.2768 17.994 15.402 18.0015 15.5292C18.009 15.6565 18.0647 15.776 18.1574 15.8635C18.2501 15.951 18.3726 15.9998 18.5001 15.9999L18.5636 15.9964C18.6901 15.9814 18.8062 15.9186 18.888 15.8209C18.9697 15.7231 19.0111 15.5979 19.0037 15.4706C18.9962 15.3434 18.9404 15.2239 18.8478 15.1364C18.7551 15.0489 18.6325 15.0001 18.5051 14.9999Z" fill="#1A1A1A"/>
<path fill-rule="evenodd" clip-rule="evenodd" d="M4.23897 2.7012C4.65508 2.27316 5.21215 2.02349 5.79795 2L12.202 2C12.7878 2.02347 13.3449 2.27315 13.761 2.7012C14.1986 3.15134 14.4444 3.76186 14.4444 4.39845V6.13608C14.4445 6.3482 14.5265 6.55177 14.6723 6.70175L15.3163 7.36422C15.7539 7.81424 15.9999 8.42471 16 9.06121V10.0718C15.1599 10.193 14.3458 10.4665 13.5987 10.8818C12.5415 11.4695 11.6547 12.3211 11.0246 13.3536C10.3945 14.3861 10.0428 15.5642 10.0036 16.7731L10.0027 16.8071L10.0002 16.9691C9.99992 16.9897 9.99992 17.0102 10.0002 17.0308L10.0027 17.1928L10.0035 17.2267L10.0037 17.2308C9.86034 16.9886 9.77778 16.7041 9.77778 16.3998V6.98755L11.1437 4.1773C11.273 3.91131 11.085 3.59835 10.7959 3.59835H7.20407C6.91497 3.59835 6.72695 3.91131 6.85623 4.1773L8.22222 6.98765V16.3998C8.22222 17.2836 7.52578 18 6.66667 18H4.33333C3.71449 18 3.121 17.7471 2.68342 17.297C2.24583 16.8468 2 16.2363 2 15.5997V9.06138C2.00013 8.42488 2.24602 7.81433 2.68358 7.3643L3.32758 6.70183C3.47342 6.55186 3.55547 6.34837 3.55556 6.13625V4.39845C3.55556 3.76186 3.80139 3.15134 4.23897 2.7012ZM3.78338 14.2339C3.47964 14.5463 3.47964 15.0529 3.78338 15.3654C4.08713 15.6778 4.57959 15.6778 4.88333 15.3654L6.43888 13.7652C6.74262 13.4527 6.74262 12.9461 6.43888 12.6337C6.13514 12.3212 5.64268 12.3212 5.33894 12.6337L3.78338 14.2339Z" fill="#1A1A1A"/>
</svg>
