<svg width="24" height="24" viewBox="0 0 24 24" fill="none" xmlns="http://www.w3.org/2000/svg">
<path fill-rule="evenodd" clip-rule="evenodd" d="M5.79795 2C5.21215 2.02349 4.65508 2.27316 4.23897 2.7012C3.80139 3.15134 3.55556 3.76186 3.55556 4.39845V6.13625C3.55547 6.34837 3.47342 6.55186 3.32758 6.70183L2.68358 7.3643C2.24602 7.81433 2.00013 8.42488 2 9.06138V15.5997C2 16.2363 2.24583 16.8468 2.68342 17.297C3.121 17.7471 3.71449 18 4.33333 18H6.66667C7.52578 18 8.22222 17.2836 8.22222 16.3998V6.98765L6.85623 4.1773C6.72695 3.91131 6.91497 3.59835 7.20407 3.59835H10.7959C11.085 3.59835 11.273 3.91131 11.1437 4.1773L9.77778 6.98755V16.3998C9.77778 16.7041 9.86034 16.9886 10.0037 17.2308L10.0035 17.2267L10.0027 17.1928L10.0002 17.0308C9.99992 17.0102 9.99992 16.9897 10.0002 16.9691L10.0027 16.8071L10.0036 16.7731C10.0428 15.5642 10.3945 14.3861 11.0246 13.3536C11.6547 12.3211 12.5415 11.4695 13.5987 10.8818C14.3458 10.4665 15.1599 10.193 16 10.0718V9.06121C15.9999 8.42471 15.7539 7.81424 15.3163 7.36422L14.6723 6.70175C14.5265 6.55177 14.4445 6.3482 14.4444 6.13608V4.39845C14.4444 3.76186 14.1986 3.15134 13.761 2.7012C13.3449 2.27315 12.7878 2.02347 12.202 2L5.79795 2ZM3.78338 14.2339C3.47964 14.5463 3.47964 15.0529 3.78338 15.3654C4.08713 15.6778 4.57959 15.6778 4.88333 15.3654L6.43888 13.7652C6.74262 13.4527 6.74262 12.9461 6.43888 12.6337C6.13514 12.3212 5.64268 12.3212 5.33894 12.6337L3.78338 14.2339Z" fill="#1A1A1A"/>
<path fill-rule="evenodd" clip-rule="evenodd" d="M15.0866 12.3806C15.6932 12.1293 16.3434 12 17 12C17.6566 12 18.3068 12.1293 18.9134 12.3806C19.52 12.6319 20.0712 13.0002 20.5355 13.4645C20.9998 13.9288 21.3681 14.48 21.6194 15.0866C21.8707 15.6932 22 16.3434 22 17C22 17.6566 21.8707 18.3068 21.6194 18.9134C21.3681 19.52 20.9998 20.0712 20.5355 20.5355C20.0712 20.9998 19.52 21.3681 18.9134 21.6194C18.3068 21.8707 17.6566 22 17 22C16.3434 22 15.6932 21.8707 15.0866 21.6194C14.48 21.3681 13.9288 20.9998 13.4645 20.5355C13.0002 20.0712 12.6319 19.52 12.3806 18.9134C12.1293 18.3068 12 17.6566 12 17C12 16.3434 12.1293 15.6932 12.3806 15.0866C12.6319 14.48 13.0002 13.9288 13.4645 13.4645C13.9288 13.0002 14.48 12.6319 15.0866 12.3806ZM17.5427 19.3274C17.5427 18.9596 17.2174 18.6615 16.8162 18.6615C16.415 18.6615 16.0897 18.9596 16.0897 19.3274V19.3341C16.0897 19.7018 16.415 20 16.8162 20C17.2174 20 17.5427 19.7018 17.5427 19.3341V19.3274ZM17.8107 14.2179C17.3759 14.0139 16.8786 13.9507 16.3997 14.0386C15.9204 14.1265 15.4877 14.3604 15.172 14.7024C14.9128 14.9831 14.9509 15.4033 15.2571 15.6409C15.5634 15.8785 16.0218 15.8436 16.281 15.5629C16.3848 15.4504 16.5271 15.3735 16.6847 15.3446C16.8423 15.3157 17.0059 15.3365 17.149 15.4037L17.1504 15.4043C17.2959 15.4723 17.4123 15.5833 17.4805 15.7193C17.5488 15.8554 17.5651 16.0086 17.5267 16.1541C17.4883 16.2997 17.3976 16.4291 17.269 16.5216C17.1405 16.614 16.9818 16.6641 16.8184 16.6636C16.4172 16.6625 16.0909 16.9598 16.0897 17.3276C16.0885 17.6954 16.4128 17.9944 16.814 17.9955C17.3041 17.9969 17.7804 17.8467 18.166 17.5694C18.5515 17.2921 18.8239 16.9037 18.939 16.467C19.0541 16.0303 19.0053 15.5708 18.8005 15.1626C18.5958 14.7547 18.2471 14.4219 17.8107 14.2179Z" fill="#1A1A1A"/>
</svg>
