<svg width="24" height="24" viewBox="0 0 24 24" fill="none" xmlns="http://www.w3.org/2000/svg">
<path fill-rule="evenodd" clip-rule="evenodd" d="M7.88307 2.00229C7.12991 2.03164 6.41367 2.3437 5.87868 2.87869C5.31607 3.4413 5 4.20437 5 5.00001V7.17201C4.99989 7.43713 4.89439 7.69147 4.70689 7.87891L3.87889 8.70691C3.31631 9.26937 3.00017 10.0325 3 10.828V19C3 19.7957 3.31607 20.5587 3.87868 21.1213C4.44129 21.6839 5.20435 22 6 22H9C10.1046 22 11 21.1046 11 20V8.23615L9.24373 4.72361C9.0775 4.39116 9.31925 4 9.69094 4H14.309C14.6807 4 14.9224 4.39116 14.7562 4.72361L13 8.23601V20C13 21.1046 13.8954 22 15 22H18C18.7957 22 19.5587 21.6839 20.1213 21.1213C20.6839 20.5587 21 19.7957 21 19V10.8278C20.9998 10.0323 20.6836 9.26927 20.121 8.7068L19.293 7.8788C19.1055 7.69136 19.0001 7.43692 19 7.1718V5.00001C19 4.20436 18.6839 3.4413 18.1213 2.87869C17.5863 2.34369 16.87 2.03162 16.1169 2.00229L7.88307 2.00229ZM5.29292 18.7071C4.9024 18.3166 4.9024 17.6834 5.29292 17.2929L7.29292 15.2929C7.68345 14.9024 8.31661 14.9024 8.70714 15.2929C9.09766 15.6834 9.09766 16.3166 8.70714 16.7071L6.70714 18.7071C6.31661 19.0976 5.68345 19.0976 5.29292 18.7071ZM18.7071 17.2929C19.0976 17.6834 19.0976 18.3166 18.7071 18.7071C18.3166 19.0976 17.6834 19.0976 17.2929 18.7071L15.2929 16.7071C14.9023 16.3166 14.9023 15.6834 15.2929 15.2929C15.6834 14.9024 16.3166 14.9024 16.7071 15.2929L18.7071 17.2929Z" fill="#1A1A1A"/>
</svg>
