<svg width="24" height="24" viewBox="0 0 24 24" fill="none" xmlns="http://www.w3.org/2000/svg">
<path fill-rule="evenodd" clip-rule="evenodd" d="M4.23897 2.7012C4.65508 2.27316 5.21215 2.02349 5.79795 2L12.202 2C12.7878 2.02347 13.3449 2.27315 13.761 2.7012C14.1986 3.15134 14.4444 3.76186 14.4444 4.39845V6.13608C14.4445 6.3482 14.5265 6.55177 14.6723 6.70175L14.9623 7H14.9286C13.8795 7 12.8779 7.42159 12.1429 8.16476C11.4086 8.90719 11 9.90948 11 10.95V17.9632C10.3011 17.8062 9.77778 17.1659 9.77778 16.3998V6.98755L11.1437 4.1773C11.273 3.91131 11.085 3.59835 10.7959 3.59835H7.20407C6.91497 3.59835 6.72695 3.91131 6.85623 4.1773L8.22222 6.98765V16.3998C8.22222 17.2836 7.52578 18 6.66667 18H4.33333C3.71449 18 3.121 17.7471 2.68342 17.297C2.24583 16.8468 2 16.2363 2 15.5997V9.06138C2.00013 8.42488 2.24602 7.81433 2.68358 7.3643L3.32758 6.70183C3.47342 6.55186 3.55547 6.34837 3.55556 6.13625V4.39845C3.55556 3.76186 3.80139 3.15134 4.23897 2.7012ZM3.78338 14.2339C3.47964 14.5463 3.47964 15.0529 3.78338 15.3654C4.08713 15.6778 4.57959 15.6778 4.88333 15.3654L6.43888 13.7652C6.74262 13.4527 6.74262 12.9461 6.43888 12.6337C6.13514 12.3212 5.64268 12.3212 5.33894 12.6337L3.78338 14.2339Z" fill="#1A1A1A"/>
<path fill-rule="evenodd" clip-rule="evenodd" d="M21.4351 9.57114C21.0735 9.20545 20.5829 9 20.0714 9H14.9286C14.4171 9 13.9265 9.20545 13.5649 9.57114C13.2032 9.93684 13 10.4328 13 10.95V20.05C13 20.5672 13.2032 21.0632 13.5649 21.4289C13.9265 21.7946 14.4171 22 14.9286 22H20.0714C20.5829 22 21.0735 21.7946 21.4351 21.4289C21.7968 21.0632 22 20.5672 22 20.05V10.95C22 10.4328 21.7968 9.93684 21.4351 9.57114ZM15.5714 17.45C15.5714 17.809 15.2836 18.1 14.9286 18.1C14.5735 18.1 14.2857 17.809 14.2857 17.45C14.2857 17.091 14.5735 16.8 14.9286 16.8C15.2836 16.8 15.5714 17.091 15.5714 17.45ZM18.1429 17.45C18.1429 17.809 17.855 18.1 17.5 18.1C17.145 18.1 16.8571 17.809 16.8571 17.45C16.8571 17.091 17.145 16.8 17.5 16.8C17.855 16.8 18.1429 17.091 18.1429 17.45ZM20.7143 17.45C20.7143 17.809 20.4265 18.1 20.0714 18.1C19.7164 18.1 19.4286 17.809 19.4286 17.45C19.4286 17.091 19.7164 16.8 20.0714 16.8C20.4265 16.8 20.7143 17.091 20.7143 17.45ZM19.3367 10.3C19.7021 10.3 20.0525 10.4438 20.3108 10.6998C20.5692 10.9558 20.7143 11.303 20.7143 11.665V14.135C20.7143 14.497 20.5692 14.8442 20.3108 15.1002C20.0525 15.3562 19.7021 15.5 19.3367 15.5H15.6633C15.2979 15.5 14.9475 15.3562 14.6892 15.1002C14.4308 14.8442 14.2857 14.497 14.2857 14.135V11.665C14.2857 11.303 14.4308 10.9558 14.6892 10.6998C14.9475 10.4438 15.2979 10.3 15.6633 10.3H19.3367ZM20.7143 20.05C20.7143 20.409 20.4265 20.7 20.0714 20.7C19.7164 20.7 19.4286 20.409 19.4286 20.05C19.4286 19.691 19.7164 19.4 20.0714 19.4C20.4265 19.4 20.7143 19.691 20.7143 20.05ZM15.5714 20.05C15.5714 20.409 15.2836 20.7 14.9286 20.7C14.5735 20.7 14.2857 20.409 14.2857 20.05C14.2857 19.691 14.5735 19.4 14.9286 19.4C15.2836 19.4 15.5714 19.691 15.5714 20.05ZM18.1429 20.05C18.1429 20.409 17.855 20.7 17.5 20.7C17.145 20.7 16.8571 20.409 16.8571 20.05C16.8571 19.691 17.145 19.4 17.5 19.4C17.855 19.4 18.1429 19.691 18.1429 20.05Z" fill="#1A1A1A"/>
</svg>
