<svg width="24" height="24" viewBox="0 0 24 24" fill="none" xmlns="http://www.w3.org/2000/svg">
<path fill-rule="evenodd" clip-rule="evenodd" d="M4.23897 2.7012C4.65508 2.27316 5.21215 2.02349 5.79795 2L12.202 2C12.7878 2.02347 13.3449 2.27315 13.761 2.7012C14.1986 3.15134 14.4444 3.76186 14.4444 4.39845V6.13608C14.4445 6.3482 14.5265 6.55177 14.6723 6.70175L15.3163 7.36422C15.7539 7.81424 15.9999 8.42471 16 9.06121V10.0718C15.1599 10.193 14.3458 10.4665 13.5987 10.8818C12.5415 11.4695 11.6547 12.3211 11.0246 13.3536C10.3945 14.3861 10.0428 15.5642 10.0036 16.7731L10.0027 16.8071L10.0002 16.9691C9.99992 16.9897 9.99992 17.0102 10.0002 17.0308L10.0027 17.1928L10.0035 17.2267L10.0037 17.2308C9.86034 16.9886 9.77778 16.7041 9.77778 16.3998V6.98755L11.1437 4.1773C11.273 3.91131 11.085 3.59835 10.7959 3.59835H7.20407C6.91497 3.59835 6.72695 3.91131 6.85623 4.1773L8.22222 6.98765V16.3998C8.22222 17.2836 7.52578 18 6.66667 18H4.33333C3.71449 18 3.121 17.7471 2.68342 17.297C2.24583 16.8468 2 16.2363 2 15.5997V9.06138C2.00013 8.42488 2.24602 7.81433 2.68358 7.3643L3.32758 6.70183C3.47342 6.55186 3.55547 6.34837 3.55556 6.13625V4.39845C3.55556 3.76186 3.80139 3.15134 4.23897 2.7012ZM3.78338 15.3654C3.47964 15.0529 3.47964 14.5463 3.78338 14.2339L5.33894 12.6337C5.64268 12.3212 6.13514 12.3212 6.43888 12.6337C6.74262 12.9461 6.74262 13.4527 6.43888 13.7652L4.88333 15.3654C4.57959 15.6778 4.08713 15.6778 3.78338 15.3654ZM21.32 14.4826C20.8816 13.7302 20.2542 13.1054 19.5001 12.6699C18.7519 12.2379 17.9045 12.0072 17.0406 12.0002C16.1766 11.9931 15.3256 12.2101 14.5705 12.6299C13.8153 13.0497 13.1819 13.658 12.7318 14.3954C12.2818 15.1329 12.0305 15.9744 12.0025 16.8379L12 16.9999L12.0025 17.1619C12.0307 18.0323 12.2857 18.8802 12.7423 19.6217C13.1989 20.3632 13.8413 20.9726 14.6058 21.3896C15.3703 21.8065 16.2305 22.0166 17.1011 21.999C17.9718 21.9814 18.8227 21.7367 19.5697 21.2891C20.3167 20.8416 20.9339 20.2067 21.3601 19.4473C21.7864 18.6879 22.0069 17.8304 21.9998 16.9596C21.9928 16.0888 21.7585 15.235 21.32 14.4826ZM18.5314 15.501C18.6529 15.5086 18.7675 15.5604 18.8536 15.6464C18.9397 15.7325 18.9914 15.8471 18.999 15.9686C19.0067 16.0901 18.9697 16.2102 18.8951 16.3064L18.8536 16.3534L16.8536 18.3534L16.8066 18.3949C16.7189 18.463 16.611 18.4999 16.5001 18.4999C16.3891 18.4999 16.2812 18.463 16.1936 18.3949L16.1466 18.3534L15.1465 17.3534L15.105 17.3064C15.0305 17.2102 14.9935 17.0901 15.0012 16.9686C15.0089 16.8472 15.0606 16.7326 15.1467 16.6466C15.2327 16.5605 15.3473 16.5088 15.4687 16.5011C15.5902 16.4935 15.7103 16.5304 15.8065 16.6049L15.8535 16.6464L16.5001 17.2924L18.1466 15.6464L18.1936 15.6049C18.2898 15.5303 18.4099 15.4934 18.5314 15.501Z" fill="#1A1A1A"/>
</svg>
