<svg width="24" height="24" viewBox="0 0 24 24" fill="none" xmlns="http://www.w3.org/2000/svg">
<path fill-rule="evenodd" clip-rule="evenodd" d="M14.7688 12.7322C15.2611 12.2634 15.9288 12 16.625 12H20.125C20.6082 12 21 12.3731 21 12.8333V16.1667C21 16.6269 20.6082 17 20.125 17H16.625C15.9288 17 15.2611 16.7366 14.7688 16.2678C14.2766 15.7989 14 15.163 14 14.5C14 13.837 14.2766 13.2011 14.7688 12.7322Z" fill="#1A1A1A"/>
<path fill-rule="evenodd" clip-rule="evenodd" d="M3.87868 3.87868C4.44129 3.31607 5.20435 3 6 3H16C16.5304 3 17.0391 3.21071 17.4142 3.58579C17.7893 3.96086 18 4.46957 18 5V7C18.5304 7 19.0391 7.21071 19.4142 7.58579C19.7893 7.96086 20 8.46957 20 9V10H16.625C15.429 10 14.2635 10.4516 13.3895 11.284C12.5122 12.1195 12 13.2742 12 14.5C12 15.7258 12.5122 16.8805 13.3895 17.716C14.2635 18.5484 15.429 19 16.625 19H20C20 19.5304 19.7893 20.0391 19.4142 20.4142C19.0391 20.7893 18.5304 21 18 21H6C5.20435 21 4.44129 20.6839 3.87868 20.1213C3.31607 19.5587 3 18.7956 3 18V6C3 5.20435 3.31607 4.44129 3.87868 3.87868ZM5.29289 5.29289C5.48043 5.10536 5.73478 5 6 5L16 5L16 7H6C5.73478 7 5.48043 6.89464 5.29289 6.70711C5.10536 6.51957 5 6.26522 5 6C5 5.73478 5.10536 5.48043 5.29289 5.29289Z" fill="#1A1A1A"/>
</svg>
