<svg width="24" height="24" viewBox="0 0 24 24" fill="none" xmlns="http://www.w3.org/2000/svg">
<path fill-rule="evenodd" clip-rule="evenodd" d="M12.3003 2.63399C12.7786 2.35785 13.3902 2.52172 13.6663 3.00001C13.7384 3.12482 13.8089 3.25041 13.8778 3.37674C15.3187 6.01676 16.0778 8.98124 16.0778 12C16.0778 15.0188 15.3187 17.9833 13.8778 20.6233C13.8089 20.7496 13.7384 20.8752 13.6663 21C13.3902 21.4783 12.7786 21.6422 12.3003 21.366C11.822 21.0899 11.6581 20.4783 11.9343 20C11.9983 19.8891 12.061 19.7774 12.1223 19.6651C13.4031 17.3185 14.0778 14.6834 14.0778 12C14.0778 9.31666 13.4031 6.68157 12.1223 4.33489C12.061 4.2226 11.9983 4.11097 11.9343 4.00002C11.6581 3.52173 11.822 2.91014 12.3003 2.63399Z" fill="#808080"/>
<path fill-rule="evenodd" clip-rule="evenodd" d="M11.6997 2.63399C12.178 2.91014 12.3419 3.52173 12.0657 4.00002C12.0017 4.11092 11.939 4.2225 11.8778 4.33474C10.5969 6.68146 9.92212 9.31661 9.92212 12C9.92212 14.6834 10.5969 17.3186 11.8778 19.6653C11.939 19.7775 12.0017 19.8891 12.0657 20C12.3419 20.4783 12.178 21.0899 11.6997 21.366C11.2214 21.6422 10.6098 21.4783 10.3337 21C10.2616 20.8753 10.1912 20.7497 10.1222 20.6235C8.68128 17.9834 7.92212 15.0189 7.92212 12C7.92212 8.98117 8.68128 6.01664 10.1222 3.37657C10.1912 3.2503 10.2616 3.12477 10.3337 3.00001C10.6098 2.52172 11.2214 2.35785 11.6997 2.63399Z" fill="#808080"/>
<path fill-rule="evenodd" clip-rule="evenodd" d="M3 9C3 8.44772 3.44772 8 4 8V9V10C3.44772 10 3 9.55228 3 9ZM20 9L19.9999 10H4V9V8H19.9998L20 9ZM20 9L19.9999 10C20.5522 10 21 9.55228 21 9C21 8.44772 20.5521 8 19.9998 8L20 9Z" fill="#808080"/>
<path fill-rule="evenodd" clip-rule="evenodd" d="M3 15C3 14.4477 3.44772 14 4 14V15V16C3.44772 16 3 15.5523 3 15ZM20 15L19.9999 16H4V15V14H19.9998L20 15ZM20 15L19.9999 16C20.5522 16 21 15.5523 21 15C21 14.4477 20.5521 14 19.9998 14L20 15Z" fill="#808080"/>
<path fill-rule="evenodd" clip-rule="evenodd" d="M4.92893 4.92893C6.8043 3.05357 9.34784 2 12 2C14.6522 2 17.1957 3.05357 19.0711 4.92893C20.9464 6.8043 22 9.34784 22 12C22 13.3132 21.7413 14.6136 21.2388 15.8268C20.7362 17.0401 19.9997 18.1425 19.0711 19.0711C18.1425 19.9997 17.0401 20.7362 15.8268 21.2388C14.6136 21.7413 13.3132 22 12 22C10.6868 22 9.38642 21.7413 8.17317 21.2388C6.95991 20.7362 5.85752 19.9997 4.92893 19.0711C4.00035 18.1425 3.26375 17.0401 2.7612 15.8268C2.25866 14.6136 2 13.3132 2 12C2 9.34784 3.05357 6.8043 4.92893 4.92893ZM12 4C9.87827 4 7.84344 4.84285 6.34315 6.34315C4.84285 7.84344 4 9.87827 4 12C4 13.0506 4.20693 14.0909 4.60896 15.0615C5.011 16.0321 5.60028 16.914 6.34315 17.6569C7.08601 18.3997 7.96793 18.989 8.93853 19.391C9.90914 19.7931 10.9494 20 12 20C13.0506 20 14.0909 19.7931 15.0615 19.391C16.0321 18.989 16.914 18.3997 17.6569 17.6569C18.3997 16.914 18.989 16.0321 19.391 15.0615C19.7931 14.0909 20 13.0506 20 12C20 9.87827 19.1571 7.84344 17.6569 6.34315C16.1566 4.84285 14.1217 4 12 4Z" fill="#1A1A1A"/>
</svg>
