<svg width="24" height="24" viewBox="0 0 24 24" fill="none" xmlns="http://www.w3.org/2000/svg">
<path fill-rule="evenodd" clip-rule="evenodd" d="M17.1934 5.91333C15.7116 4.64893 13.8194 3.96898 11.8721 4.00109C9.9247 4.03319 8.05598 4.77513 6.6166 6.08768C5.17723 7.40023 4.26614 9.19315 4.05433 11.13C3.84252 13.0668 4.34455 15.0144 5.46619 16.6072C5.66697 16.8923 5.70475 17.2615 5.5659 17.5814L4.65867 19.6716L7.8723 19.0986C8.08125 19.0614 8.29663 19.0916 8.48725 19.185C10.2365 20.0418 12.2381 20.2305 14.1165 19.7158C15.995 19.201 17.6211 18.0182 18.6896 16.3892C19.7582 14.7603 20.1958 12.7972 19.9203 10.8684C19.6449 8.93964 18.6752 7.17772 17.1934 5.91333ZM11.8391 2.00136C14.2733 1.96123 16.6385 2.81117 18.4908 4.39166C20.3431 5.97215 21.5551 8.17455 21.8995 10.5855C22.2438 12.9965 21.6968 15.4504 20.3611 17.4865C19.0254 19.5227 16.9928 21.0013 14.6447 21.6447C12.4043 22.2586 10.0237 22.072 7.9108 21.1233L3.17501 21.9676C2.81243 22.0322 2.44368 21.8922 2.21533 21.6031C1.98699 21.3141 1.93603 20.9228 2.08272 20.5848L3.51612 17.2824C2.33675 15.386 1.82297 13.1435 2.06696 10.9125C2.33172 8.49144 3.47058 6.25029 5.2698 4.6096C7.06902 2.96892 9.40492 2.04149 11.8391 2.00136Z" fill="#1A1A1A"/>
<path fill-rule="evenodd" clip-rule="evenodd" d="M8.43934 7.93934C8.72065 7.65803 9.10218 7.5 9.5 7.5C9.89782 7.5 10.2794 7.65803 10.5607 7.93934C10.842 8.22065 11 8.60218 11 9V10C11 10.3978 10.842 10.7794 10.5607 11.0607C10.4595 11.1618 10.3454 11.247 10.2222 11.3147C10.4187 11.8791 10.741 12.3978 11.1716 12.8284C11.6022 13.259 12.1209 13.5813 12.6853 13.7778C12.753 13.6546 12.8382 13.5405 12.9393 13.4393C13.2206 13.158 13.6022 13 14 13H15C15.3978 13 15.7794 13.158 16.0607 13.4393C16.342 13.7206 16.5 14.1022 16.5 14.5C16.5 14.8978 16.342 15.2794 16.0607 15.5607C15.7794 15.842 15.3978 16 15 16H14C12.4087 16 10.8826 15.3679 9.75736 14.2426C8.63214 13.1174 8 11.5913 8 10V9C8 8.60218 8.15803 8.22065 8.43934 7.93934Z" fill="#808080"/>
</svg>
