<svg width="24" height="24" viewBox="0 0 24 24" fill="none" xmlns="http://www.w3.org/2000/svg">
<path d="M20.0211 18.9104C20.021 18.6163 19.9036 18.3344 19.6955 18.1263L13.7569 12.1877C13.4605 11.8913 13.3829 11.4398 13.5634 11.0614C14.0044 10.1379 14.149 9.0998 13.976 8.09113C13.8029 7.08252 13.321 6.15246 12.5974 5.42883C11.8738 4.70522 10.9437 4.22335 9.93509 4.05027C9.42407 3.96259 8.90538 3.9563 8.39813 4.02876L10.7026 6.33321C10.8881 6.51877 10.9929 6.77083 10.993 7.03325V10.0025C10.993 10.5492 10.5492 10.993 10.0025 10.993H7.03325C6.77083 10.9929 6.51877 10.8881 6.33321 10.7026L4.02876 8.39813C3.9563 8.90538 3.96259 9.42407 4.05027 9.93509C4.22335 10.9437 4.70522 11.8738 5.42883 12.5974C6.15246 13.321 7.08252 13.8029 8.09113 13.976C9.0998 14.149 10.1379 14.0044 11.0614 13.5634L11.2061 13.5076C11.55 13.4056 11.9283 13.4975 12.1877 13.7569L18.1263 19.6955C18.3344 19.9036 18.6163 20.021 18.9104 20.0211C19.2048 20.0211 19.4874 19.9037 19.6955 19.6955C19.9037 19.4874 20.0211 19.2048 20.0211 18.9104ZM22 18.9104C22 19.7298 21.675 20.5162 21.0956 21.0956C20.5162 21.675 19.7298 22 18.9104 22C18.0913 21.9999 17.3055 21.6749 16.7262 21.0956L11.253 15.6224C10.1364 16.0203 8.93296 16.1283 7.75675 15.9265C6.34463 15.6842 5.04187 15.0106 4.02876 13.9975C3.01563 12.9843 2.34202 11.6816 2.09974 10.2695C1.85748 8.85735 2.05912 7.40511 2.67659 6.11225L2.73427 6.00764C2.88316 5.77345 3.12492 5.61033 3.40204 5.56278C3.71865 5.50853 4.04212 5.61137 4.26927 5.83849L7.44389 9.01311H9.01311V7.44389L5.83849 4.26927C5.61137 4.04212 5.50853 3.71865 5.56278 3.40204C5.61711 3.08536 5.82231 2.81507 6.11225 2.67659C7.40511 2.05912 8.85735 1.85748 10.2695 2.09974C11.6816 2.34202 12.9843 3.01563 13.9975 4.02876C15.0106 5.04187 15.6842 6.34463 15.9265 7.75675C16.1283 8.93296 16.0203 10.1364 15.6224 11.253L21.0956 16.7262C21.6749 17.3055 21.9999 18.0913 22 18.9104Z" fill="#1A1A1A"/>
</svg>
