<svg width="24" height="24" viewBox="0 0 24 24" fill="none" xmlns="http://www.w3.org/2000/svg">
<path fill-rule="evenodd" clip-rule="evenodd" d="M6 5C5.20435 5 4.44129 5.31607 3.87868 5.87868C3.31607 6.44129 3 7.20435 3 8V16C3 16.7956 3.31607 17.5587 3.87868 18.1213C4.44129 18.6839 5.20435 19 6 19H18C18.7956 19 19.5587 18.6839 20.1213 18.1213C20.6839 17.5587 21 16.7956 21 16V8C21 7.20435 20.6839 6.44129 20.1213 5.87868C19.5587 5.31607 18.7956 5 18 5H6ZM2.46447 4.46447C3.40215 3.52678 4.67392 3 6 3H18C19.3261 3 20.5979 3.52678 21.5355 4.46447C22.4732 5.40215 23 6.67392 23 8V16C23 17.3261 22.4732 18.5979 21.5355 19.5355C20.5979 20.4732 19.3261 21 18 21H6C4.67392 21 3.40215 20.4732 2.46447 19.5355C1.52678 18.5979 1 17.3261 1 16V8C1 6.67392 1.52678 5.40215 2.46447 4.46447Z" fill="#1A1A1A"/>
<path fill-rule="evenodd" clip-rule="evenodd" d="M9.5073 8.1298C9.82081 7.95229 10.2056 7.95715 10.5145 8.14251L15.5145 11.1425C15.8157 11.3232 16 11.6487 16 12C16 12.3513 15.8157 12.6768 15.5145 12.8575L10.5145 15.8575C10.2056 16.0429 9.82081 16.0477 9.5073 15.8702C9.19379 15.6927 9 15.3603 9 15V9C9 8.63973 9.19379 8.30731 9.5073 8.1298ZM11 10.7662V13.2338L13.0563 12L11 10.7662Z" fill="#808080"/>
</svg>
